<?xml version="1.0" encoding="utf-8"?>
<!-- Generator: Adobe Illustrator 16.0.0, SVG Export Plug-In . SVG Version: 6.00 Build 0)  -->
<!DOCTYPE svg PUBLIC "-//W3C//DTD SVG 1.1//EN" "http://www.w3.org/Graphics/SVG/1.1/DTD/svg11.dtd">
<svg version="1.1" id="Layer_1" xmlns="http://www.w3.org/2000/svg" xmlns:xlink="http://www.w3.org/1999/xlink" x="0px" y="0px"
	 width="255.12px" height="255.12px" viewBox="0 0 255.12 255.12" enable-background="new 0 0 255.12 255.12" xml:space="preserve">
<g>
	<path fill="#75AADB" d="M28.291,74.371v27.328h200V74.371c0-9.39-7.611-17-17-17h-166C35.902,57.371,28.291,64.981,28.291,74.371z"
		/>
	<path fill="#75AADB" d="M28.291,174.37c0,9.39,7.611,17,17,17h166c9.389,0,17-7.61,17-17v-27.328h-200V174.37z"/>
	<path fill="#FAFAFA" d="M28.291,147.042h200v-45.343h-200V147.042z M109.746,124.139l11.02-0.415
		c0.006-0.057,0.008-0.114,0.014-0.171c-1.656-0.585-2.791-0.031-4.908-1.115c-2.498-1.279-3.215-0.535-4.455-0.847
		c-1.242-0.313-1.674-1.112-1.455-1.306c0.217-0.192,0.477,0.572,1.41,0.644c0.936,0.071,2.613-0.596,4.65,0.472
		c1.66,0.869,3.238,0.436,5.027,0.818c0.012-0.044,0.023-0.088,0.037-0.132l-10.018-4.598c0,0-0.322-0.134-0.232-0.349
		c0.088-0.215,0.41-0.081,0.41-0.081l10.34,3.834c0.027-0.053,0.051-0.106,0.08-0.158c-1.305-1.176-2.568-1.091-4.111-2.904
		c-1.818-2.138-2.764-1.725-3.791-2.487s-1.119-1.666-0.846-1.762c0.275-0.096,0.223,0.71,1.059,1.134s2.643,0.45,4.117,2.216
		c1.199,1.438,2.824,1.642,4.33,2.68c0.027-0.035,0.059-0.069,0.088-0.104l-7.5-8.084c0,0-0.246-0.246-0.082-0.411
		c0.166-0.164,0.412,0.082,0.412,0.082l8.084,7.498c0.045-0.038,0.092-0.075,0.137-0.111c-0.756-1.589-1.955-1.992-2.688-4.26
		c-0.861-2.671-1.895-2.65-2.551-3.748c-0.658-1.1-0.396-1.969-0.107-1.952c0.293,0.018-0.066,0.742,0.543,1.453
		c0.611,0.712,2.271,1.427,2.957,3.621c0.557,1.788,1.979,2.597,2.973,4.131c0.039-0.021,0.082-0.038,0.123-0.06l-3.834-10.338
		c0,0-0.133-0.323,0.08-0.412c0.217-0.088,0.35,0.233,0.35,0.233l4.598,10.018c0.055-0.017,0.109-0.03,0.166-0.047
		c-0.094-1.753-1.041-2.592-0.85-4.964c0.229-2.798-0.734-3.173-0.922-4.44c-0.186-1.266,0.389-1.97,0.65-1.843
		c0.26,0.126-0.348,0.659-0.055,1.551c0.291,0.89,1.549,2.185,1.344,4.476c-0.168,1.866,0.834,3.157,1.166,4.955
		c0.045-0.005,0.092-0.004,0.137-0.008l0.416-11.02c0,0,0-0.349,0.23-0.349c0.232,0,0.232,0.349,0.232,0.349l0.416,11.02
		c0.057,0.005,0.114,0.007,0.17,0.013c0.586-1.653,0.033-2.791,1.117-4.909c1.277-2.498,0.535-3.213,0.846-4.455
		c0.312-1.241,1.111-1.671,1.305-1.454c0.193,0.218-0.572,0.477-0.643,1.411c-0.072,0.935,0.594,2.612-0.473,4.649
		c-0.869,1.661-0.436,3.239-0.818,5.027c0.045,0.014,0.09,0.024,0.133,0.038l4.598-10.018c0,0,0.133-0.321,0.348-0.233
		c0.215,0.089,0.082,0.412,0.082,0.412l-3.834,10.338c0.053,0.027,0.107,0.052,0.158,0.08c1.176-1.305,1.09-2.567,2.904-4.11
		c2.137-1.818,1.723-2.764,2.486-3.791s1.668-1.119,1.762-0.845c0.096,0.273-0.711,0.222-1.135,1.058s-0.447,2.642-2.215,4.115
		c-1.438,1.201-1.641,2.825-2.678,4.331c0.035,0.029,0.068,0.059,0.104,0.088l8.084-7.498c0,0,0.246-0.246,0.41-0.082
		c0.166,0.165-0.082,0.411-0.082,0.411l-7.498,8.084c0.039,0.045,0.076,0.091,0.113,0.137c1.588-0.756,1.99-1.956,4.258-2.688
		c2.672-0.862,2.652-1.895,3.75-2.551c1.098-0.659,1.967-0.397,1.951-0.107c-0.018,0.291-0.742-0.066-1.453,0.544
		s-1.428,2.269-3.623,2.954c-1.787,0.559-2.596,1.979-4.129,2.974c0.021,0.04,0.039,0.083,0.061,0.124l10.336-3.834
		c0,0,0.324-0.134,0.412,0.081s-0.232,0.349-0.232,0.349l-10.018,4.598c0.018,0.055,0.031,0.11,0.047,0.165
		c1.752-0.092,2.592-1.039,4.965-0.848c2.797,0.227,3.172-0.735,4.439-0.922c1.266-0.188,1.969,0.387,1.842,0.647
		c-0.125,0.262-0.658-0.345-1.551-0.054c-0.891,0.292-2.186,1.55-4.477,1.345c-1.865-0.168-3.156,0.835-4.953,1.167
		c0.004,0.045,0.004,0.091,0.008,0.136l11.018,0.415c0,0,0.352,0,0.352,0.232s-0.352,0.232-0.352,0.232l-11.018,0.414
		c-0.004,0.058-0.008,0.114-0.014,0.171c1.654,0.585,2.791,0.031,4.91,1.116c2.498,1.279,3.213,0.535,4.453,0.847
		c1.242,0.312,1.672,1.111,1.457,1.305c-0.219,0.193-0.479-0.571-1.412-0.644c-0.936-0.071-2.613,0.596-4.65-0.471
		c-1.66-0.87-3.238-0.437-5.027-0.818c-0.012,0.044-0.023,0.088-0.037,0.132l10.018,4.597c0,0,0.32,0.134,0.232,0.349
		c-0.088,0.216-0.412,0.081-0.412,0.081l-10.336-3.833c-0.027,0.053-0.053,0.106-0.082,0.158c1.307,1.175,2.568,1.09,4.111,2.903
		c1.816,2.139,2.764,1.724,3.791,2.487c1.029,0.764,1.119,1.666,0.844,1.762c-0.273,0.096-0.221-0.71-1.057-1.134
		s-2.643-0.449-4.115-2.215c-1.201-1.439-2.824-1.643-4.332-2.681c-0.027,0.036-0.057,0.07-0.088,0.105l7.498,8.083
		c0,0,0.248,0.247,0.082,0.411c-0.164,0.164-0.41-0.082-0.41-0.082l-8.084-7.497c-0.045,0.038-0.092,0.074-0.137,0.111
		c0.756,1.588,1.955,1.992,2.688,4.259c0.861,2.671,1.895,2.65,2.551,3.748c0.658,1.1,0.396,1.969,0.107,1.952
		c-0.291-0.018,0.066-0.742-0.545-1.453c-0.609-0.711-2.268-1.426-2.953-3.621c-0.559-1.788-1.98-2.597-2.975-4.131
		c-0.039,0.022-0.082,0.039-0.123,0.06l3.834,10.339c0,0,0.133,0.322-0.082,0.411s-0.348-0.233-0.348-0.233l-4.598-10.018
		c-0.055,0.018-0.111,0.03-0.166,0.047c0.092,1.753,1.041,2.592,0.848,4.965c-0.227,2.797,0.736,3.173,0.922,4.439
		c0.188,1.267-0.387,1.97-0.648,1.844c-0.26-0.127,0.346-0.66,0.055-1.551s-1.549-2.187-1.344-4.477
		c0.168-1.865-0.836-3.157-1.166-4.955c-0.047,0.005-0.092,0.005-0.137,0.008l-0.416,11.02c0,0,0,0.35-0.232,0.35
		c-0.23,0-0.23-0.35-0.23-0.35l-0.416-11.02c-0.057-0.005-0.113-0.007-0.17-0.013c-0.586,1.654-0.033,2.791-1.115,4.909
		c-1.281,2.498-0.535,3.213-0.848,4.455c-0.312,1.241-1.111,1.672-1.305,1.454c-0.193-0.217,0.57-0.477,0.643-1.411
		s-0.596-2.612,0.471-4.649c0.871-1.66,0.438-3.238,0.82-5.027c-0.045-0.013-0.09-0.024-0.133-0.038l-4.598,10.018
		c0,0-0.133,0.322-0.35,0.233c-0.213-0.089-0.08-0.411-0.08-0.411l3.834-10.339c-0.053-0.027-0.107-0.052-0.158-0.08
		c-1.176,1.306-1.09,2.568-2.904,4.11c-2.137,1.818-1.723,2.764-2.486,3.792c-0.764,1.027-1.666,1.119-1.764,0.845
		c-0.094-0.274,0.711-0.222,1.135-1.058s0.451-2.643,2.215-4.116c1.439-1.201,1.643-2.824,2.682-4.331
		c-0.035-0.028-0.07-0.058-0.105-0.087l-8.084,7.497c0,0-0.246,0.246-0.412,0.082c-0.164-0.164,0.082-0.411,0.082-0.411l7.5-8.084
		c-0.039-0.045-0.076-0.09-0.111-0.136c-1.59,0.756-1.992,1.956-4.26,2.688c-2.672,0.861-2.65,1.894-3.75,2.551
		c-1.098,0.657-1.969,0.397-1.951,0.106s0.742,0.067,1.453-0.543c0.713-0.61,1.426-2.27,3.623-2.955
		c1.787-0.559,2.596-1.979,4.129-2.974c-0.021-0.04-0.039-0.083-0.059-0.123l-10.34,3.833c0,0-0.322,0.135-0.41-0.081
		c-0.09-0.215,0.232-0.349,0.232-0.349l10.018-4.597c-0.018-0.055-0.029-0.11-0.047-0.166c-1.752,0.093-2.592,1.04-4.965,0.849
		c-2.797-0.227-3.172,0.734-4.438,0.921c-1.268,0.188-1.971-0.387-1.846-0.647c0.129-0.262,0.66,0.346,1.553,0.054
		c0.889-0.291,2.184-1.55,4.475-1.344c1.867,0.169,3.158-0.836,4.955-1.167c-0.004-0.045-0.004-0.091-0.008-0.136l-11.02-0.415
		c0,0-0.348,0-0.348-0.232S109.746,124.139,109.746,124.139z"/>
	<path fill="#FABE4B" d="M128.289,137.102l-0.189-5.184c-0.152-0.004-0.305-0.01-0.457-0.023l0.416,11.02c0,0,0,0.35,0.23,0.35
		c0.232,0,0.232-0.35,0.232-0.35l0.416-11.02c-0.152,0.014-0.305,0.02-0.459,0.023L128.289,137.102z"/>
	<path fill="#84381C" d="M128.478,131.918c-0.062,0.002-0.125,0.01-0.189,0.01c-0.062,0-0.125-0.008-0.189-0.01l0.189,5.184
		L128.478,131.918z"/>
	<path fill="#FABE4B" d="M125.763,136.789c0.982-1.739,0.42-3.148,0.848-5.056c-0.16-0.036-0.318-0.075-0.473-0.121
		c-0.383,1.789,0.051,3.367-0.82,5.027c-1.066,2.037-0.398,3.715-0.471,4.649s-0.836,1.194-0.643,1.411
		c0.193,0.218,0.992-0.213,1.305-1.454c0.312-1.242-0.434-1.957,0.848-4.455c1.082-2.118,0.529-3.255,1.115-4.909
		c-0.152-0.017-0.301-0.044-0.451-0.068C126.333,133.886,126.884,135.511,125.763,136.789z"/>
	<path fill="#84381C" d="M127.021,131.813c-0.139-0.023-0.275-0.049-0.41-0.08c-0.428,1.907,0.135,3.316-0.848,5.056
		C126.884,135.511,126.333,133.886,127.021,131.813z"/>
	<path fill="#FABE4B" d="M128.289,111.641l0.189,5.183c0.154,0.004,0.307,0.011,0.459,0.023l-0.416-11.02c0,0,0-0.349-0.232-0.349
		c-0.23,0-0.23,0.349-0.23,0.349l-0.416,11.02c0.152-0.013,0.305-0.02,0.457-0.023L128.289,111.641z"/>
	<path fill="#84381C" d="M128.099,116.823c0.064-0.001,0.127-0.01,0.189-0.01c0.064,0,0.127,0.009,0.189,0.01l-0.189-5.183
		L128.099,116.823z"/>
	<path fill="#FABE4B" d="M130.816,111.952c-0.982,1.741-0.42,3.149-0.846,5.056c0.158,0.036,0.316,0.075,0.471,0.121
		c0.383-1.788-0.051-3.366,0.818-5.027c1.066-2.037,0.4-3.715,0.473-4.649c0.07-0.935,0.836-1.193,0.643-1.411
		c-0.193-0.217-0.992,0.213-1.305,1.454c-0.311,1.242,0.432,1.957-0.846,4.455c-1.084,2.118-0.531,3.256-1.117,4.909
		c0.152,0.017,0.301,0.044,0.451,0.069C130.248,114.856,129.697,113.23,130.816,111.952z"/>
	<path fill="#84381C" d="M129.559,116.929c0.139,0.023,0.275,0.048,0.412,0.079c0.426-1.906-0.137-3.314,0.846-5.056
		C129.697,113.23,130.248,114.856,129.559,116.929z"/>
	<path fill="#FABE4B" d="M109.746,124.604l11.02,0.415c-0.014-0.151-0.02-0.305-0.023-0.458l-5.184-0.189l5.184-0.189
		c0.004-0.153,0.01-0.307,0.023-0.458l-11.02,0.415c0,0-0.348,0-0.348,0.232S109.746,124.604,109.746,124.604z"/>
	<path fill="#84381C" d="M120.742,124.182l-5.184,0.189l5.184,0.189c-0.002-0.063-0.01-0.126-0.01-0.189
		C120.732,124.307,120.74,124.245,120.742,124.182z"/>
	<path fill="#FABE4B" d="M115.871,121.845c1.74,0.982,3.148,0.42,5.057,0.847c0.035-0.159,0.074-0.317,0.121-0.473
		c-1.789-0.383-3.367,0.051-5.027-0.818c-2.037-1.067-3.715-0.4-4.65-0.472c-0.934-0.071-1.193-0.836-1.41-0.644
		c-0.219,0.193,0.213,0.992,1.455,1.306c1.24,0.312,1.957-0.433,4.455,0.847c2.117,1.084,3.252,0.53,4.908,1.115
		c0.016-0.151,0.043-0.301,0.068-0.45C118.775,122.414,117.15,122.965,115.871,121.845z"/>
	<path fill="#84381C" d="M120.847,123.103c0.023-0.138,0.049-0.275,0.08-0.411c-1.908-0.427-3.316,0.136-5.057-0.847
		C117.15,122.965,118.775,122.414,120.847,123.103z"/>
	<path fill="#FABE4B" d="M141.021,124.371l-5.184,0.189c-0.004,0.153-0.01,0.307-0.023,0.457l11.018-0.414c0,0,0.352,0,0.352-0.232
		s-0.352-0.232-0.352-0.232l-11.018-0.415c0.014,0.151,0.02,0.305,0.023,0.458L141.021,124.371z"/>
	<path fill="#84381C" d="M135.838,124.182c0.002,0.063,0.01,0.125,0.01,0.189c0,0.063-0.008,0.126-0.01,0.189l5.184-0.189
		L135.838,124.182z"/>
	<path fill="#FABE4B" d="M140.709,126.897c-1.74-0.983-3.148-0.42-5.055-0.847c-0.037,0.159-0.076,0.317-0.123,0.473
		c1.789,0.382,3.367-0.052,5.027,0.818c2.037,1.066,3.715,0.399,4.65,0.471c0.934,0.072,1.193,0.837,1.412,0.644
		c0.215-0.193-0.215-0.992-1.457-1.305c-1.24-0.312-1.955,0.433-4.453-0.847c-2.119-1.085-3.256-0.531-4.91-1.116
		c-0.016,0.152-0.043,0.301-0.068,0.45C137.805,126.327,139.432,125.776,140.709,126.897z"/>
	<path fill="#84381C" d="M135.732,125.639c-0.023,0.139-0.049,0.276-0.078,0.412c1.906,0.427,3.314-0.137,5.055,0.847
		C139.432,125.776,137.805,126.327,135.732,125.639z"/>
	<path fill="#FABE4B" d="M119.287,133.372l3.531-3.799c-0.105-0.11-0.209-0.222-0.307-0.339l-7.5,8.084c0,0-0.246,0.247-0.082,0.411
		c0.166,0.164,0.412-0.082,0.412-0.082l8.084-7.497c-0.117-0.099-0.229-0.203-0.34-0.309L119.287,133.372z"/>
	<path fill="#84381C" d="M123.085,129.842c-0.09-0.087-0.18-0.177-0.268-0.269l-3.531,3.799L123.085,129.842z"/>
	<path fill="#FABE4B" d="M117.722,131.365c1.926-0.535,2.523-1.931,4.176-2.977c-0.088-0.138-0.176-0.273-0.254-0.417
		c-1.533,0.994-2.342,2.415-4.129,2.974c-2.197,0.686-2.91,2.345-3.623,2.955c-0.711,0.61-1.436,0.252-1.453,0.543
		s0.854,0.551,1.951-0.106c1.1-0.657,1.078-1.689,3.75-2.551c2.268-0.731,2.67-1.932,4.26-2.688
		c-0.096-0.117-0.184-0.238-0.271-0.361C120.177,129.716,119.417,131.254,117.722,131.365z"/>
	<path fill="#84381C" d="M122.128,128.737c-0.08-0.114-0.156-0.23-0.23-0.349c-1.652,1.046-2.25,2.441-4.176,2.977
		C119.417,131.254,120.177,129.716,122.128,128.737z"/>
	<path fill="#FABE4B" d="M137.291,115.369l-3.529,3.799c0.105,0.11,0.209,0.222,0.307,0.339l7.498-8.084
		c0,0,0.248-0.246,0.082-0.411c-0.164-0.164-0.41,0.082-0.41,0.082l-8.084,7.498c0.117,0.099,0.229,0.202,0.338,0.308
		L137.291,115.369z"/>
	<path fill="#84381C" d="M133.492,118.899c0.092,0.087,0.182,0.177,0.27,0.269l3.529-3.799L133.492,118.899z"/>
	<path fill="#FABE4B" d="M138.857,117.376c-1.926,0.535-2.523,1.931-4.176,2.978c0.088,0.137,0.176,0.273,0.254,0.416
		c1.533-0.994,2.342-2.415,4.129-2.974c2.195-0.686,2.912-2.344,3.623-2.954s1.436-0.253,1.453-0.544
		c0.016-0.29-0.854-0.552-1.951,0.107c-1.098,0.656-1.078,1.688-3.75,2.551c-2.268,0.731-2.67,1.932-4.258,2.688
		c0.094,0.117,0.182,0.238,0.27,0.36C136.402,119.025,137.162,117.487,138.857,117.376z"/>
	<path fill="#84381C" d="M134.451,120.004c0.08,0.114,0.156,0.23,0.23,0.35c1.652-1.047,2.25-2.442,4.176-2.978
		C137.162,117.487,136.402,119.025,134.451,120.004z"/>
	<path fill="#FABE4B" d="M119.287,115.369l3.799,3.53c0.111-0.104,0.223-0.209,0.34-0.308l-8.084-7.498c0,0-0.246-0.246-0.412-0.082
		c-0.164,0.165,0.082,0.411,0.082,0.411l7.5,8.084c0.098-0.117,0.201-0.229,0.307-0.339L119.287,115.369z"/>
	<path fill="#84381C" d="M122.818,119.168c0.088-0.092,0.176-0.181,0.268-0.269l-3.799-3.53L122.818,119.168z"/>
	<path fill="#FABE4B" d="M121.294,113.803c0.537,1.927,1.93,2.524,2.977,4.176c0.139-0.087,0.273-0.175,0.418-0.253
		c-0.994-1.534-2.416-2.343-2.973-4.131c-0.686-2.194-2.346-2.909-2.957-3.621c-0.609-0.711-0.25-1.436-0.543-1.453
		c-0.289-0.017-0.551,0.853,0.107,1.952c0.656,1.098,1.689,1.077,2.551,3.748c0.732,2.268,1.932,2.671,2.688,4.26
		c0.117-0.095,0.238-0.183,0.361-0.27C122.945,116.259,121.406,115.499,121.294,113.803z"/>
	<path fill="#84381C" d="M123.923,118.211c0.113-0.081,0.23-0.157,0.348-0.232c-1.047-1.651-2.439-2.249-2.977-4.176
		C121.406,115.499,122.945,116.259,123.923,118.211z"/>
	<path fill="#FABE4B" d="M137.291,133.372l-3.799-3.53c-0.109,0.105-0.221,0.21-0.338,0.309l8.084,7.497c0,0,0.246,0.246,0.41,0.082
		c0.166-0.164-0.082-0.411-0.082-0.411l-7.498-8.083c-0.098,0.116-0.201,0.229-0.307,0.339L137.291,133.372z"/>
	<path fill="#84381C" d="M133.762,129.574c-0.088,0.092-0.178,0.181-0.27,0.268l3.799,3.53L133.762,129.574z"/>
	<path fill="#FABE4B" d="M135.285,134.938c-0.535-1.927-1.932-2.524-2.977-4.176c-0.139,0.087-0.273,0.176-0.418,0.253
		c0.994,1.534,2.416,2.343,2.975,4.131c0.686,2.195,2.344,2.91,2.953,3.621c0.611,0.711,0.254,1.436,0.545,1.453
		c0.289,0.017,0.551-0.853-0.107-1.952c-0.656-1.098-1.689-1.077-2.551-3.748c-0.732-2.267-1.932-2.671-2.688-4.259
		c-0.117,0.094-0.238,0.183-0.361,0.27C133.637,132.483,135.174,133.243,135.285,134.938z"/>
	<path fill="#84381C" d="M132.656,130.531c-0.113,0.081-0.23,0.157-0.348,0.231c1.045,1.651,2.441,2.249,2.977,4.176
		C135.174,133.243,133.637,132.483,132.656,130.531z"/>
	<path fill="#FABE4B" d="M123.417,136.132l1.809-4.857c-0.141-0.062-0.279-0.129-0.414-0.199l-3.834,10.339
		c0,0-0.133,0.322,0.08,0.411c0.217,0.089,0.35-0.233,0.35-0.233l4.598-10.018c-0.146-0.046-0.287-0.103-0.43-0.157L123.417,136.132
		z"/>
	<path fill="#84381C" d="M125.576,131.417c-0.119-0.046-0.236-0.091-0.35-0.143l-1.809,4.857L125.576,131.417z"/>
	<path fill="#FABE4B" d="M121.203,134.877c1.574-1.231,1.594-2.748,2.719-4.348c-0.133-0.094-0.266-0.189-0.391-0.292
		c-1.039,1.507-1.242,3.13-2.682,4.331c-1.764,1.474-1.791,3.28-2.215,4.116s-1.229,0.783-1.135,1.058
		c0.098,0.274,1,0.183,1.764-0.845c0.764-1.028,0.35-1.974,2.486-3.792c1.814-1.542,1.729-2.805,2.904-4.11
		c-0.131-0.072-0.258-0.153-0.385-0.233C122.841,132.413,122.728,134.125,121.203,134.877z"/>
	<path fill="#84381C" d="M121.203,134.877c1.525-0.752,1.639-2.464,3.066-4.115c-0.117-0.075-0.234-0.151-0.348-0.232
		C122.796,132.129,122.777,133.646,121.203,134.877z"/>
	<path fill="#FABE4B" d="M133.162,112.609l-1.807,4.857c0.139,0.062,0.277,0.129,0.412,0.199l3.834-10.338
		c0,0,0.133-0.323-0.082-0.412c-0.215-0.088-0.348,0.233-0.348,0.233l-4.598,10.018c0.146,0.046,0.287,0.103,0.43,0.157
		L133.162,112.609z"/>
	<path fill="#84381C" d="M131.004,117.324c0.119,0.046,0.236,0.092,0.352,0.143l1.807-4.857L131.004,117.324z"/>
	<path fill="#FABE4B" d="M135.377,113.865c-1.574,1.23-1.594,2.748-2.719,4.347c0.133,0.094,0.266,0.189,0.393,0.292
		c1.037-1.506,1.24-3.13,2.678-4.331c1.768-1.474,1.791-3.279,2.215-4.115s1.23-0.784,1.135-1.058
		c-0.094-0.274-0.998-0.183-1.762,0.845s-0.35,1.973-2.486,3.791c-1.814,1.543-1.729,2.806-2.904,4.11
		c0.131,0.072,0.258,0.153,0.385,0.233C133.74,116.328,133.854,114.616,135.377,113.865z"/>
	<path fill="#84381C" d="M135.377,113.865c-1.523,0.751-1.637,2.463-3.066,4.114c0.117,0.075,0.234,0.151,0.348,0.232
		C133.783,116.613,133.803,115.096,135.377,113.865z"/>
	<path fill="#FABE4B" d="M116.529,119.499l4.857,1.808c0.062-0.14,0.129-0.277,0.199-0.413l-10.34-3.834c0,0-0.322-0.134-0.41,0.081
		c-0.09,0.215,0.232,0.349,0.232,0.349l10.018,4.598c0.047-0.146,0.104-0.287,0.158-0.43L116.529,119.499z"/>
	<path fill="#84381C" d="M121.244,121.657c0.045-0.118,0.092-0.235,0.143-0.351l-4.857-1.808L121.244,121.657z"/>
	<path fill="#FABE4B" d="M117.783,117.284c1.232,1.574,2.75,1.594,4.348,2.718c0.096-0.133,0.189-0.265,0.293-0.391
		c-1.506-1.038-3.131-1.241-4.33-2.68c-1.475-1.766-3.281-1.792-4.117-2.216s-0.783-1.229-1.059-1.134
		c-0.273,0.096-0.182,0.999,0.846,1.762s1.973,0.35,3.791,2.487c1.543,1.813,2.807,1.729,4.111,2.904
		c0.072-0.132,0.152-0.258,0.232-0.385C120.248,118.922,118.535,118.809,117.783,117.284z"/>
	<path fill="#84381C" d="M117.783,117.284c0.752,1.524,2.465,1.638,4.115,3.066c0.076-0.118,0.152-0.235,0.232-0.349
		C120.533,118.878,119.015,118.858,117.783,117.284z"/>
	<path fill="#FABE4B" d="M140.051,129.242l-4.857-1.807c-0.061,0.14-0.127,0.277-0.197,0.413l10.336,3.833
		c0,0,0.324,0.135,0.412-0.081c0.088-0.215-0.232-0.349-0.232-0.349l-10.018-4.597c-0.047,0.146-0.104,0.287-0.158,0.43
		L140.051,129.242z"/>
	<path fill="#84381C" d="M135.336,127.085c-0.045,0.118-0.09,0.235-0.143,0.351l4.857,1.807L135.336,127.085z"/>
	<path fill="#FABE4B" d="M138.797,131.457c-1.232-1.574-2.75-1.593-4.348-2.718c-0.094,0.133-0.189,0.265-0.293,0.391
		c1.508,1.038,3.131,1.241,4.332,2.681c1.473,1.766,3.279,1.791,4.115,2.215s0.783,1.229,1.057,1.134
		c0.275-0.096,0.186-0.998-0.844-1.762c-1.027-0.764-1.975-0.349-3.791-2.487c-1.543-1.813-2.805-1.729-4.111-2.903
		c-0.072,0.132-0.152,0.258-0.232,0.384C136.332,129.82,138.043,129.934,138.797,131.457z"/>
	<path fill="#84381C" d="M138.797,131.457c-0.754-1.523-2.465-1.637-4.115-3.066c-0.074,0.119-0.152,0.235-0.232,0.349
		C136.047,129.864,137.564,129.883,138.797,131.457z"/>
	<path fill="#FABE4B" d="M116.529,129.242l4.715-2.157c-0.055-0.143-0.111-0.284-0.158-0.43l-10.018,4.597
		c0,0-0.322,0.134-0.232,0.349c0.088,0.216,0.41,0.081,0.41,0.081l10.34-3.833c-0.07-0.136-0.137-0.273-0.199-0.413L116.529,129.242
		z"/>
	<path fill="#84381C" d="M121.386,127.436c-0.051-0.115-0.098-0.233-0.143-0.351l-4.715,2.157L121.386,127.436z"/>
	<path fill="#FABE4B" d="M115.849,126.788c1.984,0.243,3.07-0.816,4.998-1.152c-0.027-0.159-0.057-0.318-0.074-0.481
		c-1.797,0.331-3.088,1.336-4.955,1.167c-2.291-0.206-3.586,1.053-4.475,1.344c-0.893,0.292-1.424-0.315-1.553-0.054
		c-0.125,0.261,0.578,0.835,1.846,0.647c1.266-0.187,1.641-1.147,4.438-0.921c2.373,0.191,3.213-0.756,4.965-0.849
		c-0.041-0.146-0.078-0.293-0.113-0.441C118.75,126.205,117.458,127.335,115.849,126.788z"/>
	<path fill="#84381C" d="M115.849,126.788c1.609,0.547,2.9-0.583,5.076-0.74c-0.031-0.136-0.055-0.273-0.078-0.412
		C118.919,125.972,117.833,127.031,115.849,126.788z"/>
	<path fill="#FABE4B" d="M140.051,119.499l-4.715,2.158c0.055,0.142,0.111,0.283,0.158,0.43l10.018-4.598
		c0,0,0.32-0.134,0.232-0.349s-0.412-0.081-0.412-0.081l-10.336,3.834c0.07,0.135,0.137,0.272,0.197,0.413L140.051,119.499z"/>
	<path fill="#84381C" d="M135.193,121.307c0.053,0.115,0.098,0.232,0.143,0.351l4.715-2.158L135.193,121.307z"/>
	<path fill="#FABE4B" d="M140.73,121.952c-1.984-0.242-3.07,0.817-4.998,1.153c0.027,0.16,0.057,0.319,0.074,0.482
		c1.797-0.332,3.088-1.335,4.953-1.167c2.291,0.205,3.586-1.053,4.477-1.345c0.893-0.291,1.426,0.315,1.551,0.054
		c0.127-0.261-0.576-0.835-1.842-0.647c-1.268,0.187-1.643,1.148-4.439,0.922c-2.373-0.191-3.213,0.756-4.965,0.848
		c0.043,0.146,0.08,0.293,0.113,0.442C137.83,122.537,139.121,121.407,140.73,121.952z"/>
	<path fill="#84381C" d="M140.73,121.952c-1.609-0.545-2.9,0.585-5.076,0.742c0.031,0.136,0.055,0.272,0.078,0.411
		C137.66,122.77,138.746,121.71,140.73,121.952z"/>
	<path fill="#FABE4B" d="M123.417,112.609l2.158,4.715c0.143-0.055,0.283-0.11,0.43-0.157l-4.598-10.018c0,0-0.133-0.321-0.35-0.233
		c-0.213,0.089-0.08,0.412-0.08,0.412l3.834,10.338c0.135-0.07,0.273-0.137,0.412-0.199L123.417,112.609z"/>
	<path fill="#84381C" d="M125.224,117.467c0.115-0.051,0.232-0.097,0.352-0.143l-2.158-4.715L125.224,117.467z"/>
	<path fill="#FABE4B" d="M125.873,111.931c-0.244,1.984,0.816,3.07,1.152,4.997c0.158-0.026,0.318-0.057,0.48-0.073
		c-0.332-1.798-1.334-3.089-1.166-4.955c0.205-2.291-1.053-3.586-1.344-4.476c-0.293-0.892,0.314-1.425,0.055-1.551
		c-0.262-0.127-0.836,0.577-0.65,1.843c0.188,1.268,1.15,1.643,0.922,4.44c-0.191,2.372,0.756,3.211,0.85,4.964
		c0.145-0.042,0.293-0.079,0.441-0.113C126.455,114.83,125.326,113.54,125.873,111.931z"/>
	<path fill="#84381C" d="M125.873,111.931c-0.547,1.609,0.582,2.899,0.74,5.076c0.135-0.03,0.273-0.056,0.412-0.079
		C126.689,115.001,125.628,113.915,125.873,111.931z"/>
	<path fill="#FABE4B" d="M133.162,136.132l-2.158-4.715c-0.143,0.055-0.283,0.111-0.43,0.157l4.598,10.018
		c0,0,0.133,0.322,0.348,0.233s0.082-0.411,0.082-0.411l-3.834-10.339c-0.135,0.07-0.273,0.137-0.412,0.199L133.162,136.132z"/>
	<path fill="#84381C" d="M131.355,131.274c-0.115,0.052-0.232,0.097-0.352,0.143l2.158,4.715L131.355,131.274z"/>
	<path fill="#FABE4B" d="M130.707,136.811c0.244-1.984-0.816-3.07-1.15-4.997c-0.16,0.027-0.32,0.057-0.482,0.073
		c0.33,1.798,1.334,3.09,1.166,4.955c-0.205,2.29,1.053,3.586,1.344,4.477s-0.314,1.424-0.055,1.551
		c0.262,0.126,0.836-0.577,0.648-1.844c-0.186-1.267-1.148-1.643-0.922-4.439c0.193-2.373-0.756-3.212-0.848-4.965
		c-0.145,0.042-0.293,0.08-0.441,0.113C130.125,133.911,131.254,135.202,130.707,136.811z"/>
	<path fill="#84381C" d="M130.707,136.811c0.547-1.608-0.582-2.899-0.74-5.076c-0.137,0.031-0.273,0.056-0.41,0.079
		C129.891,133.74,130.951,134.826,130.707,136.811z"/>
	<path fill="#FABE4B" d="M120.732,124.371c0,0.063,0.008,0.126,0.01,0.189c0.004,0.153,0.01,0.307,0.023,0.458
		c0.004,0.045,0.004,0.091,0.008,0.136c0.018,0.163,0.047,0.322,0.074,0.481c0.023,0.139,0.047,0.276,0.078,0.412
		c0.035,0.148,0.072,0.296,0.113,0.441c0.018,0.056,0.029,0.111,0.047,0.166c0.047,0.146,0.104,0.287,0.158,0.43
		c0.045,0.117,0.092,0.235,0.143,0.351c0.062,0.14,0.129,0.277,0.199,0.413c0.02,0.04,0.037,0.083,0.059,0.123
		c0.078,0.144,0.166,0.279,0.254,0.417c0.074,0.118,0.15,0.234,0.23,0.349c0.088,0.123,0.176,0.244,0.271,0.361
		c0.035,0.046,0.072,0.091,0.111,0.136c0.098,0.117,0.201,0.229,0.307,0.339c0.088,0.092,0.178,0.182,0.268,0.269
		c0.111,0.105,0.223,0.21,0.34,0.309c0.035,0.029,0.07,0.059,0.105,0.087c0.125,0.103,0.258,0.198,0.391,0.292
		c0.113,0.081,0.23,0.157,0.348,0.232c0.127,0.08,0.254,0.161,0.385,0.233c0.051,0.028,0.105,0.053,0.158,0.08
		c0.135,0.07,0.273,0.137,0.414,0.199c0.113,0.052,0.23,0.097,0.35,0.143c0.143,0.055,0.283,0.111,0.43,0.157
		c0.043,0.014,0.088,0.025,0.133,0.038c0.154,0.046,0.312,0.085,0.473,0.121c0.135,0.031,0.271,0.057,0.41,0.08
		c0.15,0.024,0.299,0.052,0.451,0.068c0.057,0.006,0.113,0.008,0.17,0.013c0.152,0.014,0.305,0.02,0.457,0.023
		c0.064,0.002,0.127,0.01,0.189,0.01c0.064,0,0.127-0.008,0.189-0.01c0.154-0.004,0.307-0.01,0.459-0.023
		c0.045-0.003,0.09-0.003,0.137-0.008c0.162-0.017,0.322-0.046,0.482-0.073c0.137-0.023,0.273-0.048,0.41-0.079
		c0.148-0.033,0.297-0.071,0.441-0.113c0.055-0.017,0.111-0.029,0.166-0.047c0.146-0.046,0.287-0.103,0.43-0.157
		c0.119-0.046,0.236-0.091,0.352-0.143c0.139-0.062,0.277-0.129,0.412-0.199c0.041-0.021,0.084-0.037,0.123-0.06
		c0.145-0.077,0.279-0.166,0.418-0.253c0.117-0.074,0.234-0.15,0.348-0.231c0.123-0.087,0.244-0.176,0.361-0.27
		c0.045-0.037,0.092-0.073,0.137-0.111c0.117-0.099,0.229-0.203,0.338-0.309c0.092-0.087,0.182-0.176,0.27-0.268
		c0.105-0.11,0.209-0.223,0.307-0.339c0.031-0.035,0.061-0.069,0.088-0.105c0.104-0.126,0.199-0.258,0.293-0.391
		c0.08-0.113,0.158-0.229,0.232-0.349c0.08-0.126,0.16-0.252,0.232-0.384c0.029-0.052,0.055-0.105,0.082-0.158
		c0.07-0.136,0.137-0.273,0.197-0.413c0.053-0.115,0.098-0.232,0.143-0.351c0.055-0.143,0.111-0.284,0.158-0.43
		c0.014-0.044,0.025-0.088,0.037-0.132c0.047-0.155,0.086-0.313,0.123-0.473c0.029-0.136,0.055-0.273,0.078-0.412
		c0.025-0.149,0.053-0.298,0.068-0.45c0.006-0.057,0.01-0.113,0.014-0.171c0.014-0.15,0.02-0.304,0.023-0.457
		c0.002-0.063,0.01-0.126,0.01-0.189c0-0.064-0.008-0.126-0.01-0.189c-0.004-0.153-0.01-0.307-0.023-0.458
		c-0.004-0.045-0.004-0.091-0.008-0.136c-0.018-0.163-0.047-0.322-0.074-0.482c-0.023-0.139-0.047-0.275-0.078-0.411
		c-0.033-0.149-0.07-0.297-0.113-0.442c-0.016-0.055-0.029-0.11-0.047-0.165c-0.047-0.146-0.104-0.288-0.158-0.43
		c-0.045-0.118-0.09-0.235-0.143-0.351c-0.061-0.141-0.127-0.278-0.197-0.413c-0.021-0.041-0.039-0.084-0.061-0.124
		c-0.078-0.143-0.166-0.279-0.254-0.416c-0.074-0.119-0.15-0.235-0.23-0.35c-0.088-0.122-0.176-0.243-0.27-0.36
		c-0.037-0.046-0.074-0.092-0.113-0.137c-0.098-0.117-0.201-0.229-0.307-0.339c-0.088-0.092-0.178-0.182-0.27-0.269
		c-0.109-0.105-0.221-0.209-0.338-0.308c-0.035-0.029-0.068-0.059-0.104-0.088c-0.127-0.103-0.26-0.198-0.393-0.292
		c-0.113-0.081-0.23-0.157-0.348-0.232c-0.127-0.08-0.254-0.161-0.385-0.233c-0.051-0.028-0.105-0.053-0.158-0.08
		c-0.135-0.07-0.273-0.137-0.412-0.199c-0.115-0.051-0.232-0.097-0.352-0.143c-0.143-0.055-0.283-0.111-0.43-0.157
		c-0.043-0.014-0.088-0.024-0.133-0.038c-0.154-0.046-0.312-0.085-0.471-0.121c-0.137-0.031-0.273-0.056-0.412-0.079
		c-0.15-0.025-0.299-0.053-0.451-0.069c-0.057-0.006-0.114-0.008-0.17-0.013c-0.152-0.013-0.305-0.02-0.459-0.023
		c-0.062-0.001-0.125-0.01-0.189-0.01c-0.062,0-0.125,0.009-0.189,0.01c-0.152,0.004-0.305,0.011-0.457,0.023
		c-0.045,0.004-0.092,0.003-0.137,0.008c-0.162,0.017-0.322,0.047-0.48,0.073c-0.139,0.023-0.277,0.049-0.412,0.079
		c-0.148,0.034-0.297,0.071-0.441,0.113c-0.057,0.017-0.111,0.03-0.166,0.047c-0.146,0.047-0.287,0.103-0.43,0.157
		c-0.119,0.046-0.236,0.092-0.352,0.143c-0.139,0.062-0.277,0.129-0.412,0.199c-0.041,0.021-0.084,0.038-0.123,0.06
		c-0.145,0.078-0.279,0.166-0.418,0.253c-0.117,0.075-0.234,0.151-0.348,0.232c-0.123,0.087-0.244,0.175-0.361,0.27
		c-0.045,0.036-0.092,0.073-0.137,0.111c-0.117,0.099-0.229,0.203-0.34,0.308c-0.092,0.088-0.18,0.177-0.268,0.269
		c-0.105,0.11-0.209,0.222-0.307,0.339c-0.029,0.035-0.061,0.069-0.088,0.104c-0.104,0.126-0.197,0.258-0.293,0.391
		c-0.08,0.113-0.156,0.23-0.232,0.349c-0.08,0.127-0.16,0.253-0.232,0.385c-0.029,0.052-0.053,0.105-0.08,0.158
		c-0.07,0.136-0.137,0.273-0.199,0.413c-0.051,0.115-0.098,0.232-0.143,0.351c-0.055,0.143-0.111,0.283-0.158,0.43
		c-0.014,0.044-0.025,0.088-0.037,0.132c-0.047,0.155-0.086,0.313-0.121,0.473c-0.031,0.136-0.057,0.273-0.08,0.411
		c-0.025,0.149-0.053,0.299-0.068,0.45c-0.006,0.057-0.008,0.114-0.014,0.171c-0.014,0.151-0.02,0.305-0.023,0.458
		C120.74,124.245,120.732,124.307,120.732,124.371z M123.873,123.383c-0.117-0.059,0.58-0.988,1.742-0.988
		c0.758,0,0.932,0.175,1.281,0.464c0.348,0.292,0.521,0.233,0.58,0.292c0.059,0.058,0,0.232-0.117,0.174
		c-0.115-0.058-0.348-0.174-0.697-0.466c-0.348-0.289-0.697-0.289-1.047-0.289C124.57,122.569,123.988,123.44,123.873,123.383z
		 M127.011,123.44c-0.295,0.264-0.766,0.409-1.273,0.406c-0.002,0-0.004,0.001-0.006,0.001c-0.006,0-0.01-0.003-0.016-0.003
		c-0.49-0.007-1.012-0.15-1.439-0.462C125.035,122.569,126.429,122.512,127.011,123.44z M124.22,123.674
		c1.162,0.465,1.859,0.465,2.326,0.232c0.465-0.232,0.582-0.35,0.697-0.35s0.115,0.117-0.465,0.466
		C126.197,124.371,125.208,124.429,124.22,123.674z M128.289,128.673c0.578,0,1.047,0.468,1.047,1.046
		c-0.031-0.129-0.09-0.241-0.16-0.345c-0.018-0.028-0.039-0.056-0.061-0.082c-0.064-0.078-0.139-0.146-0.221-0.203
		c-0.02-0.014-0.037-0.031-0.059-0.044c-0.102-0.061-0.213-0.101-0.332-0.125c-0.072-0.015-0.143-0.008-0.213-0.008
		c-0.072,0-0.143-0.007-0.215,0.008c-0.119,0.024-0.23,0.064-0.332,0.125c-0.021,0.013-0.039,0.03-0.059,0.044
		c-0.084,0.057-0.156,0.125-0.221,0.204c-0.021,0.025-0.043,0.052-0.062,0.08c-0.068,0.104-0.129,0.217-0.158,0.346
		C127.244,129.141,127.71,128.673,128.289,128.673c-1.277,0-0.695-0.698-1.916-0.814c0.523-0.349,0.756-0.872,1.336-0.872
		c0.115,0,0.35,0.059,0.58,0.175c0.232-0.116,0.465-0.175,0.582-0.175c0.583,0,0.815,0.523,1.338,0.872
		C128.986,127.975,129.568,128.673,128.289,128.673z M129.803,124.022c-0.582-0.349-0.582-0.466-0.467-0.466
		c0.117,0,0.232,0.117,0.699,0.35c0.463,0.232,1.162,0.232,2.324-0.232C131.371,124.429,130.383,124.371,129.803,124.022z
		 M129.568,123.44c0.582-0.929,1.977-0.871,2.732-0.058c-0.426,0.312-0.947,0.455-1.438,0.462c-0.006,0-0.01,0.003-0.016,0.003
		c-0.002,0-0.004-0.001-0.006-0.001C130.334,123.85,129.863,123.705,129.568,123.44z M132.707,123.383
		c-0.115,0.058-0.695-0.813-1.742-0.813c-0.35,0-0.699,0-1.047,0.289c-0.35,0.292-0.582,0.408-0.697,0.466
		c-0.117,0.059-0.176-0.116-0.117-0.174c0.059-0.059,0.232,0,0.582-0.292c0.35-0.289,0.523-0.464,1.279-0.464
		C132.127,122.395,132.822,123.324,132.707,123.383z M128.753,122.162c1.282-1.047,3.026-1.162,4.303,0.58
		c-1.338-1.161-3.021-1.336-3.953-0.464c-0.676,0.903-0.614,1.965,0.176,3.081c-0.059,0-0.176,0.058-0.234,0.115
		C128.458,124.358,128.357,123.209,128.753,122.162z M128.289,126.231c0.465,0,0.697-0.35,0.756-0.466
		c0.008,0.141,0.1,0.262,0.232,0.309c0.182,0.064,0.381-0.03,0.445-0.211c0.064-0.183-0.029-0.381-0.213-0.446
		c0.137,0.025,0.258,0.103,0.336,0.216c0.166,0.237,0.107,0.562-0.129,0.729c-0.238,0.165-0.564,0.106-0.731-0.13
		c-0.232,0.174-0.58,0.174-0.697,0.174c-0.115,0-0.465,0-0.695-0.174c-0.166,0.236-0.492,0.295-0.729,0.13
		c-0.238-0.166-0.297-0.491-0.131-0.729c0.08-0.113,0.199-0.19,0.334-0.216c-0.182,0.065-0.275,0.264-0.211,0.446
		c0.064,0.181,0.264,0.275,0.445,0.211c0.133-0.047,0.223-0.168,0.232-0.309C127.593,125.882,127.824,126.231,128.289,126.231z
		 M127.824,122.162c0.396,1.047,0.297,2.196-0.289,3.312c-0.059-0.058-0.176-0.115-0.234-0.115c0.791-1.116,0.85-2.178,0.176-3.081
		c-0.93-0.872-2.617-0.697-3.953,0.464C124.802,121,126.546,121.115,127.824,122.162z"/>
	<path fill="#FABE4B" d="M128.289,127.335c-0.23,0-0.58-0.29-0.988-0.058c-0.404,0.232-0.639,0.465-0.928,0.581
		c0.072-0.006,0.121-0.001,0.184-0.002c1.152-0.345,1.387-0.114,1.732-0.114c0.348,0,0.582-0.23,1.735,0.114
		c0.062,0.001,0.113-0.004,0.186,0.002c-0.291-0.116-0.523-0.349-0.93-0.581C128.871,127.045,128.521,127.335,128.289,127.335z"/>
	<path fill="#FABE4B" d="M125.208,123.324c0-0.178,0.094-0.327,0.23-0.421c-0.383,0.06-0.701,0.237-0.754,0.421
		c0.223,0.245,0.498,0.387,0.783,0.442C125.316,123.676,125.208,123.516,125.208,123.324z"/>
	<path fill="#FABE4B" d="M125.976,123.779c0.293-0.04,0.574-0.156,0.803-0.339c-0.18-0.285-0.436-0.434-0.707-0.506
		c0.109,0.096,0.184,0.232,0.184,0.39C126.255,123.523,126.14,123.691,125.976,123.779z"/>
	<path fill="#FABE4B" d="M131.141,122.903c0.137,0.094,0.23,0.243,0.23,0.421c0,0.191-0.107,0.352-0.26,0.442
		c0.285-0.056,0.561-0.197,0.783-0.442C131.842,123.141,131.523,122.963,131.141,122.903z"/>
	<path fill="#FABE4B" d="M130.324,123.324c0-0.157,0.072-0.294,0.184-0.39c-0.271,0.072-0.527,0.222-0.705,0.506
		c0.227,0.183,0.508,0.299,0.801,0.339C130.439,123.691,130.324,123.523,130.324,123.324z"/>
	<path fill="#FABE4B" d="M128.289,127.975c-0.463,0-0.695-0.344-1.727-0.118c1.029-0.02,0.742,0.642,1.727,0.642
		c0.987,0,0.701-0.66,1.729-0.642C128.986,127.631,128.751,127.975,128.289,127.975z"/>
	<path fill="#84381C" d="M129.279,125.359c-0.79-1.116-0.852-2.178-0.176-3.081c0.932-0.872,2.615-0.697,3.953,0.464
		c-1.277-1.742-3.021-1.627-4.303-0.58c-0.396,1.047-0.295,2.196,0.292,3.312C129.104,125.417,129.221,125.359,129.279,125.359z"/>
	<path fill="#84381C" d="M130.965,122.395c-0.756,0-0.93,0.175-1.279,0.464c-0.35,0.292-0.523,0.233-0.582,0.292
		c-0.059,0.058,0,0.232,0.117,0.174c0.115-0.058,0.348-0.174,0.697-0.466c0.348-0.289,0.697-0.289,1.047-0.289
		c1.047,0,1.627,0.871,1.742,0.813C132.822,123.324,132.127,122.395,130.965,122.395z"/>
	<path fill="#84381C" d="M129.803,123.44c0.178-0.284,0.434-0.434,0.705-0.506c0.092-0.08,0.209-0.133,0.34-0.133
		c0.111,0,0.209,0.042,0.293,0.102c0.383,0.06,0.701,0.237,0.754,0.421l0.406,0.059c-0.756-0.813-2.15-0.871-2.732,0.058
		l0.234-0.116V123.44z"/>
	<path fill="#84381C" d="M131.371,123.324c0-0.178-0.094-0.327-0.23-0.421c-0.084-0.06-0.182-0.102-0.293-0.102
		c-0.131,0-0.248,0.053-0.34,0.133c-0.111,0.096-0.184,0.232-0.184,0.39c0,0.199,0.115,0.367,0.279,0.455
		c0.168,0.022,0.34,0.021,0.508-0.013C131.264,123.676,131.371,123.516,131.371,123.324z"/>
	<path fill="#84381C" d="M130.848,123.848c0.006,0,0.01-0.003,0.016-0.003c-0.008,0-0.016,0.002-0.021,0.002
		C130.844,123.847,130.846,123.848,130.848,123.848z"/>
	<path fill="#84381C" d="M130.863,123.845c0.49-0.007,1.012-0.15,1.438-0.462l-0.406-0.059c-0.223,0.245-0.498,0.387-0.783,0.442
		c-0.168,0.033-0.34,0.035-0.508,0.013c-0.293-0.04-0.574-0.156-0.801-0.339v-0.116l-0.234,0.116
		c0.295,0.265,0.766,0.409,1.273,0.406C130.848,123.847,130.855,123.845,130.863,123.845z"/>
	<path fill="#84381C" d="M130.035,123.906c-0.467-0.232-0.582-0.35-0.699-0.35c-0.115,0-0.115,0.117,0.467,0.466
		c0.58,0.349,1.568,0.406,2.557-0.349C131.197,124.139,130.498,124.139,130.035,123.906z"/>
	<path fill="#84381C" d="M128.289,126.405c0.117,0,0.465,0,0.697-0.174c0.167,0.236,0.493,0.295,0.731,0.13
		c0.236-0.166,0.295-0.491,0.129-0.729c-0.078-0.113-0.199-0.19-0.336-0.216c0.184,0.065,0.277,0.264,0.213,0.446
		c-0.064,0.181-0.264,0.275-0.445,0.211c-0.133-0.047-0.225-0.168-0.232-0.309c-0.059,0.116-0.292,0.466-0.756,0.466h0.117
		L128.289,126.405z"/>
	<path fill="#84381C" d="M128.289,127.161h0.117l-0.117,0.174c0.232,0,0.582-0.29,0.991-0.058c0.406,0.232,0.639,0.465,0.93,0.581
		c-0.523-0.349-0.756-0.872-1.338-0.872C128.753,126.986,128.521,127.045,128.289,127.161z"/>
	<path fill="#84381C" d="M128.289,127.975c0.463,0,0.697-0.344,1.729-0.118c0.002,0,0.004,0,0.006,0
		c-1.153-0.345-1.387-0.114-1.735-0.114h0.117L128.289,127.975z"/>
	<path fill="#84381C" d="M130.018,127.856c-1.028-0.019-0.742,0.642-1.729,0.642h0.117l-0.117,0.175c1.28,0,0.697-0.698,1.92-0.814
		c-0.072-0.006-0.123-0.001-0.186-0.002C130.021,127.856,130.02,127.856,130.018,127.856z"/>
	<path fill="#84381C" d="M127.744,129.045c0.102-0.061,0.213-0.101,0.332-0.125c-0.012,0.002-0.023-0.002-0.033,0.001
		C127.935,128.946,127.835,128.99,127.744,129.045z"/>
	<path fill="#84381C" d="M127.476,122.278c0.674,0.903,0.615,1.965-0.176,3.081c0.059,0,0.176,0.058,0.234,0.115
		c0.586-1.116,0.686-2.266,0.289-3.312c-1.277-1.047-3.021-1.162-4.301,0.58C124.859,121.581,126.546,121.406,127.476,122.278z"/>
	<path fill="#84381C" d="M126.662,122.858c0.35,0.292,0.582,0.408,0.697,0.466c0.117,0.059,0.176-0.116,0.117-0.174
		c-0.059-0.059-0.232,0-0.58-0.292c-0.35-0.289-0.523-0.464-1.281-0.464c-1.162,0-1.859,0.93-1.742,0.988
		c0.115,0.058,0.697-0.813,1.742-0.813C125.964,122.569,126.314,122.569,126.662,122.858z"/>
	<path fill="#84381C" d="M124.277,123.383l0.408-0.059c0.053-0.184,0.371-0.361,0.754-0.421c0.084-0.06,0.182-0.102,0.293-0.102
		c0.131,0,0.248,0.053,0.34,0.133c0.271,0.072,0.527,0.221,0.707,0.506v-0.116l0.232,0.116
		C126.429,122.512,125.035,122.569,124.277,123.383z"/>
	<path fill="#84381C" d="M125.732,123.848c0.002,0,0.004-0.001,0.006-0.001c-0.006,0-0.014-0.002-0.021-0.002
		C125.722,123.845,125.726,123.848,125.732,123.848z"/>
	<path fill="#84381C" d="M125.468,123.767c0.168,0.033,0.34,0.035,0.508,0.013c0.164-0.088,0.279-0.256,0.279-0.455
		c0-0.157-0.074-0.294-0.184-0.39c-0.092-0.08-0.209-0.133-0.34-0.133c-0.111,0-0.209,0.042-0.293,0.102
		c-0.137,0.094-0.23,0.243-0.23,0.421C125.208,123.516,125.316,123.676,125.468,123.767z"/>
	<path fill="#84381C" d="M126.779,123.44c-0.229,0.183-0.51,0.299-0.803,0.339c-0.168,0.022-0.34,0.021-0.508-0.013
		c-0.285-0.056-0.561-0.197-0.783-0.442l-0.408,0.059c0.428,0.312,0.949,0.455,1.439,0.462c0.008,0,0.016,0.002,0.021,0.002
		c0.508,0.003,0.979-0.143,1.273-0.406l-0.232-0.116V123.44z"/>
	<path fill="#84381C" d="M127.244,123.557c-0.115,0-0.232,0.117-0.697,0.35c-0.467,0.232-1.164,0.232-2.326-0.232
		c0.988,0.755,1.977,0.697,2.559,0.349C127.359,123.674,127.359,123.557,127.244,123.557z"/>
	<path fill="#84381C" d="M127.535,125.766c-0.01,0.141-0.1,0.262-0.232,0.309c-0.182,0.064-0.381-0.03-0.445-0.211
		c-0.064-0.183,0.029-0.381,0.211-0.446c-0.135,0.025-0.254,0.103-0.334,0.216c-0.166,0.237-0.107,0.562,0.131,0.729
		c0.236,0.165,0.562,0.106,0.729-0.13c0.23,0.174,0.58,0.174,0.695,0.174l0.117-0.174h-0.117
		C127.824,126.231,127.593,125.882,127.535,125.766z"/>
	<path fill="#84381C" d="M128.289,127.335l0.117-0.174h-0.117c-0.23-0.116-0.465-0.175-0.58-0.175c-0.58,0-0.812,0.523-1.336,0.872
		c0.289-0.116,0.523-0.349,0.928-0.581C127.708,127.045,128.058,127.335,128.289,127.335z"/>
	<path fill="#84381C" d="M128.289,127.975l0.117-0.232h-0.117c-0.346,0-0.58-0.23-1.732,0.114c0.002,0,0.004,0,0.006,0
		C127.593,127.631,127.826,127.975,128.289,127.975z"/>
	<path fill="#84381C" d="M128.289,128.498c-0.984,0-0.697-0.661-1.727-0.642c-0.002,0-0.004,0-0.006,0
		c-0.062,0.001-0.111-0.004-0.184,0.002c1.221,0.116,0.639,0.814,1.916,0.814l0.117-0.175H128.289z"/>
	<path fill="#84381C" d="M127.244,129.719c0.029-0.129,0.09-0.241,0.158-0.346c0.02-0.028,0.041-0.055,0.062-0.08
		c0.064-0.079,0.137-0.147,0.221-0.204c0.02-0.014,0.037-0.031,0.059-0.044c0.092-0.055,0.191-0.099,0.299-0.124
		c0.01-0.003,0.021,0.001,0.033-0.001c0.072-0.015,0.143-0.008,0.215-0.008c0.07,0,0.141-0.007,0.213,0.008
		c0.119,0.024,0.23,0.064,0.332,0.125c0.021,0.013,0.039,0.03,0.059,0.044c0.082,0.057,0.157,0.125,0.221,0.203
		c0.021,0.026,0.043,0.054,0.061,0.082c0.07,0.104,0.129,0.216,0.16,0.345c0-0.578-0.469-1.046-1.047-1.046
		S127.244,129.141,127.244,129.719z"/>
</g>
</svg>
