<?xml version="1.0" encoding="utf-8"?>
<!-- Generator: Adobe Illustrator 16.0.0, SVG Export Plug-In . SVG Version: 6.00 Build 0)  -->
<!DOCTYPE svg PUBLIC "-//W3C//DTD SVG 1.1//EN" "http://www.w3.org/Graphics/SVG/1.1/DTD/svg11.dtd">
<svg version="1.1" id="图形" xmlns="http://www.w3.org/2000/svg" xmlns:xlink="http://www.w3.org/1999/xlink" x="0px" y="0px"
	 width="1000.637px" height="1000.678px" viewBox="0 0 1000.637 1000.678" enable-background="new 0 0 1000.637 1000.678"
	 xml:space="preserve">
<circle fill="#ADD13B" cx="495.318" cy="497.339" r="483.769"/>
<path fill="#87A305" d="M391.162,765.576l177.415,210.019c174.192-26.461,317.87-145.816,378.925-305.957l-336.92-336.92
	L391.162,765.576z"/>
<g>
	<g>
		<path fill="#FFFFFF" d="M531.505,523.368l126.186-0.41c25.893,0,45.646,2.469,63.626-15.512c17.958-17.958,17.958-47.115,0-65.099
			L521.384,242.416c-9.195-9.171-21.297-13.589-33.316-13.407c-12.024-0.182-24.098,4.235-33.293,13.432L254.837,442.348
			c-17.979,17.981-17.979,47.112-0.001,65.099c17.985,17.979,39.921,15.922,67.048,15.922h120.842"/>
		<g>
			<path fill="#FFFFFF" d="M622.643,709.152c3.032,31.033-19.999,56.424-51.18,56.424H404.674c-31.181,0-54.212-25.391-51.18-56.424
				l29.629-303.287c3.032-31.033,31.024-56.425,62.205-56.425h85.48c31.181,0,59.173,25.392,62.205,56.425L622.643,709.152z"/>
		</g>
	</g>
	<g>
		<defs>
			<rect id="SVGID_1_" x="488.72" y="130.672" width="310.564" height="714.126"/>
		</defs>
		<clipPath id="SVGID_2_">
			<use xlink:href="#SVGID_1_"  overflow="visible"/>
		</clipPath>
		<g clip-path="url(#SVGID_2_)">
			<path fill="#EDEDED" d="M445.283,523.368l-126.186-0.41c-25.893,0-45.647,2.469-63.626-15.512
				c-17.958-17.958-17.958-47.115,0-65.099l199.932-199.932c9.196-9.171,21.297-13.589,33.317-13.407
				c12.024-0.182,24.098,4.235,33.293,13.432l199.938,199.907c17.979,17.981,17.979,47.112,0.001,65.099
				c-17.986,17.979-39.922,15.922-67.048,15.922H534.062"/>
			<g>
				<path fill="#EDEDED" d="M354.145,709.152c-3.032,31.033,19.999,56.424,51.18,56.424h166.789
					c31.182,0,54.213-25.391,51.182-56.424l-29.631-303.287c-3.031-31.033-31.023-56.425-62.205-56.425h-85.48
					c-31.181,0-59.173,25.392-62.205,56.425L354.145,709.152z"/>
			</g>
		</g>
	</g>
</g>
</svg>
