<?xml version="1.0" encoding="utf-8"?>
<!-- Generator: Adobe Illustrator 16.0.0, SVG Export Plug-In . SVG Version: 6.00 Build 0)  -->
<!DOCTYPE svg PUBLIC "-//W3C//DTD SVG 1.1//EN" "http://www.w3.org/Graphics/SVG/1.1/DTD/svg11.dtd">
<svg version="1.1" id="Layer_1" xmlns="http://www.w3.org/2000/svg" xmlns:xlink="http://www.w3.org/1999/xlink" x="0px" y="0px"
	 width="255.12px" height="255.12px" viewBox="0 0 255.12 255.12" enable-background="new 0 0 255.12 255.12" xml:space="preserve">
<g>
	<path fill="#2D317B" d="M228.461,174.975v-100c0-9.389-7.611-17-17-17h-82.998v5.006l-22.27,11.135h22.27v3.352V87.52v3.352
		h-22.271l22.271,11.135v1.875v3.744h-11.24L86.575,92.303v15.322h-3.35H73.172h-3.352V92.303l-30.648,15.322h-3.746h-6.965v67.35
		c0,9.389,7.611,17,17,17h166C220.85,191.975,228.461,184.363,228.461,174.975z M84.741,146.346l-6.543-6.885l-6.543,6.885
		l1.305-9.408l-9.463-0.824l8.168-4.846l-5.256-7.91l8.883,3.363l2.906-9.041l2.908,9.041l8.881-3.363l-5.254,7.91l8.166,4.846
		l-9.461,0.824L84.741,146.346z M173.111,69.639l4.232,1.602l1.385-4.305l1.385,4.305l4.229-1.602l-2.502,3.768l3.889,2.307
		l-4.506,0.393l0.619,4.48l-3.113-3.279l-3.117,3.279l0.621-4.48l-4.506-0.393l3.889-2.307L173.111,69.639z M156.709,107.812
		l-3.113-3.277l-3.115,3.277l0.619-4.48l-4.504-0.391l3.889-2.309l-2.504-3.766l4.23,1.6l1.385-4.305l1.385,4.305l4.229-1.6
		l-2.502,3.766l3.889,2.309l-4.506,0.391L156.709,107.812z M181.842,147.605l-3.113-3.277l-3.117,3.277l0.621-4.48l-4.506-0.391
		l3.889-2.309l-2.504-3.768l4.232,1.602l1.385-4.305l1.385,4.305l4.229-1.602l-2.502,3.768l3.889,2.309l-4.506,0.391
		L181.842,147.605z M191.242,115.203l-2.461-1.527l-2.465,1.527l0.693-2.812l-2.213-1.871l2.891-0.211l1.094-2.684l1.094,2.684
		l2.889,0.211l-2.213,1.871L191.242,115.203z M204.184,101.111l-3.115-3.279l-3.115,3.279l0.619-4.48l-4.506-0.393l3.891-2.307
		l-2.504-3.768l4.229,1.602l1.387-4.305l1.383,4.305l4.23-1.602l-2.502,3.768l3.889,2.307l-4.506,0.393L204.184,101.111z"/>
	<polygon fill="#2D317B" points="28.461,90.871 28.461,101.742 50.204,90.871 	"/>
	<path fill="#2D317B" d="M31.786,64.908c-1.92,2.604-3.107,5.768-3.279,9.207h21.695L31.786,64.908z"/>
	<path fill="#2D317B" d="M69.821,57.975H45.461c-1.398,0-2.75,0.188-4.051,0.506l28.41,14.205V57.975z"/>
	<polygon fill="#2D317B" points="115.997,57.975 86.575,57.975 86.575,72.686 	"/>
	<polygon fill="#FFFFFF" points="84.733,131.268 89.987,123.357 81.106,126.721 78.198,117.68 75.292,126.721 66.409,123.357 
		71.665,131.268 63.497,136.113 72.959,136.938 71.655,146.346 78.198,139.461 84.741,146.346 83.438,136.938 92.899,136.113 	"/>
	<polygon fill="#FFFFFF" points="181.84,140.426 184.342,136.658 180.113,138.26 178.729,133.955 177.344,138.26 173.111,136.658 
		175.615,140.426 171.727,142.734 176.232,143.125 175.611,147.605 178.729,144.328 181.842,147.605 181.223,143.125 
		185.729,142.734 	"/>
	<polygon fill="#FFFFFF" points="156.707,100.633 159.209,96.867 154.98,98.467 153.596,94.162 152.211,98.467 147.98,96.867 
		150.484,100.633 146.596,102.941 151.1,103.332 150.48,107.812 153.596,104.535 156.709,107.812 156.09,103.332 160.596,102.941 	
		"/>
	<polygon fill="#FFFFFF" points="176.232,76.105 175.611,80.586 178.729,77.307 181.842,80.586 181.223,76.105 185.729,75.713 
		181.84,73.406 184.342,69.639 180.113,71.24 178.729,66.936 177.344,71.24 173.111,69.639 175.615,73.406 171.727,75.713 	"/>
	<polygon fill="#FFFFFF" points="204.18,93.932 206.682,90.164 202.451,91.766 201.068,87.461 199.682,91.766 195.453,90.164 
		197.957,93.932 194.066,96.238 198.572,96.631 197.953,101.111 201.068,97.832 204.184,101.111 203.562,96.631 208.068,96.238 	"/>
	<polygon fill="#FFFFFF" points="189.875,110.309 188.781,107.625 187.688,110.309 184.797,110.52 187.01,112.391 186.316,115.203 
		188.781,113.676 191.242,115.203 190.551,112.391 192.764,110.52 	"/>
	<polygon fill="#FFFFFF" points="56.905,87.52 28.461,87.52 28.461,90.871 50.204,90.871 	"/>
	<polygon fill="#FFFFFF" points="86.575,72.686 86.575,57.975 83.225,57.975 83.225,74.359 	"/>
	<polygon fill="#FFFFFF" points="128.463,77.467 128.463,74.115 106.194,74.115 99.491,77.467 	"/>
	<polygon fill="#FFFFFF" points="106.192,90.871 128.463,90.871 128.463,87.52 99.491,87.52 	"/>
	<polygon fill="#FFFFFF" points="83.225,107.625 86.575,107.625 86.575,92.303 83.225,90.627 	"/>
	<polygon fill="#FFFFFF" points="73.172,74.361 73.172,57.975 69.821,57.975 69.821,72.686 	"/>
	<path fill="#FFFFFF" d="M50.202,74.115H28.506c-0.016,0.287-0.045,0.568-0.045,0.859v2.492h28.443L50.202,74.115z"/>
	<polygon fill="#FFFFFF" points="69.821,92.303 69.821,107.625 73.172,107.625 73.172,90.627 	"/>
	<polygon fill="#FFFFFF" points="83.225,87.52 83.225,90.627 86.575,92.303 117.223,107.625 128.463,107.625 94.954,90.871 
		102.446,90.871 128.463,103.881 128.463,102.006 106.192,90.871 99.491,87.52 	"/>
	<path fill="#FFFFFF" d="M56.905,77.467h16.268v-3.105l-3.352-1.676L41.411,58.48c-2.139,0.523-4.115,1.447-5.85,2.693
		l25.883,12.941H53.95L32.874,63.578c-0.385,0.424-0.746,0.867-1.088,1.33l18.416,9.207L56.905,77.467z"/>
	<polygon fill="#FFFFFF" points="83.225,74.359 83.225,77.467 99.491,77.467 106.194,74.115 128.463,62.98 128.463,57.975 
		127.237,57.975 94.954,74.115 87.459,74.115 119.743,57.975 115.997,57.975 86.575,72.686 	"/>
	<polygon fill="#FFFFFF" points="68.938,90.871 35.426,107.625 39.172,107.625 69.821,92.303 73.172,90.627 73.172,87.52 
		56.905,87.52 50.204,90.871 28.461,101.742 28.461,107.361 61.444,90.871 	"/>
	<polygon fill="#ED3133" points="73.172,87.52 73.172,90.627 73.172,107.625 83.225,107.625 83.225,90.627 83.225,87.52 
		99.491,87.52 128.463,87.52 128.463,77.467 99.491,77.467 83.225,77.467 83.225,74.359 83.225,57.975 73.172,57.975 73.172,74.361 
		73.172,77.467 56.905,77.467 28.461,77.467 28.461,87.52 56.905,87.52 	"/>
	<path fill="#ED3133" d="M61.444,74.115L35.561,61.174c-0.98,0.705-1.879,1.512-2.688,2.404L53.95,74.115H61.444z"/>
	<polygon fill="#ED3133" points="94.954,74.115 127.237,57.975 119.743,57.975 87.459,74.115 	"/>
	<polygon fill="#ED3133" points="94.954,90.871 128.463,107.625 128.463,103.881 102.446,90.871 	"/>
	<polygon fill="#ED3133" points="68.938,90.871 61.444,90.871 28.461,107.361 28.461,107.625 35.426,107.625 	"/>
</g>
</svg>
