<?xml version="1.0" encoding="utf-8"?>
<!-- Generator: Adobe Illustrator 16.0.0, SVG Export Plug-In . SVG Version: 6.00 Build 0)  -->
<!DOCTYPE svg PUBLIC "-//W3C//DTD SVG 1.1//EN" "http://www.w3.org/Graphics/SVG/1.1/DTD/svg11.dtd">
<svg version="1.1" id="Layer_1" xmlns="http://www.w3.org/2000/svg" xmlns:xlink="http://www.w3.org/1999/xlink" x="0px" y="0px"
	 width="255.12px" height="255.12px" viewBox="0 0 255.12 255.12" enable-background="new 0 0 255.12 255.12" xml:space="preserve">
<g>
	<path fill="#079247" d="M228.436,175.093v-100c0-9.391-7.611-17-17-17h-166c-9.389,0-17,7.609-17,17v100c0,9.389,7.611,17,17,17
		h166C220.824,192.093,228.436,184.481,228.436,175.093z M128.795,175.072l-77.622-49.793l77.157-50.166l77.367,50.047
		L128.795,175.072z"/>
	<path fill="#F6C315" d="M51.173,125.279l77.622,49.793l76.902-49.912l-77.367-50.047L51.173,125.279z M162.305,125.093h-0.002
		c0.002,0.036,0.002,0.072,0,0.108c-0.004,2.238-0.234,4.422-0.669,6.531c0.001,0.001,0.001,0.002,0.001,0.002
		c-0.341,1.794-0.979,3.751-1.477,5.047c-0.002-0.003-0.006-0.006-0.01-0.009c-4.691,12.214-16.551,20.879-30.434,20.856
		c-17.968-0.03-32.509-14.598-32.48-32.536c0-3.269,0.489-6.422,1.388-9.398c-0.011,0.001-0.021,0.001-0.033,0.002
		c0.59-1.896,1.289-3.646,2.16-5.319c0.006,0,0.012,0,0.018-0.001c5.377-10.542,16.341-17.767,29.002-17.767
		C147.738,92.61,162.305,107.152,162.305,125.093z"/>
	<path fill="#2F4CA0" d="M100.768,110.377c24.332-1.594,43.592,6.181,60.866,21.355c0.435-2.109,0.665-4.293,0.669-6.531
		c0.002-0.036,0.002-0.072,0-0.108h0.002c0-17.94-14.566-32.482-32.535-32.482C117.109,92.61,106.145,99.835,100.768,110.377z
		 M139.666,114.514l0.48-0.92l0.424,0.948l1.01,0.182l-0.756,0.707l0.141,1.032l-0.89-0.514l-0.921,0.457l0.205-1.023l-0.712-0.751
		L139.666,114.514z"/>
	<path fill="#2F4CA0" d="M98.623,115.695c-0.899,2.976-1.388,6.129-1.388,9.398c-0.028,17.938,14.512,32.506,32.48,32.536
		c13.883,0.022,25.742-8.643,30.434-20.856C148.562,125.712,127.438,112.957,98.623,115.695z M138.101,123.65l0.38-0.727
		l0.332,0.749l0.795,0.143l-0.596,0.556l0.111,0.813l-0.699-0.403l-0.725,0.358l0.16-0.806l-0.559-0.592L138.101,123.65z
		 M102.738,137.233l-0.673-0.388l-0.695,0.344l0.154-0.772l-0.537-0.567l0.77-0.089l0.363-0.696l0.319,0.718l0.763,0.139
		l-0.57,0.532L102.738,137.233z M103.23,120.817l-1.042,0.517l0.23-1.158l-0.804-0.852l1.152-0.133l0.545-1.043l0.479,1.076
		l1.141,0.207l-0.853,0.797l0.159,1.171L103.23,120.817z M107.464,134.806l-1.008-0.583l-1.042,0.517l0.231-1.158l-0.803-0.851
		l1.152-0.133l0.544-1.043l0.48,1.076l1.14,0.207l-0.854,0.797L107.464,134.806z M109.691,131.803l-0.435,0.216l0.097-0.483
		l-0.336-0.355l0.482-0.057l0.227-0.437l0.202,0.45l0.477,0.086l-0.359,0.334l0.067,0.489L109.691,131.803z M112.095,140.786
		l-0.673-0.388l-0.695,0.346l0.154-0.773l-0.539-0.568l0.77-0.089l0.363-0.696l0.321,0.718l0.762,0.138l-0.571,0.533
		L112.095,140.786z M113.422,137.232l-0.673-0.387l-0.695,0.344l0.154-0.772l-0.537-0.567l0.77-0.09l0.362-0.695l0.319,0.718
		l0.763,0.138l-0.571,0.533L113.422,137.232z M119.073,144.549l-1.007-0.582l-1.042,0.517l0.23-1.157l-0.804-0.851l1.152-0.134
		l0.544-1.043l0.479,1.076l1.141,0.205l-0.853,0.8L119.073,144.549z M118.915,127.136l0.161,1.17l-1.009-0.581l-1.042,0.516
		l0.23-1.157l-0.802-0.851l1.151-0.134l0.544-1.043l0.478,1.075l1.142,0.206L118.915,127.136z M127.769,134.315l-0.675-0.39
		l-0.694,0.346l0.154-0.773l-0.538-0.568l0.77-0.089l0.363-0.696l0.321,0.718l0.762,0.138l-0.57,0.533L127.769,134.315z
		 M129.611,129.271l0.544-1.043l0.48,1.075l1.14,0.206l-0.854,0.799l0.16,1.17l-1.009-0.583l-1.041,0.518l0.231-1.157l-0.805-0.852
		L129.611,129.271z M128.735,135.9l0.571-0.065l0.271-0.518l0.237,0.533l0.566,0.104l-0.424,0.396l0.079,0.581l-0.499-0.29
		l-0.518,0.258l0.114-0.575L128.735,135.9z M130.91,150.896l-0.424-0.245l-0.438,0.218l0.096-0.486l-0.336-0.358l0.482-0.056
		l0.229-0.438l0.203,0.451l0.48,0.088l-0.36,0.334L130.91,150.896z M131.482,141.251l-0.871-0.503l-0.899,0.447l0.199-1.001
		l-0.694-0.734l0.994-0.116l0.471-0.899l0.414,0.929l0.986,0.178l-0.738,0.69L131.482,141.251z M134.276,134.316l-0.673-0.389
		l-0.695,0.345l0.155-0.773l-0.538-0.567l0.77-0.09l0.363-0.696l0.321,0.718l0.761,0.139l-0.57,0.533L134.276,134.316z
		 M137.872,143.782l-0.499-0.288l-0.518,0.256l0.115-0.574l-0.398-0.422l0.57-0.066l0.271-0.518l0.237,0.533l0.567,0.103
		l-0.425,0.396L137.872,143.782z M140.877,150.068l-1.007-0.582l-1.042,0.517l0.23-1.157l-0.804-0.851l1.151-0.134l0.544-1.043
		l0.48,1.075l1.14,0.207l-0.854,0.798L140.877,150.068z M142.487,143.782l-0.499-0.288l-0.52,0.255l0.116-0.573l-0.399-0.422
		l0.572-0.067l0.271-0.517l0.238,0.532l0.565,0.104l-0.425,0.396L142.487,143.782z M147.412,150.379l-0.596-0.356l-0.617,0.317
		l0.139-0.71l-0.476-0.521l0.681-0.082l0.32-0.638l0.285,0.658l0.673,0.127l-0.504,0.488L147.412,150.379z M153.687,140.323
		l-0.547-0.29l-0.567,0.257l0.125-0.578l-0.437-0.425l0.626-0.066l0.295-0.521l0.263,0.537l0.62,0.104l-0.465,0.399L153.687,140.323
		z M156.607,136.279l0.271-0.518l0.238,0.534l0.565,0.102l-0.425,0.396l0.08,0.58l-0.5-0.289l-0.518,0.257l0.115-0.574l-0.398-0.422
		L156.607,136.279z M152.25,136.206l0.463-0.884l0.406,0.912l0.969,0.175l-0.725,0.677l0.137,0.992l-0.855-0.492l-0.883,0.438
		l0.195-0.983l-0.681-0.721L152.25,136.206z M151.875,141.66l0.363-0.696l0.32,0.718l0.762,0.139l-0.57,0.532l0.105,0.782
		l-0.67-0.39l-0.697,0.346l0.154-0.773l-0.537-0.567L151.875,141.66z M149.236,142.646l0.279-0.537l0.248,0.554l0.587,0.105
		l-0.438,0.412l0.083,0.603l-0.521-0.299l-0.537,0.266l0.12-0.597l-0.414-0.438L149.236,142.646z M146.625,142.621l0.301-0.577
		l0.267,0.596l0.629,0.114l-0.473,0.442l0.091,0.649l-0.559-0.324l-0.577,0.287l0.128-0.642l-0.444-0.473L146.625,142.621z
		 M146.42,146.108l0.354-0.64l0.31,0.66l0.741,0.125l-0.555,0.488l0.104,0.72l-0.653-0.358l-0.675,0.317l0.149-0.71l-0.52-0.521
		L146.42,146.108z"/>
	<polygon fill="#FFFEF0" points="118.626,142.375 118.147,141.299 117.603,142.342 116.451,142.476 117.255,143.326 
		117.024,144.483 118.066,143.967 119.073,144.549 118.915,143.38 119.767,142.58 	"/>
	<polygon fill="#FFFEF0" points="140.431,147.894 139.95,146.818 139.406,147.861 138.255,147.995 139.059,148.846 138.828,150.003 
		139.87,149.486 140.877,150.068 140.717,148.898 141.57,148.101 	"/>
	<polygon fill="#FFFEF0" points="131.096,139.373 130.682,138.444 130.211,139.344 129.217,139.46 129.911,140.194 129.712,141.195 
		130.611,140.748 131.482,141.251 131.344,140.241 132.082,139.551 	"/>
	<polygon fill="#FFFEF0" points="151.762,138.024 152.645,137.586 153.5,138.078 153.363,137.086 154.088,136.409 153.119,136.234 
		152.713,135.322 152.25,136.206 151.276,136.32 151.957,137.041 	"/>
	<polygon fill="#FFFEF0" points="129.032,131.413 130.073,130.896 131.082,131.479 130.922,130.309 131.775,129.51 130.636,129.304 
		130.155,128.229 129.611,129.271 128.458,129.404 129.264,130.256 	"/>
	<polygon fill="#FFFEF0" points="104.931,119.432 103.79,119.225 103.311,118.148 102.766,119.191 101.614,119.324 102.418,120.176 
		102.188,121.334 103.23,120.817 104.237,121.399 104.078,120.229 	"/>
	<polygon fill="#FFFEF0" points="107.019,132.631 106.539,131.555 105.994,132.598 104.842,132.73 105.646,133.581 105.415,134.739 
		106.457,134.223 107.464,134.806 107.305,133.635 108.159,132.838 	"/>
	<polygon fill="#FFFEF0" points="139.154,116.406 140.075,115.949 140.965,116.463 140.824,115.431 141.58,114.724 140.57,114.542 
		140.146,113.594 139.666,114.514 138.647,114.632 139.359,115.383 	"/>
	<polygon fill="#FFFEF0" points="137.699,125.14 138.424,124.781 139.123,125.185 139.012,124.371 139.607,123.815 138.812,123.673 
		138.48,122.924 138.101,123.65 137.301,123.742 137.859,124.334 	"/>
	<polygon fill="#FFFEF0" points="153.444,139.236 153.182,138.699 152.887,139.221 152.261,139.287 152.697,139.712 152.572,140.29 
		153.14,140.033 153.687,140.323 153.6,139.739 154.064,139.34 	"/>
	<polygon fill="#FFFEF0" points="102.44,135.782 102.121,135.064 101.757,135.761 100.987,135.85 101.524,136.417 101.37,137.189 
		102.065,136.846 102.738,137.233 102.632,136.453 103.203,135.921 	"/>
	<polygon fill="#FFFEF0" points="113.123,135.782 112.803,135.064 112.441,135.76 111.671,135.85 112.208,136.417 112.054,137.189 
		112.749,136.846 113.422,137.232 113.314,136.453 113.885,135.92 	"/>
	<polygon fill="#FFFEF0" points="111.796,139.335 111.476,138.617 111.112,139.313 110.342,139.402 110.881,139.971 
		110.728,140.744 111.422,140.398 112.095,140.786 111.987,140.006 112.558,139.473 	"/>
	<polygon fill="#FFFEF0" points="133.979,132.863 133.658,132.146 133.295,132.842 132.525,132.932 133.063,133.499 
		132.908,134.272 133.604,133.928 134.276,134.316 134.17,133.535 134.74,133.002 	"/>
	<polygon fill="#FFFEF0" points="127.47,132.862 127.149,132.145 126.786,132.841 126.016,132.93 126.554,133.498 126.4,134.271 
		127.094,133.926 127.769,134.315 127.661,133.533 128.231,133 	"/>
	<polygon fill="#FFFEF0" points="110.404,131.223 109.927,131.137 109.725,130.687 109.499,131.123 109.016,131.18 109.353,131.535 
		109.256,132.019 109.691,131.803 110.113,132.046 110.045,131.557 	"/>
	<polygon fill="#FFFEF0" points="151.488,143.091 152.186,142.745 152.855,143.135 152.75,142.353 153.32,141.82 152.559,141.682 
		152.238,140.964 151.875,141.66 151.105,141.75 151.643,142.317 	"/>
	<polygon fill="#FFFEF0" points="146.304,143.809 146.881,143.521 147.439,143.846 147.349,143.196 147.821,142.754 147.192,142.64 
		146.926,142.044 146.625,142.621 145.987,142.694 146.432,143.167 	"/>
	<polygon fill="#FFFEF0" points="148.938,143.749 149.475,143.483 149.995,143.782 149.912,143.18 150.351,142.768 149.764,142.662 
		149.516,142.108 149.236,142.646 148.644,142.714 149.058,143.152 	"/>
	<polygon fill="#FFFEF0" points="156.32,137.342 156.838,137.085 157.338,137.374 157.258,136.794 157.683,136.397 157.117,136.296 
		156.879,135.762 156.607,136.279 156.037,136.346 156.436,136.768 	"/>
	<polygon fill="#FFFEF0" points="146.045,147.421 146.72,147.104 147.373,147.462 147.27,146.742 147.824,146.254 147.083,146.129 
		146.773,145.469 146.42,146.108 145.675,146.19 146.194,146.711 	"/>
	<polygon fill="#FFFEF0" points="147.148,149.047 146.863,148.389 146.543,149.026 145.862,149.108 146.338,149.63 146.199,150.34 
		146.816,150.022 147.412,150.379 147.317,149.662 147.821,149.174 	"/>
	<polygon fill="#FFFEF0" points="142.267,142.702 142.028,142.17 141.758,142.687 141.186,142.754 141.585,143.176 141.469,143.749 
		141.988,143.494 142.487,143.782 142.407,143.202 142.832,142.806 	"/>
	<polygon fill="#FFFEF0" points="137.65,142.703 137.413,142.17 137.143,142.688 136.572,142.754 136.971,143.176 136.855,143.75 
		137.373,143.494 137.872,143.782 137.793,143.202 138.218,142.806 	"/>
	<polygon fill="#FFFEF0" points="129.537,136.641 130.036,136.931 129.957,136.35 130.381,135.954 129.814,135.851 129.577,135.317 
		129.307,135.835 128.735,135.9 129.134,136.323 129.02,136.898 	"/>
	<polygon fill="#FFFEF0" points="130.723,149.981 130.52,149.53 130.291,149.969 129.809,150.024 130.145,150.383 130.049,150.869 
		130.486,150.651 130.91,150.896 130.843,150.403 131.203,150.069 	"/>
	<polygon fill="#FFFEF0" points="118.148,125.056 117.604,126.099 116.453,126.232 117.255,127.083 117.024,128.24 118.066,127.725 
		119.076,128.306 118.915,127.136 119.769,126.337 118.626,126.131 	"/>
	<path fill="#FFFFFF" d="M100.768,110.377c-0.006,0-0.012,0-0.018,0.001c-0.872,1.673-1.57,3.424-2.16,5.319
		c0.011-0.001,0.022-0.001,0.033-0.002c28.815-2.738,49.94,10.017,61.526,21.078c0.004,0.003,0.008,0.006,0.01,0.009
		c0.497-1.296,1.136-3.253,1.477-5.047c0,0,0-0.001-0.001-0.002C144.359,116.558,125.1,108.783,100.768,110.377z M104.985,114.083
		c-0.321,0.315-0.744,0.468-1.267,0.453c-0.529-0.015-0.946-0.188-1.248-0.519c-0.305-0.334-0.45-0.785-0.433-1.354
		c0.009-0.364,0.072-0.669,0.188-0.913c0.084-0.179,0.199-0.34,0.343-0.481c0.143-0.141,0.3-0.243,0.47-0.308
		c0.224-0.088,0.48-0.129,0.771-0.122c0.524,0.016,0.94,0.19,1.243,0.524c0.309,0.336,0.455,0.796,0.439,1.377
		C105.476,113.316,105.307,113.766,104.985,114.083z M108.602,114.539l-0.512-0.784c-0.18-0.28-0.306-0.455-0.372-0.528
		c-0.067-0.073-0.139-0.124-0.215-0.152c-0.075-0.027-0.196-0.043-0.363-0.045l-0.144-0.002l-0.017,1.493l-0.721-0.009l0.044-3.574
		l1.511,0.017c0.382,0.005,0.657,0.04,0.829,0.107c0.172,0.065,0.308,0.182,0.411,0.347c0.104,0.166,0.151,0.354,0.149,0.564
		c-0.003,0.27-0.083,0.49-0.244,0.664c-0.158,0.171-0.395,0.278-0.708,0.321c0.154,0.092,0.281,0.193,0.381,0.305
		c0.101,0.108,0.234,0.305,0.403,0.584l0.427,0.703L108.602,114.539z M113.07,113.835c-0.102,0.256-0.239,0.459-0.411,0.612
		c-0.132,0.116-0.304,0.201-0.521,0.259c-0.16,0.043-0.374,0.056-0.639,0.043l-1.35-0.069l0.18-3.57l1.312,0.066
		c0.297,0.017,0.52,0.051,0.674,0.104c0.205,0.071,0.378,0.191,0.519,0.356c0.141,0.164,0.244,0.363,0.311,0.597
		c0.067,0.231,0.091,0.514,0.075,0.848C113.204,113.375,113.155,113.626,113.07,113.835z M116.852,112.183l-1.915-0.182l-0.073,0.79
		l1.779,0.168l-0.055,0.601l-1.782-0.169l-0.09,0.969l1.982,0.188l-0.056,0.6l-2.698-0.254l0.332-3.561l2.631,0.247L116.852,112.183
		z M120.946,115.813l-0.66-0.099l0.408-2.784l-1.108,2.681l-0.684-0.101l-0.29-2.889l-0.408,2.785l-0.662-0.097l0.519-3.537
		l1.064,0.157l0.286,2.508l0.985-2.321l1.069,0.158L120.946,115.813z M126.128,114.384l-1.347-0.31l-0.129,0.557l1.257,0.289
		l-0.097,0.422l-1.256-0.288l-0.156,0.683l1.396,0.322l-0.096,0.423l-1.903-0.438l0.574-2.511l1.854,0.429L126.128,114.384z
		 M131.064,115.73c-0.052,0.214-0.135,0.384-0.246,0.512c-0.111,0.125-0.236,0.217-0.377,0.271c-0.139,0.055-0.271,0.079-0.4,0.077
		c-0.175-0.007-0.42-0.049-0.737-0.125l-0.456-0.11l-0.313,1.312l-0.701-0.169l0.833-3.477l1.123,0.271
		c0.426,0.103,0.698,0.187,0.818,0.253c0.188,0.101,0.326,0.254,0.418,0.461C131.117,115.212,131.129,115.454,131.064,115.73z
		 M134.742,117.035c-0.09,0.253-0.238,0.437-0.443,0.549s-0.465,0.137-0.773,0.076c0.117,0.138,0.203,0.274,0.263,0.41
		c0.062,0.138,0.124,0.365,0.194,0.685l0.18,0.804l-0.811-0.287l-0.232-0.906c-0.085-0.324-0.146-0.531-0.186-0.623
		c-0.039-0.09-0.092-0.162-0.154-0.211c-0.062-0.052-0.172-0.104-0.328-0.161l-0.136-0.048l-0.495,1.408l-0.68-0.241l1.186-3.371
		l1.426,0.505c0.36,0.127,0.609,0.25,0.75,0.368c0.144,0.119,0.234,0.271,0.278,0.461
		C134.824,116.641,134.811,116.836,134.742,117.035z M138.629,119.375c-0.17,0.551-0.455,0.936-0.85,1.153
		c-0.395,0.217-0.842,0.249-1.342,0.091c-0.505-0.157-0.859-0.438-1.061-0.84c-0.203-0.404-0.221-0.877-0.051-1.42
		c0.107-0.348,0.25-0.625,0.426-0.827c0.133-0.149,0.286-0.273,0.461-0.37c0.179-0.096,0.356-0.152,0.537-0.169
		c0.238-0.024,0.498,0.008,0.773,0.094c0.503,0.156,0.854,0.438,1.057,0.844C138.785,118.338,138.801,118.818,138.629,119.375z
		 M141.568,122.461c-0.201,0.062-0.455,0.075-0.762,0.044c-0.305-0.032-0.586-0.117-0.846-0.252
		c-0.332-0.171-0.586-0.39-0.762-0.655c-0.173-0.268-0.256-0.562-0.246-0.885c0.01-0.325,0.092-0.639,0.249-0.945
		c0.169-0.33,0.39-0.588,0.66-0.775c0.269-0.185,0.575-0.277,0.911-0.277c0.258-0.001,0.537,0.078,0.84,0.233
		c0.393,0.204,0.656,0.446,0.791,0.725c0.137,0.28,0.162,0.583,0.075,0.908l-0.695-0.209c0.036-0.181,0.015-0.347-0.063-0.5
		c-0.076-0.155-0.207-0.278-0.389-0.374c-0.281-0.146-0.549-0.172-0.805-0.078c-0.256,0.093-0.475,0.312-0.652,0.663
		c-0.195,0.378-0.257,0.703-0.188,0.979c0.071,0.273,0.242,0.481,0.514,0.621c0.133,0.07,0.281,0.112,0.441,0.13
		c0.162,0.017,0.311,0.012,0.446-0.013l0.207-0.404l-0.732-0.378l0.274-0.535l1.379,0.712L141.568,122.461z M144.041,122.613
		c-0.055-0.06-0.156-0.127-0.301-0.204l-0.131-0.066l-0.684,1.324l-0.639-0.332l1.637-3.175l1.344,0.699
		c0.34,0.174,0.568,0.332,0.693,0.469c0.123,0.135,0.193,0.301,0.211,0.494s-0.022,0.384-0.121,0.571
		c-0.121,0.239-0.292,0.4-0.514,0.483c-0.219,0.083-0.477,0.071-0.775-0.032c0.096,0.152,0.164,0.301,0.203,0.443
		c0.041,0.144,0.072,0.379,0.102,0.705l0.064,0.819l-0.764-0.397l-0.104-0.929c-0.037-0.333-0.069-0.546-0.099-0.642
		C144.138,122.749,144.098,122.672,144.041,122.613z M147.271,124.384l-0.504,0.831l1.698,1.04l-0.313,0.516l-2.311-1.418
		l1.854-3.052l2.255,1.381l-0.314,0.518l-1.641-1.006l-0.411,0.677l1.526,0.936l-0.313,0.515L147.271,124.384z M151.863,127.958
		c-0.109,0.174-0.258,0.308-0.447,0.399c-0.191,0.093-0.397,0.121-0.619,0.086c-0.221-0.036-0.463-0.138-0.727-0.3
		c-0.383-0.238-0.622-0.509-0.718-0.814c-0.097-0.306-0.06-0.641,0.11-1.006l0.631,0.312c-0.086,0.222-0.105,0.416-0.054,0.576
		c0.05,0.163,0.17,0.302,0.355,0.418c0.198,0.122,0.371,0.173,0.521,0.151c0.153-0.022,0.265-0.088,0.332-0.2
		c0.045-0.072,0.062-0.146,0.051-0.222c-0.01-0.077-0.057-0.167-0.139-0.27c-0.057-0.07-0.191-0.215-0.408-0.437
		c-0.275-0.286-0.443-0.53-0.504-0.73c-0.082-0.283-0.049-0.545,0.098-0.785c0.098-0.155,0.23-0.272,0.398-0.353
		c0.172-0.081,0.361-0.104,0.568-0.074c0.211,0.033,0.431,0.122,0.662,0.266c0.382,0.236,0.615,0.497,0.703,0.784
		c0.09,0.288,0.053,0.572-0.109,0.858l-0.627-0.354c0.068-0.172,0.083-0.319,0.035-0.44c-0.041-0.123-0.148-0.236-0.32-0.345
		c-0.178-0.11-0.34-0.159-0.484-0.148c-0.095,0.006-0.166,0.049-0.214,0.128c-0.044,0.071-0.052,0.152-0.022,0.241
		c0.037,0.112,0.182,0.297,0.436,0.553c0.253,0.255,0.428,0.465,0.523,0.629c0.098,0.163,0.145,0.337,0.145,0.517
		C152.041,127.58,151.979,127.766,151.863,127.958z M156.151,129.196c0.171-0.106,0.353-0.18,0.548-0.221
		c0.198-0.04,0.387-0.043,0.562-0.007c0.237,0.047,0.475,0.151,0.717,0.314c0.434,0.295,0.689,0.668,0.768,1.114
		c0.08,0.449-0.045,0.913-0.369,1.396c-0.322,0.477-0.705,0.764-1.146,0.859c-0.44,0.094-0.878-0.008-1.311-0.302
		c-0.438-0.298-0.698-0.669-0.776-1.113c-0.076-0.444,0.044-0.902,0.362-1.375C155.709,129.562,155.924,129.339,156.151,129.196z
		 M153.733,126.76c0.173-0.074,0.364-0.09,0.569-0.051c0.209,0.041,0.424,0.139,0.651,0.292c0.37,0.252,0.595,0.523,0.671,0.812
		c0.078,0.29,0.03,0.574-0.145,0.853l-0.611-0.378c0.076-0.17,0.094-0.316,0.054-0.44c-0.036-0.123-0.14-0.241-0.308-0.355
		c-0.172-0.118-0.332-0.174-0.479-0.17c-0.095,0.004-0.166,0.044-0.219,0.121c-0.047,0.069-0.059,0.149-0.033,0.239
		c0.033,0.113,0.172,0.304,0.416,0.57c0.242,0.265,0.409,0.481,0.496,0.649c0.091,0.168,0.131,0.342,0.123,0.523
		c-0.006,0.18-0.072,0.363-0.197,0.55c-0.113,0.171-0.268,0.297-0.463,0.382c-0.194,0.084-0.401,0.104-0.621,0.061
		c-0.221-0.045-0.457-0.154-0.715-0.33c-0.373-0.252-0.602-0.533-0.686-0.842c-0.082-0.308-0.033-0.642,0.154-1l0.617,0.337
		c-0.098,0.219-0.123,0.41-0.08,0.573c0.047,0.166,0.159,0.309,0.342,0.432c0.189,0.131,0.361,0.188,0.513,0.173
		c0.153-0.016,0.267-0.079,0.341-0.187c0.047-0.07,0.066-0.145,0.058-0.221c-0.008-0.076-0.05-0.168-0.126-0.274
		c-0.053-0.071-0.186-0.222-0.391-0.454c-0.266-0.295-0.424-0.545-0.474-0.748c-0.073-0.286-0.029-0.547,0.13-0.78
		C153.423,126.945,153.561,126.833,153.733,126.76z"/>
	<path fill="#319E48" d="M153.192,127.877c0.05,0.203,0.208,0.453,0.474,0.748c0.205,0.232,0.338,0.383,0.391,0.454
		c0.076,0.106,0.118,0.198,0.126,0.274c0.009,0.076-0.011,0.15-0.058,0.221c-0.074,0.107-0.188,0.171-0.341,0.187
		c-0.151,0.016-0.323-0.042-0.513-0.173c-0.183-0.123-0.295-0.266-0.342-0.432c-0.043-0.163-0.018-0.354,0.08-0.573l-0.617-0.337
		c-0.188,0.358-0.236,0.692-0.154,1c0.084,0.309,0.312,0.59,0.686,0.842c0.258,0.176,0.494,0.285,0.715,0.33
		c0.22,0.044,0.427,0.023,0.621-0.061c0.195-0.085,0.35-0.211,0.463-0.382c0.125-0.187,0.191-0.37,0.197-0.55
		c0.008-0.182-0.032-0.355-0.123-0.523c-0.087-0.168-0.254-0.385-0.496-0.649c-0.244-0.267-0.383-0.457-0.416-0.57
		c-0.025-0.09-0.014-0.17,0.033-0.239c0.053-0.077,0.124-0.117,0.219-0.121c0.146-0.004,0.307,0.052,0.479,0.17
		c0.168,0.114,0.271,0.232,0.308,0.355c0.04,0.124,0.022,0.271-0.054,0.44l0.611,0.378c0.175-0.278,0.223-0.562,0.145-0.853
		c-0.076-0.289-0.301-0.561-0.671-0.812c-0.228-0.153-0.442-0.251-0.651-0.292c-0.205-0.039-0.396-0.023-0.569,0.051
		c-0.173,0.073-0.311,0.186-0.411,0.337C153.163,127.33,153.119,127.591,153.192,127.877z"/>
	<path fill="#319E48" d="M151.371,126.253c-0.254-0.256-0.398-0.44-0.436-0.553c-0.029-0.089-0.021-0.17,0.022-0.241
		c0.048-0.079,0.119-0.122,0.214-0.128c0.145-0.011,0.307,0.038,0.484,0.148c0.172,0.108,0.279,0.222,0.32,0.345
		c0.048,0.121,0.033,0.269-0.035,0.44l0.627,0.354c0.162-0.286,0.199-0.57,0.109-0.858c-0.088-0.287-0.321-0.548-0.703-0.784
		c-0.231-0.144-0.451-0.232-0.662-0.266c-0.207-0.03-0.396-0.007-0.568,0.074c-0.168,0.08-0.301,0.197-0.398,0.353
		c-0.146,0.24-0.18,0.502-0.098,0.785c0.061,0.2,0.229,0.444,0.504,0.73c0.217,0.222,0.352,0.366,0.408,0.437
		c0.082,0.103,0.129,0.192,0.139,0.27c0.012,0.075-0.006,0.149-0.051,0.222c-0.067,0.112-0.179,0.178-0.332,0.2
		c-0.149,0.021-0.322-0.029-0.521-0.151c-0.186-0.116-0.306-0.255-0.355-0.418c-0.052-0.16-0.032-0.354,0.054-0.576l-0.631-0.312
		c-0.17,0.365-0.207,0.7-0.11,1.006c0.096,0.306,0.335,0.576,0.718,0.814c0.264,0.162,0.506,0.264,0.727,0.3
		c0.222,0.035,0.428,0.007,0.619-0.086c0.189-0.092,0.338-0.226,0.447-0.399c0.116-0.192,0.178-0.378,0.176-0.56
		c0-0.18-0.047-0.354-0.145-0.517C151.799,126.718,151.624,126.508,151.371,126.253z"/>
	<polygon fill="#319E48" points="149.111,124.806 147.585,123.87 147.996,123.193 149.637,124.199 149.951,123.682 147.696,122.301 
		145.842,125.353 148.152,126.771 148.466,126.255 146.768,125.215 147.271,124.384 148.798,125.32 	"/>
	<path fill="#319E48" d="M140.563,121.019l0.732,0.378l-0.207,0.404c-0.136,0.024-0.284,0.029-0.446,0.013
		c-0.16-0.018-0.309-0.06-0.441-0.13c-0.271-0.14-0.442-0.348-0.514-0.621c-0.069-0.276-0.008-0.602,0.188-0.979
		c0.178-0.351,0.396-0.57,0.652-0.663c0.256-0.094,0.523-0.067,0.805,0.078c0.182,0.096,0.312,0.219,0.389,0.374
		c0.078,0.153,0.1,0.319,0.063,0.5l0.695,0.209c0.087-0.325,0.062-0.628-0.075-0.908c-0.135-0.278-0.398-0.521-0.791-0.725
		c-0.303-0.155-0.582-0.234-0.84-0.233c-0.336,0-0.643,0.093-0.911,0.277c-0.271,0.188-0.491,0.445-0.66,0.775
		c-0.157,0.307-0.239,0.62-0.249,0.945c-0.01,0.322,0.073,0.617,0.246,0.885c0.176,0.266,0.43,0.484,0.762,0.655
		c0.26,0.135,0.541,0.22,0.846,0.252c0.307,0.031,0.561,0.019,0.762-0.044l0.648-1.266l-1.379-0.712L140.563,121.019z"/>
	<polygon fill="#319E48" points="119.412,114.438 119.126,111.931 118.062,111.773 117.543,115.311 118.205,115.407 
		118.613,112.622 118.902,115.511 119.586,115.611 120.694,112.931 120.286,115.715 120.946,115.813 121.465,112.275 
		120.396,112.117 	"/>
	<polygon fill="#319E48" points="113.944,114.893 116.642,115.146 116.698,114.547 114.716,114.359 114.806,113.391 116.588,113.56 
		116.643,112.959 114.864,112.791 114.938,112.001 116.852,112.183 116.907,111.579 114.276,111.332 	"/>
	<path fill="#319E48" d="M103.809,110.839c-0.29-0.007-0.547,0.034-0.771,0.122c-0.17,0.064-0.328,0.167-0.47,0.308
		c-0.144,0.142-0.259,0.303-0.343,0.481c-0.116,0.244-0.179,0.549-0.188,0.913c-0.017,0.569,0.128,1.021,0.433,1.354
		c0.302,0.331,0.719,0.504,1.248,0.519c0.523,0.015,0.946-0.138,1.267-0.453c0.322-0.317,0.491-0.767,0.506-1.343
		c0.016-0.581-0.13-1.041-0.439-1.377C104.75,111.029,104.333,110.854,103.809,110.839z M104.446,113.631
		c-0.188,0.2-0.427,0.297-0.713,0.287c-0.286-0.006-0.521-0.116-0.7-0.33c-0.18-0.215-0.265-0.524-0.254-0.93
		c0.01-0.412,0.109-0.716,0.297-0.913c0.187-0.199,0.428-0.296,0.725-0.288c0.296,0.008,0.53,0.115,0.703,0.321
		c0.173,0.207,0.255,0.516,0.244,0.925C104.736,113.117,104.635,113.426,104.446,113.631z"/>
	<path fill="#F7FCFD" d="M103.8,111.457c-0.297-0.008-0.538,0.089-0.725,0.288c-0.188,0.197-0.287,0.501-0.297,0.913
		c-0.011,0.405,0.074,0.715,0.254,0.93c0.179,0.214,0.414,0.324,0.7,0.33c0.286,0.01,0.525-0.087,0.713-0.287
		c0.189-0.205,0.291-0.514,0.302-0.928c0.011-0.409-0.071-0.718-0.244-0.925C104.33,111.572,104.096,111.465,103.8,111.457z"/>
	<path fill="#319E48" d="M108.631,113.263c-0.1-0.111-0.228-0.213-0.381-0.305c0.314-0.043,0.55-0.15,0.708-0.321
		c0.161-0.174,0.241-0.395,0.244-0.664c0.001-0.211-0.046-0.398-0.149-0.564c-0.103-0.165-0.238-0.281-0.411-0.347
		c-0.172-0.067-0.447-0.103-0.829-0.107l-1.511-0.017l-0.044,3.574l0.721,0.009l0.017-1.493l0.144,0.002
		c0.167,0.002,0.288,0.018,0.363,0.045c0.076,0.028,0.147,0.079,0.215,0.152c0.065,0.073,0.191,0.248,0.372,0.528l0.512,0.784
		l0.859,0.011l-0.427-0.703C108.865,113.567,108.732,113.371,108.631,113.263z M107.534,112.463l-0.532-0.005l0.011-0.908
		l0.561,0.007c0.292,0.004,0.466,0.01,0.525,0.019c0.116,0.021,0.206,0.068,0.267,0.145c0.064,0.073,0.097,0.171,0.095,0.292
		c-0.001,0.106-0.027,0.195-0.076,0.267c-0.049,0.07-0.117,0.12-0.204,0.148C108.095,112.456,107.88,112.468,107.534,112.463z"/>
	<path fill="#FFFFFF" d="M108.46,112.012c0.002-0.121-0.03-0.219-0.095-0.292c-0.061-0.076-0.151-0.123-0.267-0.145
		c-0.06-0.009-0.233-0.015-0.525-0.019l-0.561-0.007l-0.011,0.908l0.532,0.005c0.346,0.005,0.561-0.007,0.647-0.036
		c0.087-0.028,0.154-0.078,0.204-0.148C108.433,112.207,108.459,112.118,108.46,112.012z"/>
	<path fill="#319E48" d="M112.833,111.636c-0.141-0.165-0.314-0.285-0.519-0.356c-0.154-0.053-0.377-0.087-0.674-0.104l-1.312-0.066
		l-0.18,3.57l1.35,0.069c0.266,0.013,0.479,0,0.639-0.043c0.217-0.058,0.389-0.143,0.521-0.259c0.172-0.153,0.309-0.356,0.411-0.612
		c0.085-0.209,0.134-0.46,0.149-0.755c0.016-0.334-0.008-0.616-0.075-0.848C113.078,111.999,112.974,111.8,112.833,111.636z
		 M112.371,113.663c-0.056,0.156-0.125,0.268-0.205,0.334c-0.081,0.065-0.18,0.11-0.297,0.134c-0.09,0.019-0.236,0.022-0.435,0.012
		l-0.538-0.027l0.121-2.365l0.323,0.018c0.292,0.014,0.487,0.035,0.587,0.063c0.133,0.035,0.241,0.097,0.324,0.185
		c0.084,0.087,0.146,0.206,0.187,0.355c0.041,0.151,0.053,0.363,0.041,0.641C112.464,113.288,112.427,113.504,112.371,113.663z"/>
	<path fill="#FFFFFF" d="M112.25,112.016c-0.083-0.088-0.191-0.149-0.324-0.185c-0.1-0.028-0.296-0.05-0.587-0.063l-0.323-0.018
		l-0.121,2.365l0.538,0.027c0.199,0.011,0.345,0.007,0.435-0.012c0.117-0.023,0.216-0.068,0.297-0.134
		c0.08-0.066,0.148-0.178,0.205-0.334c0.056-0.159,0.093-0.375,0.107-0.651c0.012-0.277,0-0.489-0.041-0.641
		C112.396,112.222,112.335,112.103,112.25,112.016z"/>
	<path fill="#319E48" d="M130.607,114.545c-0.12-0.066-0.393-0.15-0.818-0.253l-1.123-0.271l-0.833,3.477l0.701,0.169l0.313-1.312
		l0.456,0.11c0.317,0.076,0.562,0.118,0.737,0.125c0.13,0.002,0.262-0.022,0.4-0.077c0.141-0.055,0.266-0.146,0.377-0.271
		c0.111-0.128,0.194-0.298,0.246-0.512c0.064-0.276,0.053-0.519-0.039-0.725C130.934,114.799,130.795,114.646,130.607,114.545z
		 M130.341,115.566c-0.023,0.103-0.071,0.188-0.144,0.251c-0.071,0.065-0.158,0.104-0.26,0.119
		c-0.102,0.014-0.289-0.012-0.564-0.078l-0.383-0.094l0.235-0.986l0.34,0.082c0.252,0.061,0.418,0.108,0.498,0.145
		c0.107,0.048,0.188,0.122,0.244,0.222C130.359,115.327,130.373,115.439,130.341,115.566z"/>
	<path fill="#FFFFFF" d="M130.062,115.005c-0.08-0.036-0.246-0.084-0.498-0.145l-0.34-0.082l-0.235,0.986l0.383,0.094
		c0.275,0.066,0.463,0.092,0.564,0.078c0.102-0.015,0.188-0.054,0.26-0.119c0.072-0.063,0.12-0.148,0.144-0.251
		c0.032-0.127,0.019-0.239-0.034-0.34C130.25,115.127,130.17,115.053,130.062,115.005z"/>
	<path fill="#319E48" d="M134.502,115.991c-0.141-0.118-0.39-0.241-0.75-0.368l-1.426-0.505l-1.186,3.371l0.68,0.241l0.495-1.408
		l0.136,0.048c0.156,0.057,0.266,0.109,0.328,0.161c0.062,0.049,0.115,0.121,0.154,0.211c0.04,0.092,0.101,0.299,0.186,0.623
		l0.232,0.906l0.811,0.287l-0.18-0.804c-0.07-0.319-0.133-0.547-0.194-0.685c-0.06-0.136-0.146-0.272-0.263-0.41
		c0.309,0.061,0.568,0.036,0.773-0.076s0.354-0.296,0.443-0.549c0.068-0.199,0.082-0.395,0.038-0.583
		C134.736,116.262,134.646,116.11,134.502,115.991z M134.027,116.832c-0.035,0.101-0.088,0.177-0.157,0.229
		c-0.071,0.051-0.151,0.075-0.241,0.075c-0.092-0.001-0.299-0.06-0.623-0.174l-0.502-0.178l0.3-0.856l0.53,0.188
		c0.273,0.099,0.438,0.16,0.491,0.188c0.103,0.057,0.171,0.131,0.207,0.223C134.069,116.616,134.066,116.719,134.027,116.832z"/>
	<path fill="#FFFFFF" d="M133.825,116.303c-0.053-0.027-0.218-0.089-0.491-0.188l-0.53-0.188l-0.3,0.856l0.502,0.178
		c0.324,0.114,0.531,0.173,0.623,0.174c0.09,0,0.17-0.024,0.241-0.075c0.069-0.052,0.122-0.128,0.157-0.229
		c0.039-0.113,0.042-0.216,0.005-0.307C133.996,116.434,133.928,116.359,133.825,116.303z"/>
	<path fill="#319E48" d="M137.523,117.087c-0.275-0.086-0.535-0.118-0.773-0.094c-0.181,0.017-0.358,0.073-0.537,0.169
		c-0.175,0.097-0.328,0.221-0.461,0.37c-0.176,0.202-0.318,0.479-0.426,0.827c-0.17,0.543-0.152,1.016,0.051,1.42
		c0.201,0.402,0.556,0.683,1.061,0.84c0.5,0.158,0.947,0.126,1.342-0.091c0.395-0.218,0.68-0.603,0.85-1.153
		c0.172-0.557,0.156-1.037-0.049-1.444C138.377,117.524,138.026,117.243,137.523,117.087z M137.926,119.137
		c-0.125,0.396-0.305,0.665-0.543,0.808c-0.236,0.144-0.49,0.172-0.766,0.087c-0.273-0.087-0.467-0.257-0.584-0.51
		c-0.115-0.258-0.111-0.578,0.008-0.965c0.121-0.394,0.299-0.659,0.531-0.8c0.234-0.141,0.493-0.166,0.777-0.078
		c0.281,0.089,0.479,0.255,0.588,0.501C138.05,118.426,138.045,118.745,137.926,119.137z"/>
	<path fill="#FFFFFF" d="M137.35,117.679c-0.284-0.088-0.543-0.062-0.777,0.078c-0.232,0.141-0.41,0.406-0.531,0.8
		c-0.119,0.387-0.123,0.707-0.008,0.965c0.117,0.253,0.311,0.423,0.584,0.51c0.275,0.085,0.529,0.057,0.766-0.087
		c0.238-0.143,0.418-0.412,0.543-0.808c0.119-0.392,0.124-0.711,0.012-0.957C137.828,117.934,137.631,117.768,137.35,117.679z"/>
	<path fill="#319E48" d="M144.367,124.415l0.764,0.397l-0.064-0.819c-0.029-0.326-0.061-0.562-0.102-0.705
		c-0.039-0.143-0.107-0.291-0.203-0.443c0.299,0.104,0.557,0.115,0.775,0.032c0.222-0.083,0.393-0.244,0.514-0.483
		c0.099-0.188,0.139-0.378,0.121-0.571s-0.088-0.359-0.211-0.494c-0.125-0.137-0.354-0.295-0.693-0.469l-1.344-0.699l-1.637,3.175
		l0.639,0.332l0.684-1.324l0.131,0.066c0.145,0.077,0.246,0.145,0.301,0.204c0.057,0.059,0.097,0.136,0.123,0.231
		c0.029,0.096,0.062,0.309,0.099,0.642L144.367,124.415z M143.871,121.836l0.415-0.807l0.499,0.259
		c0.258,0.135,0.41,0.219,0.459,0.253c0.094,0.07,0.154,0.154,0.176,0.251c0.023,0.095,0.008,0.195-0.046,0.302
		c-0.052,0.095-0.112,0.164-0.188,0.204c-0.077,0.042-0.161,0.057-0.25,0.042c-0.09-0.014-0.286-0.101-0.595-0.259L143.871,121.836z
		"/>
	<path fill="#FFFFFF" d="M144.937,122.34c0.089,0.015,0.173,0,0.25-0.042c0.075-0.04,0.136-0.109,0.188-0.204
		c0.054-0.106,0.069-0.207,0.046-0.302c-0.021-0.097-0.082-0.181-0.176-0.251c-0.049-0.034-0.201-0.118-0.459-0.253l-0.499-0.259
		l-0.415,0.807l0.471,0.245C144.65,122.239,144.847,122.326,144.937,122.34z"/>
	<path fill="#319E48" d="M155.145,131.238c0.078,0.444,0.338,0.815,0.776,1.113c0.433,0.294,0.87,0.396,1.311,0.302
		c0.44-0.096,0.823-0.383,1.146-0.859c0.324-0.483,0.449-0.947,0.369-1.396c-0.078-0.446-0.334-0.819-0.768-1.114
		c-0.242-0.163-0.479-0.268-0.717-0.314c-0.176-0.036-0.364-0.033-0.562,0.007c-0.195,0.041-0.377,0.114-0.548,0.221
		c-0.228,0.143-0.442,0.365-0.645,0.667C155.188,130.336,155.068,130.794,155.145,131.238z M156.135,130.262
		c0.227-0.343,0.475-0.546,0.738-0.611c0.266-0.067,0.521-0.02,0.765,0.147c0.245,0.168,0.386,0.385,0.421,0.652
		c0.037,0.268-0.061,0.571-0.288,0.91c-0.231,0.345-0.481,0.549-0.751,0.618c-0.268,0.067-0.52,0.021-0.756-0.14
		c-0.237-0.161-0.375-0.38-0.414-0.657C155.812,130.902,155.908,130.597,156.135,130.262z"/>
	<path fill="#FFFFFF" d="M157.02,131.979c0.27-0.069,0.52-0.273,0.751-0.618c0.228-0.339,0.325-0.643,0.288-0.91
		c-0.035-0.268-0.176-0.484-0.421-0.652c-0.244-0.167-0.499-0.215-0.765-0.147c-0.264,0.065-0.512,0.269-0.738,0.611
		c-0.227,0.335-0.322,0.641-0.285,0.92c0.039,0.277,0.177,0.496,0.414,0.657C156.5,132,156.752,132.046,157.02,131.979z"/>
	<polygon fill="#319E48" points="123.798,116.043 125.701,116.481 125.797,116.059 124.4,115.736 124.557,115.054 125.812,115.342 
		125.909,114.92 124.652,114.631 124.782,114.074 126.128,114.384 126.227,113.961 124.373,113.532 	"/>
</g>
</svg>
