<?xml version="1.0" encoding="utf-8"?>
<!-- Generator: Adobe Illustrator 16.0.0, SVG Export Plug-In . SVG Version: 6.00 Build 0)  -->
<!DOCTYPE svg PUBLIC "-//W3C//DTD SVG 1.1//EN" "http://www.w3.org/Graphics/SVG/1.1/DTD/svg11.dtd">
<svg version="1.1" id="图形" xmlns="http://www.w3.org/2000/svg" xmlns:xlink="http://www.w3.org/1999/xlink" x="0px" y="0px"
	 width="1000.637px" height="1000.678px" viewBox="15.167 -16.333 1000.637 1000.678"
	 enable-background="new 15.167 -16.333 1000.637 1000.678" xml:space="preserve">
<path fill="#ADD13B" d="M952.725,483.565c0,241.541-195.797,437.335-437.336,437.335S78.053,725.106,78.053,483.565
	S273.85,46.23,515.389,46.23S952.725,242.025,952.725,483.565z"/>
<path fill="none" d="M952.412,483.451c0,241.541-195.797,437.335-437.336,437.335S77.74,724.991,77.74,483.451
	S273.537,46.115,515.076,46.115S952.412,241.91,952.412,483.451z"/>
<path fill="#87A305" d="M938.503,593.279L665.955,338.402l-135.605-53.37l-184.11,102.598l201.464,188.267l-32.217,26.949l70,65.328
	l-48.246-11.334L335.96,474.285l13.008,174.212l276.471,258.24C778.468,866.952,898.908,746.384,938.503,593.279z"/>
<g>
	<path fill="#EDEDED" d="M667.902,615.575c-2.914-7.656-8.723-13.848-16.199-17.203l-102.381-46.145
		c-15.555-7.057-33.824-0.102-40.818,15.453c-7.016,15.537-0.1,33.826,15.455,40.82l47.715,21.514
		c-22.465,12.377-47.867,19.018-73.783,19.018c-84.23,0-152.745-68.533-152.745-152.785c0-17.045-13.827-30.871-30.87-30.871
		c-17.045,0-30.871,13.826-30.871,30.871c0,118.299,96.209,214.527,214.486,214.527c25.928,0,51.496-4.74,75.467-13.748
		l-10.568,23.443c-7.016,15.533-0.1,33.803,15.455,40.818c4.121,1.867,8.42,2.732,12.662,2.732c11.777,0,23.012-6.752,28.158-18.189
		l48.094-106.639C670.535,631.736,670.796,623.234,667.902,615.575z"/>
	<path fill="#FFFFFF" d="M520,280.787c-28.68,0-56.916,5.791-83.027,16.74l10.109-22.433c7.016-15.536,0.102-33.805-15.455-40.819
		c-15.555-7.075-33.805-0.1-40.818,15.455L342.734,356.33c-7.016,15.535-0.101,33.804,15.436,40.819l102.359,46.186
		c4.119,1.869,8.439,2.733,12.682,2.733c11.758,0,23.012-6.754,28.158-18.169c7.014-15.557,0.1-33.825-15.436-40.839l-47.064-21.232
		c24.176-15.127,52.34-23.3,81.131-23.3c84.232,0,152.746,68.535,152.746,152.786c0,17.044,13.828,30.872,30.871,30.872
		s30.871-13.828,30.871-30.872C734.488,377.016,638.277,280.787,520,280.787z"/>
</g>
</svg>
