<?xml version="1.0" encoding="utf-8"?>
<!-- Generator: Adobe Illustrator 16.0.0, SVG Export Plug-In . SVG Version: 6.00 Build 0)  -->
<!DOCTYPE svg PUBLIC "-//W3C//DTD SVG 1.1//EN" "http://www.w3.org/Graphics/SVG/1.1/DTD/svg11.dtd">
<svg version="1.1" id="图形" xmlns="http://www.w3.org/2000/svg" xmlns:xlink="http://www.w3.org/1999/xlink" x="0px" y="0px"
	 width="1000.637px" height="1000.678px" viewBox="1077.667 -16.271 1000.637 1000.678"
	 enable-background="new 1077.667 -16.271 1000.637 1000.678" xml:space="preserve">
<path fill="#CCCCCC" d="M2015.225,483.565c0,241.541-195.797,437.335-437.336,437.335s-437.336-195.795-437.336-437.335
	S1336.35,46.23,1577.889,46.23S2015.225,242.025,2015.225,483.565z"/>
<path fill="none" d="M2014.912,483.451c0,241.541-195.797,437.335-437.336,437.335S1140.24,724.991,1140.24,483.451
	s195.797-437.335,437.336-437.335S2014.912,241.91,2014.912,483.451z"/>
<path fill="#A2A2A3" d="M2001.003,593.279l-272.549-254.877l-135.605-53.37l-184.11,102.598l201.464,188.267l-32.217,26.949
	l70,65.328l-48.246-11.334L1398.46,474.285l13.008,174.212l276.471,258.24C1840.968,866.952,1961.408,746.384,2001.003,593.279z"/>
<g>
	<path fill="#EDEDED" d="M1730.402,615.575c-2.914-7.656-8.723-13.848-16.199-17.203l-102.381-46.145
		c-15.555-7.057-33.824-0.102-40.818,15.453c-7.016,15.537-0.1,33.826,15.455,40.82l47.715,21.514
		c-22.465,12.377-47.867,19.018-73.783,19.018c-84.23,0-152.745-68.533-152.745-152.785c0-17.045-13.827-30.871-30.87-30.871
		c-17.045,0-30.871,13.826-30.871,30.871c0,118.299,96.209,214.527,214.486,214.527c25.928,0,51.496-4.74,75.467-13.748
		l-10.568,23.443c-7.016,15.533-0.1,33.803,15.455,40.818c4.121,1.867,8.42,2.732,12.662,2.732c11.777,0,23.012-6.752,28.158-18.189
		l48.094-106.639C1733.035,631.736,1733.296,623.234,1730.402,615.575z"/>
	<path fill="#FFFFFF" d="M1582.5,280.787c-28.68,0-56.916,5.791-83.027,16.74l10.109-22.433
		c7.016-15.536,0.102-33.805-15.455-40.819c-15.555-7.075-33.805-0.1-40.818,15.455l-48.074,106.601
		c-7.016,15.535-0.101,33.804,15.436,40.819l102.359,46.186c4.119,1.869,8.439,2.733,12.682,2.733
		c11.758,0,23.012-6.754,28.158-18.169c7.014-15.557,0.1-33.825-15.436-40.839l-47.064-21.232c24.176-15.127,52.34-23.3,81.131-23.3
		c84.232,0,152.746,68.535,152.746,152.786c0,17.044,13.828,30.872,30.871,30.872s30.871-13.828,30.871-30.872
		C1796.988,377.016,1700.777,280.787,1582.5,280.787z"/>
</g>
</svg>
