<?xml version="1.0" encoding="utf-8"?>
<!-- Generator: Adobe Illustrator 16.0.0, SVG Export Plug-In . SVG Version: 6.00 Build 0)  -->
<!DOCTYPE svg PUBLIC "-//W3C//DTD SVG 1.1//EN" "http://www.w3.org/Graphics/SVG/1.1/DTD/svg11.dtd">
<svg version="1.1" id="图形" xmlns="http://www.w3.org/2000/svg" xmlns:xlink="http://www.w3.org/1999/xlink" x="0px" y="0px"
	 width="1000.637px" height="1000.678px" viewBox="1077.667 5296.438 1000.637 1000.678"
	 enable-background="new 1077.667 5296.438 1000.637 1000.678" xml:space="preserve">
<g>
	<path fill="#FFFFFF" d="M1649.386,5796.908l-186.84,186.882c-11.391,11.386-11.391,30.1,0,41.529
		c11.346,11.31,30.062,11.31,41.451,0l207.826-207.834c11.355-11.422,11.355-30.143,0-41.453l-207.826-207.869
		c-5.883-5.88-13.207-8.412-20.91-8.412c-7.748,0-15.035,2.941-20.92,8.412c-11.385,11.387-11.385,30.143,0,41.493
		L1649.386,5796.908z"/>
	<path fill="#FFFFFF" d="M1483.087,5559.751c7.703,0,15.027,2.532,20.91,8.412l207.826,207.869
		c11.355,11.311,11.355,30.031,0,41.453l-207.826,207.834c-5.694,5.654-13.221,8.482-20.742,8.482
		c-7.521,0-15.036-2.828-20.709-8.482c-11.391-11.43-11.391-30.144,0-41.529l186.84-186.882l-187.219-187.252
		c-11.385-11.351-11.385-30.106,0-41.493C1468.052,5562.692,1475.339,5559.751,1483.087,5559.751 M1483.087,5555.751
		c-8.795,0-16.971,3.279-23.644,9.482c-0.036,0.033-0.07,0.066-0.104,0.102c-6.27,6.27-9.718,14.656-9.711,23.615
		c0.008,8.94,3.457,17.301,9.715,23.539l184.387,184.419l-184.012,184.054c-12.99,12.984-12.992,34.149-0.005,47.182
		c6.251,6.23,14.608,9.658,23.542,9.658c8.932,0,17.299-3.426,23.561-9.645l207.836-207.844
		c12.98-13.055,12.974-34.188-0.006-47.115l-207.82-207.863C1500.553,5559.065,1492.344,5555.751,1483.087,5555.751
		L1483.087,5555.751z"/>
</g>
</svg>
