<?xml version="1.0" encoding="utf-8"?>
<!-- Generator: Adobe Illustrator 16.0.0, SVG Export Plug-In . SVG Version: 6.00 Build 0)  -->
<!DOCTYPE svg PUBLIC "-//W3C//DTD SVG 1.1//EN" "http://www.w3.org/Graphics/SVG/1.1/DTD/svg11.dtd">
<svg version="1.1" xmlns="http://www.w3.org/2000/svg" xmlns:xlink="http://www.w3.org/1999/xlink" x="0px" y="0px"
	 width="1000.637px" height="1000.678px" viewBox="15.167 -16.333 1000.637 1000.678"
	 enable-background="new 15.167 -16.333 1000.637 1000.678" xml:space="preserve">
<g id="图形">
	<g>
		<path d="M273.406,312.728h484.16c13.38,0,24.147-10.796,24.147-24.158c0-13.35-10.768-24.147-24.147-24.147
			h-484.16c-13.319,0-24.15,10.798-24.15,24.147C249.255,301.932,260.086,312.728,273.406,312.728z"/>
		<path d="M757.566,457.652h-484.16c-13.319,0-24.15,10.801-24.15,24.147c0,13.349,10.831,24.149,24.15,24.149
			h484.16c13.38,0,24.147-10.801,24.147-24.149C781.713,468.452,770.946,457.652,757.566,457.652z"/>
		<path d="M757.566,650.868h-484.16c-13.319,0-24.15,10.8-24.15,24.162c0,13.347,10.831,24.146,24.15,24.146h484.16
			c13.38,0,24.147-10.8,24.147-24.146C781.713,661.668,770.946,650.868,757.566,650.868z"/>
	</g>
</g>
<g id="Layer_2">
</g>
</svg>
