<?xml version="1.0" encoding="utf-8"?>
<!-- Generator: Adobe Illustrator 16.0.0, SVG Export Plug-In . SVG Version: 6.00 Build 0)  -->
<!DOCTYPE svg PUBLIC "-//W3C//DTD SVG 1.1//EN" "http://www.w3.org/Graphics/SVG/1.1/DTD/svg11.dtd">
<svg version="1.1" id="Layer_1" xmlns="http://www.w3.org/2000/svg" xmlns:xlink="http://www.w3.org/1999/xlink" x="0px" y="0px"
	 width="255.12px" height="255.12px" viewBox="0 0 255.12 255.12" enable-background="new 0 0 255.12 255.12" xml:space="preserve">
<g>
	<path fill="#EC2727" d="M211.348,57.74h-32.441v134h32.441c9.389,0,17-7.609,17-17v-100
		C228.348,65.352,220.736,57.74,211.348,57.74z"/>
	<path fill="#EC2727" d="M45.347,57.74c-9.389,0-17,7.611-17,17v100c0,9.391,7.611,17,17,17H77.79v-134H45.347z"/>
	<path fill="#FAFAFA" d="M77.79,57.74v134h101.117v-134H77.79z M147.221,143.076l1.596,5.471
		c-6.271-0.756-11.895-1.432-18.166-2.188c-0.557-0.008-1.396,0.531-1.391,1.201l0.48,19.998h-3.05l0.83-20.041
		c0.003-0.67-0.92-1.166-1.478-1.158c-6.271,0.756-11.896,1.432-18.166,2.188l1.594-5.471c0.257-0.953-0.107-2.006-0.828-2.59
		l-18.215-15.469l3.771-1.854c1.66-0.619,1.195-1.594,0.6-3.943l-2.777-10.564l10.58,2.326c1.033,0.162,1.722-0.523,1.879-1.176
		l1.359-4.975l8.368,9.795c1.188,1.566,3.601,1.566,2.849-2.057l-3.574-19.838l4.796,2.596c1.347,0.783,2.693,0.914,3.443-0.49
		l6.623-12.914l6.626,12.914c0,0,2.098,1.273,3.445,0.49l4.795-2.596l-3.574,19.838c-0.752,3.623,1.66,3.623,2.85,2.057l8.369-9.795
		l1.357,4.975c0.156,0.652,0.846,1.338,1.879,1.176l10.58-2.326l-2.779,10.564c-0.594,2.35-1.059,3.324,0.6,3.943l3.773,1.854
		l-18.215,15.469C147.33,141.07,146.965,142.123,147.221,143.076z"/>
	<path fill="#EC2727" d="M148.051,140.486l18.215-15.469l-3.773-1.854c-1.658-0.619-1.193-1.594-0.6-3.943l2.779-10.564
		l-10.58,2.326c-1.033,0.162-1.723-0.523-1.879-1.176l-1.357-4.975l-8.369,9.795c-1.189,1.566-3.602,1.566-2.85-2.057l3.574-19.838
		l-4.795,2.596c-1.348,0.783-3.445-0.49-3.445-0.49l-6.626-12.914l-6.623,12.914c-0.75,1.404-2.097,1.273-3.443,0.49l-4.796-2.596
		l3.574,19.838c0.752,3.623-1.66,3.623-2.849,2.057l-8.368-9.795l-1.359,4.975c-0.157,0.652-0.846,1.338-1.879,1.176l-10.58-2.326
		l2.777,10.564c0.596,2.35,1.061,3.324-0.6,3.943l-3.771,1.854l18.215,15.469c0.721,0.584,1.085,1.637,0.828,2.59l-1.594,5.471
		c6.271-0.756,11.895-1.432,18.166-2.188c0.558-0.008,1.48,0.488,1.478,1.158l-0.83,20.041h3.05l-0.48-19.998
		c-0.006-0.67,0.834-1.209,1.391-1.201c6.271,0.756,11.895,1.432,18.166,2.188l-1.596-5.471
		C146.965,142.123,147.33,141.07,148.051,140.486z"/>
</g>
</svg>
