<?xml version="1.0" encoding="utf-8"?>
<!-- Generator: Adobe Illustrator 16.0.0, SVG Export Plug-In . SVG Version: 6.00 Build 0)  -->
<!DOCTYPE svg PUBLIC "-//W3C//DTD SVG 1.1//EN" "http://www.w3.org/Graphics/SVG/1.1/DTD/svg11.dtd">
<svg version="1.1" id="Layer_1" xmlns="http://www.w3.org/2000/svg" xmlns:xlink="http://www.w3.org/1999/xlink" x="0px" y="0px"
	 width="255.12px" height="255.12px" viewBox="0 0 255.12 255.12" enable-background="new 0 0 255.12 255.12" xml:space="preserve">
<g>
	<path fill="#D72D2C" d="M45.686,191.889h166c9.389,0,17-7.61,17-17v-100c0-9.389-7.611-17-17-17h-166c-9.389,0-17,7.611-17,17v100
		C28.686,184.278,36.297,191.889,45.686,191.889z M82.184,110.938h32.551V78.387h27.902v32.551h32.551v27.902h-32.551v32.551
		h-27.902V138.84H82.184V110.938z"/>
	<polygon fill="#FFFFFF" points="114.735,171.391 142.637,171.391 142.637,138.84 175.188,138.84 175.188,110.938 142.637,110.938 
		142.637,78.387 114.735,78.387 114.735,110.938 82.184,110.938 82.184,138.84 114.735,138.84 	"/>
</g>
</svg>
