<?xml version="1.0" encoding="utf-8"?>
<!-- Generator: Adobe Illustrator 16.0.0, SVG Export Plug-In . SVG Version: 6.00 Build 0)  -->
<!DOCTYPE svg PUBLIC "-//W3C//DTD SVG 1.1//EN" "http://www.w3.org/Graphics/SVG/1.1/DTD/svg11.dtd">
<svg version="1.1" id="Layer_1" xmlns="http://www.w3.org/2000/svg" xmlns:xlink="http://www.w3.org/1999/xlink" x="0px" y="0px"
	 width="255.121px" height="255.121px" viewBox="0 0 255.121 255.121" enable-background="new 0 0 255.121 255.121"
	 xml:space="preserve">
<g>
	<path fill="#EDEDED" d="M228.597,124.74v-50c0-9.389-7.611-17-17-17H94.905v67H228.597z"/>
	<path fill="#24479B" d="M94.905,57.74H45.599c-9.389,0-17,7.611-17,17v50h66.307L94.905,57.74L94.905,57.74z M71.116,104.678
		l-9.902-7.193l-9.9,7.193l3.781-11.641l-9.902-7.193h12.24l3.783-11.641l3.781,11.641h12.24l-9.902,7.193L71.116,104.678z"/>
	<path fill="#D33929" d="M45.599,191.74h165.998c9.389,0,17-7.611,17-17v-50H94.905H28.599v50
		C28.599,184.128,36.21,191.74,45.599,191.74z"/>
	<polygon fill="#FFFFFF" points="64.997,85.844 61.216,74.203 57.433,85.844 45.192,85.844 55.095,93.037 51.313,104.678 
		61.214,97.484 71.116,104.678 67.335,93.037 77.237,85.844 	"/>
</g>
</svg>
