<?xml version="1.0" encoding="utf-8"?>
<!-- Generator: Adobe Illustrator 16.0.0, SVG Export Plug-In . SVG Version: 6.00 Build 0)  -->
<!DOCTYPE svg PUBLIC "-//W3C//DTD SVG 1.1//EN" "http://www.w3.org/Graphics/SVG/1.1/DTD/svg11.dtd">
<svg version="1.1" id="Layer_1" xmlns="http://www.w3.org/2000/svg" xmlns:xlink="http://www.w3.org/1999/xlink" x="0px" y="0px"
	 width="255.12px" height="255.12px" viewBox="0 0 255.12 255.12" enable-background="new 0 0 255.12 255.12" xml:space="preserve">
<g>
	<path fill="#DD372B" d="M210.848,191.74c9.389,0,17-7.611,17-17v-100c0-9.389-7.611-17-17-17h-166c-9.389,0-17,7.611-17,17v100
		c0,9.389,7.611,17,17,17H210.848z M95.945,119.654l-0.359,4.873l-2.506-4.043l-4.475,1.227l2.951-3.688l-2.707-4.367l3.635,1.482
		l0.906,0.342l3.135-3.709l-0.004,0.047l0.076-0.094l-0.232,5l4.324,1.766L95.945,119.654z M111.818,109.863l-4.055-2.729
		l-3.846,3.012l1.342-4.697l-4.053-2.729l4.883-0.176l1.342-4.697l1.676,4.588l4.883-0.174l-3.848,3.012L111.818,109.863z
		 M104.713,78.357l3.4,3.506l4.387-2.152l-2.283,4.32l3.4,3.506l-4.812-0.838l-2.283,4.32l-0.691-4.836l-4.814-0.838l4.387-2.152
		L104.713,78.357z M89.152,66.531l4.496,1.912l3.207-3.686l-0.43,4.867l4.496,1.912l-4.76,1.094l-0.43,4.867l-2.514-4.189
		l-4.76,1.098l3.207-3.688L89.152,66.531z M56.074,84.885l4.529-13.939l4.529,13.939h14.656L67.932,93.5l4.527,13.939l-11.855-8.615
		l-11.857,8.615L53.273,93.5l-11.857-8.615H56.074z"/>
	<polygon fill="#FFDE00" points="48.746,107.439 60.604,98.824 72.459,107.439 67.932,93.5 79.789,84.885 65.133,84.885 
		60.604,70.945 56.074,84.885 41.416,84.885 53.273,93.5 	"/>
	<polygon fill="#FFDE00" points="93.219,73.309 95.732,77.498 96.162,72.631 100.922,71.537 96.426,69.625 96.855,64.758 
		93.648,68.443 89.152,66.531 91.666,70.719 88.459,74.406 	"/>
	<polygon fill="#FFDE00" points="105.83,86.184 106.521,91.02 108.805,86.699 113.617,87.537 110.217,84.031 112.5,79.711 
		108.113,81.863 104.713,78.357 105.402,83.193 101.016,85.346 	"/>
	<polygon fill="#FFDE00" points="109.107,102.436 107.432,97.848 106.09,102.545 101.207,102.721 105.26,105.449 103.918,110.146 
		107.764,107.135 111.818,109.863 110.143,105.273 113.99,102.262 	"/>
	<polygon fill="#FFDE00" points="96.598,111.725 96.521,111.818 96.525,111.771 93.391,115.48 92.484,115.139 88.85,113.656 
		91.557,118.023 88.605,121.711 93.08,120.484 95.586,124.527 95.945,119.654 100.689,118.49 96.365,116.725 	"/>
</g>
</svg>
