<svg xmlns="http://www.w3.org/2000/svg" viewBox="460.076 507 27.54 27.553">
  <defs>
    <style>
      .cls-1 {
        fill: #f2f2f3;
      }
    </style>
  </defs>
  <path id="path-30" class="cls-1" d="M4.028,23.519a13.779,13.779,0,1,1,9.741,4.034A13.793,13.793,0,0,1,4.028,23.519ZM5.684,5.688A11.439,11.439,0,1,0,13.77,2.34,11.453,11.453,0,0,0,5.684,5.688Zm5.839,12.428L8.49,14.931a1.17,1.17,0,0,1,1.7-1.614l2.122,2.227L18.164,8.4a1.17,1.17,0,1,1,1.81,1.484l-6.7,8.165a1.162,1.162,0,0,1-.86.427.333.333,0,0,1-.043,0A1.172,1.172,0,0,1,11.524,18.116Z" transform="translate(460.076 507)"/>
</svg>
