<?xml version="1.0" encoding="utf-8"?>
<!-- Generator: Adobe Illustrator 16.0.0, SVG Export Plug-In . SVG Version: 6.00 Build 0)  -->
<!DOCTYPE svg PUBLIC "-//W3C//DTD SVG 1.1//EN" "http://www.w3.org/Graphics/SVG/1.1/DTD/svg11.dtd">
<svg version="1.1" id="Layer_1" xmlns="http://www.w3.org/2000/svg" xmlns:xlink="http://www.w3.org/1999/xlink" x="0px" y="0px"
	 width="255.121px" height="255.121px" viewBox="0 0 255.121 255.121" enable-background="new 0 0 255.121 255.121"
	 xml:space="preserve">
<g>
	<path fill="#EDEDED" d="M211.742,57.629h-166c-4.311,0-8.234,1.617-11.23,4.26l94.106,62.74h100.123v-50
		C228.742,65.24,221.13,57.629,211.742,57.629z"/>
	<path fill="#D72C32" d="M34.512,187.367c2.996,2.646,6.92,4.262,11.23,4.262h166c9.389,0,17-7.61,17-17v-50H128.619L34.512,187.367
		z"/>
	<path fill="#19497E" d="M34.512,61.889c-3.531,3.115-5.77,7.662-5.77,12.74v100c0,5.078,2.238,9.623,5.77,12.738l94.106-62.738
		L34.512,61.889z"/>
</g>
</svg>
