<?xml version="1.0" encoding="utf-8"?>
<!-- Generator: Adobe Illustrator 16.0.0, SVG Export Plug-In . SVG Version: 6.00 Build 0)  -->
<!DOCTYPE svg PUBLIC "-//W3C//DTD SVG 1.1//EN" "http://www.w3.org/Graphics/SVG/1.1/DTD/svg11.dtd">
<svg version="1.1" id="Layer_1" xmlns="http://www.w3.org/2000/svg" xmlns:xlink="http://www.w3.org/1999/xlink" x="0px" y="0px"
	 width="255.12px" height="255.12px" viewBox="0 0 255.12 255.12" enable-background="new 0 0 255.12 255.12" xml:space="preserve">
<g>
	<path fill="#D02B3F" d="M227.994,114.381V74.629c0-9.389-7.611-17-17.001-17H105.171v56.752H227.994z"/>
	<path fill="#D02B3F" d="M105.171,191.629h105.822c9.39,0,17.001-7.611,17.001-17v-39.752H105.171V191.629z"/>
	<path fill="#D02B3F" d="M85.005,191.629v-56.752H27.993v39.752c0,9.389,7.611,17,17,17H85.005z"/>
	<path fill="#D02B3F" d="M85.005,57.629H44.993c-9.389,0-17,7.611-17,17v39.752h57.012V57.629z"/>
	<polygon fill="#FAFAFA" points="85.005,191.629 105.171,191.629 105.171,134.877 227.994,134.877 227.994,114.381 105.171,114.381 
		105.171,57.629 85.005,57.629 85.005,114.381 27.993,114.381 27.993,134.877 85.005,134.877 	"/>
</g>
</svg>
