<?xml version="1.0" encoding="utf-8"?>
<!-- Generator: Adobe Illustrator 16.0.0, SVG Export Plug-In . SVG Version: 6.00 Build 0)  -->
<!DOCTYPE svg PUBLIC "-//W3C//DTD SVG 1.1//EN" "http://www.w3.org/Graphics/SVG/1.1/DTD/svg11.dtd">
<svg version="1.1" id="Layer_1" xmlns="http://www.w3.org/2000/svg" xmlns:xlink="http://www.w3.org/1999/xlink" x="0px" y="0px"
	 width="255.12px" height="255.12px" viewBox="0 0 255.12 255.12" enable-background="new 0 0 255.12 255.12" xml:space="preserve">
<g>
	<path fill="#243E90" d="M45.207,192.026h166c9.389,0,17-7.611,17-17v-100c0-9.39-7.611-17-17-17h-166c-9.389,0-17,7.61-17,17v100
		C28.207,184.415,35.818,192.026,45.207,192.026z M93.768,152.605l-4.147-3.015l-4.148,3.015l1.584-4.877l-4.148-3.014h5.129
		l1.584-4.877l1.584,4.877h5.128l-4.148,3.014L93.768,152.605z M180.219,122.53l-4.15,3.014l1.584,4.877l-4.146-3.015l-4.148,3.015
		l1.584-4.877l-4.148-3.014h5.129l1.584-4.877l1.584,4.877H180.219z M165.209,100.322l1.584-4.877l1.584,4.877h5.129l-4.148,3.014
		l1.584,4.877l-4.148-3.015l-4.148,3.015l1.584-4.877l-4.148-3.014H165.209z M165.209,144.715l1.584-4.877l1.584,4.877h5.129
		l-4.148,3.014l1.584,4.877l-4.148-3.015l-4.148,3.015l1.584-4.877l-4.148-3.014H165.209z M149.1,83.666l1.584-4.877l1.586,4.877
		h5.127l-4.148,3.014l1.584,4.877l-4.148-3.015l-4.148,3.015l1.586-4.877l-4.15-3.014H149.1z M149.1,161.477l1.584-4.877
		l1.586,4.877h5.127l-4.148,3.014l1.584,4.877l-4.148-3.015l-4.148,3.015l1.586-4.877l-4.15-3.014H149.1z M126.435,78.032
		l1.584-4.877l1.584,4.877h5.129l-4.148,3.014l1.584,4.877l-4.149-3.015l-4.147,3.015l1.584-4.877l-4.148-3.014H126.435z
		 M126.435,167.096l1.584-4.877l1.584,4.877h5.129l-4.148,3.014l1.584,4.877l-4.149-3.015l-4.147,3.015l1.584-4.877l-4.148-3.014
		H126.435z M104.145,83.666l1.584-4.877l1.585,4.877h5.128l-4.149,3.014l1.585,4.877l-4.148-3.015l-4.147,3.015l1.584-4.877
		l-4.148-3.014H104.145z M104.145,161.477l1.584-4.877l1.585,4.877h5.128l-4.149,3.014l1.585,4.877l-4.148-3.015l-4.147,3.015
		l1.584-4.877l-4.148-3.014H104.145z M88.037,100.322l1.584-4.877l1.584,4.877h5.128l-4.148,3.014l1.584,4.877l-4.147-3.015
		l-4.148,3.015l1.584-4.877l-4.148-3.014H88.037z M81.324,122.53l1.584-4.877l1.585,4.877h5.128l-4.149,3.014l1.585,4.877
		l-4.148-3.015l-4.147,3.015l1.584-4.877l-4.149-3.014H81.324z"/>
	<polygon fill="#FFCD05" points="123.872,85.923 128.019,82.908 132.168,85.923 130.584,81.046 134.732,78.032 129.604,78.032 
		128.019,73.155 126.435,78.032 121.307,78.032 125.456,81.046 	"/>
	<polygon fill="#FFCD05" points="85.472,108.213 89.621,105.198 93.768,108.213 92.184,103.336 96.333,100.322 91.205,100.322 
		89.621,95.445 88.037,100.322 82.908,100.322 87.056,103.336 	"/>
	<polygon fill="#FFCD05" points="162.645,108.213 166.793,105.198 170.941,108.213 169.357,103.336 173.506,100.322 
		168.377,100.322 166.793,95.445 165.209,100.322 160.08,100.322 164.229,103.336 	"/>
	<polygon fill="#FFCD05" points="91.205,144.715 89.621,139.838 88.037,144.715 82.908,144.715 87.056,147.729 85.472,152.605 
		89.621,149.591 93.768,152.605 92.184,147.729 96.333,144.715 	"/>
	<polygon fill="#FFCD05" points="162.645,152.605 166.793,149.591 170.941,152.605 169.357,147.729 173.506,144.715 
		168.377,144.715 166.793,139.838 165.209,144.715 160.08,144.715 164.229,147.729 	"/>
	<polygon fill="#FFCD05" points="171.922,122.53 166.793,122.53 170.941,125.544 169.357,130.421 173.506,127.406 177.652,130.421 
		176.068,125.544 180.219,122.53 175.09,122.53 173.506,117.653 	"/>
	<polygon fill="#FFCD05" points="78.76,130.421 82.908,127.406 87.056,130.421 85.471,125.544 89.621,122.53 84.493,122.53 
		82.908,117.653 81.324,122.53 76.195,122.53 80.344,125.544 	"/>
	<polygon fill="#FFCD05" points="123.872,174.986 128.019,171.972 132.168,174.986 130.584,170.109 134.732,167.096 
		129.604,167.096 128.019,162.219 126.435,167.096 121.307,167.096 125.456,170.109 	"/>
	<polygon fill="#FFCD05" points="146.535,169.367 150.684,166.353 154.832,169.367 153.248,164.49 157.396,161.477 152.27,161.477 
		150.684,156.6 149.1,161.477 143.971,161.477 148.121,164.49 	"/>
	<polygon fill="#FFCD05" points="101.582,169.367 105.729,166.353 109.877,169.367 108.292,164.49 112.442,161.477 107.314,161.477 
		105.729,156.6 104.145,161.477 99.017,161.477 103.166,164.49 	"/>
	<polygon fill="#FFCD05" points="146.535,91.557 150.684,88.542 154.832,91.557 153.248,86.68 157.396,83.666 152.27,83.666 
		150.684,78.789 149.1,83.666 143.971,83.666 148.121,86.68 	"/>
	<polygon fill="#FFCD05" points="101.582,91.557 105.729,88.542 109.877,91.557 108.292,86.68 112.442,83.666 107.314,83.666 
		105.729,78.789 104.145,83.666 99.017,83.666 103.166,86.68 	"/>
</g>
</svg>
