<?xml version="1.0" encoding="utf-8"?>
<!-- Generator: Adobe Illustrator 16.0.0, SVG Export Plug-In . SVG Version: 6.00 Build 0)  -->
<!DOCTYPE svg PUBLIC "-//W3C//DTD SVG 1.1//EN" "http://www.w3.org/Graphics/SVG/1.1/DTD/svg11.dtd">
<svg version="1.1" id="Layer_1" xmlns="http://www.w3.org/2000/svg" xmlns:xlink="http://www.w3.org/1999/xlink" x="0px" y="0px"
	 width="255.121px" height="255.121px" viewBox="0 0 255.121 255.121" enable-background="new 0 0 255.121 255.121"
	 xml:space="preserve">
<g>
	<path fill="#EDEDED" d="M211.046,58.143h-86.4v48.398h103.4V75.143C228.046,65.754,220.436,58.143,211.046,58.143z"/>
	<path fill="#EDEDED" d="M87.444,58.143H45.047c-9.389,0-17,7.611-17,17v31.398h59.396L87.444,58.143L87.444,58.143z"/>
	<path fill="#EDEDED" d="M124.646,192.143h86.4c9.39,0,17-7.61,17-17v-31.397h-103.4V192.143z"/>
	<path fill="#EDEDED" d="M28.047,143.744v31.398c0,9.389,7.611,17,17,17h42.396v-48.398H28.047z"/>
	<polygon fill="#223D7B" points="124.646,58.143 87.444,58.143 87.444,106.541 28.047,106.541 28.047,143.744 87.444,143.744 
		87.444,192.143 124.646,192.143 124.646,143.744 228.046,143.744 228.046,106.541 124.646,106.541 	"/>
</g>
</svg>
