<?xml version="1.0" encoding="utf-8"?>
<!-- Generator: Adobe Illustrator 16.0.0, SVG Export Plug-In . SVG Version: 6.00 Build 0)  -->
<!DOCTYPE svg PUBLIC "-//W3C//DTD SVG 1.1//EN" "http://www.w3.org/Graphics/SVG/1.1/DTD/svg11.dtd">
<svg version="1.1" id="Layer_1" xmlns="http://www.w3.org/2000/svg" xmlns:xlink="http://www.w3.org/1999/xlink" x="0px" y="0px"
	 width="1000.637px" height="1000.678px" viewBox="-1143.115 0 1000.637 1000.678"
	 enable-background="new -1143.115 0 1000.637 1000.678" xml:space="preserve">
<g id="图形_1_">
	<g>
		<path fill="#86858C" d="M-701.969,386.839h-20.402v-78.479c0-13.361-10.799-24.187-24.182-24.187
			c-13.343,0-24.168,10.824-24.168,24.187v78.479h-20.406c-12.31,0-22.345,9.99-22.345,22.325v280.081
			c0,12.344,10.035,22.314,22.345,22.314h20.406v75.574c0,13.35,10.825,24.195,24.168,24.195c13.383,0,24.182-10.846,24.182-24.195
			V711.56h20.402c12.34,0,22.346-9.973,22.346-22.314V409.164C-679.623,396.829-689.629,386.839-701.969,386.839z M-724.256,666.927
			h-44.577V431.454h44.577V666.927z"/>
		<path fill="#86858C" d="M-494.459,290.563h-20.383V213.52c0-13.347-10.83-24.171-24.201-24.171
			c-13.35,0-24.178,10.824-24.178,24.171v77.044h-20.406c-12.307,0-22.338,9.997-22.338,22.315v280.097
			c0,12.342,10.031,22.318,22.338,22.318h20.406v77.002c0,13.375,10.828,24.199,24.178,24.199c13.371,0,24.201-10.824,24.201-24.199
			v-77.002h20.383c12.334,0,22.338-9.979,22.338-22.318V312.879C-472.121,300.561-482.125,290.563-494.459,290.563z
			 M-516.754,570.659h-44.576v-235.46h44.576V570.659z"/>
	</g>
</g>
</svg>
