<?xml version="1.0" encoding="utf-8"?>
<!-- Generator: Adobe Illustrator 16.0.0, SVG Export Plug-In . SVG Version: 6.00 Build 0)  -->
<!DOCTYPE svg PUBLIC "-//W3C//DTD SVG 1.1//EN" "http://www.w3.org/Graphics/SVG/1.1/DTD/svg11.dtd">
<svg version="1.1" id="Layer_1" xmlns="http://www.w3.org/2000/svg" xmlns:xlink="http://www.w3.org/1999/xlink" x="0px" y="0px"
	 width="1000.637px" height="1000.678px" viewBox="2375.525 0 1000.637 1000.678"
	 enable-background="new 2375.525 0 1000.637 1000.678" xml:space="preserve">
<g>
	<path fill="#86858C" d="M3030.617,781.708c-0.021,0-0.041,0-0.061,0l-372.473-0.902c-13.783-0.033-24.939-11.217-24.939-25V618.298
		c0-5.545,1.844-10.932,5.24-15.314l91.844-118.504c7.637-9.854,21.365-12.576,32.184-6.381l126.99,72.725l119.951-193.986
		c5.877-9.506,17.346-13.955,28.098-10.9c10.75,3.055,18.166,12.873,18.166,24.049v386.723c0,6.641-2.643,13.008-7.344,17.699
		C3043.586,779.083,3037.236,781.708,3030.617,781.708z M2683.145,730.866l322.473,0.781V457.952l-86.398,139.727
		c-7.09,11.463-21.99,15.244-33.688,8.545l-129.102-73.932l-73.285,94.561V730.866z"/>
	<path fill="#86858C" d="M3030.617,395.222c-48.482,0-87.926-39.533-87.926-88.127c0-48.592,39.443-88.125,87.926-88.125
		s87.926,39.533,87.926,88.125C3118.543,355.688,3079.1,395.222,3030.617,395.222z M3030.617,268.97
		c-20.912,0-37.926,17.104-37.926,38.125c0,21.023,17.014,38.125,37.926,38.125s37.926-17.102,37.926-38.125
		C3068.543,286.073,3051.529,268.97,3030.617,268.97z"/>
</g>
</svg>
