<?xml version="1.0" encoding="utf-8"?>
<!-- Generator: Adobe Illustrator 16.0.0, SVG Export Plug-In . SVG Version: 6.00 Build 0)  -->
<!DOCTYPE svg PUBLIC "-//W3C//DTD SVG 1.1//EN" "http://www.w3.org/Graphics/SVG/1.1/DTD/svg11.dtd">
<svg version="1.1" id="Layer_1" xmlns="http://www.w3.org/2000/svg" xmlns:xlink="http://www.w3.org/1999/xlink" x="0px" y="0px"
	 width="1000.637px" height="1000.678px" viewBox="1175.766 0 1000.637 1000.678"
	 enable-background="new 1175.766 0 1000.637 1000.678" xml:space="preserve">
<g>
	<path fill="#86858C" d="M1628.943,800.2h-110.031c-13.807,0-25-11.193-25-25V225.478c0-13.807,11.193-25,25-25h110.031
		c13.807,0,25,11.193,25,25V775.2C1653.943,789.007,1642.75,800.2,1628.943,800.2z M1543.912,750.2h60.031V250.478h-60.031V750.2z"
		/>
	<path fill="#86858C" d="M1833.256,800.2h-110.031c-13.807,0-25-11.193-25-25v-344c0-13.807,11.193-25,25-25h110.031
		c13.807,0,25,11.193,25,25v344C1858.256,789.007,1847.062,800.2,1833.256,800.2z M1748.225,750.2h60.031v-294h-60.031V750.2z"/>
</g>
</svg>
