<?xml version="1.0" encoding="utf-8"?>
<!-- Generator: Adobe Illustrator 16.0.0, SVG Export Plug-In . SVG Version: 6.00 Build 0)  -->
<!DOCTYPE svg PUBLIC "-//W3C//DTD SVG 1.1//EN" "http://www.w3.org/Graphics/SVG/1.1/DTD/svg11.dtd">
<svg version="1.1" id="Layer_1" xmlns="http://www.w3.org/2000/svg" xmlns:xlink="http://www.w3.org/1999/xlink" x="0px" y="0px"
	 width="1000.637px" height="1000.678px" viewBox="0 0 1000.637 1000.678" enable-background="new 0 0 1000.637 1000.678"
	 xml:space="preserve">
<g id="图形_3_">
	<path fill="#86858C" d="M676.239,248.898c-46.729,0-84.729,38.024-84.729,84.74c0,27.491,13.377,51.717,33.699,67.198
		l-86.742,187.649l-97.085-151.854c-4.57-7.134-12.428-11.832-21.02-11.144c-8.49,0.213-16.215,4.889-20.408,12.259L242.789,715.744
		c-6.555,11.623-2.467,26.377,9.18,32.905c3.713,2.178,7.824,3.13,11.832,3.13c8.467,0,16.645-4.399,21.098-12.259l137.398-242.996
		l99.218,155.219c4.775,7.43,13.141,11.57,22.023,11.091c8.836-0.583,16.586-5.942,20.299-13.955L670.64,417.793
		c1.885,0.134,3.668,0.581,5.6,0.581c46.709,0,84.732-38.019,84.732-84.735C760.972,286.923,722.948,248.898,676.239,248.898z
		 M676.239,370.002c-20.084,0-36.375-16.316-36.375-36.363c0-20.062,16.291-36.38,36.375-36.38c20.037,0,36.355,16.317,36.355,36.38
		C712.595,353.686,696.276,370.002,676.239,370.002z"/>
</g>
</svg>
