<?xml version="1.0" encoding="utf-8"?>
<!-- Generator: Adobe Illustrator 16.0.0, SVG Export Plug-In . SVG Version: 6.00 Build 0)  -->
<!DOCTYPE svg PUBLIC "-//W3C//DTD SVG 1.1//EN" "http://www.w3.org/Graphics/SVG/1.1/DTD/svg11.dtd">
<svg version="1.1" id="Layer_1" xmlns="http://www.w3.org/2000/svg" xmlns:xlink="http://www.w3.org/1999/xlink" x="0px" y="0px"
	 width="255.12px" height="255.12px" viewBox="0 0 255.12 255.12" enable-background="new 0 0 255.12 255.12" xml:space="preserve">
<g>
	<rect x="28.732" y="102.442" fill="#2C2F74" width="29.129" height="29.841"/>
	<path fill="#2C2F74" d="M228.572,177.043H28.894c1.09,8.338,8.203,14.779,16.838,14.779h166
		C220.367,191.822,227.48,185.381,228.572,177.043z"/>
	<path fill="#2C2F74" d="M102.621,87.522V72.602h125.952c-1.092-8.337-8.205-14.779-16.84-14.779H72.779v29.7H102.621z"/>
	<path fill="#2C2F74" d="M57.861,57.822H45.732c-9.389,0-17,7.611-17,17v12.7h29.129V57.822z"/>
	<polygon fill="#2C2F74" points="228.732,147.203 154.842,147.203 28.732,147.203 28.732,162.123 228.732,162.123 	"/>
	<rect x="102.621" y="87.522" fill="#2C2F74" width="126.112" height="14.92"/>
	<polygon fill="#2C2F74" points="102.621,102.442 72.779,102.442 72.779,132.283 154.842,132.283 228.732,132.283 228.732,117.362 
		102.621,117.362 	"/>
	<path fill="#FFFFFF" d="M228.732,174.822v-12.699h-200v12.699c0,0.755,0.066,1.492,0.162,2.221h199.678
		C228.666,176.314,228.732,175.577,228.732,174.822z"/>
	<path fill="#FFFFFF" d="M102.621,87.522h126.112v-12.7c0-0.754-0.066-1.492-0.16-2.221H102.621V87.522z"/>
	<rect x="102.621" y="102.442" fill="#FFFFFF" width="126.112" height="14.92"/>
	<polygon fill="#FFFFFF" points="228.732,147.203 228.732,132.283 154.842,132.283 72.779,132.283 72.779,102.442 102.621,102.442 
		102.621,87.522 72.779,87.522 72.779,57.822 57.861,57.822 57.861,87.522 28.732,87.522 28.732,102.442 57.861,102.442 
		57.861,132.283 28.732,132.283 28.732,147.203 154.842,147.203 	"/>
</g>
</svg>
