<?xml version="1.0" encoding="utf-8"?>
<!-- Generator: Adobe Illustrator 16.0.0, SVG Export Plug-In . SVG Version: 6.00 Build 0)  -->
<!DOCTYPE svg PUBLIC "-//W3C//DTD SVG 1.1//EN" "http://www.w3.org/Graphics/SVG/1.1/DTD/svg11.dtd">
<svg version="1.1" id="Layer_1" xmlns="http://www.w3.org/2000/svg" xmlns:xlink="http://www.w3.org/1999/xlink" x="0px" y="0px"
	 width="255.12px" height="255.12px" viewBox="0 0 255.12 255.12" enable-background="new 0 0 255.12 255.12" xml:space="preserve">
<g>
	<path fill="#DD372B" d="M211.482,57.967h-166c-9.389,0-17,7.61-17,17v100c0,9.389,7.611,17,17,17h166c9.389,0,17-7.611,17-17v-100
		C228.482,65.577,220.871,57.967,211.482,57.967z M160.98,122.919c-3.895,4.901-12.875,5.788-17.951,0.374
		c-3.696-3.941-11.883-5.535-16.137,1.288c-0.085,0.244-0.151,0.501-0.225,0.753c0.152,0.115,0.277,0.26,0.348,0.439
		c0.302-0.01,0.6-0.01,0.896-0.003c12.038-2.009,23.788,5.54,26.796,17.584c2.518,10.082-1.844,20.623-10.75,25.979
		c1.994-3.777,1.309-8.968-4.037-10.965c-5.865-2.188-9.484-10.454-5.904-16.955c2.611-4.741,1.588-13.037-6.251-14.959
		c-0.244-0.004-0.488-0.006-0.735,0.001c-0.061,0.195-0.172,0.358-0.325,0.485c0.104,0.287,0.197,0.574,0.284,0.86
		c5.629,10.828,2.082,24.336-8.443,30.918c-8.81,5.509-20.185,4.618-28.029-2.196c4.209,0.729,8.935-1.526,9.18-7.229
		c0.271-6.255,7.014-12.251,14.303-10.854c5.316,1.019,12.89-2.518,12.295-10.565c-0.07-0.229-0.142-0.459-0.225-0.688
		c-0.005,0-0.01,0.003-0.016,0.003c-0.205,0-0.386-0.075-0.547-0.178c-0.242,0.188-0.486,0.366-0.733,0.537
		c-8.557,8.702-22.502,9.502-32.015,1.525c-7.961-6.676-10.628-17.77-6.572-27.335c0.607,4.228,4.213,8.024,9.711,6.497
		c6.033-1.677,13.818,2.884,14.743,10.248c0.674,5.37,6.378,11.483,13.851,8.427c0.198-0.139,0.396-0.279,0.59-0.43
		c-0.036-0.105-0.067-0.214-0.067-0.331c0-0.09,0.03-0.17,0.051-0.253c-0.254-0.172-0.499-0.351-0.739-0.533
		c-10.919-5.448-15.989-18.464-11.342-29.976c3.889-9.635,13.615-15.6,23.965-14.697c-3.832,1.885-6.328,6.485-3.176,11.244
		c3.457,5.218,1.525,14.032-5.191,17.188c-4.893,2.298-8.937,9.593-3.757,15.749c0.205,0.154,0.427,0.297,0.643,0.443
		c0.153-0.107,0.327-0.18,0.524-0.191c0.084-0.291,0.177-0.574,0.274-0.854c1.807-12.07,12.62-20.917,25.005-20.055
		c10.365,0.723,19.043,8.129,21.383,18.252C169.678,119.403,164.531,118.45,160.98,122.919z"/>
	<path fill="#FFFFFF" d="M120.807,101.4l0.574,0.365c-4.246,6.307-4.084,17.404,3.444,23.105c-5.18-6.156-1.135-13.451,3.757-15.749
		c6.717-3.155,8.648-11.97,5.191-17.188c-3.152-4.759-0.656-9.359,3.176-11.244c-10.35-0.902-20.076,5.062-23.965,14.697
		c-4.647,11.512,0.422,24.527,11.342,29.976C116.124,119.134,116.733,107.212,120.807,101.4z M122.32,94.28l2.121,1.874l2.438-1.437
		l-1.127,2.596l2.122,1.875l-2.818-0.271l-1.127,2.596l-0.614-2.764l-2.817-0.271l2.438-1.437L122.32,94.28z"/>
	<polygon fill="#ED2224" points="123.313,98.75 123.928,101.514 125.055,98.918 127.873,99.188 125.751,97.313 126.879,94.718 
		124.441,96.154 122.32,94.28 122.934,97.043 120.496,98.479 	"/>
	<path fill="#ED2224" d="M125.468,125.314c-0.216-0.146-0.438-0.289-0.643-0.443c-7.528-5.701-7.689-16.799-3.444-23.105
		l-0.574-0.365c-4.073,5.812-4.683,17.733,3.52,23.963c0.24,0.183,0.484,0.361,0.739,0.533
		C125.128,125.654,125.269,125.455,125.468,125.314z"/>
	<path fill="#FFFFFF" d="M151.271,104.214c-12.386-0.862-23.199,7.984-25.005,20.055c3.388-9.729,14.918-12.834,21.705-10.755
		l-0.17,0.659c-7.309-2.09-17.812,1.491-20.908,10.408c4.254-6.823,12.44-5.229,16.137-1.288c5.076,5.414,14.057,4.527,17.951-0.374
		c3.551-4.469,8.697-3.516,11.674-0.453C170.314,112.343,161.637,104.937,151.271,104.214z M152.258,119.548l-0.613-2.763
		l-2.818-0.271l2.438-1.437l-0.614-2.764l2.121,1.875l2.439-1.438l-1.129,2.597l2.121,1.875l-2.818-0.271L152.258,119.548z"/>
	<polygon fill="#ED2224" points="154.082,115.349 155.211,112.752 152.771,114.189 150.65,112.314 151.265,115.078 148.826,116.515 
		151.645,116.785 152.258,119.548 153.385,116.953 156.203,117.224 	"/>
	<path fill="#ED2224" d="M147.801,114.173l0.17-0.659c-6.786-2.079-18.316,1.026-21.705,10.755c-0.098,0.28-0.19,0.563-0.274,0.854
		c0.021-0.002,0.04-0.013,0.061-0.013c0.235,0,0.441,0.093,0.615,0.224c0.073-0.252,0.14-0.509,0.225-0.753
		C129.988,115.664,140.492,112.083,147.801,114.173z"/>
	<path fill="#FFFFFF" d="M100.895,123.49l0.525-0.433c4.691,5.995,15.319,9.28,23.07,3.853c-7.472,3.057-13.176-3.057-13.851-8.427
		c-0.925-7.364-8.71-11.925-14.743-10.248c-5.498,1.527-9.104-2.27-9.711-6.497c-4.056,9.565-1.389,20.659,6.572,27.335
		c9.513,7.977,23.458,7.177,32.015-1.525C116.313,133.425,105.163,129.161,100.895,123.49z M94.59,119.851l2.438-1.437l-0.613-2.763
		l2.121,1.874l2.439-1.437l-1.128,2.596l2.121,1.874l-2.817-0.271l-1.129,2.597l-0.613-2.764L94.59,119.851z"/>
	<polygon fill="#ED2224" points="99.148,120.288 101.966,120.559 99.845,118.685 100.974,116.089 98.535,117.525 96.414,115.651 
		97.027,118.414 94.59,119.851 97.406,120.121 98.02,122.885 	"/>
	<path fill="#ED2224" d="M125.081,126.48c-0.194,0.15-0.392,0.291-0.59,0.43c-7.751,5.428-18.379,2.143-23.07-3.853l-0.525,0.433
		c4.269,5.671,15.419,9.935,23.878,4.058c0.247-0.171,0.491-0.349,0.733-0.537C125.309,126.885,125.157,126.705,125.081,126.48z"/>
	<path fill="#FFFFFF" d="M144.844,143.09l-0.678,0.042c-0.271-7.607-6.941-16.513-16.401-16.678
		c7.839,1.922,8.862,10.218,6.251,14.959c-3.58,6.501,0.039,14.767,5.904,16.955c5.346,1.997,6.031,7.188,4.037,10.965
		c8.906-5.355,13.268-15.896,10.75-25.979c-3.008-12.044-14.758-19.593-26.796-17.584
		C138.209,125.989,144.724,135.994,144.844,143.09z M147.805,149.739l-2.816-0.271l-1.127,2.597l-0.614-2.764l-2.817-0.271
		l2.438-1.438l-0.613-2.763l2.12,1.875l2.438-1.438l-1.127,2.597L147.805,149.739z"/>
	<polygon fill="#ED2224" points="144.374,146.706 142.254,144.831 142.867,147.594 140.43,149.031 143.247,149.302 143.861,152.065 
		144.988,149.469 147.805,149.739 145.686,147.865 146.812,145.269 	"/>
	<path fill="#ED2224" d="M127.092,126.149c0,0.108-0.031,0.208-0.062,0.306c0.247-0.007,0.491-0.005,0.735-0.001
		c9.46,0.165,16.13,9.07,16.401,16.678l0.678-0.042c-0.12-7.096-6.635-17.101-16.933-17.319c-0.296-0.007-0.593-0.007-0.896,0.003
		C127.062,125.891,127.092,126.016,127.092,126.149z"/>
	<path fill="#FFFFFF" d="M115.749,149.255l-0.249-0.632c7.149-2.61,13.558-11.702,10.793-20.749
		c0.595,8.048-6.979,11.584-12.295,10.565c-7.289-1.396-14.032,4.6-14.303,10.854c-0.245,5.702-4.971,7.957-9.18,7.229
		c7.845,6.814,19.22,7.705,28.029,2.196c10.525-6.582,14.072-20.09,8.443-30.918C129.961,137.662,122.46,146.949,115.749,149.255z
		 M110.34,154.127l-0.614-2.763l-2.817-0.271l2.438-1.438l-0.614-2.763l2.12,1.874l2.438-1.437l-1.127,2.596l2.121,1.875
		l-2.818-0.271L110.34,154.127z"/>
	<polygon fill="#ED2224" points="112.164,149.927 113.291,147.331 110.854,148.768 108.733,146.894 109.347,149.656 
		106.909,151.094 109.726,151.364 110.34,154.127 111.467,151.531 114.285,151.802 	"/>
	<path fill="#ED2224" d="M126.069,127.186c0.083,0.229,0.154,0.459,0.225,0.688c2.764,9.047-3.644,18.139-10.793,20.749l0.249,0.632
		c6.711-2.306,14.212-11.593,11.239-21.454c-0.086-0.286-0.179-0.573-0.284-0.86C126.529,127.085,126.313,127.182,126.069,127.186z"
		/>
	<path fill="#ED2224" d="M126.053,125.11c-0.021,0-0.04,0.011-0.061,0.013c-0.197,0.012-0.371,0.084-0.524,0.191
		c-0.199,0.141-0.34,0.34-0.403,0.582c-0.021,0.083-0.051,0.163-0.051,0.253c0,0.117,0.031,0.226,0.067,0.331
		c0.077,0.225,0.229,0.404,0.425,0.53c0.161,0.103,0.342,0.178,0.547,0.178c0.006,0,0.011-0.003,0.016-0.003
		c0.245-0.004,0.46-0.101,0.636-0.245c0.153-0.127,0.265-0.29,0.325-0.485c0.031-0.098,0.062-0.197,0.062-0.306
		c0-0.134-0.03-0.259-0.076-0.376c-0.07-0.18-0.196-0.324-0.348-0.439C126.494,125.203,126.288,125.11,126.053,125.11z"/>
</g>
</svg>
