<?xml version="1.0" encoding="utf-8"?>
<!-- Generator: Adobe Illustrator 16.0.0, SVG Export Plug-In . SVG Version: 6.00 Build 0)  -->
<!DOCTYPE svg PUBLIC "-//W3C//DTD SVG 1.1//EN" "http://www.w3.org/Graphics/SVG/1.1/DTD/svg11.dtd">
<svg version="1.1" id="图形" xmlns="http://www.w3.org/2000/svg" xmlns:xlink="http://www.w3.org/1999/xlink" x="0px" y="0px"
	 width="1000.637px" height="1000.678px" viewBox="-2112.278 2108.25 1000.637 1000.678"
	 enable-background="new -2112.278 2108.25 1000.637 1000.678" xml:space="preserve">
<path fill="#CCCCCC" d="M-1169.174,2603.898c0,241.934-196.14,438.088-438.088,438.088c-241.933,0-438.073-196.154-438.073-438.088
	c0-241.959,196.14-438.086,438.073-438.086C-1365.314,2165.812-1169.174,2361.939-1169.174,2603.898z"/>
<path fill="#A2A2A3" d="M-1807.792,2801.894l256.615,240.722c199.031-27.692,355.267-189.112,375.046-390.56l-263.048-214.551h-314
	l-15.842,15.678l38.913,19.377l88.182,164.249l-69.196,141.81L-1807.792,2801.894z"/>
<path fill="#DDDBDC" d="M-1828.597,2591.398v194.287c0,15.191,12.316,27.51,27.51,27.51h378.256
	c15.193,0,27.509-12.318,27.509-27.51v-194.287H-1828.597z"/>
<path fill="none" d="M-1205.622,2595.442c0,227.446-184.396,411.855-411.856,411.855c-227.447,0-411.842-184.409-411.842-411.855
	c0-227.474,184.396-411.855,411.842-411.855C-1390.017,2183.586-1205.622,2367.968-1205.622,2595.442z"/>
<path fill="none" d="M-1174.009,2608.732c0,241.934-196.14,438.088-438.088,438.088c-241.933,0-438.073-196.154-438.073-438.088
	c0-241.959,196.14-438.086,438.073-438.086C-1370.149,2170.646-1174.009,2366.773-1174.009,2608.732z"/>
<g>
	<path fill="#FFFFFF" d="M-1436.101,2745.765c0,14.031-11.48,25.512-25.512,25.512h-300.694c-14.031,0-25.512-11.48-25.512-25.512
		v-300.434c0-14.031,11.48-25.512,25.512-25.512h300.694c14.031,0,25.512,11.48,25.512,25.512V2745.765z"/>
</g>
<g>
	<path fill="#CDCED0" d="M-1522.247,2723.105c-11.768,0-21.311-9.531-21.311-21.309V2489.3c0-11.777,9.543-21.309,21.311-21.309
		c11.766,0,21.306,9.531,21.306,21.309v212.496C-1500.941,2713.573-1510.481,2723.105-1522.247,2723.105z"/>
	<path fill="#CDCED0" d="M-1611.975,2717.486c-11.767,0-21.306-9.53-21.306-21.308v-106.831c0-11.778,9.539-21.309,21.306-21.309
		c11.768,0,21.307,9.53,21.307,21.309v106.831C-1590.668,2707.955-1600.208,2717.486-1611.975,2717.486z"/>
	<path fill="#CDCED0" d="M-1701.669,2723.105c-11.767,0-21.31-9.531-21.31-21.309v-165.677c0-11.778,9.543-21.308,21.31-21.308
		c11.768,0,21.307,9.529,21.307,21.308v165.677C-1680.363,2713.573-1689.902,2723.105-1701.669,2723.105z"/>
</g>
</svg>
