<?xml version="1.0" encoding="utf-8"?>
<!-- Generator: Adobe Illustrator 16.0.0, SVG Export Plug-In . SVG Version: 6.00 Build 0)  -->
<!DOCTYPE svg PUBLIC "-//W3C//DTD SVG 1.1//EN" "http://www.w3.org/Graphics/SVG/1.1/DTD/svg11.dtd">
<svg version="1.1" id="图形" xmlns="http://www.w3.org/2000/svg" xmlns:xlink="http://www.w3.org/1999/xlink" x="0px" y="0px"
	 width="1000.637px" height="1000.678px" viewBox="2140.042 -16.271 1000.637 1000.678"
	 enable-background="new 2140.042 -16.271 1000.637 1000.678" xml:space="preserve">
<g>
	<g>
		<path fill="#7F7F7F" d="M3078.453,516.64c0,241.961-196.135,438.09-438.092,438.09c-241.96,0-438.094-196.129-438.094-438.09
			c0-241.959,196.134-438.089,438.094-438.089C2882.318,78.551,3078.453,274.681,3078.453,516.64z"/>
	</g>
	<g>
		<path fill="#FFFFFF" d="M3078.453,431.6c0,241.961-196.135,438.09-438.092,438.09c-241.96,0-438.094-196.129-438.094-438.09
			c0-241.959,196.134-438.089,438.094-438.089C2882.318-6.489,3078.453,189.641,3078.453,431.6z"/>
	</g>
</g>
<g>
	<g>
		<g>
			<path fill="#ADD13B" d="M2837.259,579.259c-15.002,0-27.135-12.133-27.135-27.166V402.761
				c0-93.591-76.168-169.724-169.725-169.724c-93.627,0-169.725,76.133-169.725,169.724v149.332
				c0,15.033-12.17,27.166-27.168,27.166c-14.99,0-27.123-12.133-27.123-27.166V402.761c0-123.543,100.473-224.056,224.016-224.056
				c123.545,0,224.018,100.513,224.018,224.056v149.332C2864.417,567.126,2852.285,579.259,2837.259,579.259L2837.259,579.259z"/>
		</g>
		<g>
			<g>
				<path fill="#ADD13B" d="M2841.796,579.259c-15.035,0-27.168-12.133-27.168-27.166c0-14.994,12.133-27.127,27.168-27.127
					c36.164,0,65.602-26.381,65.602-58.831c0-32.452-29.438-58.87-65.602-58.87c-15.035,0-27.168-12.135-27.168-27.167
					c0-14.994,12.133-27.164,27.168-27.164c66.125,0,119.893,50.796,119.893,113.201
					C2961.689,528.501,2907.921,579.259,2841.796,579.259L2841.796,579.259z"/>
			</g>
			<g>
				<path fill="#ADD13B" d="M2439.005,579.259c-66.162,0-119.975-50.758-119.975-113.124c0-62.405,53.812-113.201,119.975-113.201
					c15.033,0,27.168,12.17,27.168,27.164c0,15.032-12.135,27.167-27.168,27.167c-36.246,0-65.639,26.418-65.639,58.87
					c0,32.449,29.393,58.831,65.639,58.831c15.033,0,27.168,12.133,27.168,27.127
					C2466.173,567.126,2454.039,579.259,2439.005,579.259L2439.005,579.259z"/>
			</g>
		</g>
		<g>
			<path fill="#ADD13B" d="M2724.724,671.027c-2.494,0-5.062-0.037-7.629-0.113c-14.963-0.408-26.789-12.949-26.383-27.91
				c0.443-14.994,12.432-26.865,27.91-26.381c35.053,1.451,60.285-6.178,75.574-21.287c15.451-15.184,15.893-34.197,15.893-34.381
				c-0.189-15,11.836-27.32,26.789-27.504c0.154,0,0.227,0,0.334,0c14.855,0,26.986,11.912,27.168,26.793
				c0.037,4.244-0.369,42.533-32.041,73.791C2807.414,658.595,2771.167,671.027,2724.724,671.027L2724.724,671.027z"/>
		</g>
		<path fill="#ADD13B" d="M2708.578,597.941c-23.967,0-43.312,19.387-43.312,43.277s19.346,43.279,43.312,43.279
			c23.852,0,43.234-19.389,43.234-43.279S2732.429,597.941,2708.578,597.941L2708.578,597.941z"/>
	</g>
	<path fill="#ADD13B" d="M2444.33,378.981l-83.766,34.646l-20.312,63.372c0,0,47.518,47.262,52.021,56.452
		c4.537,9.154,38.479,15.965,38.479,15.965L2444.33,378.981z"/>
	<polygon fill="#ADD13B" points="2838.07,378.981 2838.07,558.458 2912.757,522.249 2935.378,433.982 2886.748,378.981 	"/>
</g>
</svg>
