<?xml version="1.0" encoding="utf-8"?>
<!-- Generator: Adobe Illustrator 16.0.0, SVG Export Plug-In . SVG Version: 6.00 Build 0)  -->
<!DOCTYPE svg PUBLIC "-//W3C//DTD SVG 1.1//EN" "http://www.w3.org/Graphics/SVG/1.1/DTD/svg11.dtd">
<svg version="1.1" id="图形" xmlns="http://www.w3.org/2000/svg" xmlns:xlink="http://www.w3.org/1999/xlink" x="0px" y="0px"
	 width="1000.637px" height="1000.678px" viewBox="-2110.761 -16.333 1000.637 1000.678"
	 enable-background="new -2110.761 -16.333 1000.637 1000.678" xml:space="preserve">
<g>
	<linearGradient id="SVGID_1_" gradientUnits="userSpaceOnUse" x1="-1585.4521" y1="857.8909" x2="-1585.4521" y2="108.2527">
		<stop  offset="0.3947" style="stop-color:#FFFFFF"/>
		<stop  offset="1" style="stop-color:#E6E6E6"/>
	</linearGradient>
	<path fill="url(#SVGID_1_)" d="M-1210.633,483.103c0,207.019-167.831,374.788-374.819,374.788
		c-207.021,0-374.818-167.77-374.818-374.788c0-207.021,167.798-374.851,374.818-374.851
		C-1378.464,108.252-1210.633,276.082-1210.633,483.103z"/>
	<path fill="#BDE5F9" d="M-1810.326,219.662c0,27.62-22.359,50.015-49.98,50.015c-27.62,0-49.985-22.395-49.985-50.015
		c0-27.619,22.365-49.951,49.985-49.951C-1832.685,169.711-1810.326,192.043-1810.326,219.662z"/>
	<path fill="#E9EDF3" d="M-1214.425,169.711c0,27.619-22.365,49.951-49.979,49.951c-27.622,0-49.987-22.332-49.987-49.951
		c0-27.618,22.365-50.013,49.987-50.013C-1236.791,119.698-1214.425,142.093-1214.425,169.711z"/>
	<path opacity="0.5" fill="#E9EDF3" d="M-1910.292,776.091c0,27.621-22.36,49.952-49.979,49.952
		c-27.621,0-49.981-22.331-49.981-49.952c0-27.618,22.36-50.014,49.981-50.014C-1932.652,726.077-1910.292,748.473-1910.292,776.091
		z"/>
	<g>
		<path fill="#38AAE0" d="M-1514.629,561.857v-35.46h-35.425v35.46h-70.823v-35.46h-35.427v35.46l-159.897,95.858
			c-10.669,6.472-17.2,17.976-17.2,30.417v86.218c0,19.534,15.831,35.396,35.427,35.396h425.021
			c19.594,0,35.425-15.861,35.425-35.396v-86.218c0-12.441-6.53-23.945-17.2-30.417L-1514.629,561.857z M-1620.877,738.891h-35.427
			v-35.393h35.427V738.891z M-1620.877,668.104h-35.427v-35.457h35.427V668.104z M-1514.629,738.891h-35.425v-35.393h35.425V738.891
			z M-1514.629,668.104h-35.425v-35.457h35.425V668.104z"/>
		<path fill="#38AAE0" d="M-1691.727,498.718v-78.567c0,0,35.423-35.394,106.242-35.394c70.855,0,106.28,35.394,106.28,35.394
			v78.567c0,16.298,11.043,30.48,26.842,34.4l70.822,17.728c22.361,5.597,44.011-11.384,44.011-34.401V430.54
			c0-28.429-16.953-54.243-43.173-65.192c-50.201-20.964-135.112-51.443-204.782-51.443c-69.639,0-154.548,30.479-204.745,51.443
			c-26.251,10.949-43.172,36.764-43.172,65.192v85.904c0,23.018,21.644,39.998,44.01,34.401l70.822-17.728
			C-1702.802,529.198-1691.727,515.016-1691.727,498.718"/>
	</g>
	<path fill="#EFA501" d="M-1291.125,809.745c0,27.62-22.36,50.014-49.98,50.014c-27.622,0-49.986-22.394-49.986-50.014
		s22.364-49.95,49.986-49.95C-1313.486,759.795-1291.125,782.125-1291.125,809.745z"/>
</g>
</svg>
