<?xml version="1.0" encoding="utf-8"?>
<!-- Generator: Adobe Illustrator 16.0.0, SVG Export Plug-In . SVG Version: 6.00 Build 0)  -->
<!DOCTYPE svg PUBLIC "-//W3C//DTD SVG 1.1//EN" "http://www.w3.org/Graphics/SVG/1.1/DTD/svg11.dtd">
<svg version="1.1" id="图形" xmlns="http://www.w3.org/2000/svg" xmlns:xlink="http://www.w3.org/1999/xlink" x="0px" y="0px"
	 width="1000.637px" height="1000.678px" viewBox="-2112.278 4233.938 1000.637 1000.678"
	 enable-background="new -2112.278 4233.938 1000.637 1000.678" xml:space="preserve">
<path fill="#CCCCCC" d="M-1169.174,4729.585c0,241.934-196.14,438.088-438.088,438.088c-241.933,0-438.073-196.154-438.073-438.088
	c0-241.959,196.14-438.086,438.073-438.086C-1365.314,4291.499-1169.174,4487.626-1169.174,4729.585z"/>
<path fill="#A2A2A3" d="M-1181.035,4795.874l-227.613-242.255l-247.487,59.91l-102.981-29.694l30.743,64.157l95.891,173.505
	l-65.55,101.712l-98.86,3l175.978,249.437c1.878,0.023,3.76,0.035,5.644,0.035
	C-1393.084,5175.681-1209.537,5010.258-1181.035,4795.874z"/>
<path fill="none" d="M-1174.009,4734.419c0,241.934-196.14,438.088-438.088,438.088c-241.933,0-438.073-196.154-438.073-438.088
	c0-241.959,196.14-438.086,438.073-438.086C-1370.149,4296.333-1174.009,4492.46-1174.009,4734.419z"/>
<path fill="none" d="M-1187.638,4745.075c0,238.81-193.625,432.438-432.467,432.438c-238.816,0-432.416-193.629-432.416-432.438
	c0-238.845,193.6-432.441,432.416-432.441C-1381.262,4312.634-1187.638,4506.23-1187.638,4745.075z"/>
<g>
	<g>
		<path fill="#DDDBDC" d="M-1401.338,4834.252c0,15.591-12.756,28.347-28.347,28.347h-356.146c-15.59,0-28.346-12.756-28.346-28.347
			v-284.111c0-15.591,12.756-28.347,28.346-28.347h356.146c15.591,0,28.347,12.756,28.347,28.347V4834.252z"/>
	</g>
	<g>
		<path fill="#DDDBDC" d="M-1401.338,4909.549c0,14.031-11.48,25.512-25.512,25.512h-361.815c-14.031,0-25.512-11.48-25.512-25.512
			v-275.001c0-14.031,11.48-25.512,25.512-25.512h361.815c14.031,0,25.512,11.48,25.512,25.512V4909.549z"/>
	</g>
	<g>
		<path fill="#FFFFFF" d="M-1442.591,4874.606c0,14.031-11.48,25.512-25.512,25.512h-285.332c-14.031,0-25.512-11.48-25.512-25.512
			v-221.051c0-14.031,11.48-25.512,25.512-25.512h285.332c14.031,0,25.512,11.48,25.512,25.512V4874.606z"/>
	</g>
	<g>
		<path fill="#CDCED0" d="M-1719.828,4688.407c-6.76,0-12.233-5.468-12.233-12.234v-36.698c0-6.765,5.473-12.235,12.233-12.235
			c6.762,0,12.233,5.471,12.233,12.235v36.698C-1707.595,4682.939-1713.066,4688.407-1719.828,4688.407z"/>
		<path fill="#CDCED0" d="M-1719.828,4813.247c-6.76,0-12.233-5.467-12.233-12.232v-74.9c0-6.764,5.473-12.233,12.233-12.233
			c6.762,0,12.233,5.47,12.233,12.233v74.9C-1707.595,4807.78-1713.066,4813.247-1719.828,4813.247z"/>
		<path fill="#CDCED0" d="M-1719.828,4899.916c-6.76,0-12.233-5.476-12.233-12.231v-36.701c0-6.765,5.473-12.232,12.233-12.232
			c6.762,0,12.233,5.468,12.233,12.232v36.701C-1707.595,4894.44-1713.066,4899.916-1719.828,4899.916z"/>
	</g>
	<g>
		<path fill="#CCCCCC" d="M-1372.548,4776.973c0,23.386-19.134,42.52-42.52,42.52h-111.039c-23.386,0-42.52-19.134-42.52-42.52
			v-9.848c0-23.386,19.134-42.52,42.52-42.52h111.039c23.386,0,42.52,19.134,42.52,42.52V4776.973z"/>
	</g>
	<path fill="#FFFFFF" d="M-1495.722,4772.06c0,12.01-9.742,21.775-21.773,21.775c-12.03,0-21.772-9.766-21.772-21.775
		c0-12.081,9.742-21.798,21.772-21.798C-1505.463,4750.262-1495.722,4759.979-1495.722,4772.06z"/>
	<path fill="#A2A2A3" d="M-1422.817,4577.447c0,7.273-5.897,13.171-13.171,13.171h-338.866c-7.274,0-13.171-5.897-13.171-13.171
		v-21.153c0-7.273,5.897-13.171,13.171-13.171h338.866c7.274,0,13.171,5.897,13.171,13.171V4577.447z"/>
</g>
<rect x="-1437.142" y="4556.775" fill="#A2A2A3" width="41.295" height="20.19"/>
</svg>
