<?xml version="1.0" encoding="utf-8"?>
<!-- Generator: Adobe Illustrator 16.0.0, SVG Export Plug-In . SVG Version: 6.00 Build 0)  -->
<!DOCTYPE svg PUBLIC "-//W3C//DTD SVG 1.1//EN" "http://www.w3.org/Graphics/SVG/1.1/DTD/svg11.dtd">
<svg version="1.1" id="图形" xmlns="http://www.w3.org/2000/svg" xmlns:xlink="http://www.w3.org/1999/xlink" x="0px" y="0px"
	 width="1000.637px" height="1000.678px" viewBox="6387.851 3171.25 1000.637 1000.678"
	 enable-background="new 6387.851 3171.25 1000.637 1000.678" xml:space="preserve">
<path fill="#CCCCCC" d="M7326.25,3671.588c0,241.934-196.14,438.088-438.088,438.088c-241.933,0-438.072-196.154-438.072-438.088
	c0-241.959,196.14-438.086,438.072-438.086C7130.11,3233.502,7326.25,3429.629,7326.25,3671.588z"/>
<path fill="#A3A3A3" d="M6711.223,3850.654l252.518,252.518c166.819-29.012,301.249-152.387,346.294-313.116l-278.986-278.986
	L6711.223,3850.654z"/>
<g>
	<path fill="#FFFFFF" d="M6702.156,3583.391c-8.819-8.819-15.842-5.832-15.605,6.638l4.5,237.578
		c0.236,12.47,10.633,22.866,23.103,23.103l237.578,4.498c12.47,0.236,15.457-6.786,6.638-15.605l-52.68-52.678
		c-8.819-8.819-8.819-23.251,0-32.07l168.494-168.492c8.819-8.819,8.819-23.251,0-32.07l-86.715-86.715
		c-8.819-8.819-23.251-8.819-32.07,0l-168.492,168.494c-8.819,8.819-23.251,8.819-32.07,0L6702.156,3583.391z"/>
</g>
</svg>
