<?xml version="1.0" encoding="utf-8"?>
<!-- Generator: Adobe Illustrator 16.0.0, SVG Export Plug-In . SVG Version: 6.00 Build 0)  -->
<!DOCTYPE svg PUBLIC "-//W3C//DTD SVG 1.1//EN" "http://www.w3.org/Graphics/SVG/1.1/DTD/svg11.dtd">
<svg version="1.1" id="图形" xmlns="http://www.w3.org/2000/svg" xmlns:xlink="http://www.w3.org/1999/xlink" x="0px" y="0px"
	 width="1000.637px" height="1000.678px" viewBox="-2110.761 3171.25 1000.637 1000.678"
	 enable-background="new -2110.761 3171.25 1000.637 1000.678" xml:space="preserve">
<g>
	<linearGradient id="SVGID_1_" gradientUnits="userSpaceOnUse" x1="-1585.335" y1="4048.1077" x2="-1585.335" y2="3295.0706">
		<stop  offset="0.3947" style="stop-color:#FFFFFF"/>
		<stop  offset="1" style="stop-color:#E6E6E6"/>
	</linearGradient>
	<path fill="url(#SVGID_1_)" d="M-1208.816,3671.616c0,207.959-168.597,376.491-376.523,376.491
		c-207.96,0-376.515-168.532-376.515-376.491c0-207.96,168.555-376.546,376.515-376.546
		C-1377.413,3295.071-1208.816,3463.656-1208.816,3671.616z"/>
	<g>
		<rect x="-1735.127" y="3680.433" fill="#38AAE0" width="74.894" height="74.851"/>
		<rect x="-1622.803" y="3680.433" fill="#38AAE0" width="74.926" height="74.851"/>
		<rect x="-1510.416" y="3680.433" fill="#38AAE0" width="74.861" height="74.851"/>
		<rect x="-1735.127" y="3792.779" fill="#38AAE0" width="74.894" height="74.861"/>
		<rect x="-1622.803" y="3792.779" fill="#38AAE0" width="74.926" height="74.861"/>
		<path fill="#38AAE0" d="M-1360.66,3493.152h-74.895v-37.431h-74.861v37.431h-149.818v-37.431h-74.894v37.431h-74.882
			c-20.689,0-37.463,16.773-37.463,37.494v411.918c0,20.679,16.773,37.433,37.463,37.433h449.35
			c20.678,0,37.451-16.754,37.451-37.433v-411.918C-1323.208,3509.925-1339.982,3493.152-1360.66,3493.152 M-1398.09,3905.102
			h-374.468V3642.97h374.468V3905.102z"/>
	</g>
	<path fill="#BDE5F9" d="M-1811.227,3407.017c0,27.741-22.474,50.205-50.216,50.205c-27.743,0-50.205-22.464-50.205-50.205
		c0-27.753,22.462-50.216,50.205-50.216C-1833.701,3356.801-1811.227,3379.264-1811.227,3407.017z"/>
	<path fill="#E9EDF3" d="M-1212.636,3356.801c0,27.743-22.463,50.216-50.206,50.216c-27.742,0-50.205-22.473-50.205-50.216
		s22.463-50.205,50.205-50.205C-1235.099,3306.596-1212.636,3329.058-1212.636,3356.801z"/>
	<path opacity="0.5" fill="#E9EDF3" d="M-1911.648,3965.93c0,27.753-22.463,50.216-50.206,50.216
		c-27.753,0-50.216-22.463-50.216-50.216c0-27.742,22.463-50.206,50.216-50.206
		C-1934.111,3915.724-1911.648,3938.188-1911.648,3965.93z"/>
	<path fill="#EFA501" d="M-1272.993,3965.93c0,27.753-22.463,50.216-50.216,50.216c-27.742,0-50.204-22.463-50.204-50.216
		c0-27.742,22.462-50.206,50.204-50.206C-1295.456,3915.724-1272.993,3938.188-1272.993,3965.93z"/>
</g>
</svg>
