<?xml version="1.0" encoding="utf-8"?>
<!-- Generator: Adobe Illustrator 16.0.0, SVG Export Plug-In . SVG Version: 6.00 Build 0)  -->
<!DOCTYPE svg PUBLIC "-//W3C//DTD SVG 1.1//EN" "http://www.w3.org/Graphics/SVG/1.1/DTD/svg11.dtd">
<svg version="1.1" id="图形" xmlns="http://www.w3.org/2000/svg" xmlns:xlink="http://www.w3.org/1999/xlink" x="0px" y="0px"
	 width="1000.637px" height="1000.678px" viewBox="-2112.278 1046.25 1000.637 1000.678"
	 enable-background="new -2112.278 1046.25 1000.637 1000.678" xml:space="preserve">
<path fill="#CCCCCC" d="M-1174.009,1546.732c0,241.934-196.14,438.088-438.088,438.088c-241.933,0-438.073-196.154-438.073-438.088
	c0-241.959,196.14-438.086,438.073-438.086C-1370.149,1108.646-1174.009,1304.773-1174.009,1546.732z"/>
<path fill="#A2A2A3" d="M-1795.901,1804.05l238.982,177.324c191.445-24.062,344.44-171.672,376.646-360.454l-253.089-237.946
	h-350.564l-16.284,15.654l84.16,76.598l90.634,163.994l-71.125,141.589L-1795.901,1804.05z"/>
<path fill="none" d="M-1174.009,1546.732c0,241.934-196.14,438.088-438.088,438.088c-241.933,0-438.073-196.154-438.073-438.088
	c0-241.959,196.14-438.086,438.073-438.086C-1370.149,1108.646-1174.009,1304.773-1174.009,1546.732z"/>
<path fill="none" d="M-1182.122,1588.409c0,225.725-182.999,408.739-408.735,408.739c-225.725,0-408.723-183.015-408.723-408.739
	c0-225.749,182.999-408.735,408.723-408.735C-1365.121,1179.674-1182.122,1362.66-1182.122,1588.409z"/>
<g>
	<path fill="#FFFFFF" d="M-1736.438,1382.975v108.258h0.67c3.516,62.996,55.232,113.115,119.098,113.115
		s115.582-50.119,119.098-113.115h0.67v-108.258H-1736.438z"/>
	<g>
		<line fill="#DDDBDC" x1="-1783.917" y1="1382.975" x2="-1449.452" y2="1382.975"/>
		<path fill="#DDDBDC" d="M-1449.452,1408.871h-334.466c-14.299,0-25.894-11.582-25.894-25.896s11.595-25.898,25.894-25.898h334.466
			c14.303,0,25.897,11.584,25.897,25.898S-1435.149,1408.871-1449.452,1408.871z"/>
	</g>
	<path fill="#CDCED0" d="M-1536.836,1484.735c0,44.102-35.744,79.861-79.846,79.861s-79.85-35.76-79.85-79.861"/>
	<path fill="#FFFFFF" d="M-1496.245,1802.836l-0.569-108.258h-0.674c-3.83-62.969-55.81-112.838-119.663-112.512
		c-63.865,0.332-115.328,50.729-118.516,113.727h-0.67l0.557,108.258L-1496.245,1802.836z"/>
	<g>
		<line fill="#DDDBDC" x1="-1448.782" y1="1780.809" x2="-1783.244" y2="1782.531"/>
		<path fill="#DDDBDC" d="M-1783.244,1808.426c-14.238,0-25.82-11.506-25.897-25.77c-0.076-14.285,11.458-25.945,25.756-26.021
			l334.467-1.719c0.048,0,0.101,0,0.137,0c14.238,0,25.821,11.506,25.897,25.768c0.077,14.291-11.457,25.945-25.756,26.021
			l-334.467,1.721C-1783.159,1808.426-1783.208,1808.426-1783.244,1808.426z"/>
	</g>
	<polygon fill="#CDCED0" points="-1629.302,1738.58 -1630.275,1549.778 -1604.382,1549.623 -1603.405,1738.426 	"/>
	<g>
		<path fill="#CDCED0" d="M-1706.332,1757.571c27.919,0,89.649,0,89.649,0v-97.662
			C-1616.683,1659.908-1648.068,1757.571-1706.332,1757.571z"/>
		<path fill="#CDCED0" d="M-1616.67,1659.908v97.662c0,0,61.73,0,89.649,0C-1585.289,1757.571-1616.67,1659.908-1616.67,1659.908z"
			/>
	</g>
</g>
</svg>
