<?xml version="1.0" encoding="utf-8"?>
<!-- Generator: Adobe Illustrator 16.0.0, SVG Export Plug-In . SVG Version: 6.00 Build 0)  -->
<!DOCTYPE svg PUBLIC "-//W3C//DTD SVG 1.1//EN" "http://www.w3.org/Graphics/SVG/1.1/DTD/svg11.dtd">
<svg version="1.1" id="图形" xmlns="http://www.w3.org/2000/svg" xmlns:xlink="http://www.w3.org/1999/xlink" x="0px" y="0px"
	 width="1000.637px" height="1000.678px" viewBox="5325.404 4233.938 1000.637 1000.678"
	 enable-background="new 5325.404 4233.938 1000.637 1000.678" xml:space="preserve">
<g>
	<g>
		<path fill="#ADD13B" d="M6196.15,4627.946c-29.086,0-52.979,23.821-52.979,52.981v318.477c0,28.416-23.174,52.389-52.311,52.389
			h-531.012c-28.406,0-52.246-23.229-52.246-52.389v-530.991c0-28.415,23.102-52.247,52.246-52.247h318.492
			c29.145,0,52.982-23.827,52.982-52.979c0-29.159-23.838-52.982-52.982-52.982h-318.492c-87.305,0-158.211,70.737-158.211,158.208
			v531.737c0,87.309,70.906,158.197,158.211,158.197h531.746c87.318,0,158.209-70.889,158.209-158.197v-319.223
			C6249.062,4651.768,6225.298,4627.946,6196.15,4627.946z"/>
		<path fill="#ADD13B" d="M5878.341,4310.205c29.145,0,52.982,23.823,52.982,52.982c0,29.151-23.838,52.979-52.982,52.979h-318.492
			c-29.145,0-52.246,23.832-52.246,52.247v530.991c0,29.159,23.84,52.389,52.246,52.389h531.012
			c29.137,0,52.311-23.973,52.311-52.389v-318.477c0-29.16,23.893-52.981,52.979-52.981c29.148,0,52.912,23.821,53.654,52.981
			v319.223c0,87.309-70.891,158.197-158.209,158.197h-531.746c-87.305,0-158.211-70.889-158.211-158.197v-531.737
			c0-87.471,70.906-158.208,158.211-158.208H5878.341 M5878.341,4298.274h-318.492c-93.816,0-170.141,76.323-170.141,170.139
			v531.737c0,93.809,76.324,170.128,170.141,170.128h531.746c93.816,0,170.141-76.319,170.141-170.128v-319.223
			c0-0.102-0.002-0.203-0.004-0.304c-0.906-35.626-30.326-64.608-65.582-64.608c-35.791,0-64.91,29.119-64.91,64.912v318.477
			c0,22.308-18.113,40.457-40.379,40.457h-531.012c-22.23,0-40.314-18.149-40.314-40.457v-530.991
			c0-22.231,18.084-40.315,40.314-40.315h318.492c35.793,0,64.914-29.119,64.914-64.91
			C5943.255,4327.395,5914.134,4298.274,5878.341,4298.274L5878.341,4298.274z"/>
	</g>
	<g>
		<path fill="#ADD13B" d="M5708.146,4851.112c10.641,10.507,23.893,15.249,37.736,15.249c13.91,0,27.236-5.334,37.734-15.249
			l423.773-423.698c20.494-20.568,20.494-54.311,0-74.887c-20.494-20.564-54.236-20.564-74.807,0l-423.699,423.705
			C5687.722,4796.804,5687.722,4829.955,5708.146,4851.112z"/>
		<path fill="#ADD13B" d="M6170.013,4337.103c13.568,0,27.129,5.142,37.377,15.425c20.494,20.576,20.494,54.318,0,74.887
			l-423.773,423.698c-10.498,9.915-23.824,15.249-37.734,15.249c-13.844,0-27.096-4.742-37.736-15.249
			c-20.424-21.157-20.424-54.309,0.738-74.88l423.699-423.705C6142.869,4342.244,6156.447,4337.103,6170.013,4337.103
			 M6170.013,4325.172c-17.375,0-33.664,6.719-45.865,18.918l-423.643,423.649c-12.467,12.149-19.398,28.354-19.516,45.632
			c-0.117,17.153,6.48,33.5,18.574,46.027c0.064,0.067,0.131,0.137,0.199,0.203c12.383,12.229,28.33,18.691,46.119,18.691
			c16.979,0,33.289-6.574,45.926-18.507c0.082-0.078,0.164-0.157,0.244-0.235l423.773-423.7
			c25.209-25.301,25.211-66.45,0.018-91.744C6203.673,4331.896,6187.4,4325.172,6170.013,4325.172L6170.013,4325.172z"/>
	</g>
</g>
</svg>
