<?xml version="1.0" encoding="utf-8"?>
<!-- Generator: Adobe Illustrator 16.0.0, SVG Export Plug-In . SVG Version: 6.00 Build 0)  -->
<!DOCTYPE svg PUBLIC "-//W3C//DTD SVG 1.1//EN" "http://www.w3.org/Graphics/SVG/1.1/DTD/svg11.dtd">
<svg version="1.1" id="图形" xmlns="http://www.w3.org/2000/svg" xmlns:xlink="http://www.w3.org/1999/xlink" x="0px" y="0px"
	 width="1000.637px" height="1000.678px" viewBox="-2110.761 1046.25 1000.637 1000.678"
	 enable-background="new -2110.761 1046.25 1000.637 1000.678" xml:space="preserve">
<g>
	<linearGradient id="SVGID_1_" gradientUnits="userSpaceOnUse" x1="-1610.4434" y1="1910.677" x2="-1610.4434" y2="1164.4192">
		<stop  offset="0.3947" style="stop-color:#FFFFFF"/>
		<stop  offset="1" style="stop-color:#E6E6E6"/>
	</linearGradient>
	<path fill="url(#SVGID_1_)" d="M-1237.314,1537.579c0,206.086-167.073,373.098-373.13,373.098
		c-206.085,0-373.128-167.012-373.128-373.098s167.043-373.16,373.128-373.16
		C-1404.387,1164.419-1237.314,1331.493-1237.314,1537.579z"/>
	<g>
		<path fill="#F09400" d="M-1412.534,1399.768v-27.941v-11.359c0-5.275-4.252-9.527-9.501-9.527h-374.527
			c-5.222,0-9.476,4.252-9.476,9.527v11.359v27.941v49.582h393.504V1399.768z"/>
		<path fill="#F09400" d="M-1365.267,1484.18h-490.352c-15.747,0-28.506,12.758-28.506,28.477v26.863v33.379v163.012h99.299v78.65
			h351.109v-78.65h96.956v-163.012v-33.379v-26.863C-1336.761,1496.938-1349.52,1484.18-1365.267,1484.18z M-1457.862,1790.391
			h-302.873v-176.9h302.873V1790.391z M-1378.348,1553.36c-7.537,7.588-19.892,7.533-27.51-0.057c-7.645-7.645-7.59-19.918,0-27.51
			c7.618-7.59,19.892-7.59,27.483,0C-1370.757,1533.385-1370.73,1545.713-1378.348,1553.36z"/>
	</g>
	<path fill="#BDE5F9" d="M-1810.552,1738.58c0,27.496-22.262,49.756-49.757,49.756c-27.493,0-49.757-22.26-49.757-49.756
		c0-27.492,22.264-49.756,49.757-49.756C-1832.813,1688.824-1810.552,1711.088-1810.552,1738.58z"/>
	<path fill="#E9EDF3" d="M-1983.572,1325.113c0,27.496-22.262,49.76-49.757,49.76s-49.757-22.264-49.757-49.76
		c0-27.494,22.262-49.756,49.757-49.756S-1983.572,1297.618-1983.572,1325.113z"/>
	<path opacity="0.5" fill="#E9EDF3" d="M-1137.8,1879.001c0,27.494-22.263,49.758-49.757,49.758
		c-27.495,0-49.757-22.264-49.757-49.758s22.262-49.754,49.757-49.754C-1160.062,1829.247-1137.8,1851.507-1137.8,1879.001z"/>
	<path fill="#EFA501" d="M-1333.019,1238.913c0,27.496-22.263,49.758-49.757,49.758c-27.495,0-49.756-22.262-49.756-49.758
		c0-27.492,22.262-49.758,49.756-49.758C-1355.282,1189.156-1333.019,1211.421-1333.019,1238.913z"/>
</g>
</svg>
