<?xml version="1.0" encoding="utf-8"?>
<!-- Generator: Adobe Illustrator 16.0.0, SVG Export Plug-In . SVG Version: 6.00 Build 0)  -->
<!DOCTYPE svg PUBLIC "-//W3C//DTD SVG 1.1//EN" "http://www.w3.org/Graphics/SVG/1.1/DTD/svg11.dtd">
<svg version="1.1" id="图形" xmlns="http://www.w3.org/2000/svg" xmlns:xlink="http://www.w3.org/1999/xlink" x="0px" y="0px"
	 width="1000.637px" height="1000.678px" viewBox="-2110.761 2108.25 1000.637 1000.678"
	 enable-background="new -2110.761 2108.25 1000.637 1000.678" xml:space="preserve">
<g>
	<linearGradient id="SVGID_1_" gradientUnits="userSpaceOnUse" x1="-1585.4951" y1="2982.7571" x2="-1585.4951" y2="2234.4211">
		<stop  offset="0.3947" style="stop-color:#FFFFFF"/>
		<stop  offset="1" style="stop-color:#E6E6E6"/>
	</linearGradient>
	<path fill="url(#SVGID_1_)" d="M-1211.327,2608.62c0,206.66-167.54,374.137-374.167,374.137
		c-206.662,0-374.169-167.477-374.169-374.137s167.507-374.199,374.169-374.199
		C-1378.867,2234.421-1211.327,2401.96-1211.327,2608.62z"/>
	<g id="_x32_3_1_">
		<path fill="#8CC63F" d="M-1642.436,2478.898c0-41.916,25.147-68.678,62.096-68.678h9.094h9.129
			c36.916,0,62.095,26.762,62.095,68.678v45.238h42.724v-45.238c0-61.443-48.404-111.402-104.819-111.402h-9.129h-9.094
			c-56.416,0-104.819,49.959-104.819,111.402v45.238h42.723V2478.898z"/>
		<g>
			<path fill="#8CC63F" d="M-1431.785,2524.136c-14.031,0-25.512,9.857-25.512,21.904s-9.613,21.904-21.362,21.904
				c-11.749,0-21.362-9.857-21.362-21.904s-11.48-21.904-25.512-21.904h-91.392c-14.031,0-25.512,9.857-25.512,21.904
				s-9.613,21.904-21.362,21.904c-11.749,0-21.361-9.857-21.361-21.904s-11.48-21.904-25.512-21.904h-105.621
				c-14.031,0-25.512,11.48-25.512,25.512v354.1c0,14.031,11.48,25.512,25.512,25.512h475.876c14.031,0,25.512-11.48,25.512-25.512
				v-354.1c0-14.031-11.48-25.512-25.512-25.512H-1431.785z"/>
		</g>
		<path fill-rule="evenodd" clip-rule="evenodd" fill="#FFFFFF" d="M-1586.88,2694.478c0-5.594,1.587-10.254,4.559-13.801
			c2.972-3.539,7.525-5.402,13.868-5.402c6.141,0,11.093,2.244,14.661,6.715c2.972,3.537,4.751,8.576,5.348,14.912
			c0.197,2.986,3.168,5.033,6.14,5.033l31.501-0.371c3.366,0,6.338-2.797,6.141-5.973c-0.793-12.859-5.348-23.857-13.273-32.623
			c-8.323-9.133-19.417-14.914-33.087-17.521v-22.373c0-2.797-2.376-5.031-5.348-5.031h-19.215c-2.972,0-5.351,2.234-5.351,5.031
			v21.631c-14.662,2.053-26.347,7.078-35.464,15.285c-9.907,8.949-15.056,20.508-15.056,34.488c0,15.475,4.756,27.031,14.066,35.051
			c9.511,8.01,24.567,15.844,45.172,23.492c8.52,3.537,14.463,6.887,17.83,10.615c3.366,3.547,4.952,8.578,4.952,15.104
			c0,5.594-1.586,10.064-4.952,13.613c-3.17,3.543-7.924,5.221-14.263,5.221c-7.53,0-13.67-2.244-18.426-6.717
			c-3.961-3.727-6.14-9.32-6.934-16.967c-0.198-2.979-3.169-5.215-6.142-5.023l-31.5,0.553c-3.367,0-6.339,2.795-6.141,5.971
			c0.794,15.658,6.141,27.775,16.243,36.354c10.898,9.322,24.37,14.725,40.417,16.59v20.316c0,2.797,2.375,5.039,5.348,5.039h19.22
			c2.972,0,5.347-2.242,5.347-5.039v-20.879c12.877-2.234,23.576-7.086,31.698-14.541c9.512-8.762,14.464-20.318,14.464-34.678
			c0-15.098-4.756-26.654-14.267-34.854c-9.507-8.207-24.563-16.225-44.772-24.424c-8.718-3.541-14.662-7.268-18.028-10.814
			C-1585.1,2704.732-1586.88,2700.07-1586.88,2694.478z"/>
	</g>
	<path fill="#BDE5F9" d="M-1314.903,2901.097c0,27.574-22.328,49.896-49.896,49.896c-27.572,0-49.896-22.322-49.896-49.896
		c0-27.57,22.323-49.893,49.896-49.893C-1337.231,2851.204-1314.903,2873.527-1314.903,2901.097z"/>
	<path fill="#E9EDF3" d="M-1215.117,2295.775c0,27.57-22.323,49.895-49.896,49.895c-27.567,0-49.89-22.324-49.89-49.895
		c0-27.574,22.323-49.896,49.89-49.896C-1237.44,2245.878-1215.117,2268.2-1215.117,2295.775z"/>
	<path opacity="0.5" fill="#E9EDF3" d="M-1909.767,2901.097c0,27.574-22.323,49.896-49.896,49.896
		c-27.572,0-49.896-22.322-49.896-49.896c0-27.57,22.324-49.893,49.896-49.893
		C-1932.09,2851.204-1909.767,2873.527-1909.767,2901.097z"/>
	<path fill="#EFA501" d="M-1791.907,2345.669c0,27.57-22.323,49.895-49.896,49.895c-27.573,0-49.896-22.324-49.896-49.895
		c0-27.572,22.323-49.895,49.896-49.895C-1814.23,2295.775-1791.907,2318.097-1791.907,2345.669z"/>
</g>
</svg>
