<?xml version="1.0" encoding="utf-8"?>
<!-- Generator: Adobe Illustrator 16.0.0, SVG Export Plug-In . SVG Version: 6.00 Build 0)  -->
<!DOCTYPE svg PUBLIC "-//W3C//DTD SVG 1.1//EN" "http://www.w3.org/Graphics/SVG/1.1/DTD/svg11.dtd">
<svg version="1.1" id="图形" xmlns="http://www.w3.org/2000/svg" xmlns:xlink="http://www.w3.org/1999/xlink" x="0px" y="0px"
	 width="1000.637px" height="1000.678px" viewBox="5325.404 3171.25 1000.637 1000.678"
	 enable-background="new 5325.404 3171.25 1000.637 1000.678" xml:space="preserve">
<g>
	<g>
		<path fill="#ADD13B" d="M6242.298,3590.087l-83.705-50.475l16.98-101.783c2.078-13.688-2.199-27.988-12.1-38.314l-65.746-65.74
			c-9.9-9.84-24.062-14.723-38.238-12.039l-96.902,15.945l-30.666-76.74c-6.611-16.375-22.982-27.307-40.455-27.307h-131.369
			c-18.197,0-33.963,10.932-40.566,27.307l-30.674,76.74l-96.412-15.945c-13.568-2.264-27.863,2.199-38.373,12.039l-65.609,65.74
			c-9.785,9.775-14.785,24.078-12.102,38.314l15.398,96.836l-76.611,30.676c-16.512,6.66-27.377,23.025-27.377,40.512v109.48
			c0,15.271,8.182,29.572,21.258,37.764l83.826,50.402l-16.984,101.787c-2.193,14.236,2.199,27.992,12.1,38.316l65.615,65.736
			c8.191,8.129,19.801,12.65,31.289,12.65c2.688,0,5.371-0.607,8.668-1.217l79.434-15.768l49.729,83.158
			c7.703,13.068,21.998,21.381,37.879,21.381h131.373c18.078,0,33.967-10.996,40.438-27.369l30.684-76.74l96.412,15.947
			c2.197,0.607,4.885,0.607,7.08,0.607c11.488,0,22.492-4.521,31.158-12.65l65.746-65.736c9.9-9.904,14.787-24.08,12.1-38.316
			l-16.98-101.787l83.705-50.402c13.197-7.635,21.375-22.492,21.375-37.764v-87.551
			C6263.673,3612.447,6255.496,3598.214,6242.298,3590.087z M6176.064,3690.712l-88.236,53.037c0,0,0,0-0.475,0.605
			c-1.588,1.107-2.701,2.207-4.289,3.301c-1.1,0.611-1.709,1.041-2.805,2.26c-1.102,1.037-1.711,2.146-2.807,2.691
			c-0.982,1.1-2.078,2.078-3.178,3.182c-0.609,0.609-1.098,1.703-1.721,2.803c-1.1,1.717-2.195,2.752-2.688,4.4
			c-0.609,1.039-1.1,2.078-1.1,3.783c-0.609,1.66-1.1,2.875-1.588,4.4c-0.609,1.168-0.609,2.816-0.609,3.855
			c0,1.648-0.49,3.297-0.49,4.953c0,1.035,0,2.135,0,3.174c0,1.648,0,3.906,0.49,5.561v0.549l18.082,109l-33.963,33.906
			l-109.002-18.211c-1.102,0-2.08,0-2.688,0c-1.588,0-3.785-0.424-5.49-0.424c-1.115,0-2.078,0.424-3.803,0.424
			c-1.705,0-3.297,0.678-4.883,0.678c-1.102,0.547-2.807,0.547-3.785,0.977c-1.705,0.672-2.805,1.219-4.393,1.707
			c-1.117,0.555-2.332,1.225-3.314,1.648c-1.215,0.551-2.807,1.654-3.902,2.268c-1.096,0.43-1.588,1.648-2.82,2.078
			c-0.963,1.215-2.064,2.254-3.178,3.361c-1.096,0.975-1.705,2.197-2.684,3.238c-1.1,1.098-1.707,2.256-2.807,3.361
			c-0.979,1.1-1.705,2.688-2.197,4.336c-0.49,1.098-1.1,2.266-1.586,3.305l-32.883,82.174h-77.104l-53.156-88.166
			c0-0.609-0.607-0.609-0.607-1.229c0-0.42-0.49-0.42-0.49-1.035c-0.609-1.1-1.705-1.648-2.197-2.746
			c-0.607-1.041-1.709-2.078-2.195-2.689l-0.492-0.549c0,0-0.605-0.555-1.1-0.555c-0.605-0.553-1.229-1.158-1.719-1.158
			c-1.098-1.043-2.197-2.078-3.293-2.627c-1.102-0.67-2.201-1.1-3.18-1.713c-1.709-0.611-2.805-1.654-4.512-2.078
			c-1.113-0.67-2.213-0.67-3.174-1.225c-1.727-0.488-3.434-1.035-5.02-1.707c-1.102,0-2.201-0.43-3.18-0.43
			c-1.705,0-3.414-0.547-4.998-0.547c-1.117,0-2.215,0-3.195,0c-1.707,0-3.902,0-5.609,0.547c-0.494,0-0.494,0-1.1,0l-86.529,17.477
			l-33.354-33.422l18.078-108.875v-0.551c0.492-1.717,0.492-3.785,0.492-5.443c0-1.215,0-2.254,0-3.354
			c0-1.588-0.492-2.691-0.492-4.34s-0.473-2.688-0.473-4.336c-0.623-1.168-0.623-2.262-1.232-3.363
			c-0.49-1.588-1.096-3.232-1.59-4.34c-0.488-1.039-1.703-2.258-2.193-3.906c-0.492-1.039-0.982-2.143-2.197-3.787
			c-0.494-1.158-1.588-2.262-2.688-2.691c-1.1-1.158-2.078-2.193-3.297-3.303c-0.488-0.607-1.721-1.037-2.701-2.256
			c-1.707-1.041-2.803-2.135-4.512-3.234c0,0,0,0-0.49-0.557l-88.1-53.035v-55.352l81.627-32.32l0,0h0.49
			c1.102-0.492,1.707-1.043,2.686-1.043c1.59-0.605,3.297-1.705,5.006-2.744c1.096-0.609,2.078-1.646,3.293-2.756
			c0.98-1.1,2.213-1.645,3.178-2.807c1.229-1.035,2.211-2.078,2.82-3.303c1.1-1.037,1.588-2.137,2.688-3.18
			c1.215-1.152,1.705-2.873,2.197-3.84c0.49-1.111,1.705-2.146,2.193-3.795c0.494-1.215,1.1-2.688,1.1-3.91
			c0.49-1.096,1.1-2.684,1.1-3.783c0.623-1.648,0.623-3.305,0.623-4.34c0-1.219,0.473-2.807,0.473-3.906c0-2.139,0-3.795-0.473-5.99
			c0-1.098,0-1.713,0-2.756v-0.605l0,0l-18.096-108.27l33.844-33.969l108.395,18.027l0,0h0.609c1.098,0,1.588,0,2.688,0
			c1.723,0,3.916,0.609,5.508,0.609c1.586,0,3.297-0.609,4.883-0.609c1.23,0,2.197,0,3.295-0.619c1.723-0.488,3.311-1.037,4.9-1.588
			c1.215-0.549,2.312-0.549,2.807-1.098c1.586-0.609,2.684-1.648,4.389-2.135c1.117-0.549,2.215-1.162,2.82-1.648
			c0.982-1.164,2.082-2.262,3.67-2.695c1.096-1.215,2.314-1.645,2.805-2.863c1.098-1.041,2.197-2.693,3.293-3.732
			c0.492-1.219,1.592-1.648,2.215-2.748c1.1-1.648,1.705-3.236,2.684-4.953c0.613-1.035,1.1-1.648,1.1-2.195v-0.545l0,0
			l32.867-81.574h72.217l32.881,82.119c0,0,0,0.547,0.494,0.547c1.701,3.365,3.293,6.602,6.098,9.836
			c0.607,0.553,1.098,1.102,1.588,1.656c2.803,2.809,5.508,5.496,8.801,7.635c0.49,0.613,1.096,0.613,1.096,0.613
			c2.807,1.584,5.984,3.293,9.295,4.332c0.475,0,1.102,0.617,2.197,0.617c3.785,1.039,7.199,1.648,11.492,1.648h0.473
			c1.721,0,3.43-0.609,5.018-0.609c0.49,0,1.586,0,2.199,0h1.096l0,0l108.395-18.027l33.844,33.969l-17.963,108.943v0.551
			c-0.609,1.648-0.609,3.785-0.609,5.434c0,1.035,0,2.26,0,3.303c0,1.648,0.609,3.297,0.609,4.951c0,1.037,0,2.686,0.492,3.785
			c0.605,1.588,1.096,2.684,1.705,4.336c0.49,1.043,0.49,2.688,0.979,3.906c0.613,1.59,1.709,3.303,2.809,4.342
			c0.623,1.043,1.111,1.709,1.721,2.688c1.1,1.1,2.078,2.137,3.178,3.361c1.096,1.043,1.705,2.139,2.807,2.688
			c1.096,0.553,1.705,1.648,2.688,2.197c1.586,1.109,2.688,2.146,4.406,3.246c0,0,0,0,0.475,0.549l88.236,53.154V3690.712
			L6176.064,3690.712z"/>
		<path fill="#ADD13B" d="M5825.724,3491.407c-96.416,0-175.236,78.945-175.236,175.229c0,96.355,78.82,175.174,175.236,175.174
			c96.293,0,175.102-78.818,175.102-175.174C6000.826,3570.353,5922.017,3491.407,5825.724,3491.407z M5825.724,3754.255
			c-48.273,0-87.611-39.527-87.611-87.619c0-48.141,39.338-87.611,87.611-87.611c48.139,0,87.607,39.471,87.607,87.611
			C5913.332,3714.728,5873.863,3754.255,5825.724,3754.255z"/>
	</g>
	<polygon fill="#ADD13B" points="5783.996,3277.929 5716.234,3392.669 5601.486,3392.669 5523.285,3454.564 5549.367,3549.083 
		5434.695,3622.038 5455.521,3739.833 5538.933,3794.093 5528.541,3943.544 5609.308,3984.234 5700.585,3943.544 5783.996,4065.251 
		5898.669,4065.251 5961.236,3984.234 6075.98,3984.234 6143.748,3902.847 6117.65,3783.706 6216.753,3699.079 6216.753,3606.402 
		6128.103,3538.634 6133.294,3413.808 6072.923,3391.388 5950.845,3387.421 5898.669,3277.929 	"/>
	<path fill="#FFFFFF" d="M5982.138,3671.585c0,86.281-70.082,156.418-156.414,156.418c-86.396,0-156.414-70.137-156.414-156.418
		c0-86.393,70.018-156.414,156.414-156.414C5912.056,3515.171,5982.138,3585.193,5982.138,3671.585z"/>
</g>
</svg>
