<?xml version="1.0" encoding="utf-8"?>
<!-- Generator: Adobe Illustrator 16.0.0, SVG Export Plug-In . SVG Version: 6.00 Build 0)  -->
<!DOCTYPE svg PUBLIC "-//W3C//DTD SVG 1.1//EN" "http://www.w3.org/Graphics/SVG/1.1/DTD/svg11.dtd">
<svg version="1.1" id="图形" xmlns="http://www.w3.org/2000/svg" xmlns:xlink="http://www.w3.org/1999/xlink" x="0px" y="0px"
	 width="1000.637px" height="1000.678px" viewBox="5325.404 2108.25 1000.637 1000.678"
	 enable-background="new 5325.404 2108.25 1000.637 1000.678" xml:space="preserve">
<g>
	<polygon fill="#ADD13B" points="6282.155,2963.895 5365.616,2959.252 5369.29,2253.35 6285.705,2257.994 	"/>
	<path fill="#FFFFFF" d="M6175.709,2208.526h-700.113c-82.517,0-149.91,67.455-149.91,149.978v500.049
		c0,82.329,67.394,150.101,149.91,150.101h700.113c82.533,0,150.049-67.771,150.049-150.101v-500.049
		C6325.758,2275.981,6258.243,2208.526,6175.709,2208.526z M5475.596,2308.474h700.113c27.463,0,49.987,22.384,49.987,50.029v20.538
		l-400.036,222.584l-400.035-222.584v-20.538C5425.625,2330.858,5448.131,2308.474,5475.596,2308.474z M6175.709,2908.46h-700.113
		c-27.465,0-49.971-22.448-49.971-49.908v-365.13l375.612,208.856c7.512,4.19,15.649,6.292,24.423,6.292
		c8.771,0,16.914-2.102,24.406-6.292l375.63-208.856v365.13C6225.697,2886.012,6203.172,2908.46,6175.709,2908.46z"/>
</g>
</svg>
