<?xml version="1.0" encoding="utf-8"?>
<!-- Generator: Adobe Illustrator 16.0.0, SVG Export Plug-In . SVG Version: 6.00 Build 0)  -->
<!DOCTYPE svg PUBLIC "-//W3C//DTD SVG 1.1//EN" "http://www.w3.org/Graphics/SVG/1.1/DTD/svg11.dtd">
<svg version="1.1" id="图形" xmlns="http://www.w3.org/2000/svg" xmlns:xlink="http://www.w3.org/1999/xlink" x="0px" y="0px"
	 width="1000.637px" height="1000.678px" viewBox="5325.404 -16.271 1000.637 1000.678"
	 enable-background="new 5325.404 -16.271 1000.637 1000.678" xml:space="preserve">
<g>
	<g>
		<g>
			<path fill="#ADD13B" d="M6094.009,684.944c-20.441,0-36.973-16.506-36.973-36.957V444.833
				c0-127.322-103.783-230.895-231.26-230.895c-127.572,0-231.26,103.572-231.26,230.895v203.153
				c0,20.451-16.582,36.957-37.018,36.957c-20.426,0-36.957-16.506-36.957-36.957V444.833
				c0-168.069,136.899-304.809,305.234-304.809c168.336,0,305.236,136.739,305.236,304.809v203.153
				C6131.013,668.438,6114.481,684.944,6094.009,684.944L6094.009,684.944z"/>
		</g>
		<g>
			<g>
				<path fill="#ADD13B" d="M6100.191,684.944c-20.486,0-37.019-16.506-37.019-36.957c0-20.398,16.532-36.904,37.019-36.904
					c49.275,0,89.387-35.889,89.387-80.033c0-44.148-40.111-80.088-89.387-80.088c-20.486,0-37.019-16.509-37.019-36.959
					c0-20.398,16.532-36.954,37.019-36.954c90.099,0,163.36,69.104,163.36,154.001
					C6263.551,615.892,6190.29,684.944,6100.191,684.944L6100.191,684.944z"/>
			</g>
			<g>
				<path fill="#ADD13B" d="M5551.365,684.944c-90.148,0-163.472-69.052-163.472-153.895c0-84.897,73.323-154.001,163.472-154.001
					c20.484,0,37.019,16.556,37.019,36.954c0,20.45-16.534,36.959-37.019,36.959c-49.387,0-89.437,35.939-89.437,80.088
					c0,44.145,40.05,80.033,89.437,80.033c20.484,0,37.019,16.506,37.019,36.904
					C5588.383,668.438,5571.849,684.944,5551.365,684.944L5551.365,684.944z"/>
			</g>
		</g>
		<g>
			<path fill="#ADD13B" d="M5940.673,809.785c-3.398,0-6.898-0.05-10.395-0.153c-20.389-0.556-36.502-17.616-35.949-37.97
				c0.605-20.398,16.939-36.548,38.029-35.889c47.763,1.974,82.143-8.404,102.975-28.96c21.053-20.655,21.654-46.522,21.654-46.772
				c-0.258-20.406,16.127-37.167,36.502-37.417c0.21,0,0.309,0,0.455,0c20.242,0,36.771,16.206,37.018,36.45
				c0.051,5.773-0.503,57.862-43.657,100.387C6053.343,792.873,6003.955,809.785,5940.673,809.785L5940.673,809.785z"/>
		</g>
		<path fill="#ADD13B" d="M5918.672,710.359c-32.655,0-59.016,26.373-59.016,58.875s26.36,58.878,59.016,58.878
			c32.499,0,58.909-26.376,58.909-58.878S5951.171,710.359,5918.672,710.359L5918.672,710.359z"/>
	</g>
	<path fill="#ADD13B" d="M5558.619,412.483l-114.135,47.132l-27.677,86.213c0,0,64.745,64.296,70.882,76.797
		c6.184,12.453,52.43,21.719,52.43,21.719L5558.619,412.483z"/>
	<polygon fill="#ADD13B" points="6095.113,412.483 6095.113,656.646 6196.878,607.386 6227.701,487.307 6161.439,412.483 	"/>
</g>
</svg>
