<?xml version="1.0" encoding="utf-8"?>
<!-- Generator: Adobe Illustrator 16.0.0, SVG Export Plug-In . SVG Version: 6.00 Build 0)  -->
<!DOCTYPE svg PUBLIC "-//W3C//DTD SVG 1.1//EN" "http://www.w3.org/Graphics/SVG/1.1/DTD/svg11.dtd">
<svg version="1.1" id="图形" xmlns="http://www.w3.org/2000/svg" xmlns:xlink="http://www.w3.org/1999/xlink" x="0px" y="0px"
	 width="1000.637px" height="1000.678px" viewBox="-2110.761 4233.938 1000.637 1000.678"
	 enable-background="new -2110.761 4233.938 1000.637 1000.678" xml:space="preserve">
<g>
	<linearGradient id="SVGID_1_" gradientUnits="userSpaceOnUse" x1="-1585.5908" y1="5073.1416" x2="-1585.5908" y2="4327.6533">
		<stop  offset="0.3947" style="stop-color:#FFFFFF"/>
		<stop  offset="1" style="stop-color:#E6E6E6"/>
	</linearGradient>
	<path fill="url(#SVGID_1_)" d="M-1212.851,4700.423c0,205.87-166.895,372.719-372.736,372.719
		c-205.869,0-372.743-166.849-372.743-372.719c0-205.868,166.874-372.77,372.743-372.77
		C-1379.746,4327.653-1212.851,4494.555-1212.851,4700.423z"/>
	<g>
		<path fill="#F15A24" d="M-1585.622,5049.623c39.84,0,73.68-22.919,84.812-54.595l-169.591,0.067
			C-1659.107,5026.704-1625.46,5049.623-1585.622,5049.623z"/>
		<path fill="#F15A24" d="M-1352.224,4926.155c-23.628-3.241-60.125-16.051-60.125-66.896v-150.546
			c0-73.021-59.197-133.925-137.95-148.151v-20.637c0-17.098-15.831-23.037-35.322-23.037c-19.423,0-35.288,5.939-35.288,23.037
			v20.637c-78.747,14.227-137.915,75.131-137.915,148.151v150.546c0,50.846-36.531,63.655-60.135,66.896
			c-10.608,1.448-18.62,9.406-18.62,19.053c0,10.644,9.779,19.172,21.902,19.172h230.056h230.064
			c12.123,0,21.954-8.528,21.954-19.172C-1333.603,4935.562-1341.614,4927.604-1352.224,4926.155z"/>
	</g>
	<path fill="#FFFFFF" d="M-1670.4,4616.268c0,27.463-22.241,49.705-49.704,49.705c-27.469,0-49.703-22.242-49.703-49.705
		c0-27.476,22.234-49.702,49.703-49.702C-1692.641,4566.565-1670.4,4588.792-1670.4,4616.268z"/>
	<path fill="#BDE5F9" d="M-1216.625,5091.196c0,27.463-22.233,49.703-49.703,49.703c-27.462,0-49.703-22.24-49.703-49.703
		s22.241-49.705,49.703-49.705C-1238.859,5041.491-1216.625,5063.733-1216.625,5091.196z"/>
	<path opacity="0.5" fill="#E9EDF3" d="M-1908.62,4991.79c0,27.462-22.242,49.701-49.711,49.701
		c-27.463,0-49.704-22.239-49.704-49.701c0-27.463,22.241-49.706,49.704-49.706
		C-1930.862,4942.084-1908.62,4964.327-1908.62,4991.79z"/>
	<path fill="#FFA285" d="M-1316.032,4402.069c0,27.477-22.241,49.703-49.704,49.703c-27.469,0-49.703-22.227-49.703-49.703
		c0-27.464,22.234-49.703,49.703-49.703C-1338.273,4352.366-1316.032,4374.605-1316.032,4402.069z"/>
</g>
</svg>
