<?xml version="1.0" encoding="utf-8"?>
<!-- Generator: Adobe Illustrator 16.0.0, SVG Export Plug-In . SVG Version: 6.00 Build 0)  -->
<!DOCTYPE svg PUBLIC "-//W3C//DTD SVG 1.1//EN" "http://www.w3.org/Graphics/SVG/1.1/DTD/svg11.dtd">
<svg version="1.1" id="图形" xmlns="http://www.w3.org/2000/svg" xmlns:xlink="http://www.w3.org/1999/xlink" x="0px" y="0px"
	 width="1000.637px" height="1000.678px" viewBox="5325.404 1046.25 1000.637 1000.678"
	 enable-background="new 5325.404 1046.25 1000.637 1000.678" xml:space="preserve">
<g>
	<path fill="#ADD13B" d="M5712.491,1546.35l339.154-339.233c20.68-20.667,20.68-54.637,0-75.384
		c-20.592-20.53-54.568-20.53-75.244,0l-377.25,377.266c-20.611,20.732-20.611,54.715,0,75.246l377.25,377.33
		c10.682,10.673,23.977,15.269,37.959,15.269c14.064,0,27.292-5.339,37.975-15.269c20.664-20.67,20.664-54.716,0-75.319
		L5712.491,1546.35z"/>
	<path fill="#ADD13B" d="M6014.054,1116.334c13.653,0,27.295,5.132,37.591,15.398c20.68,20.747,20.68,54.717,0,75.384
		l-339.154,339.233l339.844,339.905c20.664,20.604,20.664,54.649,0,75.319c-10.683,9.93-23.91,15.269-37.975,15.269
		c-13.982,0-27.277-4.596-37.959-15.269l-377.25-377.33c-20.611-20.531-20.611-54.514,0-75.246l377.25-377.266
		C5986.739,1121.466,6000.403,1116.334,6014.054,1116.334 M6014.054,1109.073c-16.212,0-31.4,6.217-42.769,17.505l-377.27,377.286
		c-23.559,23.699-23.548,62.058,0.011,85.524l377.239,377.319c11.393,11.382,26.291,17.396,43.094,17.396
		c15.964,0,30.805-5.952,42.918-17.212c0.064-0.062,0.129-0.123,0.19-0.185c11.379-11.381,17.638-26.605,17.624-42.867
		c-0.013-16.229-6.273-31.403-17.633-42.729l-334.701-334.763l334.021-334.1c23.582-23.567,23.586-61.988,0.008-85.645
		C6045.441,1115.293,6030.27,1109.073,6014.054,1109.073L6014.054,1109.073z"/>
</g>
</svg>
