<?xml version="1.0" encoding="utf-8"?>
<!-- Generator: Adobe Illustrator 16.0.0, SVG Export Plug-In . SVG Version: 6.00 Build 0)  -->
<!DOCTYPE svg PUBLIC "-//W3C//DTD SVG 1.1//EN" "http://www.w3.org/Graphics/SVG/1.1/DTD/svg11.dtd">
<svg version="1.1" id="图形" xmlns="http://www.w3.org/2000/svg" xmlns:xlink="http://www.w3.org/1999/xlink" x="0px" y="0px"
	 width="1000.637px" height="1000.678px" viewBox="-2110.761 5296.438 1000.637 1000.678"
	 enable-background="new -2110.761 5296.438 1000.637 1000.678" xml:space="preserve">
<g>
	<linearGradient id="SVGID_1_" gradientUnits="userSpaceOnUse" x1="-1602.04" y1="6145.4033" x2="-1602.04" y2="5398.332">
		<stop  offset="0.3947" style="stop-color:#FFFFFF"/>
		<stop  offset="1" style="stop-color:#E6E6E6"/>
	</linearGradient>
	<path fill="url(#SVGID_1_)" d="M-1228.501,5771.906c0,206.308-167.256,373.497-373.536,373.497
		c-206.312,0-373.541-167.189-373.541-373.497c0-206.32,167.229-373.574,373.541-373.574
		C-1395.757,5398.332-1228.501,5565.586-1228.501,5771.906z"/>
	<g>
		<g id="_x33__1_">
			<path fill-rule="evenodd" clip-rule="evenodd" fill="#F09400" d="M-1548.386,5697.419v-43.98
				c0-37.568-27.616-68.109-65.027-68.109c-37.412,0-65.033,30.541-65.033,68.109v43.98 M-1652.439,5653.438
				c0-22.568,16.554-40.947,39.025-40.947c22.438,0,39.024,18.379,39.024,40.947v43.98h-78.05V5653.438z"/>
			<path fill-rule="evenodd" clip-rule="evenodd" fill="#F09400" d="M-1613.414,5645.37c-7.191,0-13.018,5.806-13.018,13.028v12.985
				c0,7.189,5.826,13.018,13.018,13.018s13.017-5.828,13.017-13.018v-12.985C-1600.397,5651.176-1606.222,5645.37-1613.414,5645.37z
				"/>
		</g>
		<path fill-rule="evenodd" clip-rule="evenodd" fill="#F09400" d="M-1316.283,5983.575c0,57.473-46.59,104.052-104.058,104.052
			h-386.181c-57.468,0-104.057-46.579-104.057-104.052v-182.104c0-57.464,46.589-104.053,104.057-104.053h386.181
			c57.468,0,104.058,46.589,104.058,104.053V5983.575z"/>
		<g>
			<rect x="-1580.898" y="5905.522" fill-rule="evenodd" clip-rule="evenodd" fill="#FFFFFF" width="78.045" height="26.016"/>
			<path fill-rule="evenodd" clip-rule="evenodd" fill="#FFFFFF" d="M-1751.472,5797.193c29.728,0,53.997,24.302,53.997,53.998
				c0,29.728-24.27,53.996-53.997,53.996c-29.695,0-53.997-24.269-53.997-53.996
				C-1805.469,5821.495-1781.167,5797.193-1751.472,5797.193z"/>
			<path fill-rule="evenodd" clip-rule="evenodd" fill="#FFFFFF" d="M-1645.93,6002.114h-221.161v-15.908
				c0-36.443,74.146-54.02,110.6-54.02c36.421,0,110.562,17.576,110.562,54.02V6002.114z"/>
			<rect x="-1580.898" y="5970.558" fill-rule="evenodd" clip-rule="evenodd" fill="#FFFFFF" width="117.07" height="26.034"/>
			<rect x="-1476.844" y="5905.522" fill-rule="evenodd" clip-rule="evenodd" fill="#FFFFFF" width="91.067" height="26.016"/>
			<rect x="-1580.898" y="5833.028" fill-rule="evenodd" clip-rule="evenodd" fill="#FFFFFF" width="221.129" height="26.003"/>
		</g>
	</g>
	<path fill="#E9EDF3" d="M-1960.389,5579.817c0,27.529-22.282,49.807-49.812,49.807c-27.522,0-49.806-22.277-49.806-49.807
		s22.283-49.807,49.806-49.807C-1982.671,5530.011-1960.389,5552.288-1960.389,5579.817z"/>
	<path fill="#BDE5F9" d="M-1860.767,6067.148c0,27.519-22.287,49.807-49.811,49.807c-27.524,0-49.812-22.288-49.812-49.807
		c0-27.528,22.287-49.817,49.812-49.817C-1883.054,6017.331-1860.767,6039.62-1860.767,6067.148z"/>
	<path opacity="0.5" fill="#E9EDF3" d="M-1128.878,6145.403c0,27.529-22.287,49.817-49.812,49.817s-49.812-22.288-49.812-49.817
		c0-27.519,22.287-49.805,49.812-49.805S-1128.878,6117.885-1128.878,6145.403z"/>
	<path fill="#EFA501" d="M-1282.092,5509.392c0,27.529-22.288,49.816-49.812,49.816c-27.524,0-49.812-22.287-49.812-49.816
		c0-27.519,22.288-49.807,49.812-49.807C-1304.38,5459.585-1282.092,5481.873-1282.092,5509.392z"/>
</g>
</svg>
