<?xml version="1.0" encoding="utf-8"?>
<!-- Generator: Adobe Illustrator 16.0.0, SVG Export Plug-In . SVG Version: 6.00 Build 0)  -->
<!DOCTYPE svg PUBLIC "-//W3C//DTD SVG 1.1//EN" "http://www.w3.org/Graphics/SVG/1.1/DTD/svg11.dtd">
<svg version="1.1" id="图形" xmlns="http://www.w3.org/2000/svg" xmlns:xlink="http://www.w3.org/1999/xlink" x="0px" y="0px"
	 width="1000.637px" height="1000.678px" viewBox="-2112.278 3171.25 1000.637 1000.678"
	 enable-background="new -2112.278 3171.25 1000.637 1000.678" xml:space="preserve">
<path fill="#CCCCCC" d="M-1169.174,3666.898c0,241.934-196.14,438.088-438.088,438.088c-241.933,0-438.073-196.154-438.073-438.088
	c0-241.959,196.14-438.086,438.073-438.086C-1365.314,3228.812-1169.174,3424.939-1169.174,3666.898z"/>
<path fill="#A2A2A3" d="M-1787.268,3898.201l211.295,210.141c214.313-17.495,384.971-189.248,400.765-404.027l-268.573-242.543
	l-324.761,8.181l15.576,32.552l29.924,62.453l93.338,168.888l-73.26,145.812L-1787.268,3898.201z"/>
<path fill="#DDDBDC" d="M-1427.027,3877.763c0,15.943-12.925,28.868-28.868,28.868h-312.131c-15.943,0-28.868-12.925-28.868-28.868
	v-389.787c0-15.943,12.925-28.868,28.868-28.868h312.131c15.943,0,28.868,12.925,28.868,28.868V3877.763z"/>
<path fill="none" d="M-1174.009,3671.732c0,241.934-196.14,438.088-438.088,438.088c-241.933,0-438.073-196.154-438.073-438.088
	c0-241.959,196.14-438.086,438.073-438.086C-1370.149,3233.646-1174.009,3429.773-1174.009,3671.732z"/>
<path fill="none" d="M-1173.242,3686.427c0,232.46-188.473,420.933-420.958,420.933c-232.461,0-420.905-188.473-420.905-420.933
	c0-232.485,188.444-420.93,420.905-420.93C-1361.715,3265.497-1173.242,3453.942-1173.242,3686.427z"/>
<g>
	<path fill="#FFFFFF" d="M-1465.979,3851.822c0,14.031-11.48,25.512-25.512,25.512h-240.939c-14.031,0-25.512-11.48-25.512-25.512
		v-337.904c0-14.031,11.48-25.512,25.512-25.512h240.939c14.031,0,25.512,11.48,25.512,25.512V3851.822z"/>
</g>
<g>
	<rect x="-1718.323" y="3531.806" fill="#BEBEBF" width="212.727" height="67.191"/>
	<rect x="-1715.793" y="3718.868" fill="#CCCCCC" width="47.653" height="42.424"/>
	<rect x="-1634.819" y="3718.868" fill="#CCCCCC" width="47.65" height="42.424"/>
	<rect x="-1553.848" y="3718.868" fill="#CCCCCC" width="47.654" height="42.424"/>
	<rect x="-1715.793" y="3791.536" fill="#CCCCCC" width="47.653" height="42.396"/>
	<rect x="-1634.819" y="3788.339" fill="#CCCCCC" width="129.222" height="42.396"/>
</g>
</svg>
