<?xml version="1.0" encoding="utf-8"?>
<!-- Generator: Adobe Illustrator 16.0.0, SVG Export Plug-In . SVG Version: 6.00 Build 0)  -->
<!DOCTYPE svg PUBLIC "-//W3C//DTD SVG 1.1//EN" "http://www.w3.org/Graphics/SVG/1.1/DTD/svg11.dtd">
<svg version="1.1" id="图形" xmlns="http://www.w3.org/2000/svg" xmlns:xlink="http://www.w3.org/1999/xlink" x="0px" y="0px"
	 width="1000.637px" height="1000.678px" viewBox="6387.851 1046.25 1000.637 1000.678"
	 enable-background="new 6387.851 1046.25 1000.637 1000.678" xml:space="preserve">
<path fill="#3BB966" d="M7326.25,1546.588c0,241.934-196.14,438.088-438.088,438.088c-241.933,0-438.072-196.154-438.072-438.088
	c0-241.959,196.14-438.086,438.072-438.086C7130.11,1108.502,7326.25,1304.629,7326.25,1546.588z"/>
<path fill="#2F9451" d="M6711.223,1654.954l309.347,309.347c160.208-50.74,280.559-191.096,302.195-362.209l-245.34-245.34
	L6711.223,1654.954z"/>
<g>
	<path fill="#FFFFFF" d="M7074.183,1616.787c8.819,8.819,15.842,5.832,15.605-6.638l-4.5-237.578
		c-0.236-12.471-10.633-22.866-23.103-23.103l-237.578-4.499c-12.47-0.235-15.457,6.786-6.638,15.606l52.68,52.678
		c8.819,8.82,8.819,23.252,0,32.07l-168.494,168.492c-8.819,8.819-8.819,23.251,0,32.07l86.715,86.715
		c8.819,8.819,23.251,8.819,32.07,0l168.492-168.494c8.819-8.819,23.251-8.819,32.07,0L7074.183,1616.787z"/>
</g>
</svg>
