<?xml version="1.0" encoding="utf-8"?>
<!-- Generator: Adobe Illustrator 16.0.0, SVG Export Plug-In . SVG Version: 6.00 Build 0)  -->
<!DOCTYPE svg PUBLIC "-//W3C//DTD SVG 1.1//EN" "http://www.w3.org/Graphics/SVG/1.1/DTD/svg11.dtd">
<svg version="1.1" id="Layer_1" xmlns="http://www.w3.org/2000/svg" xmlns:xlink="http://www.w3.org/1999/xlink" x="0px" y="0px"
	 width="255.12px" height="255.12px" viewBox="0 0 255.12 255.12" enable-background="new 0 0 255.12 255.12" xml:space="preserve">
<g>
	<path fill="#FAFAFA" d="M28.59,147.508h200v-44.9h-200V147.508z M130.715,105.559c10.769,0,19.498,8.73,19.498,19.498
		c0,10.77-8.729,19.5-19.498,19.5c-10.77,0-19.5-8.73-19.5-19.5C111.215,114.289,119.945,105.559,130.715,105.559z"/>
	<path fill="#F89939" d="M211.59,58.057h-166c-9.389,0-17,7.611-17,17v27.551h200V75.057
		C228.59,65.668,220.979,58.057,211.59,58.057z"/>
	<path fill="#1E8943" d="M28.59,175.057c0,9.389,7.611,17,17,17h166c9.389,0,17-7.611,17-17v-27.549h-200V175.057z"/>
	<path fill="#21205F" d="M130.715,144.557c10.769,0,19.498-8.73,19.498-19.5c0-10.768-8.729-19.498-19.498-19.498
		c-10.77,0-19.5,8.73-19.5,19.498C111.215,135.826,119.945,144.557,130.715,144.557z M115.877,133.71l9.208-4.715l2.762-1.932
		c-0.116-0.165-0.213-0.343-0.299-0.527l-3.057,1.429l-8.688,5.616c-0.18-0.314-0.349-0.635-0.509-0.96
		c0.554-0.229,0.817-0.865,0.588-1.42c-0.229-0.554-0.865-0.816-1.419-0.587c-0.117-0.344-0.223-0.688-0.318-1.038l10.113-2.173
		l3.175-1.153c-0.068-0.188-0.125-0.382-0.161-0.584l-3.321,0.588l-9.845,3.176c-0.092-0.35-0.173-0.703-0.244-1.058
		c0.595-0.079,1.013-0.624,0.936-1.219c-0.079-0.595-0.624-1.013-1.219-0.935c-0.024-0.362-0.038-0.724-0.039-1.086l10.332,0.519
		l3.37-0.293c-0.009-0.101-0.03-0.198-0.03-0.302s0.021-0.2,0.03-0.301l-3.37-0.292l-10.332,0.518
		c0.001-0.361,0.015-0.723,0.039-1.085c0.595,0.078,1.14-0.34,1.219-0.935c0.077-0.595-0.341-1.14-0.936-1.219
		c0.07-0.355,0.152-0.709,0.244-1.059l9.845,3.176l3.321,0.587c0.036-0.201,0.092-0.395,0.161-0.583l-3.175-1.153l-10.113-2.172
		c0.095-0.35,0.201-0.696,0.318-1.038c0.555,0.229,1.19-0.034,1.419-0.589c0.229-0.554-0.034-1.189-0.588-1.419
		c0.16-0.325,0.33-0.645,0.509-0.959l8.688,5.616l3.057,1.428c0.086-0.185,0.183-0.362,0.299-0.527l-2.761-1.931l-9.208-4.716
		c0.182-0.313,0.375-0.62,0.577-0.921c0.476,0.364,1.158,0.275,1.522-0.201c0.365-0.476,0.275-1.156-0.2-1.521
		c0.239-0.273,0.485-0.539,0.74-0.795l6.938,7.672l2.589,2.175c0.13-0.155,0.272-0.297,0.427-0.428l-2.175-2.588l-7.673-6.938
		c0.257-0.255,0.522-0.502,0.795-0.74c0.365,0.476,1.047,0.565,1.522,0.2c0.476-0.364,0.566-1.047,0.2-1.521
		c0.301-0.202,0.608-0.395,0.921-0.577l4.717,9.207l1.931,2.762c0.165-0.116,0.342-0.213,0.526-0.299l-1.428-3.057l-5.615-8.688
		c0.314-0.181,0.634-0.351,0.959-0.51c0.23,0.554,0.864,0.817,1.418,0.588c0.555-0.229,0.818-0.865,0.588-1.419
		c0.343-0.118,0.689-0.224,1.039-0.32l2.173,10.115l1.152,3.174c0.189-0.068,0.381-0.125,0.583-0.16l-0.588-3.321l-3.175-9.846
		c0.35-0.092,0.703-0.173,1.059-0.243c0.078,0.595,0.624,1.014,1.218,0.936c0.596-0.078,1.014-0.625,0.935-1.219
		c0.362-0.025,0.725-0.038,1.086-0.039l-0.52,10.331l0.293,3.37c0.102-0.009,0.199-0.03,0.303-0.03c0.103,0,0.199,0.021,0.301,0.03
		l0.293-3.37l-0.52-10.331c0.363,0.001,0.725,0.014,1.086,0.039c-0.078,0.594,0.341,1.141,0.935,1.219
		c0.595,0.078,1.141-0.341,1.219-0.936c0.356,0.07,0.709,0.151,1.06,0.243l-3.176,9.846l-0.588,3.321
		c0.201,0.035,0.395,0.092,0.583,0.16l1.153-3.174l2.172-10.115c0.35,0.097,0.695,0.202,1.039,0.32
		c-0.23,0.554,0.033,1.189,0.587,1.419c0.556,0.229,1.189-0.034,1.419-0.588c0.326,0.159,0.646,0.329,0.96,0.51l-5.615,8.688
		l-1.429,3.057c0.185,0.087,0.361,0.184,0.527,0.299l1.932-2.762l4.715-9.207c0.313,0.183,0.621,0.375,0.922,0.577
		c-0.365,0.475-0.275,1.157,0.199,1.521c0.477,0.365,1.158,0.275,1.523-0.2c0.272,0.238,0.538,0.485,0.795,0.74l-7.673,6.938
		l-2.175,2.588c0.154,0.131,0.297,0.272,0.427,0.428l2.589-2.175l6.938-7.672c0.255,0.256,0.502,0.521,0.739,0.795
		c-0.475,0.365-0.564,1.046-0.199,1.521c0.364,0.477,1.047,0.565,1.521,0.201c0.203,0.301,0.395,0.607,0.577,0.921l-9.208,4.716
		l-2.761,1.931c0.116,0.165,0.212,0.343,0.299,0.527l3.058-1.428l8.688-5.616c0.18,0.314,0.35,0.634,0.51,0.959
		c-0.555,0.229-0.818,0.865-0.588,1.419c0.229,0.555,0.864,0.818,1.419,0.589c0.116,0.342,0.224,0.688,0.318,1.038l-10.114,2.172
		l-3.174,1.153c0.068,0.188,0.125,0.382,0.16,0.583l3.322-0.587l9.844-3.176c0.094,0.35,0.174,0.703,0.244,1.059
		c-0.595,0.079-1.013,0.624-0.935,1.219s0.623,1.013,1.218,0.935c0.024,0.362,0.037,0.724,0.039,1.085l-10.332-0.518l-3.369,0.292
		c0.009,0.101,0.03,0.197,0.03,0.301s-0.021,0.201-0.03,0.302l3.369,0.293l10.332-0.519c-0.002,0.362-0.015,0.724-0.039,1.086
		c-0.595-0.078-1.14,0.34-1.218,0.935s0.34,1.14,0.935,1.219c-0.07,0.354-0.15,0.708-0.244,1.058l-9.844-3.176l-3.322-0.588
		c-0.035,0.202-0.092,0.396-0.16,0.584l3.174,1.153l10.114,2.173c-0.095,0.35-0.202,0.694-0.318,1.038
		c-0.555-0.229-1.19,0.033-1.419,0.587c-0.23,0.555,0.033,1.19,0.588,1.42c-0.16,0.325-0.33,0.646-0.51,0.96l-8.688-5.616
		l-3.058-1.429c-0.087,0.185-0.184,0.362-0.3,0.527l2.762,1.932l9.208,4.715c-0.183,0.313-0.374,0.621-0.577,0.921
		c-0.475-0.365-1.157-0.275-1.521,0.2c-0.365,0.476-0.275,1.157,0.199,1.523c-0.237,0.272-0.484,0.538-0.739,0.795l-6.938-7.672
		l-2.589-2.176c-0.13,0.155-0.272,0.297-0.427,0.427l2.175,2.59l7.673,6.938c-0.257,0.256-0.522,0.502-0.795,0.739
		c-0.365-0.475-1.047-0.565-1.523-0.199c-0.475,0.365-0.564,1.047-0.199,1.522c-0.301,0.202-0.608,0.395-0.922,0.577l-4.715-9.208
		l-1.932-2.762c-0.165,0.115-0.342,0.213-0.526,0.299l1.428,3.058l5.615,8.688c-0.314,0.18-0.634,0.349-0.96,0.509
		c-0.229-0.553-0.863-0.817-1.419-0.588c-0.554,0.23-0.817,0.865-0.587,1.42c-0.344,0.116-0.689,0.224-1.039,0.319l-2.172-10.114
		l-1.153-3.175c-0.188,0.069-0.382,0.126-0.583,0.161l0.588,3.321l3.176,9.845c-0.351,0.093-0.703,0.173-1.06,0.242
		c-0.078-0.594-0.624-1.012-1.219-0.934c-0.594,0.078-1.013,0.623-0.935,1.218c-0.361,0.025-0.723,0.037-1.086,0.039l0.52-10.331
		l-0.293-3.369c-0.101,0.009-0.197,0.03-0.301,0.03s-0.201-0.021-0.303-0.03l-0.293,3.369l0.52,10.331
		c-0.361-0.002-0.724-0.014-1.086-0.039c0.079-0.595-0.339-1.14-0.935-1.218c-0.594-0.078-1.14,0.34-1.218,0.934
		c-0.356-0.069-0.709-0.149-1.059-0.242l3.175-9.845l0.588-3.321c-0.202-0.035-0.395-0.092-0.583-0.161l-1.152,3.175l-2.173,10.114
		c-0.35-0.096-0.696-0.203-1.039-0.319c0.229-0.555-0.034-1.189-0.588-1.42c-0.554-0.229-1.188,0.035-1.418,0.588
		c-0.325-0.16-0.645-0.329-0.959-0.509l5.615-8.688l1.428-3.058c-0.184-0.086-0.361-0.183-0.526-0.299l-1.931,2.762l-4.717,9.208
		c-0.313-0.183-0.62-0.375-0.921-0.577c0.366-0.476,0.275-1.157-0.2-1.522c-0.476-0.366-1.158-0.275-1.522,0.199
		c-0.273-0.237-0.539-0.483-0.795-0.739l7.673-6.938l2.175-2.59c-0.155-0.13-0.296-0.271-0.427-0.427l-2.589,2.176l-6.938,7.672
		c-0.255-0.257-0.501-0.522-0.74-0.795c0.476-0.366,0.565-1.048,0.2-1.523c-0.365-0.476-1.047-0.565-1.522-0.2
		C116.251,134.331,116.059,134.023,115.877,133.71z"/>
	<path fill="#FFFFFF" d="M137.48,126.254l9.844,3.176c0.094-0.35,0.174-0.703,0.244-1.058c-0.595-0.079-1.013-0.624-0.935-1.219
		s0.623-1.013,1.218-0.935c0.024-0.362,0.037-0.724,0.039-1.086l-10.332,0.519l-3.369-0.293c-0.01,0.104-0.014,0.207-0.031,0.308
		L137.48,126.254z"/>
	<path fill="#FFFFFF" d="M124.49,122.15l-8.688-5.616c-0.18,0.314-0.349,0.634-0.509,0.959c0.554,0.229,0.817,0.865,0.588,1.419
		c-0.229,0.555-0.865,0.818-1.419,0.589c-0.117,0.342-0.223,0.688-0.318,1.038l10.113,2.172l3.175,1.153
		c0.036-0.098,0.072-0.193,0.116-0.286L124.49,122.15z"/>
	<path fill="#FFFFFF" d="M123.87,125.651l-10.332-0.519c0.001,0.362,0.015,0.724,0.039,1.086c0.595-0.078,1.14,0.34,1.219,0.935
		c0.077,0.595-0.341,1.14-0.936,1.219c0.07,0.354,0.152,0.708,0.244,1.058l9.845-3.176l3.321-0.588
		c-0.018-0.1-0.022-0.204-0.031-0.308L123.87,125.651z"/>
	<path fill="#FFFFFF" d="M123.949,123.86l-9.845-3.176c-0.092,0.35-0.173,0.703-0.244,1.059c0.595,0.079,1.013,0.624,0.936,1.219
		c-0.079,0.595-0.624,1.013-1.219,0.935c-0.024,0.362-0.038,0.724-0.039,1.085l10.332-0.518l3.37,0.292
		c0.009-0.104,0.013-0.208,0.031-0.309L123.949,123.86z"/>
	<path fill="#FFFFFF" d="M131.912,118.292l3.176-9.846c-0.351-0.092-0.703-0.173-1.06-0.243c-0.078,0.595-0.624,1.014-1.219,0.936
		c-0.594-0.078-1.013-0.625-0.935-1.219c-0.361-0.025-0.723-0.038-1.086-0.039l0.52,10.331l-0.293,3.37
		c0.104,0.009,0.208,0.014,0.309,0.031L131.912,118.292z"/>
	<path fill="#FFFFFF" d="M136.939,127.965l8.688,5.616c0.18-0.314,0.35-0.635,0.51-0.96c-0.555-0.229-0.818-0.865-0.588-1.42
		c0.229-0.554,0.864-0.816,1.419-0.587c0.116-0.344,0.224-0.688,0.318-1.038l-10.114-2.173l-3.174-1.153
		c-0.036,0.098-0.072,0.193-0.116,0.286L136.939,127.965z"/>
	<path fill="#FFFFFF" d="M124.256,127.403l-10.113,2.173c0.095,0.35,0.201,0.694,0.318,1.038c0.555-0.229,1.19,0.033,1.419,0.587
		c0.229,0.555-0.034,1.19-0.588,1.42c0.16,0.325,0.33,0.646,0.509,0.96l8.688-5.616l3.057-1.429
		c-0.043-0.093-0.08-0.188-0.116-0.286L124.256,127.403z"/>
	<path fill="#FFFFFF" d="M137.559,124.464l10.332,0.518c-0.002-0.361-0.015-0.723-0.039-1.085c-0.595,0.078-1.14-0.34-1.218-0.935
		s0.34-1.14,0.935-1.219c-0.07-0.355-0.15-0.709-0.244-1.059l-9.844,3.176l-3.322,0.587c0.018,0.101,0.022,0.205,0.031,0.309
		L137.559,124.464z"/>
	<path fill="#FFFFFF" d="M136.344,121.12l9.208-4.716c-0.183-0.313-0.374-0.62-0.577-0.921c-0.475,0.364-1.157,0.275-1.521-0.201
		c-0.365-0.476-0.275-1.156,0.199-1.521c-0.237-0.273-0.484-0.539-0.739-0.795l-6.938,7.672l-2.589,2.175
		c0.067,0.079,0.138,0.153,0.197,0.238L136.344,121.12z"/>
	<path fill="#FFFFFF" d="M135.134,119.797l7.673-6.938c-0.257-0.255-0.522-0.502-0.795-0.74c-0.365,0.476-1.047,0.565-1.523,0.2
		c-0.475-0.364-0.564-1.047-0.199-1.521c-0.301-0.202-0.608-0.395-0.922-0.577l-4.715,9.207l-1.932,2.762
		c0.084,0.06,0.159,0.13,0.238,0.196L135.134,119.797z"/>
	<path fill="#FFFFFF" d="M133.622,118.833l5.615-8.688c-0.314-0.181-0.634-0.351-0.96-0.51c-0.229,0.554-0.863,0.817-1.419,0.588
		c-0.554-0.229-0.817-0.865-0.587-1.419c-0.344-0.118-0.689-0.224-1.039-0.32l-2.172,10.115l-1.153,3.174
		c0.098,0.036,0.193,0.072,0.286,0.116L133.622,118.833z"/>
	<path fill="#FFFFFF" d="M131.309,131.902l-0.52,10.331c0.363-0.002,0.725-0.014,1.086-0.039c-0.078-0.595,0.341-1.14,0.935-1.218
		c0.595-0.078,1.141,0.34,1.219,0.934c0.356-0.069,0.709-0.149,1.06-0.242l-3.176-9.845l-0.588-3.321
		c-0.101,0.018-0.205,0.022-0.309,0.031L131.309,131.902z"/>
	<path fill="#FFFFFF" d="M134.652,130.688l4.715,9.208c0.313-0.183,0.621-0.375,0.922-0.577c-0.365-0.476-0.275-1.157,0.199-1.522
		c0.477-0.366,1.158-0.275,1.523,0.199c0.272-0.237,0.538-0.483,0.795-0.739l-7.673-6.938l-2.175-2.59
		c-0.079,0.066-0.154,0.138-0.238,0.197L134.652,130.688z"/>
	<path fill="#FFFFFF" d="M133.061,131.516l2.172,10.114c0.35-0.096,0.695-0.203,1.039-0.319c-0.23-0.555,0.033-1.189,0.587-1.42
		c0.556-0.229,1.189,0.035,1.419,0.588c0.326-0.16,0.646-0.329,0.96-0.509l-5.615-8.688l-1.428-3.058
		c-0.094,0.044-0.189,0.081-0.287,0.116L133.061,131.516z"/>
	<path fill="#FFFFFF" d="M129.517,131.823l-3.175,9.845c0.35,0.093,0.703,0.173,1.059,0.242c0.078-0.594,0.624-1.012,1.218-0.934
		c0.596,0.078,1.014,0.623,0.935,1.218c0.362,0.025,0.725,0.037,1.086,0.039l-0.52-10.331l0.293-3.369
		c-0.104-0.009-0.207-0.014-0.308-0.031L129.517,131.823z"/>
	<path fill="#FFFFFF" d="M117.976,134.831c0.365,0.476,0.275,1.157-0.2,1.523c0.239,0.272,0.485,0.538,0.74,0.795l6.938-7.672
		l2.589-2.176c-0.066-0.079-0.138-0.153-0.197-0.238l-2.762,1.932l-9.208,4.715c0.182,0.313,0.375,0.621,0.577,0.921
		C116.929,134.266,117.611,134.355,117.976,134.831z"/>
	<path fill="#FFFFFF" d="M126.295,130.318l-7.673,6.938c0.257,0.256,0.522,0.502,0.795,0.739c0.365-0.475,1.047-0.565,1.522-0.199
		c0.476,0.365,0.566,1.047,0.2,1.522c0.301,0.202,0.608,0.395,0.921,0.577l4.717-9.208l1.931-2.762
		c-0.085-0.059-0.16-0.131-0.239-0.197L126.295,130.318z"/>
	<path fill="#FFFFFF" d="M127.807,131.282l-5.615,8.688c0.314,0.18,0.634,0.349,0.959,0.509c0.23-0.553,0.864-0.817,1.418-0.588
		c0.555,0.23,0.818,0.865,0.588,1.42c0.343,0.116,0.689,0.224,1.039,0.319l2.173-10.114l1.152-3.175
		c-0.098-0.035-0.193-0.072-0.287-0.116L127.807,131.282z"/>
	<path fill="#FFFFFF" d="M135.975,129.478l6.938,7.672c0.255-0.257,0.502-0.522,0.739-0.795c-0.475-0.366-0.564-1.048-0.199-1.523
		c0.364-0.476,1.047-0.565,1.521-0.2c0.203-0.3,0.395-0.607,0.577-0.921l-9.208-4.715l-2.762-1.932
		c-0.059,0.085-0.13,0.159-0.196,0.238L135.975,129.478z"/>
	<path fill="#FFFFFF" d="M137.172,122.711l10.114-2.172c-0.095-0.35-0.202-0.696-0.318-1.038c-0.555,0.229-1.19-0.034-1.419-0.589
		c-0.23-0.554,0.033-1.189,0.588-1.419c-0.16-0.325-0.33-0.645-0.51-0.959l-8.688,5.616l-3.058,1.428
		c0.044,0.093,0.08,0.188,0.116,0.286L137.172,122.711z"/>
	<path fill="#FFFFFF" d="M130.119,118.212l0.52-10.331c-0.361,0.001-0.724,0.014-1.086,0.039c0.079,0.594-0.339,1.141-0.935,1.219
		c-0.594,0.078-1.14-0.341-1.218-0.936c-0.356,0.07-0.709,0.151-1.059,0.243l3.175,9.846l0.588,3.321
		c0.101-0.018,0.205-0.022,0.308-0.031L130.119,118.212z"/>
	<path fill="#FFFFFF" d="M126.778,119.427l-4.717-9.207c-0.313,0.183-0.62,0.375-0.921,0.577c0.366,0.475,0.275,1.157-0.2,1.521
		c-0.476,0.365-1.158,0.275-1.522-0.2c-0.273,0.238-0.539,0.485-0.795,0.74l7.673,6.938l2.175,2.588
		c0.079-0.066,0.154-0.137,0.239-0.196L126.778,119.427z"/>
	<path fill="#FFFFFF" d="M125.454,120.638l-6.938-7.672c-0.255,0.256-0.501,0.521-0.74,0.795c0.476,0.365,0.565,1.046,0.2,1.521
		c-0.365,0.477-1.047,0.565-1.522,0.201c-0.202,0.301-0.395,0.607-0.577,0.921l9.208,4.716l2.761,1.931
		c0.06-0.085,0.13-0.159,0.197-0.238L125.454,120.638z"/>
	<path fill="#FFFFFF" d="M128.369,118.6l-2.173-10.115c-0.35,0.097-0.696,0.202-1.039,0.32c0.229,0.554-0.034,1.189-0.588,1.419
		c-0.554,0.229-1.188-0.034-1.418-0.588c-0.325,0.159-0.645,0.329-0.959,0.51l5.615,8.688l1.428,3.057
		c0.094-0.044,0.189-0.08,0.287-0.116L128.369,118.6z"/>
	<path fill="#21205F" d="M128.47,127.729c0.079,0.066,0.154,0.139,0.239,0.197c0.165,0.116,0.342,0.213,0.526,0.299
		c0.094,0.044,0.189,0.081,0.287,0.116c0.188,0.069,0.381,0.126,0.583,0.161c0.101,0.018,0.204,0.022,0.308,0.031
		c0.102,0.009,0.199,0.03,0.303,0.03s0.2-0.021,0.301-0.03c0.104-0.009,0.208-0.014,0.309-0.031
		c0.201-0.035,0.395-0.092,0.583-0.161c0.098-0.035,0.193-0.072,0.287-0.116c0.185-0.086,0.361-0.184,0.526-0.299
		c0.084-0.06,0.159-0.131,0.238-0.197c0.154-0.13,0.297-0.271,0.427-0.427c0.066-0.079,0.138-0.153,0.196-0.238
		c0.116-0.165,0.213-0.343,0.3-0.527c0.044-0.093,0.08-0.188,0.116-0.286c0.068-0.188,0.125-0.382,0.16-0.584
		c0.018-0.101,0.021-0.204,0.031-0.308c0.009-0.101,0.03-0.198,0.03-0.302s-0.021-0.2-0.03-0.301
		c-0.009-0.104-0.014-0.208-0.031-0.309c-0.035-0.201-0.092-0.395-0.16-0.583c-0.036-0.098-0.072-0.193-0.116-0.286
		c-0.087-0.185-0.183-0.362-0.299-0.527c-0.06-0.085-0.13-0.159-0.197-0.238c-0.13-0.155-0.272-0.297-0.427-0.428
		c-0.079-0.066-0.154-0.137-0.238-0.196c-0.166-0.115-0.343-0.212-0.527-0.299c-0.093-0.044-0.188-0.08-0.286-0.116
		c-0.188-0.068-0.382-0.125-0.583-0.16c-0.101-0.018-0.205-0.022-0.309-0.031c-0.102-0.009-0.198-0.03-0.301-0.03
		c-0.104,0-0.201,0.021-0.303,0.03c-0.103,0.009-0.207,0.014-0.308,0.031c-0.202,0.035-0.394,0.092-0.583,0.16
		c-0.098,0.036-0.193,0.072-0.287,0.116c-0.184,0.086-0.361,0.183-0.526,0.299c-0.084,0.06-0.16,0.13-0.239,0.196
		c-0.155,0.131-0.296,0.272-0.427,0.428c-0.067,0.079-0.138,0.153-0.197,0.238c-0.116,0.165-0.212,0.343-0.299,0.527
		c-0.043,0.093-0.08,0.188-0.116,0.286c-0.068,0.188-0.125,0.382-0.161,0.583c-0.018,0.101-0.022,0.205-0.031,0.309
		c-0.009,0.101-0.03,0.197-0.03,0.301s0.021,0.201,0.03,0.302c0.009,0.104,0.014,0.208,0.031,0.308
		c0.036,0.202,0.092,0.396,0.161,0.584c0.036,0.098,0.072,0.193,0.116,0.286c0.086,0.185,0.184,0.362,0.299,0.527
		c0.059,0.085,0.13,0.159,0.197,0.238C128.173,127.457,128.315,127.599,128.47,127.729z"/>
</g>
</svg>
