<?xml version="1.0" encoding="utf-8"?>
<!-- Generator: Adobe Illustrator 16.0.0, SVG Export Plug-In . SVG Version: 6.00 Build 0)  -->
<!DOCTYPE svg PUBLIC "-//W3C//DTD SVG 1.1//EN" "http://www.w3.org/Graphics/SVG/1.1/DTD/svg11.dtd">
<svg version="1.1" id="Layer_1" xmlns="http://www.w3.org/2000/svg" xmlns:xlink="http://www.w3.org/1999/xlink" x="0px" y="0px"
	 width="255.12px" height="255.12px" viewBox="0 0 255.12 255.12" enable-background="new 0 0 255.12 255.12" xml:space="preserve">
<g>
	<path fill="#214190" d="M128.276,191.552h82.998c9.389,0,17-7.61,17-17V144.41h-99.998V191.552z"/>
	<path fill="#214190" d="M28.274,144.41v30.142c0,9.39,7.611,17,17,17h43.385V144.41H28.274z"/>
	<path fill="#214190" d="M88.659,57.552H45.274c-9.389,0-17,7.611-17,17v30.141h60.385V57.552z"/>
	<path fill="#214190" d="M211.274,57.552h-82.998v47.141h99.998V74.552C228.274,65.163,220.663,57.552,211.274,57.552z"/>
	<polygon fill="#FAFAFA" points="100.544,104.692 100.544,57.552 88.659,57.552 88.659,104.692 28.274,104.692 28.274,116.608 
		100.544,116.608 	"/>
	<polygon fill="#FAFAFA" points="116.39,144.41 116.39,191.552 128.276,191.552 128.276,144.41 228.274,144.41 228.274,132.495 
		116.39,132.495 	"/>
	<polygon fill="#FAFAFA" points="100.544,132.495 28.274,132.495 28.274,144.41 88.659,144.41 88.659,191.552 100.544,191.552 
		100.544,144.41 	"/>
	<polygon fill="#FAFAFA" points="128.276,57.552 116.39,57.552 116.39,104.692 116.39,116.608 228.274,116.608 228.274,104.692 
		128.276,104.692 	"/>
	<polygon fill="#D72B28" points="116.39,104.692 116.39,57.552 100.544,57.552 100.544,104.692 100.544,116.608 28.274,116.608 
		28.274,132.495 100.544,132.495 100.544,144.41 100.544,191.552 116.39,191.552 116.39,144.41 116.39,132.495 228.274,132.495 
		228.274,116.608 116.39,116.608 	"/>
</g>
</svg>
