<?xml version="1.0" encoding="utf-8"?>
<!-- Generator: Adobe Illustrator 16.0.0, SVG Export Plug-In . SVG Version: 6.00 Build 0)  -->
<!DOCTYPE svg PUBLIC "-//W3C//DTD SVG 1.1//EN" "http://www.w3.org/Graphics/SVG/1.1/DTD/svg11.dtd">
<svg version="1.1" id="Layer_1" xmlns="http://www.w3.org/2000/svg" xmlns:xlink="http://www.w3.org/1999/xlink" x="0px" y="0px"
	 width="255.121px" height="255.121px" viewBox="0 0 255.121 255.121" enable-background="new 0 0 255.121 255.121"
	 xml:space="preserve">
<g>
	<path fill="#EDEDED" d="M210.798,58.156h-166c-9.389,0-17,7.61-17,17v100c0,9.389,7.611,17,17,17h166c9.39,0,17-7.611,17-17v-100
		C227.798,65.767,220.188,58.156,210.798,58.156z M127.798,165.406c-22.23,0-40.25-18.021-40.25-40.25s18.02-40.252,40.25-40.252
		c22.231,0,40.252,18.021,40.252,40.252C168.05,147.386,150.029,165.406,127.798,165.406z"/>
	<circle fill="#BF2830" cx="127.798" cy="125.155" r="40.251"/>
</g>
</svg>
