<?xml version="1.0" encoding="utf-8"?>
<!-- Generator: Adobe Illustrator 16.0.0, SVG Export Plug-In . SVG Version: 6.00 Build 0)  -->
<!DOCTYPE svg PUBLIC "-//W3C//DTD SVG 1.1//EN" "http://www.w3.org/Graphics/SVG/1.1/DTD/svg11.dtd">
<svg version="1.1" id="Layer_1" xmlns="http://www.w3.org/2000/svg" xmlns:xlink="http://www.w3.org/1999/xlink" x="0px" y="0px"
	 width="255.121px" height="255.121px" viewBox="0 0 255.121 255.121" enable-background="new 0 0 255.121 255.121"
	 xml:space="preserve">
<g>
	<path fill="#EDEDED" d="M211.535,60.878h-166c-9.389,0-17,7.609-17,17v100c0,9.389,7.611,17,17,17h166c9.389,0,17-7.611,17-17v-100
		C228.535,68.487,220.924,60.878,211.535,60.878z M171.342,82.478l7.135,10.701l-3.892,2.594l-7.134-10.701L171.342,82.478z
		 M165.505,86.368l15.564,23.35l-3.89,2.594l-15.566-23.35L165.505,86.368z M171.342,139.552l3.892,2.594l-7.134,10.701
		l-3.893-2.594L171.342,139.552z M164.207,105.501l3.893-2.594l7.134,10.701l-3.892,2.594L164.207,105.501z M177.18,143.444
		l3.89,2.594l-7.133,10.701l-3.892-2.594L177.18,143.444z M159.668,90.259l7.134,10.701l-3.893,2.596l-7.134-10.703L159.668,90.259z
		 M101.296,92.853l-15.567,23.35l-3.892-2.594l15.565-23.35L101.296,92.853z M95.457,88.962l-15.564,23.35l-3.894-2.594
		l15.566-23.35L95.457,88.962z M87.025,154.146l-3.892,2.594l-7.135-10.701l3.894-2.594L87.025,154.146z M85.729,82.478l3.893,2.594
		l-15.567,23.35l-3.891-2.596L85.729,82.478z M85.729,173.278l-15.565-23.35l3.891-2.594l15.567,23.35L85.729,173.278z
		 M91.565,169.386l-7.133-10.701l3.89-2.594l7.135,10.701L91.565,169.386z M97.402,165.495l-15.565-23.35l3.892-2.594l15.567,23.35
		L97.402,165.495z M112.969,151.226c-12.896-8.596-16.379-26.02-7.783-38.914c8.597-12.895,26.02-16.381,38.916-7.783
		c12.896,8.598,16.379,26.02,7.783,38.916C143.287,156.339,125.865,159.823,112.969,151.226z M155.775,162.901l7.134-10.703
		l3.893,2.596l-7.134,10.701L155.775,162.901z M161.613,166.792l7.135-10.701l3.891,2.594l-7.134,10.701L161.613,166.792z
		 M171.342,173.278l-3.891-2.594l7.134-10.703l3.892,2.596L171.342,173.278z M179.773,160.63l-3.893-2.594l7.136-10.701l3.89,2.594
		L179.773,160.63z M183.017,108.421l-7.136-10.703l3.893-2.594l7.133,10.701L183.017,108.421z"/>
	<path fill="#EDEDED" d="M105.186,112.312c-0.269,0.403-0.514,0.815-0.736,1.235C104.687,113.132,104.917,112.715,105.186,112.312z"
		/>
	<rect x="154.858" y="94.567" transform="matrix(0.5547 0.8321 -0.8321 0.5547 152.4566 -91.048)" width="12.861" height="4.678"/>
	<rect x="163.29" y="107.216" transform="matrix(0.5547 0.8321 -0.8321 0.5547 166.7357 -92.4311)" width="12.861" height="4.678"/>
	<rect x="157.31" y="97.001" transform="matrix(0.5547 0.8321 -0.8321 0.5547 158.9654 -98.3293)" width="28.062" height="4.677"/>
	<rect x="166.533" y="86.787" transform="matrix(0.5547 0.832 -0.832 0.5547 151.1691 -104.2264)" width="12.862" height="4.676"/>
	<rect x="174.962" y="99.433" transform="matrix(-0.5547 -0.832 0.832 -0.5547 197.338 309.1524)" width="12.864" height="4.676"/>
	
		<rect x="77.535" y="150.184" transform="matrix(-0.5547 -0.8321 0.8321 -0.5547 15.4465 313.3139)" width="28.062" height="4.678"/>
	<rect x="79.175" y="143.662" transform="matrix(-0.8321 0.5546 -0.5546 -0.8321 232.583 229.7778)" width="4.677" height="12.86"/>
	<rect x="83.515" y="160.4" transform="matrix(-0.5546 -0.8321 0.8321 -0.5546 4.4169 327.8407)" width="12.86" height="4.677"/>
	
		<rect x="65.861" y="157.968" transform="matrix(-0.5547 -0.8321 0.8321 -0.5547 -9.1794 315.7004)" width="28.062" height="4.678"/>
	<rect x="77.534" y="100.891" transform="matrix(-0.5547 0.832 -0.832 -0.5547 228.2503 84.3093)" width="28.063" height="4.678"/>
	<rect x="71.698" y="97.001" transform="matrix(-0.5547 0.8321 -0.8321 -0.5547 215.9377 83.1053)" width="28.062" height="4.677"/>
	<rect x="77.553" y="81.418" transform="matrix(0.8322 0.5545 -0.5545 0.8322 66.3344 -28.2825)" width="4.678" height="28.061"/>
	
		<rect x="154.857" y="156.508" transform="matrix(0.5546 -0.8321 0.8321 0.5546 -60.3418 204.9579)" width="12.863" height="4.678"/>
	
		<rect x="163.29" y="143.861" transform="matrix(-0.5547 0.8321 -0.8321 -0.5547 385.5087 86.0753)" width="12.861" height="4.677"/>
	<rect x="160.696" y="160.4" transform="matrix(0.5547 -0.832 0.832 0.5547 -60.9871 211.5154)" width="12.862" height="4.677"/>
	<rect x="173.22" y="143.661" transform="matrix(0.832 0.5548 -0.5548 0.832 112.7665 -72.181)" width="4.675" height="12.862"/>
	
		<rect x="170.626" y="160.2" transform="matrix(-0.8321 -0.5547 0.5547 -0.8321 224.4483 401.2192)" width="4.676" height="12.862"/>
	
		<rect x="179.055" y="147.552" transform="matrix(-0.8322 -0.5545 0.5545 -0.8322 246.961 382.7074)" width="4.678" height="12.86"/>
	<path fill="#CE1126" d="M144.102,104.528c-12.896-8.598-30.319-5.111-38.916,7.783c-0.269,0.403-0.499,0.82-0.736,1.235
		c-3.326,6.285-1.417,14.192,4.627,18.222c6.448,4.299,15.159,2.557,19.458-3.891c4.3-6.449,13.01-8.191,19.457-3.893
		c6.449,4.299,8.19,13.01,3.893,19.459C160.48,130.548,156.997,113.126,144.102,104.528z"/>
	<path fill="#003F87" d="M147.992,123.985c-6.447-4.299-15.157-2.557-19.457,3.893c-4.299,6.447-13.01,8.189-19.458,3.891
		c-6.045-4.03-7.953-11.938-4.627-18.222c0.222-0.419,0.467-0.832,0.736-1.235c-8.596,12.895-5.112,30.318,7.783,38.914
		c12.896,8.598,30.318,5.113,38.916-7.781C156.183,136.995,154.441,128.284,147.992,123.985z"/>
</g>
</svg>
