<?xml version="1.0" encoding="utf-8"?>
<!-- Generator: Adobe Illustrator 16.0.0, SVG Export Plug-In . SVG Version: 6.00 Build 0)  -->
<!DOCTYPE svg PUBLIC "-//W3C//DTD SVG 1.1//EN" "http://www.w3.org/Graphics/SVG/1.1/DTD/svg11.dtd">
<svg version="1.1" id="图形" xmlns="http://www.w3.org/2000/svg" xmlns:xlink="http://www.w3.org/1999/xlink" x="0px" y="0px"
	 width="1000.637px" height="1000.678px" viewBox="-1048.28 2108.25 1000.637 1000.678"
	 enable-background="new -1048.28 2108.25 1000.637 1000.678" xml:space="preserve">
<path fill="#ADD13B" d="M-110.011,2608.732c0,241.934-196.14,438.088-438.088,438.088c-241.933,0-438.073-196.154-438.073-438.088
	c0-241.959,196.14-438.086,438.073-438.086C-306.151,2170.646-110.011,2366.773-110.011,2608.732z"/>
<path fill="#87A305" d="M-743.794,2801.894l256.615,240.722c199.031-27.692,355.267-189.112,375.046-390.56l-263.048-214.551h-314
	l-15.842,15.678l38.913,19.377l88.182,164.249l-69.196,141.81L-743.794,2801.894z"/>
<path fill="#DBE57A" d="M-764.599,2591.398v194.287c0,15.191,12.316,27.51,27.51,27.51h378.256c15.193,0,27.509-12.318,27.509-27.51
	v-194.287H-764.599z"/>
<path fill="none" d="M-141.624,2595.442c0,227.446-184.396,411.855-411.856,411.855c-227.447,0-411.842-184.409-411.842-411.855
	c0-227.474,184.396-411.855,411.842-411.855C-326.019,2183.586-141.624,2367.968-141.624,2595.442z"/>
<path fill="none" d="M-110.011,2608.732c0,241.934-196.14,438.088-438.088,438.088c-241.933,0-438.073-196.154-438.073-438.088
	c0-241.959,196.14-438.086,438.073-438.086C-306.151,2170.646-110.011,2366.773-110.011,2608.732z"/>
<g>
	<path fill="#FFFFFF" d="M-372.103,2745.765c0,14.031-11.48,25.512-25.512,25.512h-300.694c-14.031,0-25.512-11.48-25.512-25.512
		v-300.434c0-14.031,11.48-25.512,25.512-25.512h300.694c14.031,0,25.512,11.48,25.512,25.512V2745.765z"/>
</g>
<g>
	<path fill="#CDCED0" d="M-458.249,2723.105c-11.768,0-21.311-9.531-21.311-21.309V2489.3c0-11.777,9.543-21.309,21.311-21.309
		c11.766,0,21.306,9.531,21.306,21.309v212.496C-436.943,2713.573-446.483,2723.105-458.249,2723.105z"/>
	<path fill="#CDCED0" d="M-547.977,2717.486c-11.767,0-21.306-9.53-21.306-21.308v-106.831c0-11.778,9.539-21.309,21.306-21.309
		c11.768,0,21.307,9.53,21.307,21.309v106.831C-526.67,2707.955-536.209,2717.486-547.977,2717.486z"/>
	<path fill="#CDCED0" d="M-637.671,2723.105c-11.767,0-21.31-9.531-21.31-21.309v-165.677c0-11.778,9.543-21.308,21.31-21.308
		c11.768,0,21.307,9.529,21.307,21.308v165.677C-616.365,2713.573-625.904,2723.105-637.671,2723.105z"/>
</g>
</svg>
