<?xml version="1.0" encoding="utf-8"?>
<!-- Generator: Adobe Illustrator 16.0.0, SVG Export Plug-In . SVG Version: 6.00 Build 0)  -->
<!DOCTYPE svg PUBLIC "-//W3C//DTD SVG 1.1//EN" "http://www.w3.org/Graphics/SVG/1.1/DTD/svg11.dtd">
<svg version="1.1" id="图形" xmlns="http://www.w3.org/2000/svg" xmlns:xlink="http://www.w3.org/1999/xlink" x="0px" y="0px"
	 width="1000.637px" height="1000.678px" viewBox="-1048.28 4233.938 1000.637 1000.678"
	 enable-background="new -1048.28 4233.938 1000.637 1000.678" xml:space="preserve">
<path fill="#ADD13B" d="M-110.011,4734.419c0,241.934-196.14,438.088-438.088,438.088c-241.933,0-438.073-196.154-438.073-438.088
	c0-241.959,196.14-438.086,438.073-438.086C-306.151,4296.333-110.011,4492.46-110.011,4734.419z"/>
<path fill="#87A305" d="M-117.037,4795.874l-227.613-242.255l-247.487,59.91l-102.981-29.694l30.743,64.157l95.891,173.505
	l-65.55,101.712l-98.86,3l175.978,249.437c1.878,0.023,3.76,0.035,5.644,0.035C-329.086,5175.681-145.539,5010.258-117.037,4795.874
	z"/>
<path fill="none" d="M-110.011,4734.419c0,241.934-196.14,438.088-438.088,438.088c-241.933,0-438.073-196.154-438.073-438.088
	c0-241.959,196.14-438.086,438.073-438.086C-306.151,4296.333-110.011,4492.46-110.011,4734.419z"/>
<path fill="none" d="M-123.64,4745.075c0,238.81-193.625,432.438-432.467,432.438c-238.816,0-432.416-193.629-432.416-432.438
	c0-238.845,193.6-432.441,432.416-432.441C-317.264,4312.634-123.64,4506.23-123.64,4745.075z"/>
<g>
	<g>
		<path fill="#DBE57A" d="M-337.34,4834.252c0,15.591-12.756,28.347-28.347,28.347h-356.146c-15.59,0-28.346-12.756-28.346-28.347
			v-284.111c0-15.591,12.756-28.347,28.346-28.347h356.146c15.591,0,28.347,12.756,28.347,28.347V4834.252z"/>
	</g>
	<g>
		<path fill="#DBE57A" d="M-337.34,4909.549c0,14.031-11.48,25.512-25.512,25.512h-361.815c-14.031,0-25.512-11.48-25.512-25.512
			v-275.001c0-14.031,11.48-25.512,25.512-25.512h361.815c14.031,0,25.512,11.48,25.512,25.512V4909.549z"/>
	</g>
	<g>
		<path fill="#FFFFFF" d="M-378.593,4874.606c0,14.031-11.48,25.512-25.512,25.512h-285.332c-14.031,0-25.512-11.48-25.512-25.512
			v-221.051c0-14.031,11.48-25.512,25.512-25.512h285.332c14.031,0,25.512,11.48,25.512,25.512V4874.606z"/>
	</g>
	<g>
		<path fill="#CDCED0" d="M-655.83,4688.407c-6.76,0-12.233-5.468-12.233-12.234v-36.698c0-6.765,5.473-12.235,12.233-12.235
			c6.762,0,12.233,5.471,12.233,12.235v36.698C-643.597,4682.939-649.068,4688.407-655.83,4688.407z"/>
		<path fill="#CDCED0" d="M-655.83,4813.247c-6.76,0-12.233-5.467-12.233-12.232v-74.9c0-6.764,5.473-12.233,12.233-12.233
			c6.762,0,12.233,5.47,12.233,12.233v74.9C-643.597,4807.78-649.068,4813.247-655.83,4813.247z"/>
		<path fill="#CDCED0" d="M-655.83,4899.916c-6.76,0-12.233-5.476-12.233-12.231v-36.701c0-6.765,5.473-12.232,12.233-12.232
			c6.762,0,12.233,5.468,12.233,12.232v36.701C-643.597,4894.44-649.068,4899.916-655.83,4899.916z"/>
	</g>
	<g>
		<path fill="#CCCCCC" d="M-308.55,4776.973c0,23.386-19.134,42.52-42.52,42.52h-111.039c-23.386,0-42.52-19.134-42.52-42.52v-9.848
			c0-23.386,19.134-42.52,42.52-42.52h111.039c23.386,0,42.52,19.134,42.52,42.52V4776.973z"/>
	</g>
	<path fill="#FFFFFF" d="M-431.724,4772.06c0,12.01-9.742,21.775-21.773,21.775c-12.03,0-21.772-9.766-21.772-21.775
		c0-12.081,9.742-21.798,21.772-21.798C-441.465,4750.262-431.724,4759.979-431.724,4772.06z"/>
	<path fill="#87A305" d="M-358.819,4577.447c0,7.273-5.897,13.171-13.171,13.171h-338.866c-7.274,0-13.171-5.897-13.171-13.171
		v-21.153c0-7.273,5.897-13.171,13.171-13.171h338.866c7.274,0,13.171,5.897,13.171,13.171V4577.447z"/>
</g>
<rect x="-373.144" y="4556.775" fill="#87A305" width="41.295" height="20.19"/>
</svg>
