<?xml version="1.0" encoding="utf-8"?>
<!-- Generator: Adobe Illustrator 16.0.0, SVG Export Plug-In . SVG Version: 6.00 Build 0)  -->
<!DOCTYPE svg PUBLIC "-//W3C//DTD SVG 1.1//EN" "http://www.w3.org/Graphics/SVG/1.1/DTD/svg11.dtd">
<svg version="1.1" id="图形" xmlns="http://www.w3.org/2000/svg" xmlns:xlink="http://www.w3.org/1999/xlink" x="0px" y="0px"
	 width="1000.637px" height="1000.678px" viewBox="-1048.28 -16.333 1000.637 1000.678"
	 enable-background="new -1048.28 -16.333 1000.637 1000.678" xml:space="preserve">
<path fill="#ADD13B" d="M-110.011,484.149c0,241.934-196.14,438.088-438.088,438.088c-241.933,0-438.073-196.154-438.073-438.088
	c0-241.959,196.14-438.086,438.073-438.086C-306.151,46.063-110.011,242.19-110.011,484.149z"/>
<path fill="#87A305" d="M-118.441,570.061l-312.667-313.918L-572.48,374.172l-91.183-56.734l-16.502,326.4l-78.017-30
	l-17.499,12.498l291.293,291.293C-300.9,890.891-154.307,750.418-118.441,570.061z"/>
<path fill="none" d="M-110.011,484.149c0,241.934-196.14,438.088-438.088,438.088c-241.933,0-438.073-196.154-438.073-438.088
	c0-241.959,196.14-438.086,438.073-438.086C-306.151,46.063-110.011,242.19-110.011,484.149z"/>
<g>
	<path fill="#FFFFFF" d="M-679.948,713.932c-1.485,0-3.194-0.293-4.365-0.537c-0.006,0-0.013,0-0.019,0
		c-0.354,0-0.76-0.145-1.229-0.309c-0.211-0.074-0.439-0.154-0.691-0.23c-0.216-0.07-0.433-0.119-0.646-0.166
		c-0.559-0.127-1.136-0.258-1.569-0.707c-0.533-0.176-0.947-0.459-1.313-0.709c-0.193-0.133-0.375-0.258-0.56-0.354
		c-0.527-0.244-1.062-0.496-1.616-0.779c-0.706-0.502-1.213-0.986-1.66-1.414l-0.277-0.262c-0.484-0.195-0.765-0.477-1.229-0.941
		l-0.162-0.162c-0.047-0.047-0.074-0.111-0.074-0.178v-0.145l-106.54-106.578c-8.472-8.506-8.472-22.379-0.001-30.922
		c4.182-4.113,9.582-6.287,15.62-6.287c5.723,0,11.262,2.23,15.598,6.281l69.394,69.414V332.248c0-12.08,9.819-21.906,21.889-21.906
		s21.889,9.826,21.889,21.906v306.982l68.609-68.625c4.163-4.111,9.553-6.285,15.586-6.285c5.724,0,11.262,2.23,15.595,6.279
		c7.926,8.816,7.427,22.686-1.098,30.93l-105.739,105.758v0.182c0,0.061-0.022,0.119-0.062,0.164
		c-0.144,0.164-0.355,0.316-0.6,0.494c-0.226,0.162-0.487,0.35-0.751,0.59c-0.259,0.268-0.591,0.531-0.913,0.785
		c-0.349,0.275-0.71,0.562-0.988,0.867c-0.606,0.305-1.12,0.553-1.666,0.834c-0.407,0.146-0.727,0.328-1.065,0.521
		c-0.352,0.201-0.717,0.408-1.152,0.559l-0.218,0.088c-0.669,0.27-1.201,0.484-1.956,0.494c-0.553,0.252-1.373,0.533-1.938,0.533
		C-677.068,713.647-678.485,713.932-679.948,713.932z"/>
	<path fill="#FFFFFF" d="M-679.399,310.592c11.895,0,21.639,9.762,21.639,21.656v307.586l69.036-69.051
		c4.35-4.297,9.747-6.213,15.41-6.213c5.681,0,11.092,2.164,15.424,6.213c7.563,8.414,7.563,22.188-1.101,30.566l-105.815,105.834
		c0,0,0,0,0,0.285c-0.248,0.281-0.782,0.566-1.331,1.062c-0.552,0.568-1.366,1.064-1.918,1.668c-0.531,0.25-1.048,0.498-1.596,0.783
		c-0.8,0.281-1.366,0.781-2.184,1.064c-0.8,0.318-1.331,0.568-2.148,0.568c-0.534,0.248-1.349,0.533-1.883,0.533
		c-1.401,0.283-2.697,0.533-4.081,0.533c-1.348,0-2.966-0.25-4.314-0.533c-0.534,0-1.101-0.285-1.918-0.533
		c-0.779-0.25-1.614-0.25-2.148-0.852c-0.814-0.248-1.349-0.781-1.897-1.066c-0.535-0.248-1.066-0.498-1.618-0.779
		c-0.797-0.57-1.348-1.137-1.879-1.635c-0.57-0.248-0.817-0.533-1.387-1.1c0,0,0,0,0-0.248l-106.613-106.65
		c-8.345-8.381-8.345-22.154,0-30.57c4.365-4.293,9.745-6.213,15.442-6.213c5.681,0,11.096,2.168,15.427,6.213l69.815,69.836
		V332.248C-701.038,320.354-691.327,310.592-679.399,310.592 M-679.399,310.092c-12.208,0-22.139,9.939-22.139,22.156v306.096
		l-68.961-68.982c-4.395-4.105-9.995-6.359-15.781-6.359c-6.104,0-11.565,2.199-15.792,6.357
		c-8.572,8.645-8.572,22.674-0.004,31.277l106.467,106.506v0.041c0,0.133,0.053,0.262,0.147,0.355l0.161,0.16
		c0.447,0.449,0.75,0.752,1.295,1.004l0.215,0.205c0.454,0.434,0.968,0.924,1.657,1.416c0.02,0.014,0.041,0.027,0.063,0.039
		c0.585,0.299,1.151,0.562,1.635,0.787c0.146,0.078,0.325,0.199,0.514,0.328c0.368,0.252,0.781,0.535,1.319,0.721
		c0.479,0.469,1.099,0.609,1.649,0.734c0.206,0.045,0.416,0.092,0.621,0.158c0.256,0.078,0.481,0.156,0.688,0.23
		c0.479,0.168,0.895,0.314,1.327,0.326c1.181,0.246,2.882,0.533,4.369,0.533c1.47,0,2.884-0.281,4.134-0.533
		c0.708-0.018,1.604-0.385,1.94-0.533c0.773-0.02,1.316-0.238,1.995-0.512l0.228-0.092c0.436-0.15,0.811-0.363,1.172-0.57
		c0.329-0.188,0.64-0.363,0.993-0.488c0.021-0.008,0.043-0.016,0.063-0.027c0.565-0.293,1.093-0.545,1.579-0.773
		c0.059-0.027,0.112-0.066,0.156-0.115c0.265-0.289,0.617-0.568,0.959-0.84c0.327-0.258,0.666-0.527,0.949-0.818
		c0.228-0.205,0.482-0.389,0.706-0.549c0.257-0.188,0.48-0.348,0.642-0.531c0.08-0.092,0.124-0.209,0.124-0.33v-0.078
		l105.668-105.688c8.614-8.332,9.119-22.355,1.12-31.254c-4.41-4.125-10.009-6.379-15.796-6.379c-6.101,0-11.551,2.197-15.761,6.357
		l-68.184,68.199V332.248C-657.261,320.031-667.192,310.092-679.399,310.092L-679.399,310.092z"/>
</g>
<g>
	<path fill="#FFFFFF" d="M-445.431,654.084c-12.069,0-21.889-9.828-21.889-21.906V325.194l-68.609,68.625
		c-4.163,4.113-9.553,6.285-15.586,6.285c-5.724,0-11.262-2.23-15.595-6.279c-7.926-8.816-7.426-22.684,1.098-30.93l105.739-105.758
		v-0.18c0-0.061,0.022-0.119,0.062-0.166c0.144-0.164,0.355-0.316,0.601-0.492c0.225-0.164,0.486-0.352,0.751-0.59
		c0.259-0.27,0.591-0.531,0.913-0.787c0.349-0.275,0.71-0.561,0.988-0.865c0.606-0.307,1.12-0.553,1.666-0.836
		c0.407-0.146,0.727-0.328,1.065-0.521c0.352-0.199,0.717-0.406,1.152-0.559l0.218-0.088c0.669-0.27,1.201-0.484,1.956-0.494
		c0.553-0.25,1.373-0.533,1.938-0.533c1.201-0.246,2.618-0.531,4.081-0.531c1.485,0,3.194,0.291,4.365,0.537
		c0.006,0,0.013,0,0.019,0c0.354,0,0.76,0.143,1.229,0.307c0.211,0.074,0.439,0.154,0.691,0.232
		c0.216,0.068,0.433,0.117,0.646,0.166c0.559,0.125,1.136,0.256,1.569,0.707c0.533,0.174,0.947,0.457,1.313,0.709
		c0.193,0.131,0.375,0.258,0.56,0.352c0.527,0.246,1.062,0.496,1.616,0.781c0.706,0.5,1.213,0.984,1.661,1.412l0.276,0.262
		c0.484,0.195,0.765,0.477,1.229,0.941l0.162,0.162c0.047,0.047,0.074,0.111,0.074,0.178v0.146l106.54,106.576
		c8.472,8.508,8.472,22.379,0.001,30.922c-4.182,4.113-9.582,6.287-15.62,6.287c-5.723,0-11.262-2.23-15.598-6.281l-69.394-69.412
		v306.699C-423.542,644.256-433.361,654.084-445.431,654.084z"/>
	<path fill="#FFFFFF" d="M-444.882,250.744c1.348,0,2.966,0.25,4.314,0.531c0.534,0,1.101,0.285,1.918,0.533
		c0.779,0.25,1.614,0.25,2.148,0.854c0.814,0.248,1.349,0.781,1.897,1.064c0.535,0.248,1.066,0.498,1.618,0.781
		c0.797,0.568,1.348,1.135,1.879,1.635c0.57,0.248,0.817,0.531,1.387,1.098c0,0,0,0,0,0.25l106.613,106.65
		c8.345,8.379,8.345,22.152,0,30.568c-4.365,4.293-9.745,6.213-15.442,6.213c-5.681,0-11.096-2.168-15.427-6.213l-69.815-69.834
		v307.303c0,11.893-9.711,21.656-21.639,21.656c-11.895,0-21.639-9.764-21.639-21.656V324.59l-69.036,69.051
		c-4.35,4.297-9.747,6.213-15.41,6.213c-5.681,0-11.092-2.164-15.424-6.213c-7.563-8.412-7.563-22.186,1.101-30.566l105.815-105.834
		c0,0,0,0,0-0.283c0.248-0.283,0.782-0.566,1.331-1.062c0.552-0.57,1.366-1.066,1.918-1.67c0.531-0.25,1.048-0.498,1.596-0.781
		c0.8-0.283,1.366-0.781,2.184-1.066c0.8-0.318,1.331-0.568,2.148-0.568c0.534-0.248,1.349-0.533,1.883-0.533
		C-447.562,250.994-446.266,250.744-444.882,250.744 M-444.882,250.244c-1.47,0-2.884,0.281-4.134,0.531
		c-0.708,0.02-1.604,0.387-1.94,0.535c-0.773,0.02-1.316,0.238-1.995,0.512l-0.228,0.09c-0.436,0.152-0.811,0.365-1.172,0.57
		c-0.329,0.188-0.64,0.363-0.993,0.488c-0.021,0.008-0.043,0.018-0.063,0.027c-0.565,0.293-1.093,0.545-1.579,0.775
		c-0.059,0.027-0.112,0.066-0.156,0.113c-0.265,0.291-0.617,0.57-0.959,0.84c-0.327,0.26-0.666,0.527-0.949,0.818
		c-0.228,0.205-0.482,0.389-0.706,0.551c-0.257,0.186-0.48,0.346-0.642,0.531c-0.08,0.092-0.124,0.209-0.124,0.33v0.076
		l-105.668,105.688c-8.614,8.332-9.119,22.355-1.12,31.256c4.41,4.123,10.009,6.377,15.796,6.377c6.101,0,11.551-2.197,15.761-6.357
		l68.184-68.199v306.381c0,12.217,9.931,22.156,22.139,22.156s22.139-9.939,22.139-22.156V326.082l68.961,68.98
		c4.395,4.105,9.995,6.359,15.781,6.359c6.104,0,11.565-2.199,15.792-6.357c8.572-8.645,8.572-22.674,0.004-31.277l-106.467-106.504
		v-0.043c0-0.133-0.053-0.26-0.147-0.354l-0.161-0.162c-0.447-0.447-0.75-0.75-1.295-1.004l-0.215-0.205
		c-0.454-0.432-0.968-0.924-1.657-1.416c-0.02-0.014-0.041-0.027-0.063-0.037c-0.585-0.301-1.151-0.564-1.635-0.789
		c-0.146-0.076-0.325-0.199-0.514-0.328c-0.368-0.252-0.781-0.535-1.319-0.721c-0.479-0.469-1.099-0.607-1.649-0.732
		c-0.206-0.047-0.416-0.094-0.621-0.16c-0.256-0.076-0.481-0.156-0.688-0.229c-0.479-0.17-0.895-0.316-1.327-0.326
		C-441.694,250.531-443.395,250.244-444.882,250.244L-444.882,250.244z"/>
</g>
</svg>
