<?xml version="1.0" encoding="utf-8"?>
<!-- Generator: Adobe Illustrator 16.0.0, SVG Export Plug-In . SVG Version: 6.00 Build 0)  -->
<!DOCTYPE svg PUBLIC "-//W3C//DTD SVG 1.1//EN" "http://www.w3.org/Graphics/SVG/1.1/DTD/svg11.dtd">
<svg version="1.1" id="图形" xmlns="http://www.w3.org/2000/svg" xmlns:xlink="http://www.w3.org/1999/xlink" x="0px" y="0px"
	 width="1000.637px" height="1000.678px" viewBox="15.167 2108.25 1000.637 1000.678"
	 enable-background="new 15.167 2108.25 1000.637 1000.678" xml:space="preserve">
<path fill="#ADD13B" d="M951.64,2608.183c0,241.397-195.681,437.08-437.076,437.08c-241.398,0-437.08-195.683-437.08-437.08
	c0-241.398,195.682-437.08,437.08-437.08C755.959,2171.103,951.64,2366.784,951.64,2608.183z"/>
<path fill="none" d="M951.64,2608.183c0,241.397-195.681,437.08-437.076,437.08c-241.398,0-437.08-195.683-437.08-437.08
	c0-241.398,195.682-437.08,437.08-437.08C755.959,2171.103,951.64,2366.784,951.64,2608.183z"/>
<path fill="#87A305" d="M285.733,2728.263l270.885,314.994c209.65-20.014,376.081-188.114,393.506-398.512l-211.973-207.24
	L285.733,2728.263z"/>
<g>
	<g>
		<path fill="#EDEDED" d="M751.432,2713.825c0,14.031-11.48,25.512-25.512,25.512h-37.986c-14.031,0-26.779,11.41-28.329,25.355
			l-3.018,27.17c-1.55,13.945-10.615,16.93-20.146,6.633l-37.426-40.436c-9.531-10.297-28.81-18.723-42.841-18.723H318.29
			c-14.031,0-25.512-11.48-25.512-25.512v-254.739c0-14.031,11.48-25.512,25.512-25.512H725.92c14.031,0,25.512,11.48,25.512,25.512
			V2713.825z"/>
	</g>
	<path fill="#FFFFFF" d="M447.882,2433.574h-25.945H308.501c-15.996,0-28.963,12.968-28.963,28.963v247.837
		c0,15.995,12.967,28.963,28.963,28.963h113.436h25.945h60.58v-305.763H447.882z"/>
	<rect x="411.678" y="2459.778" fill="#FFFFFF" width="1.81" height="0"/>
	<path fill="#CDCED0" d="M622.117,2567.229H397.125c-10.289,0-18.615-8.326-18.615-18.616s8.326-18.615,18.615-18.615h224.992
		c10.288,0,18.615,8.325,18.615,18.615S632.405,2567.229,622.117,2567.229z"/>
	<path fill="#CDCED0" d="M582.365,2648.366h-145.49c-10.291,0-18.616-8.328-18.616-18.616c0-10.289,8.325-18.618,18.616-18.618
		h145.49c10.29,0,18.618,8.329,18.618,18.618C600.983,2640.038,592.655,2648.366,582.365,2648.366z"/>
</g>
</svg>
