<?xml version="1.0" encoding="utf-8"?>
<!-- Generator: Adobe Illustrator 16.0.0, SVG Export Plug-In . SVG Version: 6.00 Build 0)  -->
<!DOCTYPE svg PUBLIC "-//W3C//DTD SVG 1.1//EN" "http://www.w3.org/Graphics/SVG/1.1/DTD/svg11.dtd">
<svg version="1.1" id="图形" xmlns="http://www.w3.org/2000/svg" xmlns:xlink="http://www.w3.org/1999/xlink" x="0px" y="0px"
	 width="1000.637px" height="1000.678px" viewBox="15.167 1046.25 1000.637 1000.678"
	 enable-background="new 15.167 1046.25 1000.637 1000.678" xml:space="preserve">
<g>
	<g>
		<path fill="#A7C841" d="M952.5,1546.215c0,241.575-195.83,437.41-437.419,437.41c-241.58,0-437.41-195.835-437.41-437.41
			c0-241.585,195.83-437.419,437.41-437.419C756.669,1108.796,952.5,1304.63,952.5,1546.215z"/>
	</g>
</g>
<path fill="#87A305" d="M947.775,1607.115l-240.997-231.656l-34.978-2.259l-101.753-76.298l-83.726-7.993l-157.504,511.431
	l169.314,182.42c5.67,0.223,11.229,0.867,16.948,0.867C735.945,1983.625,918.063,1819.794,947.775,1607.115z"/>
<path fill="none" d="M952.5,1546.215c0,241.575-195.83,437.41-437.419,437.41c-241.58,0-437.41-195.835-437.41-437.41
	c0-241.585,195.83-437.419,437.41-437.419C756.669,1108.796,952.5,1304.63,952.5,1546.215z"/>
<g>
	<g>
		<path fill="#DBE57A" d="M721.328,1776.01c0,15.932-13.035,28.969-28.967,28.969H338.609c-15.933,0-28.967-13.037-28.967-28.969
			v-386.52c0-15.933,13.034-28.968,28.967-28.968h353.752c15.932,0,28.967,13.035,28.967,28.968V1776.01z"/>
	</g>
	<path fill="#FFFFFF" d="M358.56,1360.523v246.068c0,0.003,0,0.007,0,0.01v138.244c0,9.941,8.059,18,18,18h277.445
		c9.941,0,18-8.059,18-18v-59.673v-78.571v-246.078H358.56z"/>
	<path fill="#CDCED0" d="M579.374,1609.185H451.598c-11.367,0-20.586-9.207-20.586-20.583c0-11.378,9.219-20.586,20.586-20.586
		h127.775c11.376,0,20.581,9.208,20.581,20.586C599.955,1599.978,590.75,1609.185,579.374,1609.185z"/>
	<path fill="#CDCED0" d="M579.374,1677.814H451.598c-11.367,0-20.586-9.207-20.586-20.584c0-11.379,9.219-20.583,20.586-20.583
		h127.775c11.376,0,20.581,9.204,20.581,20.583C599.955,1668.607,590.75,1677.814,579.374,1677.814z"/>
	<path fill="#CDCED0" d="M579.374,1536.636H451.598c-11.367,0-20.586-9.216-20.586-20.584c0-11.367,9.219-20.583,20.586-20.583
		h127.775c11.376,0,20.581,9.216,20.581,20.583C599.955,1527.42,590.75,1536.636,579.374,1536.636z"/>
	<g>
		<g>
			<path fill="#DDDBDC" d="M430.097,1360.523c0,0-7.63,0-16.955,0s-16.955,13.035-16.955,28.968v3.256
				c0,15.933,13.035,28.966,28.968,28.966h180.65c15.931,0,28.968-13.033,28.968-28.966v-3.256c0-15.933-7.63-28.968-16.958-28.968
				c-9.325,0-16.954,0-16.954,0"/>
		</g>
		<path fill="#DDDBDC" d="M600.862,1360.523c0-47.158-38.214-82.458-85.381-82.458c-47.159,0-85.384,35.3-85.384,82.458h-33.91
			v33.912h238.586v-33.912H600.862z M474.935,1359.176c0-22.413,18.164-40.563,40.546-40.563c22.401,0,40.553,18.15,40.553,40.563
			H474.935z"/>
	</g>
	<path fill="#CCCCCC" d="M556.034,1359.176h-40.553v42.014l119.293-13.018v-12.583v-15.066h-33.912
		c0-47.158-38.214-82.458-85.381-82.458v40.548C537.882,1318.613,556.034,1336.763,556.034,1359.176z"/>
	<g>
		<path fill="#CCCCCC" d="M514.545,1421.712h91.26c15.932,0,28.969-13.033,28.969-28.966v-3.256
			c0-15.933-13.037-28.968-28.969-28.968h-90.324"/>
	</g>
</g>
</svg>
