<?xml version="1.0" encoding="utf-8"?>
<!-- Generator: Adobe Illustrator 16.0.0, SVG Export Plug-In . SVG Version: 6.00 Build 0)  -->
<!DOCTYPE svg PUBLIC "-//W3C//DTD SVG 1.1//EN" "http://www.w3.org/Graphics/SVG/1.1/DTD/svg11.dtd">
<svg version="1.1" id="图形" xmlns="http://www.w3.org/2000/svg" xmlns:xlink="http://www.w3.org/1999/xlink" x="0px" y="0px"
	 width="1000.637px" height="1000.678px" viewBox="15.167 3171.25 1000.637 1000.678"
	 enable-background="new 15.167 3171.25 1000.637 1000.678" xml:space="preserve">
<path fill="#ADD13B" d="M953.112,3670.825c0,241.805-196.012,437.812-437.814,437.812c-241.804,0-437.813-196.008-437.813-437.812
	c0-241.804,196.01-437.814,437.813-437.814C757.1,3233.011,953.112,3429.022,953.112,3670.825z"/>
<path fill="none" d="M953.112,3671.59c0,241.805-196.012,437.812-437.814,437.812c-241.804,0-437.813-196.008-437.813-437.812
	c0-241.804,196.01-437.814,437.813-437.814C757.1,3233.776,953.112,3429.786,953.112,3671.59z"/>
<path fill="#87A305" d="M942.584,3766.656l-169.816-162.418l-176.617-79.732l-80.854-78.333l-214.227,175.075l178.414,180.592
	l1,129.001l159.826,159.691C791.18,4045.663,907.973,3921.664,942.584,3766.656z"/>
<g>
	<g>
		<path fill="#EDEDED" d="M490.188,3689.094c0,14.031,11.48,25.512,25.512,25.512h152.432c14.031,0,33.63-8.118,43.552-18.04
			l58.564-58.564c9.922-9.922,9.976-26.211,0.119-36.197l-61.379-62.191c-9.856-9.987-29.401-18.158-43.433-18.158H515.7
			c-14.031,0-25.512,11.48-25.512,25.512V3689.094z"/>
	</g>
	<g>
		<path fill="#FFFFFF" d="M515.297,3467.127c0-14.031-11.48-25.512-25.512-25.512H337.355c-14.031,0-33.629,8.118-43.551,18.04
			l-58.567,58.568c-9.922,9.922-9.975,26.21-0.119,36.197l61.38,62.191c9.856,9.986,29.401,18.157,43.433,18.157h149.855
			c14.031,0,25.512-11.48,25.512-25.512V3467.127z"/>
	</g>
	<g>
		<path fill="#DBE57A" d="M524.311,3919.579c0,12.472-10.205,22.677-22.677,22.677h-3.578c-12.473,0-22.677-10.205-22.677-22.677
			v-477.785c0-12.472,10.205-22.677,22.677-22.677h3.578c12.472,0,22.677,10.205,22.677,22.677V3919.579z"/>
	</g>
</g>
</svg>
