<?xml version="1.0" encoding="utf-8"?>
<!-- Generator: Adobe Illustrator 16.0.0, SVG Export Plug-In . SVG Version: 6.00 Build 0)  -->
<!DOCTYPE svg PUBLIC "-//W3C//DTD SVG 1.1//EN" "http://www.w3.org/Graphics/SVG/1.1/DTD/svg11.dtd">
<svg version="1.1" id="图形" xmlns="http://www.w3.org/2000/svg" xmlns:xlink="http://www.w3.org/1999/xlink" x="0px" y="0px"
	 width="1000.637px" height="1000.678px" viewBox="1077.667 3171.25 1000.637 1000.678"
	 enable-background="new 1077.667 3171.25 1000.637 1000.678" xml:space="preserve">
<path fill="#CCCCCC" d="M2015.612,3670.825c0,241.805-196.012,437.812-437.814,437.812c-241.804,0-437.813-196.008-437.813-437.812
	c0-241.804,196.01-437.814,437.813-437.814C1819.6,3233.011,2015.612,3429.022,2015.612,3670.825z"/>
<path fill="none" d="M2015.612,3671.59c0,241.805-196.012,437.812-437.814,437.812c-241.804,0-437.813-196.008-437.813-437.812
	c0-241.804,196.01-437.814,437.813-437.814C1819.6,3233.776,2015.612,3429.786,2015.612,3671.59z"/>
<path fill="#A2A2A3" d="M2005.084,3766.656l-169.816-162.418l-176.617-79.732l-80.854-78.333l-214.227,175.075l178.414,180.592
	l1,129.001l159.826,159.691C1853.68,4045.663,1970.473,3921.664,2005.084,3766.656z"/>
<g>
	<g>
		<path fill="#D6D7D8" d="M1552.688,3689.094c0,14.031,11.48,25.512,25.512,25.512h152.432c14.031,0,33.629-8.118,43.551-18.04
			l58.566-58.564c9.92-9.922,9.975-26.211,0.117-36.197l-61.377-62.191c-9.857-9.987-29.402-18.158-43.434-18.158H1578.2
			c-14.031,0-25.512,11.48-25.512,25.512V3689.094z"/>
	</g>
	<g>
		<path fill="#EDEDED" d="M1577.797,3467.127c0-14.031-11.48-25.512-25.512-25.512h-152.431c-14.031,0-33.63,8.118-43.552,18.04
			l-58.566,58.567c-9.922,9.922-9.976,26.211-0.119,36.198l61.38,62.191c9.856,9.986,29.401,18.157,43.433,18.157h149.855
			c14.031,0,25.512-11.48,25.512-25.512V3467.127z"/>
	</g>
	<g>
		<path fill="#FFFFFF" d="M1586.811,3919.579c0,12.472-10.205,22.677-22.676,22.677h-3.578c-12.473,0-22.678-10.205-22.678-22.677
			v-477.785c0-12.472,10.205-22.677,22.678-22.677h3.578c12.471,0,22.676,10.205,22.676,22.677V3919.579z"/>
	</g>
</g>
</svg>
