<?xml version="1.0" encoding="utf-8"?>
<!-- Generator: Adobe Illustrator 16.0.0, SVG Export Plug-In . SVG Version: 6.00 Build 0)  -->
<!DOCTYPE svg PUBLIC "-//W3C//DTD SVG 1.1//EN" "http://www.w3.org/Graphics/SVG/1.1/DTD/svg11.dtd">
<svg version="1.1" id="图形" xmlns="http://www.w3.org/2000/svg" xmlns:xlink="http://www.w3.org/1999/xlink" x="0px" y="0px"
	 width="1000.637px" height="1000.678px" viewBox="15.167 4233.938 1000.637 1000.678"
	 enable-background="new 15.167 4233.938 1000.637 1000.678" xml:space="preserve">
<path fill="#ADD13B" d="M951.984,4733.089c0,241.485-195.758,437.25-437.25,437.25s-437.25-195.765-437.25-437.25
	c0-241.496,195.758-437.25,437.25-437.25S951.984,4491.593,951.984,4733.089z"/>
<path fill="#87A305" d="M948.46,4788.859l-300.943-262.565L514.734,4742.53l-219.91,201.467l214.801,226.31
	c1.701,0.02,3.403,0.032,5.109,0.032C737.332,5170.339,921.071,5004.009,948.46,4788.859z"/>
<path fill="none" d="M951.984,4733.089c0,241.485-195.758,437.25-437.25,437.25s-437.25-195.765-437.25-437.25
	c0-241.496,195.758-437.25,437.25-437.25S951.984,4491.593,951.984,4733.089z"/>
<g>
	<path fill="#FFFFFF" d="M661.341,4583.91c0,76.72-62.191,138.884-138.892,138.884s-138.89-62.164-138.89-138.884
		c0-76.721,62.189-138.893,138.89-138.893S661.341,4507.189,661.341,4583.91z"/>
	<path fill="#D5D6D8" d="M748.792,4949.144c0-125.01-101.337-226.35-226.343-226.35c-125.005,0-226.341,101.34-226.341,226.35
		H748.792"/>
	<path fill="none" d="M661.341,4583.91c0,76.72-62.191,138.884-138.892,138.884s-138.89-62.164-138.89-138.884
		c0-76.721,62.189-138.893,138.89-138.893S661.341,4507.189,661.341,4583.91z"/>
	<path fill="#828282" d="M648.847,4526.266c-21.897-47.939-70.259-81.248-126.397-81.248c-56.206,0-104.616,33.388-126.476,81.42
		c38.045-0.813,70.744-23.359,86.161-55.733c6.284,47.911,47.275,84.912,96.899,84.912
		C606.383,4555.616,631.106,4544.374,648.847,4526.266z"/>
</g>
<g>
	<path fill="#C5C6C8" d="M522.451,4949.144h226.342c0-125.01-101.337-226.35-226.343-226.35L522.451,4949.144z"/>
</g>
</svg>
