<?xml version="1.0" encoding="utf-8"?>
<!-- Generator: Adobe Illustrator 16.0.0, SVG Export Plug-In . SVG Version: 6.00 Build 0)  -->
<!DOCTYPE svg PUBLIC "-//W3C//DTD SVG 1.1//EN" "http://www.w3.org/Graphics/SVG/1.1/DTD/svg11.dtd">
<svg version="1.1" xmlns="http://www.w3.org/2000/svg" xmlns:xlink="http://www.w3.org/1999/xlink" x="0px" y="0px"
	 width="1000.637px" height="1000.678px" viewBox="15.167 -16.333 1000.637 1000.678"
	 enable-background="new 15.167 -16.333 1000.637 1000.678" xml:space="preserve">
<g id="图形">
	<g>
		<g>
			<path d="M691.563,615.381c-13.372,0-24.168-10.821-24.168-24.146V458.348
				c0-83.265-67.743-150.985-151.014-150.985s-150.994,67.721-150.994,150.985v132.888c0,13.324-10.822,24.146-24.146,24.146
				c-13.372,0-24.168-10.821-24.168-24.146V458.348c0-109.907,89.394-199.336,199.308-199.336
				c109.906,0,199.328,89.429,199.328,199.336v132.888C715.709,604.56,704.913,615.381,691.563,615.381L691.563,615.381z"/>
		</g>
		<g>
			<g>
				<path d="M695.574,615.381c-13.353,0-24.176-10.821-24.176-24.146c0-13.372,10.823-24.146,24.176-24.146
					c32.187,0,58.351-23.512,58.351-52.381c0-28.867-26.164-52.384-58.351-52.384c-13.353,0-24.176-10.771-24.176-24.146
					c0-13.318,10.823-24.146,24.176-24.146c58.829,0,106.695,45.163,106.695,100.675S754.403,615.381,695.574,615.381
					L695.574,615.381z"/>
			</g>
			<g>
				<path d="M337.21,615.381c-58.849,0-106.725-45.161-106.725-100.673s47.876-100.675,106.725-100.675
					c13.374,0,24.147,10.827,24.147,24.146c0,13.375-10.773,24.146-24.147,24.146c-32.215,0-58.431,23.517-58.431,52.384
					c0,28.869,26.215,52.381,58.431,52.381c13.374,0,24.147,10.774,24.147,24.146C361.357,604.56,350.583,615.381,337.21,615.381
					L337.21,615.381z"/>
			</g>
		</g>
		<g>
			<path d="M591.419,697.009c-2.228,0-4.479-0.056-6.794-0.056c-13.32-0.423-23.824-11.514-23.456-24.889
				c0.373-13.325,11.04-23.886,24.835-23.46c31.185,1.275,53.604-5.521,67.241-18.943c13.722-13.484,14.121-30.413,14.121-30.566
				c-0.163-13.322,10.508-24.312,23.881-24.469c0.08,0,0.155,0,0.267,0c13.209,0,24.013,10.607,24.147,23.832
				c0.048,3.764-0.32,37.838-28.502,65.644C664.98,685.97,632.763,697.009,591.419,697.009L591.419,697.009z"/>
		</g>
		<path d="M577.041,631.993c-21.28,0-38.53,17.251-38.53,38.529c0,21.231,17.25,38.477,38.53,38.477
			c21.227,0,38.503-17.245,38.503-38.477C615.543,649.244,598.267,631.993,577.041,631.993L577.041,631.993z"/>
	</g>
</g>
<g id="Layer_2">
</g>
</svg>
