<?xml version="1.0" encoding="utf-8"?>
<!-- Generator: Adobe Illustrator 16.0.0, SVG Export Plug-In . SVG Version: 6.00 Build 0)  -->
<!DOCTYPE svg PUBLIC "-//W3C//DTD SVG 1.1//EN" "http://www.w3.org/Graphics/SVG/1.1/DTD/svg11.dtd">
<svg version="1.1" xmlns="http://www.w3.org/2000/svg" xmlns:xlink="http://www.w3.org/1999/xlink" x="0px" y="0px"
	 width="1000.637px" height="1000.678px" viewBox="15.167 -16.333 1000.637 1000.678"
	 enable-background="new 15.167 -16.333 1000.637 1000.678" xml:space="preserve">
<g id="图形">
	<path d="M678.997,367.158c-0.052,0-0.105,0-0.155,0c-0.267,0-0.536-0.054-0.802-0.054h-2.334h-90.534h-2.333
		c-11.097,0-20.062,8.966-20.062,20.031c0,11.091,8.966,20.06,20.062,20.06h2.333h47.124l-91.916,92.083l-65.97-95.69
		c-3.769-5.521-9.868-8.966-16.821-8.649c-6.688,0.104-12.949,3.607-16.506,9.258L335.1,570.07
		c-5.941,9.339-3.182,21.736,6.103,27.706c3.347,2.093,7.007,3.131,10.671,3.131c6.631,0.05,13.158-3.237,17.031-9.239
		l89.692-140.445l62.407,90.506c3.349,4.836,8.601,7.963,14.386,8.571c5.888,0.614,11.677-1.379,15.921-5.438l91.335-87.009
		c0,0,7.056-7.668,12.366-16.688l3.928-3.908v43.074c0,11.059,8.965,20.034,20.057,20.034c11.043,0,20.008-8.976,20.008-20.034
		v-93.117C699.004,376.15,690.04,367.158,678.997,367.158z"/>
</g>
<g id="Layer_2">
</g>
</svg>
