<?xml version="1.0" encoding="utf-8"?>
<!-- Generator: Adobe Illustrator 16.0.0, SVG Export Plug-In . SVG Version: 6.00 Build 0)  -->
<!DOCTYPE svg PUBLIC "-//W3C//DTD SVG 1.1//EN" "http://www.w3.org/Graphics/SVG/1.1/DTD/svg11.dtd">
<svg version="1.1" id="图形" xmlns="http://www.w3.org/2000/svg" xmlns:xlink="http://www.w3.org/1999/xlink" x="0px" y="0px"
	 width="1000.637px" height="1000.678px" viewBox="15.167 5296.438 1000.637 1000.678"
	 enable-background="new 15.167 5296.438 1000.637 1000.678" xml:space="preserve">
<path fill="#9DBE19" d="M951.844,5796.263c0,241.373-195.669,437.019-437.038,437.019c-241.35,0-437.02-195.646-437.02-437.019
	c0-241.363,195.67-437.018,437.02-437.018C756.175,5359.245,951.844,5554.899,951.844,5796.263z"/>
<path fill="#85A235" d="M352.897,5959.646l254.965,263.707c171.771-37.246,305.896-175.469,337.099-349.414l-299.621-299.621
	L352.897,5959.646z"/>
<g>
	<g>
		<path fill="#FFFFFF" d="M353.926,5941.413c-3.844,11.866,2.733,18.471,14.615,14.679l282.47-90.158
			c11.882-3.792,23.422-16.937,25.644-29.21l16.426-90.722c2.222-12.272-3.177-29.53-11.996-38.349l-76.895-76.882
			c-8.819-8.819-26.038-14.01-38.263-11.535l-92.969,18.818c-12.225,2.475-25.371,14.207-29.215,26.073L353.926,5941.413z"/>
	</g>
	<g>
		<path fill="#EDEDED" d="M366.709,5945.761c-8.819,8.819-6.313,12.932,5.569,9.14l278.733-88.967
			c11.882-3.792,23.422-16.937,25.644-29.21l16.426-90.722c2.222-12.272-3.177-29.529-11.997-38.348l-22.111-22.106
			c-8.82-8.818-23.253-8.817-32.071,0.002L366.709,5945.761z"/>
	</g>
	<g>
		<path fill="#D6D7D8" d="M592.935,5557.835c9.921-9.922,26.157-9.922,36.079,0l123.971,123.969
			c9.922,9.922,9.922,26.158,0.001,36.08l-21.193,21.193c-9.921,9.922-26.157,9.922-36.079,0l-123.971-123.969
			c-9.922-9.922-9.922-26.158-0.001-36.08L592.935,5557.835z"/>
	</g>
	<path fill="#85A235" d="M508.003,5803.198c-10.998-10.994-28.855-10.994-39.874,0c-8.593,8.594-10.482,21.348-5.672,31.773
		L352.82,5945.776c-3.813,3.852-3.774,10.061,0.077,13.869c1.906,1.899,4.407,2.841,6.898,2.841c2.529,0,5.058-0.976,6.974-2.91
		l109.593-110.761c10.403,4.748,23.094,2.844,31.641-5.72C519.021,5832.076,519.021,5814.218,508.003,5803.198z"/>
	<g>
		<path fill="#AFAFAF" d="M621.591,5628.874c-9.923,9.922-9.923,26.156-0.001,36.078l74.123,74.125
			c9.922,9.922,26.157,9.921,36.079-0.001l21.193-21.193c9.922-9.922,9.921-26.157-0.001-36.079l-74.123-74.115
			c-9.922-9.922-26.158-9.922-36.081,0L621.591,5628.874z"/>
	</g>
	<polygon fill="#D6D7D8" points="649.989,5578.817 691.821,5620.644 634.552,5677.917 592.712,5636.077 	"/>
</g>
</svg>
