<?xml version="1.0" encoding="utf-8"?>
<!-- Generator: Adobe Illustrator 16.0.0, SVG Export Plug-In . SVG Version: 6.00 Build 0)  -->
<!DOCTYPE svg PUBLIC "-//W3C//DTD SVG 1.1//EN" "http://www.w3.org/Graphics/SVG/1.1/DTD/svg11.dtd">
<svg version="1.1" xmlns="http://www.w3.org/2000/svg" xmlns:xlink="http://www.w3.org/1999/xlink" x="0px" y="0px"
	 width="1000.637px" height="1000.678px" viewBox="15.167 -16.333 1000.637 1000.678"
	 enable-background="new 15.167 -16.333 1000.637 1000.678" xml:space="preserve">
<g id="图形">
	<g>
		<path d="M458.292,229.988h-189.6c-13.475,0-24.412,10.902-24.412,24.44v189.537
			c0,13.507,10.938,24.412,24.412,24.412c13.507,0,24.417-10.905,24.417-24.412V278.834h165.183
			c13.477,0,24.417-10.931,24.417-24.406C482.709,240.89,471.769,229.988,458.292,229.988z"/>
		<path d="M458.292,713.619H293.11V548.46c0-13.506-10.91-24.434-24.417-24.434
			c-13.475,0-24.412,10.928-24.412,24.434v189.6c0,13.479,10.938,24.415,24.412,24.415h189.6c13.477,0,24.417-10.937,24.417-24.415
			C482.709,724.522,471.769,713.619,458.292,713.619z"/>
		<path d="M755.06,524.027c-13.473,0-24.408,10.928-24.408,24.434v165.159H565.493
			c-13.504,0-24.409,10.902-24.409,24.44c0,13.479,10.905,24.415,24.409,24.415H755.06c13.516,0,24.439-10.937,24.439-24.415v-189.6
			C779.5,534.954,768.576,524.027,755.06,524.027z"/>
		<path d="M812.402,318.213H710.136V215.946c0-13.507-10.907-24.409-24.414-24.409
			c-13.503,0-24.408,10.902-24.408,24.409v102.268H559.048c-13.483,0-24.414,10.905-24.414,24.412
			c0,13.484,10.931,24.415,24.414,24.415h102.266v102.236c0,13.506,10.905,24.443,24.408,24.443
			c13.507,0,24.414-10.938,24.414-24.443V367.04h102.266c13.483,0,24.416-10.931,24.416-24.415
			C836.818,329.118,825.885,318.213,812.402,318.213z"/>
	</g>
</g>
<g id="Layer_2">
</g>
</svg>
