<?xml version="1.0" encoding="utf-8"?>
<!-- Generator: Adobe Illustrator 16.0.0, SVG Export Plug-In . SVG Version: 6.00 Build 0)  -->
<!DOCTYPE svg PUBLIC "-//W3C//DTD SVG 1.1//EN" "http://www.w3.org/Graphics/SVG/1.1/DTD/svg11.dtd">
<svg version="1.1" id="Layer_1" xmlns="http://www.w3.org/2000/svg" xmlns:xlink="http://www.w3.org/1999/xlink" x="0px" y="0px"
	 width="255.12px" height="255.12px" viewBox="0 0 255.12 255.12" enable-background="new 0 0 255.12 255.12" xml:space="preserve">
<g>
	<path fill="#EE2E2F" d="M128.487,191.772h82.998c9.389,0,17-7.61,17-17v-30.142h-99.998V191.772z"/>
	<path fill="#EE2E2F" d="M45.485,191.772H88.87v-47.142H28.485v30.142C28.485,184.162,36.096,191.772,45.485,191.772z"/>
	<path fill="#EE2E2F" d="M88.87,57.772H45.485c-9.389,0-17,7.611-17,17v30.141H88.87V57.772z"/>
	<path fill="#EE2E2F" d="M228.484,104.913V74.772c0-9.389-7.611-17-17-17h-82.998v47.141H228.484z"/>
	<polygon fill="#FAFAFA" points="100.754,104.913 100.754,57.772 88.87,57.772 88.87,104.913 28.485,104.913 28.485,116.829 
		100.754,116.829 	"/>
	<polygon fill="#FAFAFA" points="116.6,144.631 116.6,191.772 128.487,191.772 128.487,144.631 228.484,144.631 228.484,132.716 
		116.6,132.716 	"/>
	<polygon fill="#FAFAFA" points="88.87,191.772 100.754,191.772 100.754,144.631 100.754,132.716 28.485,132.716 28.485,144.631 
		88.87,144.631 	"/>
	<polygon fill="#FAFAFA" points="116.6,116.829 228.484,116.829 228.484,104.913 128.487,104.913 128.487,57.772 116.6,57.772 
		116.6,104.913 	"/>
	<polygon fill="#213065" points="100.754,144.631 100.754,191.772 116.6,191.772 116.6,144.631 116.6,132.716 228.484,132.716 
		228.484,116.829 116.6,116.829 116.6,104.913 116.6,57.772 100.754,57.772 100.754,104.913 100.754,116.829 28.485,116.829 
		28.485,132.716 100.754,132.716 	"/>
</g>
</svg>
