<?xml version="1.0" encoding="utf-8"?>
<!-- Generator: Adobe Illustrator 16.0.0, SVG Export Plug-In . SVG Version: 6.00 Build 0)  -->
<!DOCTYPE svg PUBLIC "-//W3C//DTD SVG 1.1//EN" "http://www.w3.org/Graphics/SVG/1.1/DTD/svg11.dtd">
<svg version="1.1" id="Layer_1" xmlns="http://www.w3.org/2000/svg" xmlns:xlink="http://www.w3.org/1999/xlink" x="0px" y="0px"
	 width="255.12px" height="255.12px" viewBox="0 0 255.12 255.12" enable-background="new 0 0 255.12 255.12" xml:space="preserve">
<g>
	<path fill="#2D317B" d="M44.904,192.076h166c9.389,0,17-7.611,17-17v-100c0-9.389-7.611-17-17-17h-82.998v5.006l-22.27,11.135
		h22.27v3.352v10.053v3.352h-22.271l22.271,11.135v1.875v3.744h-11.24L86.018,92.404v15.322h-3.35H72.615h-3.352V92.404
		l-30.648,15.322h-3.746h-6.965v67.35C27.904,184.465,35.516,192.076,44.904,192.076z M202.28,94.999l1.879-5.78l1.878,5.78h6.081
		l-4.918,3.573l1.877,5.782l-4.918-3.572l-4.918,3.572l1.877-5.782l-4.916-3.573H202.28z M178.622,74.329l2.112-6.498l2.111,6.498
		h6.831l-5.525,4.015l2.109,6.499l-5.526-4.016l-5.527,4.016l2.109-6.499l-5.526-4.015H178.622z M178.395,144.968l2.344-7.229
		l2.344,7.229h7.585l-6.137,4.465l2.344,7.229l-6.136-4.467l-6.136,4.467l2.342-7.229l-6.135-4.465H178.395z M151.298,101.819
		l2.113-6.5l2.11,6.5h6.833l-5.527,4.016l2.109,6.496l-5.525-4.015l-5.527,4.015l2.11-6.496l-5.527-4.016H151.298z"/>
	<polygon fill="#2D317B" points="27.904,90.973 27.904,101.844 49.646,90.973 	"/>
	<path fill="#2D317B" d="M31.229,65.01c-1.92,2.604-3.107,5.768-3.279,9.207h21.695L31.229,65.01z"/>
	<path fill="#2D317B" d="M69.264,58.076H44.904c-1.398,0-2.75,0.188-4.051,0.506l28.41,14.205V58.076z"/>
	<polygon fill="#2D317B" points="115.439,58.076 86.018,58.076 86.018,72.787 	"/>
	<polygon fill="#FFFFFF" points="56.348,87.621 27.904,87.621 27.904,90.973 49.646,90.973 	"/>
	<polygon fill="#FFFFFF" points="86.018,72.787 86.018,58.076 82.668,58.076 82.668,74.461 	"/>
	<polygon fill="#FFFFFF" points="127.906,77.568 127.906,74.217 105.637,74.217 98.934,77.568 	"/>
	<polygon fill="#FFFFFF" points="105.635,90.973 127.906,90.973 127.906,87.621 98.934,87.621 	"/>
	<polygon fill="#FFFFFF" points="82.668,107.727 86.018,107.727 86.018,92.404 82.668,90.729 	"/>
	<polygon fill="#FFFFFF" points="72.615,74.463 72.615,58.076 69.264,58.076 69.264,72.787 	"/>
	<path fill="#FFFFFF" d="M49.645,74.217H27.949c-0.016,0.287-0.045,0.568-0.045,0.859v2.492h28.443L49.645,74.217z"/>
	<polygon fill="#FFFFFF" points="69.264,92.404 69.264,107.727 72.615,107.727 72.615,90.729 	"/>
	<polygon fill="#FFFFFF" points="82.668,87.621 82.668,90.729 86.018,92.404 116.666,107.727 127.906,107.727 94.396,90.973 
		101.889,90.973 127.906,103.982 127.906,102.107 105.635,90.973 98.934,87.621 	"/>
	<path fill="#FFFFFF" d="M56.348,77.568h16.268v-3.105l-3.352-1.676l-28.41-14.205c-2.139,0.523-4.115,1.447-5.85,2.693
		l25.883,12.941h-7.494L32.316,63.68c-0.385,0.424-0.746,0.867-1.088,1.33l18.416,9.207L56.348,77.568z"/>
	<polygon fill="#FFFFFF" points="82.668,74.461 82.668,77.568 98.934,77.568 105.637,74.217 127.906,63.082 127.906,58.076 
		126.68,58.076 94.396,74.217 86.902,74.217 119.186,58.076 115.439,58.076 86.018,72.787 	"/>
	<polygon fill="#FFFFFF" points="68.381,90.973 34.869,107.727 38.615,107.727 69.264,92.404 72.615,90.729 72.615,87.621 
		56.348,87.621 49.646,90.973 27.904,101.844 27.904,107.463 60.887,90.973 	"/>
	<polygon fill="#ED3133" points="72.615,87.621 72.615,90.729 72.615,107.727 82.668,107.727 82.668,90.729 82.668,87.621 
		98.934,87.621 127.906,87.621 127.906,77.568 98.934,77.568 82.668,77.568 82.668,74.461 82.668,58.076 72.615,58.076 
		72.615,74.463 72.615,77.568 56.348,77.568 27.904,77.568 27.904,87.621 56.348,87.621 	"/>
	<path fill="#ED3133" d="M60.887,74.217L35.004,61.275c-0.98,0.705-1.879,1.512-2.688,2.404l21.076,10.537H60.887z"/>
	<polygon fill="#ED3133" points="94.396,74.217 126.68,58.076 119.186,58.076 86.902,74.217 	"/>
	<polygon fill="#ED3133" points="94.396,90.973 127.906,107.727 127.906,103.982 101.889,90.973 	"/>
	<polygon fill="#ED3133" points="68.381,90.973 60.887,90.973 27.904,107.463 27.904,107.727 34.869,107.727 	"/>
	<path fill="#FFFFFF" d="M175.207,84.843l5.527-4.016l5.526,4.016l-2.109-6.499l5.525-4.015h-6.831l-2.111-6.498l-2.112,6.498
		h-6.832l5.526,4.015L175.207,84.843z M174.821,75.32h4.518l1.396-4.296l1.396,4.296h4.517l-3.653,2.656l1.395,4.296l-3.653-2.654
		l-3.654,2.654l1.394-4.296L174.821,75.32z"/>
	<polygon fill="#D0202D" points="177.08,82.272 180.734,79.618 184.388,82.272 182.993,77.977 186.646,75.32 182.13,75.32 
		180.734,71.024 179.339,75.32 174.821,75.32 178.474,77.977 	"/>
	<path fill="#FFFFFF" d="M147.884,112.331l5.527-4.015l5.525,4.015l-2.109-6.496l5.527-4.016h-6.833l-2.11-6.5l-2.113,6.5h-6.831
		l5.527,4.016L147.884,112.331z M147.497,102.811h4.519l1.396-4.298l1.395,4.298h4.517l-3.652,2.654l1.394,4.298l-3.652-2.656
		l-3.654,2.656l1.395-4.298L147.497,102.811z"/>
	<polygon fill="#D0202D" points="149.757,109.763 153.411,107.106 157.063,109.763 155.67,105.465 159.322,102.811 154.806,102.811 
		153.411,98.513 152.016,102.811 147.497,102.811 151.151,105.465 	"/>
	<path fill="#FFFFFF" d="M199.241,104.354l4.918-3.572l4.918,3.572l-1.877-5.782l4.918-3.573h-6.081l-1.878-5.78l-1.879,5.78h-6.078
		l4.916,3.573L199.241,104.354z M198.897,95.882h4.02l1.242-3.823l1.242,3.823h4.02l-3.252,2.362l1.241,3.824l-3.251-2.364
		l-3.253,2.364l1.244-3.824L198.897,95.882z"/>
	<polygon fill="#D0202D" points="200.906,102.068 204.159,99.704 207.41,102.068 206.169,98.244 209.421,95.882 205.401,95.882 
		204.159,92.059 202.917,95.882 198.897,95.882 202.15,98.244 	"/>
	<path fill="#FFFFFF" d="M174.603,156.661l6.136-4.467l6.136,4.467l-2.344-7.229l6.137-4.465h-7.585l-2.344-7.229l-2.344,7.229
		h-7.585l6.135,4.465L174.603,156.661z M174.175,146.069h5.014l1.55-4.779l1.549,4.779h5.015l-4.057,2.954l1.549,4.776l-4.056-2.951
		l-4.057,2.951l1.549-4.776L174.175,146.069z"/>
	<polygon fill="#D0202D" points="176.682,153.8 180.738,150.849 184.794,153.8 183.245,149.023 187.302,146.069 182.287,146.069 
		180.738,141.29 179.188,146.069 174.175,146.069 178.23,149.023 	"/>
</g>
</svg>
