<?xml version="1.0" encoding="utf-8"?>
<!-- Generator: Adobe Illustrator 16.0.0, SVG Export Plug-In . SVG Version: 6.00 Build 0)  -->
<!DOCTYPE svg PUBLIC "-//W3C//DTD SVG 1.1//EN" "http://www.w3.org/Graphics/SVG/1.1/DTD/svg11.dtd">
<svg version="1.1" id="图形" xmlns="http://www.w3.org/2000/svg" xmlns:xlink="http://www.w3.org/1999/xlink" x="0px" y="0px"
	 width="1000.637px" height="1000.678px" viewBox="15.167 -16.333 1000.637 1000.678"
	 enable-background="new 15.167 -16.333 1000.637 1000.678" xml:space="preserve">
<g>
	<g>
		
			<linearGradient id="SVGID_1_" gradientUnits="userSpaceOnUse" x1="483.3145" y1="158.4612" x2="492.8886" y2="226.5844" gradientTransform="matrix(1 0 0 -1 24.9448 992.0376)">
			<stop  offset="0" style="stop-color:#124880"/>
			<stop  offset="1" style="stop-color:#0C2446"/>
		</linearGradient>
		<path fill="url(#SVGID_1_)" d="M839.16,784.32v-10.746c-102.55,0-205.938,0.672-308.212-6.039
			c-104.601-6.857-336.578-60.547-338.792,11.355c2.214,62.283,234.191,18.326,338.792,11.467
			C633.222,783.65,736.61,784.32,839.16,784.32z"/>
		
			<linearGradient id="SVGID_2_" gradientUnits="userSpaceOnUse" x1="595.9019" y1="525.7922" x2="159.2864" y2="525.7922" gradientTransform="matrix(1 0 0 -1 24.9448 992.0376)">
			<stop  offset="0" style="stop-color:#0660AC"/>
			<stop  offset="0.33" style="stop-color:#114981"/>
			<stop  offset="0.53" style="stop-color:#193F71"/>
			<stop  offset="0.61" style="stop-color:#193F71"/>
			<stop  offset="0.73" style="stop-color:#0C5EAB"/>
			<stop  offset="0.82" style="stop-color:#3170B7"/>
			<stop  offset="0.88" style="stop-color:#3170B7"/>
			<stop  offset="0.92" style="stop-color:#006AB3"/>
			<stop  offset="0.95" style="stop-color:#015AA6"/>
			<stop  offset="1" style="stop-color:#629DD4"/>
		</linearGradient>
		<path fill="url(#SVGID_2_)" d="M839.16,184.323v589.25c-102.55,0-205.938,0.674-308.212-6.037
			c-105.091-6.893-338.842-61.072-338.857,12.371v-589.25c0.017-73.441,233.768-19.264,338.857-12.373
			C633.222,184.997,736.61,184.323,839.16,184.323z"/>
		
			<linearGradient id="SVGID_3_" gradientUnits="userSpaceOnUse" x1="596.8394" y1="513.9836" x2="815.3438" y2="513.9836" gradientTransform="matrix(1 0 0 -1 24.9448 992.0376)">
			<stop  offset="0" style="stop-color:#0660AC"/>
			<stop  offset="0.81" style="stop-color:#2E77BC"/>
			<stop  offset="0.91" style="stop-color:#2D67B1"/>
			<stop  offset="1" style="stop-color:#114981"/>
		</linearGradient>
		<path fill="url(#SVGID_3_)" d="M839.16,184.323v589.25c-72.476,0-144.966,0.443-217.376-3.084V182.517
			C694.228,184.669,766.684,184.323,839.16,184.323z"/>
		<path fill="#60AADD" d="M231.483,745.777v-589.25c8.42-1.738,17.904-2.854,28.258-3.441v589.246
			C249.387,742.921,239.903,744.04,231.483,745.777z"/>
		
			<linearGradient id="SVGID_4_" gradientUnits="userSpaceOnUse" x1="490.541" y1="263.8801" x2="490.541" y2="167.7675" gradientTransform="matrix(1 0 0 -1 24.9448 992.0376)">
			<stop  offset="0" style="stop-color:#1B3E71"/>
			<stop  offset="1" style="stop-color:#0058A0"/>
		</linearGradient>
		<path fill="url(#SVGID_4_)" d="M839.44,790.081h-25.547c-93.217-0.066-186.975-0.115-279.777,6.068
			c-22.691,1.494-51.571,4.824-82.779,8.4c-53.899,6.205-114.725,13.209-163.652,13.209v0.02c-55.608,0-96.135-8.996-96.153-37.807
			l0,0c0-31.438,37.116-41.432,89.063-41.432v-0.016c46.896,0,106.293,8.354,160.228,15.932c35.245,4.939,68.125,9.568,93.295,11.24
			c92.788,6.188,186.561,6.137,279.776,6.07h25.548v7.516h-25.548c-93.578,0.031-187.729,0.1-280.991-6.104
			c-25.744-1.725-58.986-6.4-94.625-11.402c-53.229-7.48-111.869-15.734-157.683-15.734l0,0c-45.057,0-77.265,8.172-77.265,33.932
			h-0.019c0,23.068,35.572,30.289,84.373,30.289l0,0c47.844,0,108.129-6.939,161.57-13.092c31.487-3.611,60.625-6.961,83.646-8.502
			c93.264-6.201,187.414-6.15,280.992-6.104h25.547V790.081z"/>
		
			<linearGradient id="SVGID_5_" gradientUnits="userSpaceOnUse" x1="595.3306" y1="821.1985" x2="158.7158" y2="821.1984" gradientTransform="matrix(1 0 0 -1 24.9448 992.0376)">
			<stop  offset="0" style="stop-color:#6AA3D2"/>
			<stop  offset="0.33" style="stop-color:#5E93BB"/>
			<stop  offset="0.53" style="stop-color:#5C89B3"/>
			<stop  offset="0.61" style="stop-color:#5C89B3"/>
			<stop  offset="0.73" style="stop-color:#629DCC"/>
			<stop  offset="0.8" style="stop-color:#8BBBE4"/>
			<stop  offset="0.88" style="stop-color:#83B7E3"/>
			<stop  offset="0.92" style="stop-color:#81ABCE"/>
			<stop  offset="0.95" style="stop-color:#629DCC"/>
			<stop  offset="1" style="stop-color:#98BFE4"/>
		</linearGradient>
		<path fill="url(#SVGID_5_)" d="M838.586,181.976v3.137c-102.551,0-205.955,0.674-308.228-6.037
			c-105.094-6.893-338.83-61.072-338.83,12.371v-3.15c0-73.443,233.736-19.23,338.83-12.355
			C632.631,182.65,736.038,181.976,838.586,181.976z"/>
	</g>
	<g>
		<g>
			
				<linearGradient id="SVGID_6_" gradientUnits="userSpaceOnUse" x1="594.1313" y1="391.0857" x2="167.1469" y2="391.0857" gradientTransform="matrix(1 0 0 -1 24.9448 992.0376)">
				<stop  offset="0" style="stop-color:#D4D6D7"/>
				<stop  offset="0.35" style="stop-color:#B2B4B7"/>
				<stop  offset="0.55" style="stop-color:#AEB0B3"/>
				<stop  offset="0.63" style="stop-color:#AEB0B3"/>
				<stop  offset="0.74" style="stop-color:#CACCCE"/>
				<stop  offset="0.81" style="stop-color:#DDDEE0"/>
				<stop  offset="0.89" style="stop-color:#DDDEE0"/>
				<stop  offset="0.93" style="stop-color:#D4D6D7"/>
				<stop  offset="0.96" style="stop-color:#CACCCE"/>
				<stop  offset="1" style="stop-color:#E7E8E9"/>
			</linearGradient>
			<polygon fill="url(#SVGID_6_)" points="192.089,641.224 192.089,523.45 207.808,572.277 255.866,554.064 227.432,596.874 
				271.635,623.109 220.426,627.54 227.463,678.454 			"/>
			<path fill="#E7E8E9" d="M231.483,626.591v-27.307l28.258,16.77v8.074L231.483,626.591L231.483,626.591z M231.483,590.753v-27.451
				l24.383-9.238L231.483,590.753z"/>
		</g>
		<g>
			
				<linearGradient id="SVGID_7_" gradientUnits="userSpaceOnUse" x1="606.0854" y1="513.9758" x2="155.0963" y2="513.9758" gradientTransform="matrix(1 0 0 -1 24.9448 992.0376)">
				<stop  offset="0" style="stop-color:#D4D6D7"/>
				<stop  offset="0.35" style="stop-color:#B2B4B7"/>
				<stop  offset="0.55" style="stop-color:#AEB0B3"/>
				<stop  offset="0.63" style="stop-color:#AEB0B3"/>
				<stop  offset="0.74" style="stop-color:#CACCCE"/>
				<stop  offset="0.81" style="stop-color:#DDDEE0"/>
				<stop  offset="0.89" style="stop-color:#DDDEE0"/>
				<stop  offset="0.93" style="stop-color:#D4D6D7"/>
				<stop  offset="0.96" style="stop-color:#CACCCE"/>
				<stop  offset="1" style="stop-color:#E7E8E9"/>
			</linearGradient>
			<path fill="url(#SVGID_7_)" d="M683.417,591.575l5.891,18.311l17.982-6.824l-10.648,16.029l16.555,9.811l-19.165,1.658
				l2.626,19.066l-13.24-13.947l-13.259,13.947l2.643-19.066l-19.165-1.658l16.539-9.811l-10.648-16.029l18.001,6.824
				L683.417,591.575L683.417,591.575z M726.159,479.575l4.658,11.418l12.306,0.885l-9.416,7.959l2.938,11.961L726.16,505.3
				l-10.47,6.498l2.953-11.961l-9.419-7.959l12.291-0.885L726.159,479.575L726.159,479.575z M778.434,393.79l5.891,18.311
				l17.998-6.793l-10.664,16.016l16.539,9.812l-19.166,1.674l2.661,19.049l-13.259-13.945l-13.26,13.945l2.643-19.049l-19.162-1.674
				l16.555-9.812l-10.664-16.016l17.998,6.793L778.434,393.79L778.434,393.79z M683.417,306.499l5.891,18.311l17.982-6.824
				l-10.648,16.029l16.555,9.828l-19.165,1.658l2.626,19.049l-13.24-13.945l-13.259,13.945l2.643-19.049l-19.165-1.658l16.539-9.828
				l-10.648-16.029l18.001,6.824L683.417,306.499L683.417,306.499z M576.5,422.308l5.89,18.312l17.999-6.828l-10.648,16.033
				l16.539,9.828l-19.166,1.656l2.644,19.049L576.5,466.411l-13.26,13.947l2.643-19.049l-19.165-1.656l16.559-9.828l-10.648-16.033
				l17.982,6.828L576.5,422.308z"/>
			
				<linearGradient id="SVGID_8_" gradientUnits="userSpaceOnUse" x1="596.853" y1="513.9749" x2="815.3359" y2="513.9749" gradientTransform="matrix(1 0 0 -1 24.9448 992.0376)">
				<stop  offset="0" style="stop-color:#D4D6D7"/>
				<stop  offset="0.81" style="stop-color:#E7E8E9"/>
				<stop  offset="0.91" style="stop-color:#DDDEE0"/>
				<stop  offset="1" style="stop-color:#CACCCE"/>
			</linearGradient>
			<path fill="url(#SVGID_8_)" d="M683.417,591.575l5.891,18.311l17.982-6.824l-10.648,16.029l16.555,9.811l-19.165,1.658
				l2.626,19.066l-13.24-13.947l-13.259,13.947l2.643-19.066l-19.165-1.658l16.539-9.811l-10.648-16.029l18.001,6.824
				L683.417,591.575L683.417,591.575z M726.159,479.575l4.658,11.418l12.306,0.885l-9.416,7.959l2.938,11.961L726.16,505.3
				l-10.47,6.498l2.953-11.961l-9.419-7.959l12.291-0.885L726.159,479.575L726.159,479.575z M778.434,393.79l5.891,18.311
				l17.998-6.793l-10.664,16.016l16.539,9.812l-19.166,1.674l2.661,19.049l-13.259-13.945l-13.26,13.945l2.643-19.049l-19.162-1.674
				l16.555-9.812l-10.664-16.016l17.998,6.793L778.434,393.79L778.434,393.79z M683.417,306.499l5.891,18.311l17.982-6.824
				l-10.648,16.029l16.555,9.828l-19.165,1.658l2.626,19.049l-13.24-13.945l-13.259,13.945l2.643-19.049l-19.165-1.658l16.539-9.828
				l-10.648-16.029l18.001,6.824L683.417,306.499z"/>
		</g>
	</g>
	<g>
		
			<linearGradient id="SVGID_9_" gradientUnits="userSpaceOnUse" x1="594.0532" y1="670.9036" x2="167.146" y2="670.9035" gradientTransform="matrix(1 0 0 -1 24.9448 992.0376)">
			<stop  offset="0" style="stop-color:#D4D6D7"/>
			<stop  offset="0.35" style="stop-color:#B2B4B7"/>
			<stop  offset="0.55" style="stop-color:#AEB0B3"/>
			<stop  offset="0.63" style="stop-color:#AEB0B3"/>
			<stop  offset="0.74" style="stop-color:#CACCCE"/>
			<stop  offset="0.81" style="stop-color:#DDDEE0"/>
			<stop  offset="0.89" style="stop-color:#DDDEE0"/>
			<stop  offset="0.93" style="stop-color:#D4D6D7"/>
			<stop  offset="0.96" style="stop-color:#CACCCE"/>
			<stop  offset="1" style="stop-color:#E7E8E9"/>
		</linearGradient>
		<path fill="url(#SVGID_9_)" d="M192.089,486.644V190.657c0-21.691,20.38-32.229,51.784-36.164v90.953
			c32.028-17.969,64.256-31.258,96.118-44.008c23.66-9.467,56.707-24.367,85.289-35.559c29.272,3.871,57.312,7.764,81.369,10.271
			v33.803c-23.301,10.205-46.584,18.803-69.885,26.285c-23.216,7.432-46.582,15.061-69.833,23.725
			c23.251,2.84,46.566,6.662,69.833,10.617c23.251,3.922,46.584,6.893,69.885,8.682c0,17.393,0,34.783,0,52.145
			c0,17.359,0,34.754,0,52.111c-23.301-2.525-46.634-5.807-69.885-9.549c-23.25-3.725-46.582-7.188-69.833-10.025
			c23.251,14.355,46.583,29.289,69.833,44.416c23.267,15.115,46.584,29.996,69.885,44.436c0,11.684,0,23.332,0,34.98
			c-23.531-3.279-47.027-6.859-70.507-10.502c-32.063-20.443-63.959-40.758-96.151-59.332
			c-31.832-18.344-64.09-34.686-96.118-48.174c0,16.182,0,32.391,0,48.551c0,16.197,0,32.375,0,48.537
			C226.612,470.515,209.349,476.519,192.089,486.644z"/>
		<path fill="#E7E8E9" d="M231.483,469.909V156.529c3.906-0.82,8.059-1.477,12.393-2.035v90.953
			c5.282-2.971,10.562-5.793,15.865-8.533v139.766c-5.303-2.381-10.583-4.678-15.865-6.91c0,16.182,0,32.391,0,48.551
			c0,16.197,0,32.375,0,48.537C239.739,467.726,235.619,468.743,231.483,469.909z"/>
		
			<linearGradient id="SVGID_10_" gradientUnits="userSpaceOnUse" x1="593.4673" y1="820.2825" x2="166.5791" y2="820.2824" gradientTransform="matrix(1 0 0 -1 24.9448 992.0376)">
			<stop  offset="0" style="stop-color:#E6E7E7"/>
			<stop  offset="0.35" style="stop-color:#D4D6D7"/>
			<stop  offset="0.55" style="stop-color:#D3D4D6"/>
			<stop  offset="0.63" style="stop-color:#D3D4D6"/>
			<stop  offset="0.74" style="stop-color:#E2E2E4"/>
			<stop  offset="0.81" style="stop-color:#ECEDEE"/>
			<stop  offset="0.89" style="stop-color:#ECEDEE"/>
			<stop  offset="0.93" style="stop-color:#E6E7E7"/>
			<stop  offset="0.96" style="stop-color:#E2E2E4"/>
			<stop  offset="1" style="stop-color:#ECEDEE"/>
		</linearGradient>
		<path fill="url(#SVGID_10_)" d="M506.651,177.003c-24.465-2.557-53.115-6.527-83.012-10.5l6.008-2.328
			c27.713,3.709,54.178,7.314,77.004,9.682V177.003L506.651,177.003z M243.875,155.181c-31.735,3.893-52.346,14.441-52.346,36.266
			v-3.15c0-21.809,20.609-32.357,52.346-36.23V155.181z"/>
	</g>
	<g>
		
			<linearGradient id="SVGID_11_" gradientUnits="userSpaceOnUse" x1="586.2583" y1="669.1985" x2="165.27" y2="669.1984" gradientTransform="matrix(1 0 0 -1 24.9448 992.0376)">
			<stop  offset="0" style="stop-color:#EC1E2E"/>
			<stop  offset="0.54" style="stop-color:#A31B20"/>
			<stop  offset="0.63" style="stop-color:#A31B20"/>
			<stop  offset="0.74" style="stop-color:#D72332"/>
			<stop  offset="0.83" style="stop-color:#EF4A5C"/>
			<stop  offset="0.89" style="stop-color:#EF4D5C"/>
			<stop  offset="0.91" style="stop-color:#ED2433"/>
			<stop  offset="0.95" style="stop-color:#C31F29"/>
			<stop  offset="1" style="stop-color:#EE4354"/>
		</linearGradient>
		<path fill="url(#SVGID_11_)" d="M506.651,487.644c-82.486-52.832-128.84-83.154-210.205-129.199
			c15.652,0.953,31.323,2.168,46.991,3.416l163.214,102.664V487.644L506.651,487.644z M191.926,486.759
			c10.303-6.072,20.641-10.684,30.943-14.178V344.599c101.55-15.965,183.362,5.578,283.78,19.359v-62.449
			c-98.565-12.664-184.247-36.031-283.78-20.379V158.036c-19.265,5.613-30.943,15.637-30.943,32.027V486.759L191.926,486.759z
			 M456.54,169.476c17.195,2.279,33.554,4.348,48.42,5.938c-35.477,13.539-78.644,28.881-103.438,37.25
			c-35.261,11.928-70.06,27.055-105.075,40.938c-15.703-0.854-31.375-0.984-47.027,0.195
			C304.355,224.917,388.836,192.691,456.54,169.476z"/>
		
			<linearGradient id="SVGID_12_" gradientUnits="userSpaceOnUse" x1="577.5552" y1="696.0667" x2="163.2485" y2="696.0666" gradientTransform="matrix(1 0 0 -1 24.9448 992.0376)">
			<stop  offset="0" style="stop-color:#F05A65"/>
			<stop  offset="0.35" style="stop-color:#C8555F"/>
			<stop  offset="0.44" style="stop-color:#BF545E"/>
			<stop  offset="0.54" style="stop-color:#B0535B"/>
			<stop  offset="0.63" style="stop-color:#BE545D"/>
			<stop  offset="0.71" style="stop-color:#F05B67"/>
			<stop  offset="0.8" style="stop-color:#F1737F"/>
			<stop  offset="0.89" style="stop-color:#F1737F"/>
			<stop  offset="0.91" style="stop-color:#F05B67"/>
			<stop  offset="0.95" style="stop-color:#BC5461"/>
			<stop  offset="1" style="stop-color:#F16C77"/>
		</linearGradient>
		<path fill="url(#SVGID_12_)" d="M231.303,343.349v-63.465c9.533-1.295,18.951-2.264,28.255-2.887v63.334
			C250.305,341.023,240.887,342.04,231.303,343.349L231.303,343.349z M259.558,248.595v4.611c-3.378,0.129-6.759,0.326-10.14,0.588
			C252.7,252.089,256.081,250.351,259.558,248.595z"/>
		
			<linearGradient id="SVGID_13_" gradientUnits="userSpaceOnUse" x1="588.4575" y1="817.51" x2="167.5708" y2="817.5099" gradientTransform="matrix(1 0 0 -1 24.9448 992.0376)">
			<stop  offset="0" style="stop-color:#F16864"/>
			<stop  offset="0.54" style="stop-color:#CD5A54"/>
			<stop  offset="0.63" style="stop-color:#C35752"/>
			<stop  offset="0.74" style="stop-color:#F06562"/>
			<stop  offset="0.83" style="stop-color:#F27B7E"/>
			<stop  offset="0.89" style="stop-color:#F27B7E"/>
			<stop  offset="0.91" style="stop-color:#F06361"/>
			<stop  offset="0.95" style="stop-color:#D05A56"/>
			<stop  offset="1" style="stop-color:#F27576"/>
		</linearGradient>
		<path fill="url(#SVGID_13_)" d="M501.071,176.89c-14.963-1.656-31.339-3.771-48.483-6.053l6.594-2.266
			c16.867,2.215,32.899,4.232,47.471,5.773v0.428L501.071,176.89L501.071,176.89z M222.87,160.173
			c-18.9,5.656-30.319,15.637-30.319,31.863v-3.15c0-16.213,11.419-26.189,30.319-31.865V160.173z"/>
	</g>
</g>
</svg>
