<?xml version="1.0" encoding="utf-8"?>
<!-- Generator: Adobe Illustrator 16.0.0, SVG Export Plug-In . SVG Version: 6.00 Build 0)  -->
<!DOCTYPE svg PUBLIC "-//W3C//DTD SVG 1.1//EN" "http://www.w3.org/Graphics/SVG/1.1/DTD/svg11.dtd">
<svg version="1.1" id="图形" xmlns="http://www.w3.org/2000/svg" xmlns:xlink="http://www.w3.org/1999/xlink" x="0px" y="0px"
	 width="1000.637px" height="1000.678px" viewBox="3203.042 1046.25 1000.637 1000.678"
	 enable-background="new 3203.042 1046.25 1000.637 1000.678" xml:space="preserve">
<g>
	<g>
		<g>
			<linearGradient id="SVGID_1_" gradientUnits="userSpaceOnUse" x1="3692.0435" y1="1937.3645" x2="3705.4805" y2="1827.9281">
				<stop  offset="0" style="stop-color:#929496"/>
				<stop  offset="1" style="stop-color:#58595B"/>
			</linearGradient>
			<path fill-rule="evenodd" clip-rule="evenodd" fill="url(#SVGID_1_)" d="M4027.054,1846.92v-10.749
				c-102.554,0-205.956,0.673-308.212-6.054c-104.604-6.859-336.581-60.547-338.795,11.355
				c2.214,62.302,234.191,18.342,338.795,11.486C3821.098,1846.232,3924.5,1846.92,4027.054,1846.92z"/>
			<linearGradient id="SVGID_2_" gradientUnits="userSpaceOnUse" x1="3810.2476" y1="1528.8303" x2="3376.6245" y2="1528.8303">
				<stop  offset="0" style="stop-color:#D4D6D7"/>
				<stop  offset="0.35" style="stop-color:#B2B4B7"/>
				<stop  offset="0.55" style="stop-color:#AEB0B3"/>
				<stop  offset="0.63" style="stop-color:#AEB0B3"/>
				<stop  offset="0.74" style="stop-color:#CACCCE"/>
				<stop  offset="0.81" style="stop-color:#DDDEE0"/>
				<stop  offset="0.89" style="stop-color:#DDDEE0"/>
				<stop  offset="0.93" style="stop-color:#D4D6D7"/>
				<stop  offset="0.96" style="stop-color:#CACCCE"/>
				<stop  offset="1" style="stop-color:#E7E8E9"/>
			</linearGradient>
			<path fill-rule="evenodd" clip-rule="evenodd" fill="url(#SVGID_2_)" d="M4027.054,1246.924v589.247
				c-102.554,0-205.956,0.673-308.212-6.054c-105.109-6.891-338.861-61.072-338.861,12.371v-589.25
				c0-73.44,233.752-19.247,338.861-12.354C3821.098,1247.597,3924.5,1246.924,4027.054,1246.924z"/>
			<linearGradient id="SVGID_3_" gradientUnits="userSpaceOnUse" x1="3809.6782" y1="1540.6438" x2="4028.1934" y2="1540.6438">
				<stop  offset="0" style="stop-color:#D4D6D7"/>
				<stop  offset="0.81" style="stop-color:#E7E8E9"/>
				<stop  offset="0.91" style="stop-color:#DDDEE0"/>
				<stop  offset="1" style="stop-color:#CACCCE"/>
			</linearGradient>
			<path fill-rule="evenodd" clip-rule="evenodd" fill="url(#SVGID_3_)" d="M4027.054,1246.924v589.247
				c-72.476,0-144.985,0.443-217.376-3.101V1245.1C3882.104,1247.251,3954.594,1246.924,4027.054,1246.924z"/>
			<path fill-rule="evenodd" clip-rule="evenodd" fill="#E7E8E9" d="M3419.377,1808.36v-589.25c8.4-1.739,17.901-2.855,28.238-3.443
				v589.247C3437.279,1805.504,3427.778,1806.621,3419.377,1808.36z"/>
			<path fill="#929496" d="M4027.315,1852.663h-25.53c-93.198-0.051-186.989-0.101-279.794,6.069
				c-22.675,1.51-51.552,4.824-82.762,8.419c-53.918,6.202-114.725,13.19-163.654,13.209l0,0c-55.605,0-96.15-8.995-96.15-37.806
				h-0.02c0-31.437,37.133-41.432,89.081-41.432v-0.016c46.895,0,106.293,8.354,160.21,15.948
				c35.246,4.94,68.142,9.552,93.295,11.24c92.805,6.17,186.596,6.12,279.794,6.069h25.53v7.501h-25.53
				c-93.575,0.047-187.744,0.098-280.974-6.104c-25.76-1.707-59.005-6.4-94.644-11.388c-53.229-7.481-111.869-15.734-157.682-15.734
				v-0.016c-45.058,0-77.265,8.187-77.265,33.931h-0.016c0,23.068,35.572,30.289,84.369,30.289l0,0
				c47.848,0,108.13-6.925,161.572-13.076c31.486-3.627,60.628-6.976,83.664-8.501c93.248-6.218,187.398-6.151,280.974-6.12h25.53
				V1852.663z"/>
		</g>
		<linearGradient id="SVGID_4_" gradientUnits="userSpaceOnUse" x1="3809.6616" y1="1233.4241" x2="3376.0483" y2="1233.4241">
			<stop  offset="0" style="stop-color:#E6E7E7"/>
			<stop  offset="0.35" style="stop-color:#D4D6D7"/>
			<stop  offset="0.55" style="stop-color:#D3D4D6"/>
			<stop  offset="0.63" style="stop-color:#D3D4D6"/>
			<stop  offset="0.74" style="stop-color:#E2E2E4"/>
			<stop  offset="0.81" style="stop-color:#ECEDEE"/>
			<stop  offset="0.89" style="stop-color:#ECEDEE"/>
			<stop  offset="0.93" style="stop-color:#E6E7E7"/>
			<stop  offset="0.96" style="stop-color:#E2E2E4"/>
			<stop  offset="1" style="stop-color:#ECEDEE"/>
		</linearGradient>
		<path fill-rule="evenodd" clip-rule="evenodd" fill="url(#SVGID_4_)" d="M4026.463,1244.577v3.117
			c-102.551,0-205.941,0.688-308.212-6.038c-105.079-6.875-338.827-61.072-338.847,12.372v-3.136
			c0.02-73.46,233.768-19.247,338.847-12.354C3820.522,1245.232,3923.913,1244.577,4026.463,1244.577z"/>
	</g>
	<linearGradient id="SVGID_5_" gradientUnits="userSpaceOnUse" x1="3692.0386" y1="1936.2307" x2="3705.4822" y2="1826.7415">
		<stop  offset="0" style="stop-color:#A7232E"/>
		<stop  offset="1" style="stop-color:#671012"/>
	</linearGradient>
	<path fill-rule="evenodd" clip-rule="evenodd" fill="url(#SVGID_5_)" d="M4027.054,1845.738v-10.746
		c-45.011,0-90.182,0.129-135.337-0.296v11.338C3936.873,1845.606,3982.043,1845.738,4027.054,1845.738L4027.054,1845.738z
		 M3515.018,1805.406c-73.129-5.758-133.854-1.723-134.971,34.885c1.116,31.732,61.842,35.899,134.971,31.437V1805.406z"/>
	<linearGradient id="SVGID_6_" gradientUnits="userSpaceOnUse" x1="3809.4106" y1="1527.6497" x2="3374.1206" y2="1527.6497">
		<stop  offset="0" style="stop-color:#EC1E2E"/>
		<stop  offset="0.54" style="stop-color:#A31B20"/>
		<stop  offset="0.63" style="stop-color:#A31B20"/>
		<stop  offset="0.74" style="stop-color:#D72332"/>
		<stop  offset="0.83" style="stop-color:#EF4A5C"/>
		<stop  offset="0.89" style="stop-color:#EF4D5C"/>
		<stop  offset="0.91" style="stop-color:#ED2433"/>
		<stop  offset="0.95" style="stop-color:#C31F29"/>
		<stop  offset="1" style="stop-color:#EE4354"/>
	</linearGradient>
	<path fill-rule="evenodd" clip-rule="evenodd" fill="url(#SVGID_6_)" d="M4027.054,1245.741v589.25
		c-45.011,0-90.182,0.129-135.337-0.296v-589.25C3936.873,1245.873,3982.043,1245.741,4027.054,1245.741L4027.054,1245.741z
		 M3515.018,1805.391c-73.834-5.824-135.037-1.657-135.037,35.916V1252.06c0-37.576,61.203-41.743,135.037-35.919V1805.391
		L3515.018,1805.391z M3703.354,1376.662l-27.468,51.209c-3.102,5.563-8.696,5.039-14.275,1.938l-19.889-10.29l14.835,78.661
		c3.117,14.376-6.891,14.376-11.815,8.171l-34.702-38.853l-5.629,19.722c-0.654,2.591-3.51,5.315-7.793,4.661l-43.859-9.222
		l11.52,41.907c2.459,9.318,4.381,13.174-2.494,15.637l-15.655,7.35l75.545,61.352c2.984,2.312,4.494,6.497,3.428,10.271
		l-6.61,21.69c26.006-3.003,49.307-7.517,75.312-10.287c2.299-0.249,6.154,3.544,6.135,6.202l-3.443,79.463h12.634l-1.985-79.284
		c-0.016-2.657,3.479-6.63,5.759-6.381c26.024,2.771,49.322,7.284,75.347,10.287l-6.629-21.69c-1.051-3.774,0.459-7.96,3.446-10.271
		l75.511-61.352l-15.621-7.35c-6.891-2.463-4.957-6.318-2.494-15.637l11.517-41.907l-43.875,9.222
		c-4.28,0.654-7.12-2.07-7.777-4.661l-5.643-19.722l-34.688,38.853c-4.938,6.205-14.932,6.205-11.812-8.171l14.801-78.661
		l-19.87,10.29c-5.595,3.102-11.175,3.626-14.294-1.938L3703.354,1376.662z"/>
	<linearGradient id="SVGID_7_" gradientUnits="userSpaceOnUse" x1="3809.6782" y1="1540.2356" x2="4028.1934" y2="1540.2356">
		<stop  offset="0" style="stop-color:#EC1E2E"/>
		<stop  offset="0.81" style="stop-color:#EE3D4D"/>
		<stop  offset="0.89" style="stop-color:#EC1E2E"/>
		<stop  offset="1" style="stop-color:#B02025"/>
	</linearGradient>
	<path fill-rule="evenodd" clip-rule="evenodd" fill="url(#SVGID_7_)" d="M4027.054,1245.741v589.25
		c-45.124,0-90.247,0.18-135.337-0.541v-588.989C3936.807,1245.873,3981.93,1245.741,4027.054,1245.741L4027.054,1245.741z
		 M3809.678,1588.918v-96.972l0.425-0.065l43.875-9.222l-11.517,41.907c-2.463,9.318-4.396,13.174,2.494,15.637l15.621,7.35
		L3809.678,1588.918z"/>
	<linearGradient id="SVGID_8_" gradientUnits="userSpaceOnUse" x1="3790.4761" y1="1510.8381" x2="3376.2769" y2="1510.8381">
		<stop  offset="0" style="stop-color:#F05A65"/>
		<stop  offset="0.35" style="stop-color:#C8555F"/>
		<stop  offset="0.44" style="stop-color:#BF545E"/>
		<stop  offset="0.54" style="stop-color:#B0535B"/>
		<stop  offset="0.63" style="stop-color:#BE545D"/>
		<stop  offset="0.71" style="stop-color:#F05B67"/>
		<stop  offset="0.8" style="stop-color:#F1737F"/>
		<stop  offset="0.89" style="stop-color:#F1737F"/>
		<stop  offset="0.91" style="stop-color:#F05B67"/>
		<stop  offset="0.95" style="stop-color:#BC5461"/>
		<stop  offset="1" style="stop-color:#F16C77"/>
	</linearGradient>
	<path fill-rule="evenodd" clip-rule="evenodd" fill="url(#SVGID_8_)" d="M3419.377,1807.178V1217.93
		c8.4-1.738,17.901-2.855,28.238-3.431v589.251C3437.279,1804.325,3427.778,1805.439,3419.377,1807.178z"/>
	<linearGradient id="SVGID_9_" gradientUnits="userSpaceOnUse" x1="3707.1177" y1="1825.3254" x2="3683.054" y2="1949.1229">
		<stop  offset="0" style="stop-color:#911B1E"/>
		<stop  offset="1" style="stop-color:#EC1E2E"/>
	</linearGradient>
	<path fill="url(#SVGID_9_)" d="M4027.315,1851.481h-25.53c-36.623-0.016-73.344-0.031-110.067,0.327v-7.514
		c36.724-0.346,73.444-0.327,110.067-0.312h25.53V1851.481L4027.315,1851.481z M3515.018,1877.93
		c-13.715,0.789-26.974,1.248-39.443,1.248l0,0c-55.605,0-96.15-8.991-96.15-37.806h-0.02c0-31.421,37.133-41.412,89.081-41.412
		v-0.035c14.505,0,30.191,0.806,46.532,2.136v7.579c-16.406-1.361-32.094-2.183-46.532-2.183v-0.016
		c-45.058,0-77.265,8.205-77.265,33.931h-0.016c0,23.071,35.572,30.289,84.369,30.289v0.02c12.42,0,25.679-0.479,39.443-1.265
		V1877.93L3515.018,1877.93z M3891.717,1832.875c36.724,0.358,73.444,0.327,110.067,0.327h25.53v7.481h-25.53
		c-36.623,0.035-73.344,0.035-110.067-0.312V1832.875z"/>
</g>
</svg>
