<?xml version="1.0" encoding="utf-8"?>
<!-- Generator: Adobe Illustrator 16.0.0, SVG Export Plug-In . SVG Version: 6.00 Build 0)  -->
<!DOCTYPE svg PUBLIC "-//W3C//DTD SVG 1.1//EN" "http://www.w3.org/Graphics/SVG/1.1/DTD/svg11.dtd">
<svg version="1.1" id="图形" xmlns="http://www.w3.org/2000/svg" xmlns:xlink="http://www.w3.org/1999/xlink" x="0px" y="0px"
	 width="1000.637px" height="1000.678px" viewBox="4263.997 1046.25 1000.637 1000.678"
	 enable-background="new 4263.997 1046.25 1000.637 1000.678" xml:space="preserve">
<g>
	<linearGradient id="SVGID_1_" gradientUnits="userSpaceOnUse" x1="4752.9683" y1="1937.3811" x2="4766.4077" y2="1827.9255">
		<stop  offset="0" style="stop-color:#A7232E"/>
		<stop  offset="1" style="stop-color:#671012"/>
	</linearGradient>
	<path fill-rule="evenodd" clip-rule="evenodd" fill="url(#SVGID_1_)" d="M5087.982,1846.904v-10.746
		c-102.55,0-205.922,0.674-308.211-6.037c-104.585-6.859-336.563-60.547-338.796,11.336c2.232,62.303,234.211,18.346,338.796,11.486
		C4882.06,1846.234,4985.432,1846.904,5087.982,1846.904z"/>
	<linearGradient id="SVGID_2_" gradientUnits="userSpaceOnUse" x1="4870.3501" y1="1528.8284" x2="4435.0835" y2="1528.8284">
		<stop  offset="0" style="stop-color:#EC1E2E"/>
		<stop  offset="0.54" style="stop-color:#A31B20"/>
		<stop  offset="0.63" style="stop-color:#A31B20"/>
		<stop  offset="0.74" style="stop-color:#D72332"/>
		<stop  offset="0.83" style="stop-color:#EF4A5C"/>
		<stop  offset="0.89" style="stop-color:#EF4D5C"/>
		<stop  offset="0.91" style="stop-color:#ED2433"/>
		<stop  offset="0.95" style="stop-color:#C31F29"/>
		<stop  offset="1" style="stop-color:#EE4354"/>
	</linearGradient>
	<path fill-rule="evenodd" clip-rule="evenodd" fill="url(#SVGID_2_)" d="M5087.982,1246.907v589.25
		c-102.55,0-205.922,0.674-308.211-6.037c-105.079-6.891-338.827-61.088-338.827,12.371v-589.25
		c0-73.459,233.748-19.248,338.827-12.373C4882.06,1247.581,4985.432,1246.907,5087.982,1246.907z"/>
	<linearGradient id="SVGID_3_" gradientUnits="userSpaceOnUse" x1="4870.6069" y1="1540.6389" x2="5089.1123" y2="1540.6389">
		<stop  offset="0" style="stop-color:#EC1E2E"/>
		<stop  offset="0.81" style="stop-color:#EE3D4D"/>
		<stop  offset="0.89" style="stop-color:#EC1E2E"/>
		<stop  offset="1" style="stop-color:#B02025"/>
	</linearGradient>
	<path fill-rule="evenodd" clip-rule="evenodd" fill="url(#SVGID_3_)" d="M5087.982,1246.907v589.25
		c-72.459,0-144.95,0.443-217.375-3.084v-587.971C4943.066,1247.253,5015.523,1246.907,5087.982,1246.907z"/>
	<linearGradient id="SVGID_4_" gradientUnits="userSpaceOnUse" x1="4851.728" y1="1512.0159" x2="4437.1812" y2="1512.0159">
		<stop  offset="0" style="stop-color:#F05A65"/>
		<stop  offset="0.35" style="stop-color:#C8555F"/>
		<stop  offset="0.44" style="stop-color:#BF545E"/>
		<stop  offset="0.54" style="stop-color:#B0535B"/>
		<stop  offset="0.63" style="stop-color:#BE545D"/>
		<stop  offset="0.71" style="stop-color:#F05B67"/>
		<stop  offset="0.8" style="stop-color:#F1737F"/>
		<stop  offset="0.89" style="stop-color:#F1737F"/>
		<stop  offset="0.91" style="stop-color:#F05B67"/>
		<stop  offset="0.95" style="stop-color:#BC5461"/>
		<stop  offset="1" style="stop-color:#F16C77"/>
	</linearGradient>
	<path fill-rule="evenodd" clip-rule="evenodd" fill="url(#SVGID_4_)" d="M4480.322,1808.363v-589.25
		c8.403-1.756,17.885-2.855,28.254-3.443v589.246C4498.207,1805.491,4488.725,1806.609,4480.322,1808.363z"/>
	<linearGradient id="SVGID_5_" gradientUnits="userSpaceOnUse" x1="4768.0767" y1="1826.4788" x2="4744.0103" y2="1950.2886">
		<stop  offset="0" style="stop-color:#911B1E"/>
		<stop  offset="1" style="stop-color:#EC1E2E"/>
	</linearGradient>
	<path fill="url(#SVGID_5_)" d="M5088.278,1852.65h-25.565c-93.197-0.051-186.954-0.1-279.759,6.07
		c-22.675,1.51-51.587,4.84-82.763,8.434c-53.917,6.188-114.725,13.191-163.653,13.191v0.018c-55.625,0-96.154-9.01-96.154-37.82
		h-0.031c0-31.422,37.113-41.416,89.097-41.416v-0.016c46.859,0,106.293,8.354,160.21,15.932
		c35.242,4.957,68.126,9.584,93.295,11.256c92.772,6.17,186.562,6.121,279.759,6.07h25.565v7.484h-25.565
		c-93.559,0.062-187.709,0.113-280.973-6.104c-25.729-1.709-59.003-6.385-94.641-11.389c-53.229-7.48-111.838-15.719-157.65-15.719
		v-0.016c-45.089,0-77.284,8.188-77.284,33.916h-0.031c0,23.084,35.572,30.289,84.404,30.289v0.016
		c47.812,0,108.13-6.941,161.553-13.076c31.506-3.627,60.644-6.992,83.649-8.502c93.264-6.217,187.414-6.166,280.973-6.119h25.565
		V1852.65z"/>
	<linearGradient id="SVGID_6_" gradientUnits="userSpaceOnUse" x1="4869.7798" y1="1233.4221" x2="4434.4917" y2="1233.4221">
		<stop  offset="0" style="stop-color:#F38288"/>
		<stop  offset="0.35" style="stop-color:#DB8086"/>
		<stop  offset="0.54" style="stop-color:#DB8085"/>
		<stop  offset="0.63" style="stop-color:#DB8085"/>
		<stop  offset="0.74" style="stop-color:#F28089"/>
		<stop  offset="0.83" style="stop-color:#F48F9A"/>
		<stop  offset="0.89" style="stop-color:#F48F9A"/>
		<stop  offset="0.91" style="stop-color:#F28089"/>
		<stop  offset="0.95" style="stop-color:#E78187"/>
		<stop  offset="1" style="stop-color:#F38B95"/>
	</linearGradient>
	<path fill-rule="evenodd" clip-rule="evenodd" fill="url(#SVGID_6_)" d="M5087.422,1244.562v3.135
		c-102.551,0-205.953,0.674-308.208-6.037c-105.11-6.875-338.862-61.088-338.862,12.371v-3.135
		c0-73.461,233.752-19.264,338.862-12.373C4881.469,1245.234,4984.872,1244.562,5087.422,1244.562z"/>
	<g>
		<linearGradient id="SVGID_7_" gradientUnits="userSpaceOnUse" x1="4868.6089" y1="1525.6506" x2="4440.1689" y2="1525.6506">
			<stop  offset="0" style="stop-color:#D4D6D7"/>
			<stop  offset="0.35" style="stop-color:#B2B4B7"/>
			<stop  offset="0.55" style="stop-color:#AEB0B3"/>
			<stop  offset="0.63" style="stop-color:#AEB0B3"/>
			<stop  offset="0.74" style="stop-color:#CACCCE"/>
			<stop  offset="0.81" style="stop-color:#DDDEE0"/>
			<stop  offset="0.89" style="stop-color:#DDDEE0"/>
			<stop  offset="0.93" style="stop-color:#D4D6D7"/>
			<stop  offset="0.96" style="stop-color:#CACCCE"/>
			<stop  offset="1" style="stop-color:#E7E8E9"/>
		</linearGradient>
		<path fill-rule="evenodd" clip-rule="evenodd" fill="url(#SVGID_7_)" d="M4699.895,1730.195
			c42.926,5.775,85.848,10.879,128.773,14.898c0-24.711,0-49.404,0-74.115c0-24.646,0-49.406,0-74.182
			c25.037,1.773,50.108,3.283,75.114,4.217c25.04,0.934,50.111,1.377,75.183,1.82c0-42.809,0-85.617,0-128.492
			c-25.071-0.18-50.143-0.344-75.183-1.066c-25.006-0.721-50.077-2.066-75.114-3.643c0-24.693,0-49.402,0-74.117
			c0-24.693,0-49.469,0-74.164c-42.926-3.773-85.848-9.123-128.773-15.143c0,24.76,0,49.521,0,74.23c0,24.711,0,49.404,0,74.113
			c-25.103-3.525-50.143-7.021-75.18-9.562c-25.009-2.545-50.111-3.891-75.117-4.529c0,42.432,0,84.812,0,127.244
			c25.006,0.557,50.108,1.887,75.117,4.463c25.037,2.576,50.077,6.09,75.18,9.664c0,24.777,0,49.537,0,74.246
			C4699.895,1680.79,4699.895,1705.486,4699.895,1730.195z"/>
		<linearGradient id="SVGID_8_" gradientUnits="userSpaceOnUse" x1="4870.6069" y1="1537.4143" x2="5089.1104" y2="1537.4143">
			<stop  offset="0" style="stop-color:#D4D6D7"/>
			<stop  offset="0.81" style="stop-color:#E7E8E9"/>
			<stop  offset="0.91" style="stop-color:#DDDEE0"/>
			<stop  offset="1" style="stop-color:#CACCCE"/>
		</linearGradient>
		<path fill-rule="evenodd" clip-rule="evenodd" fill="url(#SVGID_8_)" d="M4870.607,1599.452v-127.457
			c11.058,0.525,22.149,0.969,33.176,1.279c25.04,0.723,50.111,0.887,75.183,1.066c0,42.875,0,85.684,0,128.492
			c-25.071-0.443-50.143-0.887-75.183-1.82C4892.756,1600.605,4881.665,1600.079,4870.607,1599.452z"/>
	</g>
</g>
</svg>
