<?xml version="1.0" encoding="utf-8"?>
<!-- Generator: Adobe Illustrator 16.0.0, SVG Export Plug-In . SVG Version: 6.00 Build 0)  -->
<!DOCTYPE svg PUBLIC "-//W3C//DTD SVG 1.1//EN" "http://www.w3.org/Graphics/SVG/1.1/DTD/svg11.dtd">
<svg version="1.1" id="图形" xmlns="http://www.w3.org/2000/svg" xmlns:xlink="http://www.w3.org/1999/xlink" x="0px" y="0px"
	 width="1000.637px" height="1000.678px" viewBox="3203.042 -16.271 1000.637 1000.678"
	 enable-background="new 3203.042 -16.271 1000.637 1000.678" xml:space="preserve">
<g>
	<g>
		<linearGradient id="SVGID_1_" gradientUnits="userSpaceOnUse" x1="3696.3999" y1="831.759" x2="3705.4431" y2="767.4132">
			<stop  offset="0" style="stop-color:#174680"/>
			<stop  offset="1" style="stop-color:#0C2446"/>
		</linearGradient>
		<path fill-rule="evenodd" clip-rule="evenodd" fill="url(#SVGID_1_)" d="M4027.038,784.38v-10.746
			c-102.554,0-205.94,0.688-308.212-6.039c-104.585-6.858-336.564-60.546-338.795,11.357c2.23,62.301,234.21,18.325,338.795,11.466
			C3821.097,783.71,3924.484,784.38,4027.038,784.38z"/>
		<linearGradient id="SVGID_2_" gradientUnits="userSpaceOnUse" x1="3799.9976" y1="466.3088" x2="3380.8447" y2="466.3089">
			<stop  offset="0" style="stop-color:#055DAB"/>
			<stop  offset="0.33" style="stop-color:#164780"/>
			<stop  offset="0.53" style="stop-color:#1B3D70"/>
			<stop  offset="0.61" style="stop-color:#1B3D70"/>
			<stop  offset="0.73" style="stop-color:#0C5EAB"/>
			<stop  offset="0.82" style="stop-color:#2185C7"/>
			<stop  offset="0.88" style="stop-color:#2185C7"/>
			<stop  offset="0.92" style="stop-color:#006AB3"/>
			<stop  offset="0.95" style="stop-color:#0066A8"/>
			<stop  offset="1" style="stop-color:#61A1D7"/>
		</linearGradient>
		<path fill-rule="evenodd" clip-rule="evenodd" fill="url(#SVGID_2_)" d="M4027.038,184.384v589.25
			c-102.554,0-205.94,0.688-308.212-6.039c-105.094-6.891-338.846-61.071-338.846,12.373v-589.25
			c0-73.44,233.752-19.247,338.846-12.372C3821.097,185.076,3924.484,184.384,4027.038,184.384z"/>
		<linearGradient id="SVGID_3_" gradientUnits="userSpaceOnUse" x1="3809.6772" y1="478.1165" x2="4028.1765" y2="478.1165">
			<stop  offset="0" style="stop-color:#055DAB"/>
			<stop  offset="0.81" style="stop-color:#3074B9"/>
			<stop  offset="0.91" style="stop-color:#2A6DB5"/>
			<stop  offset="1" style="stop-color:#0B4B81"/>
		</linearGradient>
		<path fill-rule="evenodd" clip-rule="evenodd" fill="url(#SVGID_3_)" d="M4027.038,184.384v589.25
			c-72.476,0-144.967,0.459-217.36-3.086V182.579C3882.103,184.73,3954.578,184.384,4027.038,184.384z"/>
		<path fill-rule="evenodd" clip-rule="evenodd" fill="#62A3D8" d="M3419.376,745.839v-589.25c8.4-1.739,17.886-2.855,28.238-3.443
			v589.247C3437.262,742.984,3427.777,744.1,3419.376,745.839z"/>
		<linearGradient id="SVGID_4_" gradientUnits="userSpaceOnUse" x1="3703.3599" y1="728.217" x2="3703.3599" y2="824.3311">
			<stop  offset="0" style="stop-color:#174172"/>
			<stop  offset="1" style="stop-color:#0058A0"/>
		</linearGradient>
		<path fill="url(#SVGID_4_)" d="M4027.314,790.142h-25.547c-93.197-0.066-186.97-0.101-279.773,6.069
			c-22.679,1.51-51.571,4.824-82.782,8.419c-53.897,6.202-114.725,13.19-163.653,13.209l0,0c-55.59,0-96.135-8.994-96.135-37.806
			h-0.018c0-31.437,37.115-41.432,89.079-41.432v-0.016c46.879,0,106.293,8.354,160.21,15.948
			c35.246,4.94,68.145,9.566,93.299,11.24c92.804,6.17,186.576,6.12,279.773,6.069h25.547v7.501h-25.547
			c-93.574,0.047-187.725,0.098-280.973-6.104c-25.76-1.708-59.005-6.399-94.644-11.388
			c-53.229-7.482-111.869-15.734-157.666-15.734v-0.016c-45.071,0-77.265,8.187-77.265,33.931h-0.033
			c0,23.068,35.572,30.289,84.371,30.289l0,0c47.848,0,108.146-6.925,161.588-13.076c31.471-3.626,60.612-6.976,83.648-8.501
			c93.248-6.218,187.398-6.151,280.973-6.12h25.547V790.142z"/>
		<linearGradient id="SVGID_5_" gradientUnits="userSpaceOnUse" x1="3799.4224" y1="170.9026" x2="3380.27" y2="170.9026">
			<stop  offset="0" style="stop-color:#6BA4D2"/>
			<stop  offset="0.33" style="stop-color:#5D91BB"/>
			<stop  offset="0.53" style="stop-color:#5D8AB3"/>
			<stop  offset="0.61" style="stop-color:#5D8AB3"/>
			<stop  offset="0.73" style="stop-color:#629DCC"/>
			<stop  offset="0.8" style="stop-color:#8BBEE5"/>
			<stop  offset="0.88" style="stop-color:#84B5E1"/>
			<stop  offset="0.92" style="stop-color:#81A9CE"/>
			<stop  offset="0.95" style="stop-color:#629DCC"/>
			<stop  offset="1" style="stop-color:#97C4E4"/>
		</linearGradient>
		<path fill-rule="evenodd" clip-rule="evenodd" fill="url(#SVGID_5_)" d="M4026.462,182.056v3.117
			c-102.551,0-205.957,0.673-308.212-6.039c-105.095-6.875-338.845-61.072-338.845,12.373v-3.136
			c0-73.46,233.75-19.247,338.845-12.354C3820.505,182.711,3923.912,182.056,4026.462,182.056z"/>
	</g>
	<g>
		<linearGradient id="SVGID_6_" gradientUnits="userSpaceOnUse" x1="3622.4946" y1="255.8591" x2="4884.4727" y2="255.8591">
			<stop  offset="0" style="stop-color:#FDBD0E"/>
			<stop  offset="0.32" style="stop-color:#E18E18"/>
			<stop  offset="0.52" style="stop-color:#C87727"/>
			<stop  offset="0.6" style="stop-color:#BD6A27"/>
			<stop  offset="0.72" style="stop-color:#F0AB1C"/>
			<stop  offset="0.81" style="stop-color:#FFCE00"/>
			<stop  offset="0.87" style="stop-color:#FFCE00"/>
			<stop  offset="0.94" style="stop-color:#EBA31E"/>
			<stop  offset="1" style="stop-color:#FFCE00"/>
		</linearGradient>
		<polygon fill-rule="evenodd" clip-rule="evenodd" fill="url(#SVGID_6_)" points="3710.885,248.704 3703.353,225.554 
			3695.821,248.704 3691.062,248.704 3671.488,248.704 3691.195,263.014 3688.14,272.348 3688.14,272.348 3687.436,274.565 
			3683.663,286.164 3688.93,282.343 3688.93,282.343 3692.818,279.518 3703.353,271.858 3723.059,286.164 3716.562,266.197 
			3716.001,264.489 3716.001,264.489 3715.527,263.014 3730.312,252.283 3730.312,252.283 3735.217,248.704 3726.751,248.704 		"/>
		<linearGradient id="SVGID_7_" gradientUnits="userSpaceOnUse" x1="3622.4946" y1="657.9407" x2="4884.4727" y2="657.9407">
			<stop  offset="0" style="stop-color:#FDBD0E"/>
			<stop  offset="0.32" style="stop-color:#E18E18"/>
			<stop  offset="0.52" style="stop-color:#C87727"/>
			<stop  offset="0.6" style="stop-color:#BD6A27"/>
			<stop  offset="0.72" style="stop-color:#F0AB1C"/>
			<stop  offset="0.81" style="stop-color:#FFCE00"/>
			<stop  offset="0.87" style="stop-color:#FFCE00"/>
			<stop  offset="0.94" style="stop-color:#EBA31E"/>
			<stop  offset="1" style="stop-color:#FFCE00"/>
		</linearGradient>
		<polygon fill-rule="evenodd" clip-rule="evenodd" fill="url(#SVGID_7_)" points="3735.019,650.785 3710.885,650.785 
			3703.353,627.636 3695.821,650.785 3672.85,650.785 3671.488,650.785 3691.179,665.111 3683.663,688.245 3693.689,680.961 
			3693.705,680.961 3696.903,678.631 3703.353,673.939 3723.059,688.245 3716.46,667.966 3716.46,667.966 3715.527,665.095 
			3735.217,650.785 		"/>
		<linearGradient id="SVGID_8_" gradientUnits="userSpaceOnUse" x1="3421.4321" y1="456.908" x2="4683.7192" y2="456.908">
			<stop  offset="0" style="stop-color:#FDBD0E"/>
			<stop  offset="0.32" style="stop-color:#E18E18"/>
			<stop  offset="0.52" style="stop-color:#C87727"/>
			<stop  offset="0.6" style="stop-color:#BD6A27"/>
			<stop  offset="0.72" style="stop-color:#F0AB1C"/>
			<stop  offset="0.81" style="stop-color:#FFCE00"/>
			<stop  offset="0.87" style="stop-color:#FFCE00"/>
			<stop  offset="0.94" style="stop-color:#EBA31E"/>
			<stop  offset="1" style="stop-color:#FFCE00"/>
		</linearGradient>
		<polygon fill-rule="evenodd" clip-rule="evenodd" fill="url(#SVGID_8_)" points="3502.302,472.905 3522.009,487.215 
			3514.476,464.046 3534.183,449.755 3509.851,449.755 3502.302,426.601 3494.79,449.755 3472.407,449.755 3470.438,449.755 
			3490.144,464.061 3482.612,487.215 		"/>
		<linearGradient id="SVGID_9_" gradientUnits="userSpaceOnUse" x1="3521.9458" y1="282.7844" x2="4784.291" y2="282.7844">
			<stop  offset="0" style="stop-color:#FDBD0E"/>
			<stop  offset="0.32" style="stop-color:#E18E18"/>
			<stop  offset="0.52" style="stop-color:#C87727"/>
			<stop  offset="0.6" style="stop-color:#BD6A27"/>
			<stop  offset="0.72" style="stop-color:#F0AB1C"/>
			<stop  offset="0.81" style="stop-color:#FFCE00"/>
			<stop  offset="0.87" style="stop-color:#FFCE00"/>
			<stop  offset="0.94" style="stop-color:#EBA31E"/>
			<stop  offset="1" style="stop-color:#FFCE00"/>
		</linearGradient>
		<polygon fill-rule="evenodd" clip-rule="evenodd" fill="url(#SVGID_9_)" points="3610.86,275.647 3610.367,275.647 
			3602.837,252.478 3601.39,256.926 3601.39,256.926 3599.126,263.898 3599.126,263.898 3595.305,275.647 3584.361,275.647 
			3575.156,275.647 3570.954,275.647 3590.66,289.957 3583.13,313.091 3584.804,311.893 3584.804,311.893 3600.161,300.734 
			3600.161,300.734 3601.425,299.816 3602.837,298.781 3619.525,310.924 3619.505,310.892 3622.543,313.091 3614.996,289.957 
			3634.702,275.647 3620.049,275.647 		"/>
		<linearGradient id="SVGID_10_" gradientUnits="userSpaceOnUse" x1="3448.3872" y1="356.3918" x2="4710.3652" y2="356.3918">
			<stop  offset="0" style="stop-color:#FDBD0E"/>
			<stop  offset="0.32" style="stop-color:#E18E18"/>
			<stop  offset="0.52" style="stop-color:#C87727"/>
			<stop  offset="0.6" style="stop-color:#BD6A27"/>
			<stop  offset="0.72" style="stop-color:#F0AB1C"/>
			<stop  offset="0.81" style="stop-color:#FFCE00"/>
			<stop  offset="0.87" style="stop-color:#FFCE00"/>
			<stop  offset="0.94" style="stop-color:#EBA31E"/>
			<stop  offset="1" style="stop-color:#FFCE00"/>
		</linearGradient>
		<polygon fill-rule="evenodd" clip-rule="evenodd" fill="url(#SVGID_10_)" points="3541.435,349.22 3536.761,349.22 
			3534.513,342.279 3534.513,342.279 3530.066,328.58 3530.066,328.58 3529.246,326.086 3521.729,349.22 3514.955,349.22 
			3505.75,349.22 3497.38,349.22 3517.072,363.546 3511.294,381.349 3511.294,381.349 3509.554,386.698 3529.113,372.49 
			3529.246,372.389 3548.936,386.698 3541.419,363.546 3553.826,354.538 3555.041,353.651 3555.041,353.651 3561.11,349.22 
			3550.64,349.22 		"/>
		<linearGradient id="SVGID_11_" gradientUnits="userSpaceOnUse" x1="3448.3872" y1="557.4231" x2="4710.3652" y2="557.4231">
			<stop  offset="0" style="stop-color:#FDBD0E"/>
			<stop  offset="0.32" style="stop-color:#E18E18"/>
			<stop  offset="0.52" style="stop-color:#C87727"/>
			<stop  offset="0.6" style="stop-color:#BD6A27"/>
			<stop  offset="0.72" style="stop-color:#F0AB1C"/>
			<stop  offset="0.81" style="stop-color:#FFCE00"/>
			<stop  offset="0.87" style="stop-color:#FFCE00"/>
			<stop  offset="0.94" style="stop-color:#EBA31E"/>
			<stop  offset="1" style="stop-color:#FFCE00"/>
		</linearGradient>
		<polygon fill-rule="evenodd" clip-rule="evenodd" fill="url(#SVGID_11_)" points="3536.925,550.27 3536.778,550.27 
			3536.696,550.025 3536.696,550.025 3529.246,527.116 3523.569,544.609 3523.207,545.726 3523.207,545.726 3521.729,550.27 
			3501.236,550.27 3497.38,550.27 3511.36,560.428 3511.329,560.394 3517.072,564.576 3516.678,565.775 3516.678,565.775 
			3514.609,572.209 3509.554,587.73 3529.246,573.423 3548.936,587.73 3541.419,564.576 3561.11,550.27 		"/>
		<linearGradient id="SVGID_12_" gradientUnits="userSpaceOnUse" x1="3521.9458" y1="631.0149" x2="4784.291" y2="631.0149">
			<stop  offset="0" style="stop-color:#FDBD0E"/>
			<stop  offset="0.32" style="stop-color:#E18E18"/>
			<stop  offset="0.52" style="stop-color:#C87727"/>
			<stop  offset="0.6" style="stop-color:#BD6A27"/>
			<stop  offset="0.72" style="stop-color:#F0AB1C"/>
			<stop  offset="0.81" style="stop-color:#FFCE00"/>
			<stop  offset="0.87" style="stop-color:#FFCE00"/>
			<stop  offset="0.94" style="stop-color:#EBA31E"/>
			<stop  offset="1" style="stop-color:#FFCE00"/>
		</linearGradient>
		<polygon fill-rule="evenodd" clip-rule="evenodd" fill="url(#SVGID_12_)" points="3615.207,638.021 3615.65,637.709 
			3634.702,623.862 3610.367,623.862 3602.837,600.708 3595.305,623.862 3574.599,623.862 3570.954,623.862 3590.66,638.168 
			3590.216,639.514 3590.216,639.514 3587.956,646.471 3587.956,646.471 3583.13,661.322 3596.11,651.886 3599.849,649.179 
			3599.849,649.179 3602.837,646.996 3622.543,661.322 3614.996,638.168 3615.207,638.021 		"/>
		<linearGradient id="SVGID_13_" gradientUnits="userSpaceOnUse" x1="3823.5142" y1="456.908" x2="5085.8013" y2="456.908">
			<stop  offset="0" style="stop-color:#FDBD0E"/>
			<stop  offset="0.32" style="stop-color:#E18E18"/>
			<stop  offset="0.52" style="stop-color:#C87727"/>
			<stop  offset="0.6" style="stop-color:#BD6A27"/>
			<stop  offset="0.72" style="stop-color:#F0AB1C"/>
			<stop  offset="0.81" style="stop-color:#FFCE00"/>
			<stop  offset="0.87" style="stop-color:#FFCE00"/>
			<stop  offset="0.94" style="stop-color:#EBA31E"/>
			<stop  offset="1" style="stop-color:#FFCE00"/>
		</linearGradient>
		<polygon fill-rule="evenodd" clip-rule="evenodd" fill="url(#SVGID_13_)" points="3921.81,480.141 3917.348,466.442 
			3917.348,466.442 3916.578,464.061 3936.265,449.755 3927.191,449.755 3911.917,449.755 3904.517,427.013 3904.533,427.029 
			3904.384,426.601 3896.871,449.755 3891.487,449.755 3872.52,449.755 3892.226,464.08 3884.694,487.215 3889.6,483.638 
			3889.6,483.654 3894.934,479.764 3894.934,479.764 3904.4,472.905 3924.09,487.215 3921.794,480.126 		"/>
		<linearGradient id="SVGID_14_" gradientUnits="userSpaceOnUse" x1="3723.0093" y1="282.7844" x2="4985.0063" y2="282.7844">
			<stop  offset="0" style="stop-color:#FDBD0E"/>
			<stop  offset="0.32" style="stop-color:#E18E18"/>
			<stop  offset="0.52" style="stop-color:#C87727"/>
			<stop  offset="0.6" style="stop-color:#BD6A27"/>
			<stop  offset="0.72" style="stop-color:#F0AB1C"/>
			<stop  offset="0.81" style="stop-color:#FFCE00"/>
			<stop  offset="0.87" style="stop-color:#FFCE00"/>
			<stop  offset="0.94" style="stop-color:#EBA31E"/>
			<stop  offset="1" style="stop-color:#FFCE00"/>
		</linearGradient>
		<polygon fill-rule="evenodd" clip-rule="evenodd" fill="url(#SVGID_14_)" points="3825.002,275.647 3811.401,275.647 
			3809.677,270.298 3809.677,270.332 3804.822,255.4 3804.822,255.4 3803.869,252.478 3796.896,274.024 3796.877,274.006 
			3796.336,275.647 3789.298,275.647 3772.003,275.647 3791.71,289.957 3784.178,313.091 3788.116,310.235 3788.116,310.235 
			3793.45,306.364 3793.45,306.364 3803.869,298.801 3823.575,313.091 3816.058,289.957 3829.777,279.978 3834.846,276.304 
			3834.831,276.304 3835.734,275.647 3834.193,275.647 		"/>
		<linearGradient id="SVGID_15_" gradientUnits="userSpaceOnUse" x1="3796.5894" y1="356.3918" x2="5058.896" y2="356.3918">
			<stop  offset="0" style="stop-color:#FDBD0E"/>
			<stop  offset="0.32" style="stop-color:#E18E18"/>
			<stop  offset="0.52" style="stop-color:#C87727"/>
			<stop  offset="0.6" style="stop-color:#BD6A27"/>
			<stop  offset="0.72" style="stop-color:#F0AB1C"/>
			<stop  offset="0.81" style="stop-color:#FFCE00"/>
			<stop  offset="0.87" style="stop-color:#FFCE00"/>
			<stop  offset="0.94" style="stop-color:#EBA31E"/>
			<stop  offset="1" style="stop-color:#FFCE00"/>
		</linearGradient>
		<polygon fill-rule="evenodd" clip-rule="evenodd" fill="url(#SVGID_15_)" points="3860.607,377.952 3859.376,381.742 
			3859.376,381.742 3857.77,386.698 3865.318,381.217 3866.91,380.053 3866.91,380.053 3877.46,372.389 3897.167,386.698 
			3895.771,382.431 3895.787,382.431 3893.587,375.704 3889.634,363.546 3909.341,349.22 3907.551,349.22 3898.346,349.22 
			3884.974,349.22 3878.507,329.319 3878.527,329.335 3877.46,326.086 3876.917,327.727 3876.917,327.727 3869.944,349.22 
			3862.66,349.22 3845.595,349.22 3865.283,363.546 		"/>
		<linearGradient id="SVGID_16_" gradientUnits="userSpaceOnUse" x1="3796.5894" y1="557.4231" x2="5058.896" y2="557.4231">
			<stop  offset="0" style="stop-color:#FDBD0E"/>
			<stop  offset="0.32" style="stop-color:#E18E18"/>
			<stop  offset="0.52" style="stop-color:#C87727"/>
			<stop  offset="0.6" style="stop-color:#BD6A27"/>
			<stop  offset="0.72" style="stop-color:#F0AB1C"/>
			<stop  offset="0.81" style="stop-color:#FFCE00"/>
			<stop  offset="0.87" style="stop-color:#FFCE00"/>
			<stop  offset="0.94" style="stop-color:#EBA31E"/>
			<stop  offset="1" style="stop-color:#FFCE00"/>
		</linearGradient>
		<polygon fill-rule="evenodd" clip-rule="evenodd" fill="url(#SVGID_16_)" points="3893.833,550.27 3884.99,550.27 
			3880.709,537.096 3880.709,537.096 3877.46,527.116 3869.944,550.27 3858.148,550.27 3848.942,550.27 3845.595,550.27 
			3865.283,564.576 3864.777,566.152 3864.777,566.152 3857.77,587.73 3858.949,586.877 3858.949,586.877 3874.309,575.719 
			3874.309,575.719 3874.309,575.719 3874.325,575.719 3877.46,573.423 3891.128,583.365 3891.078,583.333 3891.144,583.365 
			3891.109,583.333 3897.167,587.73 3889.634,564.576 3898.906,557.833 3900.349,556.799 3900.349,556.799 3909.341,550.27 		"/>
		<linearGradient id="SVGID_17_" gradientUnits="userSpaceOnUse" x1="3723.0093" y1="631.0149" x2="4985.0063" y2="631.0149">
			<stop  offset="0" style="stop-color:#FDBD0E"/>
			<stop  offset="0.32" style="stop-color:#E18E18"/>
			<stop  offset="0.52" style="stop-color:#C87727"/>
			<stop  offset="0.6" style="stop-color:#BD6A27"/>
			<stop  offset="0.72" style="stop-color:#F0AB1C"/>
			<stop  offset="0.81" style="stop-color:#FFCE00"/>
			<stop  offset="0.87" style="stop-color:#FFCE00"/>
			<stop  offset="0.94" style="stop-color:#EBA31E"/>
			<stop  offset="1" style="stop-color:#FFCE00"/>
		</linearGradient>
		<polygon fill-rule="evenodd" clip-rule="evenodd" fill="url(#SVGID_17_)" points="3824.443,623.862 3815.241,623.862 
			3811.417,623.862 3809.677,618.512 3809.677,618.544 3803.869,600.708 3803.246,602.612 3803.246,602.612 3800.982,609.568 
			3800.998,609.587 3796.352,623.862 3788.742,623.862 3779.552,623.862 3772.003,623.862 3791.71,638.168 3785.704,656.611 
			3785.704,656.611 3784.178,661.322 3803.869,646.996 3823.575,661.322 3816.058,638.168 3827.777,629.636 3829.185,628.62 
			3829.185,628.62 3835.734,623.862 		"/>
	</g>
</g>
</svg>
