<?xml version="1.0" encoding="utf-8"?>
<!-- Generator: Adobe Illustrator 16.0.0, SVG Export Plug-In . SVG Version: 6.00 Build 0)  -->
<!DOCTYPE svg PUBLIC "-//W3C//DTD SVG 1.1//EN" "http://www.w3.org/Graphics/SVG/1.1/DTD/svg11.dtd">
<svg version="1.1" id="图形" xmlns="http://www.w3.org/2000/svg" xmlns:xlink="http://www.w3.org/1999/xlink" x="0px" y="0px"
	 width="1000.637px" height="1000.678px" viewBox="3203.042 3171.25 1000.637 1000.678"
	 enable-background="new 3203.042 3171.25 1000.637 1000.678" xml:space="preserve">
<g>
	<g>
		<linearGradient id="SVGID_1_" gradientUnits="userSpaceOnUse" x1="3696.4048" y1="4019.2844" x2="3705.447" y2="3954.946">
			<stop  offset="0" style="stop-color:#124880"/>
			<stop  offset="1" style="stop-color:#0C2446"/>
		</linearGradient>
		<path fill-rule="evenodd" clip-rule="evenodd" fill="url(#SVGID_1_)" d="M4027.042,3971.902v-10.73
			c-102.551,0-205.953,0.657-308.211-6.039c-104.586-6.855-336.594-60.562-338.793,11.342
			c2.199,62.301,234.207,18.325,338.793,11.466C3821.089,3971.247,3924.492,3971.902,4027.042,3971.902z"/>
		<linearGradient id="SVGID_2_" gradientUnits="userSpaceOnUse" x1="3799.9976" y1="3653.8303" x2="3380.8281" y2="3653.8303">
			<stop  offset="0" style="stop-color:#0660AC"/>
			<stop  offset="0.33" style="stop-color:#114981"/>
			<stop  offset="0.53" style="stop-color:#193F71"/>
			<stop  offset="0.61" style="stop-color:#193F71"/>
			<stop  offset="0.73" style="stop-color:#0C5EAB"/>
			<stop  offset="0.82" style="stop-color:#3170B7"/>
			<stop  offset="0.88" style="stop-color:#3170B7"/>
			<stop  offset="0.92" style="stop-color:#006AB3"/>
			<stop  offset="0.95" style="stop-color:#015AA6"/>
			<stop  offset="1" style="stop-color:#629DD4"/>
		</linearGradient>
		<path fill-rule="evenodd" clip-rule="evenodd" fill="url(#SVGID_2_)" d="M4027.042,3371.924v589.247
			c-102.551,0-205.953,0.657-308.211-6.039c-105.111-6.891-338.859-61.087-338.859,12.357v-589.251
			c0-73.44,233.748-19.247,338.859-12.353C3821.089,3372.577,3924.492,3371.924,4027.042,3371.924z"/>
		<linearGradient id="SVGID_3_" gradientUnits="userSpaceOnUse" x1="3809.6675" y1="3665.6438" x2="4028.1729" y2="3665.6438">
			<stop  offset="0" style="stop-color:#0660AC"/>
			<stop  offset="0.81" style="stop-color:#2E77BC"/>
			<stop  offset="0.91" style="stop-color:#2D67B1"/>
			<stop  offset="1" style="stop-color:#114981"/>
		</linearGradient>
		<path fill-rule="evenodd" clip-rule="evenodd" fill="url(#SVGID_3_)" d="M4027.042,3371.924v589.247
			c-72.457,0-144.982,0.428-217.375-3.102V3370.1C3882.095,3372.251,3954.585,3371.924,4027.042,3371.924z"/>
		<path fill-rule="evenodd" clip-rule="evenodd" fill="#60AADD" d="M3419.351,3933.361V3344.11
			c8.434-1.739,17.92-2.855,28.254-3.428v589.25C3437.271,3930.505,3427.785,3931.621,3419.351,3933.361z"/>
		<linearGradient id="SVGID_4_" gradientUnits="userSpaceOnUse" x1="3799.4175" y1="3358.4231" x2="3380.2695" y2="3358.4231">
			<stop  offset="0" style="stop-color:#6AA3D2"/>
			<stop  offset="0.33" style="stop-color:#5E93BB"/>
			<stop  offset="0.53" style="stop-color:#5C89B3"/>
			<stop  offset="0.61" style="stop-color:#5C89B3"/>
			<stop  offset="0.73" style="stop-color:#629DCC"/>
			<stop  offset="0.8" style="stop-color:#8BBBE4"/>
			<stop  offset="0.88" style="stop-color:#83B7E3"/>
			<stop  offset="0.92" style="stop-color:#81ABCE"/>
			<stop  offset="0.95" style="stop-color:#629DCC"/>
			<stop  offset="1" style="stop-color:#98BFE4"/>
		</linearGradient>
		<path fill-rule="evenodd" clip-rule="evenodd" fill="url(#SVGID_4_)" d="M4026.451,3369.559v3.151
			c-102.551,0-205.922,0.657-308.207-6.039c-105.08-6.89-338.83-61.087-338.83,12.357v-3.136c0-73.46,233.75-19.247,338.83-12.372
			C3820.529,3370.232,3923.9,3369.559,4026.451,3369.559z"/>
	</g>
	<g>
		<g>
			<linearGradient id="SVGID_5_" gradientUnits="userSpaceOnUse" x1="3810.2368" y1="3650.6799" x2="3376.6072" y2="3650.6799">
				<stop  offset="0" style="stop-color:#D4D6D7"/>
				<stop  offset="0.35" style="stop-color:#B2B4B7"/>
				<stop  offset="0.55" style="stop-color:#AEB0B3"/>
				<stop  offset="0.63" style="stop-color:#AEB0B3"/>
				<stop  offset="0.74" style="stop-color:#CACCCE"/>
				<stop  offset="0.81" style="stop-color:#DDDEE0"/>
				<stop  offset="0.89" style="stop-color:#DDDEE0"/>
				<stop  offset="0.93" style="stop-color:#D4D6D7"/>
				<stop  offset="0.96" style="stop-color:#CACCCE"/>
				<stop  offset="1" style="stop-color:#E7E8E9"/>
			</linearGradient>
			<path fill-rule="evenodd" clip-rule="evenodd" fill="url(#SVGID_5_)" d="M4027.042,3490.126v343.061
				c-20.674-12.435-41.346-24.924-62.021-37.459c0,29.027,0,58.037,0,86.979v78.482c-65.076-0.034-130.314-0.462-195.258-3.299
				v-78.498c0-29.075,0-58.216,0-87.357c-46.174,22.138-92.641,41.548-138.516,61.531c-46.307,20.185-92.346,45.189-138.422,74.79
				c-2.887,0.443-5.773,0.902-8.66,1.393c-53.131-1.902-94.711,4.086-102.75,28.519l-1.443,0.557v-70.569
				c70.391-68.456,140.781-118.797,211.271-156.911c-70.49-5.45-140.881,0.229-211.271,26.006v-201.51
				c70.293-27.826,140.586-31.044,210.977-25.332c-70.59-49.209-140.881-90.656-210.977-105.554v-46.716
				c0-38.806,65.271-41.972,142.291-35.327c36.031,24.516,72.195,50.193,107.996,77.187c46.307,34.884,92.381,70.752,138.75,105.602
				c-0.297-29.142-0.494-58.232-0.689-87.373c-0.164-23.235-0.264-46.485-0.326-69.768c64.613,2.871,129.557,3.33,194.336,3.381
				c0.1,23.939,0.229,47.91,0.428,71.768c0.26,29.028,0.688,57.971,1.082,86.979
				C3984.941,3517.152,4005.974,3503.631,4027.042,3490.126z"/>
			<linearGradient id="SVGID_6_" gradientUnits="userSpaceOnUse" x1="3809.6675" y1="3665.636" x2="4028.1729" y2="3665.636">
				<stop  offset="0" style="stop-color:#D4D6D7"/>
				<stop  offset="0.81" style="stop-color:#E7E8E9"/>
				<stop  offset="0.91" style="stop-color:#DDDEE0"/>
				<stop  offset="1" style="stop-color:#CACCCE"/>
			</linearGradient>
			<path fill-rule="evenodd" clip-rule="evenodd" fill="url(#SVGID_6_)" d="M4027.042,3490.126v343.061
				c-20.674-12.435-41.346-24.924-62.021-37.459c0,29.027,0,58.037,0,86.979v78.464c-51.816-0.082-103.602-0.572-155.354-3.102
				V3370.1c50.865,1.51,101.764,1.789,152.662,1.84c0.1,23.939,0.229,47.91,0.428,71.768c0.26,29.028,0.688,57.971,1.082,86.979
				C3984.941,3517.152,4005.974,3503.631,4027.042,3490.126z"/>
			<path fill-rule="evenodd" clip-rule="evenodd" fill="#E7E8E9" d="M3419.351,3933.361v-81.564
				c9.418-8.287,18.838-16.263,28.254-23.939v102.075C3437.271,3930.505,3427.785,3931.621,3419.351,3933.361L3419.351,3933.361z
				 M3419.351,3744.962v-202.23c9.418-2.575,18.838-4.758,28.254-6.578v202.311
				C3438.189,3740.317,3428.769,3742.484,3419.351,3744.962L3419.351,3744.962z M3419.351,3435.98v-91.87
				c8.434-1.739,17.92-2.855,28.254-3.428v106.243C3438.189,3442.886,3428.769,3439.229,3419.351,3435.98z"/>
		</g>
		<linearGradient id="SVGID_7_" gradientUnits="userSpaceOnUse" x1="3807.146" y1="3358.428" x2="3378.5283" y2="3358.428">
			<stop  offset="0" style="stop-color:#E6E7E7"/>
			<stop  offset="0.35" style="stop-color:#D4D6D7"/>
			<stop  offset="0.55" style="stop-color:#D3D4D6"/>
			<stop  offset="0.63" style="stop-color:#D3D4D6"/>
			<stop  offset="0.74" style="stop-color:#E2E2E4"/>
			<stop  offset="0.81" style="stop-color:#ECEDEE"/>
			<stop  offset="0.89" style="stop-color:#ECEDEE"/>
			<stop  offset="0.93" style="stop-color:#E6E7E7"/>
			<stop  offset="0.96" style="stop-color:#E2E2E4"/>
			<stop  offset="1" style="stop-color:#ECEDEE"/>
		</linearGradient>
		<path fill-rule="evenodd" clip-rule="evenodd" fill="url(#SVGID_7_)" d="M3962.33,3372.726
			c-64.746-0.047-129.723-0.49-194.336-3.346l-0.035-3.136c64.648,2.84,129.592,3.283,194.371,3.333V3372.726L3962.33,3372.726z
			 M3523.675,3343.88c-77.908-6.875-144.262-3.987-144.262,35.148v-0.362v-1.101v-1.098v-0.575c0-38.246,63.4-41.872,139.01-35.604
			L3523.675,3343.88z"/>
	</g>
	<linearGradient id="SVGID_8_" gradientUnits="userSpaceOnUse" x1="3809.3999" y1="3659.7366" x2="3374.1118" y2="3659.7366">
		<stop  offset="0" style="stop-color:#EC1E2E"/>
		<stop  offset="0.54" style="stop-color:#A31B20"/>
		<stop  offset="0.63" style="stop-color:#A31B20"/>
		<stop  offset="0.74" style="stop-color:#D72332"/>
		<stop  offset="0.83" style="stop-color:#EF4A5C"/>
		<stop  offset="0.89" style="stop-color:#EF4D5C"/>
		<stop  offset="0.91" style="stop-color:#ED2433"/>
		<stop  offset="0.95" style="stop-color:#C31F29"/>
		<stop  offset="1" style="stop-color:#EE4354"/>
	</linearGradient>
	<path fill-rule="evenodd" clip-rule="evenodd" fill="url(#SVGID_8_)" d="M4027.042,3519.152v41.004l-0.424,0.264
		c-20.904,0.262-41.678,0.459-62.387,0.657c0-1.034-0.098-2.135-0.098-3.248L4027.042,3519.152L4027.042,3519.152z
		 M4027.042,3601.077c-33.768,0.428-67.568,0.855-101.367,1.217c-0.395-40.891-0.791-81.863-1.281-122.684
		c-0.428-35.838-0.688-71.838-0.82-107.769c-38.918-0.167-77.871-0.642-116.729-1.824c0.164,35.935,0.328,71.787,0.623,107.589
		c0.33,41.086,0.756,82.171,1.051,123.193c-71.635-7.729-142.783-21.413-214.652-29.798c-71.014-8.269-142.617-2.494-213.895,25.087
		v121.012c71.375-26.383,143.045-34.245,214.092-25.48c71.967,8.875,143.111,24.332,214.75,32.519c0,41.152,0,82.237,0,123.261
		v111.919c39.051,1.179,78.168,1.623,117.254,1.786v-113.246c0-40.891,0-81.797,0-122.751c33.67-0.524,67.305-1.132,100.975-1.789
		V3601.077L4027.042,3601.077z M3457.353,3929.536c-20.051,0.509-37.443,2.676-50.637,7.252
		c47.354-44.447,94.117-82.172,142.916-109.375c53.098-29.601,108.85-51.03,163.328-74.658c18.932,3.249,37.867,6.17,56.803,8.695
		c0,0.658,0,1.184,0,1.759c-53.293,25.71-107.242,47.844-159.879,72.309C3558.558,3859.375,3508.085,3891.157,3457.353,3929.536
		L3457.353,3929.536z M3379.972,3403.559v-25.32c0-8.089,2.855-14.636,8.039-19.869c48.668,8.139,97.99,34.541,146.098,68.013
		c52.443,36.475,103.602,77.444,155.518,118.728c-21.953-3.51-44.041-6.891-65.992-10.189
		c-40.793-30.698-81.125-60.776-122.404-86.649C3461.455,3423.347,3420.304,3405.594,3379.972,3403.559z"/>
	<linearGradient id="SVGID_9_" gradientUnits="userSpaceOnUse" x1="3809.6675" y1="3665.554" x2="4028.1729" y2="3665.554">
		<stop  offset="0" style="stop-color:#EC1E2E"/>
		<stop  offset="0.81" style="stop-color:#EE3D4D"/>
		<stop  offset="0.89" style="stop-color:#EC1E2E"/>
		<stop  offset="1" style="stop-color:#B02025"/>
	</linearGradient>
	<path fill-rule="evenodd" clip-rule="evenodd" fill="url(#SVGID_9_)" d="M4027.042,3519.152v41.004l-0.424,0.264
		c-20.904,0.262-41.678,0.459-62.387,0.657c0-1.034-0.098-2.135-0.098-3.248L4027.042,3519.152L4027.042,3519.152z
		 M4027.042,3601.077c-33.768,0.428-67.568,0.855-101.367,1.217c-0.395-40.891-0.791-81.863-1.281-122.684
		c-0.428-35.838-0.688-71.838-0.82-107.769c-37.969-0.167-75.938-0.61-113.906-1.742v587.97c38.789,1.906,77.578,2.643,116.4,2.938
		v-113.148c0-40.891,0-81.797,0-122.751c33.67-0.524,67.305-1.132,100.975-1.789V3601.077z"/>
	<linearGradient id="SVGID_10_" gradientUnits="userSpaceOnUse" x1="3790.5562" y1="3649.6877" x2="3376.2493" y2="3649.6877">
		<stop  offset="0" style="stop-color:#F05A65"/>
		<stop  offset="0.35" style="stop-color:#C8555F"/>
		<stop  offset="0.44" style="stop-color:#BF545E"/>
		<stop  offset="0.54" style="stop-color:#B0535B"/>
		<stop  offset="0.63" style="stop-color:#BE545D"/>
		<stop  offset="0.71" style="stop-color:#F05B67"/>
		<stop  offset="0.8" style="stop-color:#F1737F"/>
		<stop  offset="0.89" style="stop-color:#F1737F"/>
		<stop  offset="0.91" style="stop-color:#F05B67"/>
		<stop  offset="0.95" style="stop-color:#BC5461"/>
		<stop  offset="1" style="stop-color:#F16C77"/>
	</linearGradient>
	<path fill-rule="evenodd" clip-rule="evenodd" fill="url(#SVGID_10_)" d="M3419.351,3933.361v-8.303
		c9.449-8.614,18.838-16.948,28.254-24.975v29.849C3437.271,3930.505,3427.785,3931.621,3419.351,3933.361L3419.351,3933.361z
		 M3419.351,3704.417v-121.389c9.418-2.607,18.838-4.871,28.254-6.793v121.357
		C3438.189,3699.562,3428.769,3701.841,3419.351,3704.417L3419.351,3704.417z M3419.351,3410.204v-44.189
		c9.418,2.972,18.838,6.531,28.254,10.617v43.416C3438.22,3416.142,3428.8,3412.827,3419.351,3410.204z"/>
	<linearGradient id="SVGID_11_" gradientUnits="userSpaceOnUse" x1="3803.9253" y1="3368.51" x2="3378.458" y2="3368.51">
		<stop  offset="0" style="stop-color:#F38288"/>
		<stop  offset="0.35" style="stop-color:#DB8086"/>
		<stop  offset="0.54" style="stop-color:#DB8085"/>
		<stop  offset="0.63" style="stop-color:#DB8085"/>
		<stop  offset="0.74" style="stop-color:#F28089"/>
		<stop  offset="0.83" style="stop-color:#F48F9A"/>
		<stop  offset="0.89" style="stop-color:#F48F9A"/>
		<stop  offset="0.91" style="stop-color:#F28089"/>
		<stop  offset="0.95" style="stop-color:#E78187"/>
		<stop  offset="1" style="stop-color:#F38B95"/>
	</linearGradient>
	<path fill-rule="evenodd" clip-rule="evenodd" fill="url(#SVGID_11_)" d="M3923.574,3372.628
		c-38.918-0.163-77.871-0.642-116.729-1.805v-3.151c38.857,1.183,77.811,1.642,116.729,1.82V3372.628L3923.574,3372.628z
		 M3388.24,3358.419c-5.676,5.35-8.826,12.108-8.826,20.609v-0.133v-0.723v-0.721v-0.723v-0.721v-0.116
		c0-7.12,2.197-13.011,6.268-17.901L3388.24,3358.419z"/>
	<linearGradient id="SVGID_12_" gradientUnits="userSpaceOnUse" x1="3703.3599" y1="3915.7551" x2="3703.3599" y2="4011.8691">
		<stop  offset="0" style="stop-color:#1B3E71"/>
		<stop  offset="1" style="stop-color:#0058A0"/>
	</linearGradient>
	<path fill="url(#SVGID_12_)" d="M4027.306,3977.663h-25.529c-93.201-0.051-186.99-0.101-279.795,6.069
		c-22.674,1.494-51.555,4.824-82.762,8.419c-53.918,6.202-114.725,13.19-163.654,13.209l0,0c-55.625,0-96.152-8.994-96.152-37.806
		l0,0c0-31.421,37.115-41.432,89.064-41.432v-0.016c46.895,0,106.293,8.354,160.209,15.933c35.242,4.956,68.158,9.582,93.295,11.256
		c92.805,6.17,186.594,6.12,279.795,6.069h25.529v7.501h-25.529c-93.594,0.047-187.744,0.098-280.975-6.104
		c-25.762-1.708-59.004-6.384-94.643-11.403c-53.229-7.482-111.869-15.719-157.682-15.719v-0.016
		c-45.059,0-77.285,8.187-77.285,33.931l0,0c0,23.068,35.574,30.289,84.373,30.289v0.016c47.844,0,108.131-6.956,161.588-13.092
		c31.471-3.626,60.609-6.976,83.648-8.501c93.23-6.202,187.381-6.151,280.975-6.104h25.529V3977.663z"/>
</g>
</svg>
