<?xml version="1.0" encoding="utf-8"?>
<!-- Generator: Adobe Illustrator 16.0.0, SVG Export Plug-In . SVG Version: 6.00 Build 0)  -->
<!DOCTYPE svg PUBLIC "-//W3C//DTD SVG 1.1//EN" "http://www.w3.org/Graphics/SVG/1.1/DTD/svg11.dtd">
<svg version="1.1" id="图形" xmlns="http://www.w3.org/2000/svg" xmlns:xlink="http://www.w3.org/1999/xlink" x="0px" y="0px"
	 width="1000.637px" height="1000.678px" viewBox="4263.997 -16.271 1000.637 1000.678"
	 enable-background="new 4263.997 -16.271 1000.637 1000.678" xml:space="preserve">
<g>
	<g>
		<linearGradient id="SVGID_1_" gradientUnits="userSpaceOnUse" x1="4752.9702" y1="874.8508" x2="4766.4097" y2="765.394">
			<stop  offset="0" style="stop-color:#929496"/>
			<stop  offset="1" style="stop-color:#58595B"/>
		</linearGradient>
		<path fill-rule="evenodd" clip-rule="evenodd" fill="url(#SVGID_1_)" d="M5087.982,784.381v-10.73
			c-102.55,0-205.922,0.657-308.195-6.038c-104.601-6.856-336.579-60.562-338.812,11.34c2.232,62.302,234.211,18.326,338.812,11.467
			C4882.06,783.727,4985.432,784.381,5087.982,784.381z"/>
		<linearGradient id="SVGID_2_" gradientUnits="userSpaceOnUse" x1="4871.187" y1="466.3098" x2="4437.5874" y2="466.3098">
			<stop  offset="0" style="stop-color:#D4D6D7"/>
			<stop  offset="0.35" style="stop-color:#B2B4B7"/>
			<stop  offset="0.55" style="stop-color:#AEB0B3"/>
			<stop  offset="0.63" style="stop-color:#AEB0B3"/>
			<stop  offset="0.74" style="stop-color:#CACCCE"/>
			<stop  offset="0.81" style="stop-color:#DDDEE0"/>
			<stop  offset="0.89" style="stop-color:#DDDEE0"/>
			<stop  offset="0.93" style="stop-color:#D4D6D7"/>
			<stop  offset="0.96" style="stop-color:#CACCCE"/>
			<stop  offset="1" style="stop-color:#E7E8E9"/>
		</linearGradient>
		<path fill-rule="evenodd" clip-rule="evenodd" fill="url(#SVGID_2_)" d="M5087.982,184.404v589.247
			c-102.55,0-205.922,0.657-308.195-6.038c-105.092-6.891-338.843-61.088-338.843,12.355v-589.25
			c0-73.44,233.751-19.247,338.843-12.353C4882.06,185.057,4985.432,184.404,5087.982,184.404z"/>
		<linearGradient id="SVGID_3_" gradientUnits="userSpaceOnUse" x1="4870.6226" y1="478.1233" x2="5089.1211" y2="478.1233">
			<stop  offset="0" style="stop-color:#D4D6D7"/>
			<stop  offset="0.81" style="stop-color:#E7E8E9"/>
			<stop  offset="0.91" style="stop-color:#DDDEE0"/>
			<stop  offset="1" style="stop-color:#CACCCE"/>
		</linearGradient>
		<path fill-rule="evenodd" clip-rule="evenodd" fill="url(#SVGID_3_)" d="M5087.982,184.404v589.247
			c-72.459,0-144.95,0.428-217.359-3.101V182.579C4943.066,184.731,5015.523,184.404,5087.982,184.404z"/>
		<path fill-rule="evenodd" clip-rule="evenodd" fill="#E7E8E9" d="M4480.322,745.839v-589.25
			c8.403-1.739,17.903-2.855,28.257-3.428v589.25C4498.225,742.984,4488.725,744.101,4480.322,745.839z"/>
		<path fill="#929496" d="M5088.278,790.143h-25.547c-93.216-0.051-186.989-0.116-279.777,6.069
			c-22.675,1.494-51.571,4.824-82.778,8.419c-53.901,6.202-114.725,13.19-163.653,13.209l0,0c-55.609,0-96.135-8.995-96.135-37.806
			h-0.035c0-31.421,37.117-41.432,89.097-41.432v-0.016c46.879,0,106.293,8.354,160.21,15.933
			c35.245,4.956,68.126,9.583,93.295,11.256c92.788,6.17,186.562,6.12,279.777,6.069h25.547v7.501h-25.547
			c-93.577,0.047-187.728,0.098-280.991-6.104c-25.745-1.707-59.003-6.384-94.625-11.403
			c-53.229-7.481-111.854-15.719-157.666-15.719v-0.016c-45.089,0-77.281,8.187-77.281,33.931h-0.034
			c0,23.068,35.588,30.289,84.389,30.289l0,0c47.828,0,108.145-6.94,161.571-13.076c31.487-3.627,60.625-6.976,83.646-8.501
			c93.264-6.202,187.414-6.151,280.991-6.104h25.547V790.143z"/>
	</g>
	<linearGradient id="SVGID_4_" gradientUnits="userSpaceOnUse" x1="4870.6128" y1="170.9026" x2="4436.9956" y2="170.9026">
		<stop  offset="0" style="stop-color:#E6E7E7"/>
		<stop  offset="0.35" style="stop-color:#D4D6D7"/>
		<stop  offset="0.55" style="stop-color:#D3D4D6"/>
		<stop  offset="0.63" style="stop-color:#D3D4D6"/>
		<stop  offset="0.74" style="stop-color:#E2E2E4"/>
		<stop  offset="0.81" style="stop-color:#ECEDEE"/>
		<stop  offset="0.89" style="stop-color:#ECEDEE"/>
		<stop  offset="0.93" style="stop-color:#E6E7E7"/>
		<stop  offset="0.96" style="stop-color:#E2E2E4"/>
		<stop  offset="1" style="stop-color:#ECEDEE"/>
	</linearGradient>
	<path fill-rule="evenodd" clip-rule="evenodd" fill="url(#SVGID_4_)" d="M5087.425,182.038v3.151
		c-102.569,0-205.956,0.657-308.211-6.039c-105.11-6.89-338.862-61.087-338.862,12.357v-3.136
		c0-73.46,233.752-19.247,338.862-12.372C4881.469,182.711,4984.856,182.038,5087.425,182.038z"/>
	<linearGradient id="SVGID_5_" gradientUnits="userSpaceOnUse" x1="4862.6812" y1="456.4255" x2="4436.3945" y2="456.4256">
		<stop  offset="0" style="stop-color:#EC1E2E"/>
		<stop  offset="0.54" style="stop-color:#A31B20"/>
		<stop  offset="0.63" style="stop-color:#A31B20"/>
		<stop  offset="0.74" style="stop-color:#D72332"/>
		<stop  offset="0.83" style="stop-color:#EF4A5C"/>
		<stop  offset="0.89" style="stop-color:#EF4D5C"/>
		<stop  offset="0.91" style="stop-color:#ED2433"/>
		<stop  offset="0.95" style="stop-color:#C31F29"/>
		<stop  offset="1" style="stop-color:#EE4354"/>
	</linearGradient>
	<path fill-rule="evenodd" clip-rule="evenodd" fill="url(#SVGID_5_)" d="M4764.317,317.456c76.724,0,138.959,62.236,138.959,138.96
		c0,76.74-62.235,138.979-138.959,138.979c-76.728,0-138.979-62.238-138.979-138.979
		C4625.338,379.692,4687.589,317.456,4764.317,317.456z"/>
	<linearGradient id="SVGID_6_" gradientUnits="userSpaceOnUse" x1="4870.4429" y1="456.4241" x2="5088.9507" y2="456.4241">
		<stop  offset="0" style="stop-color:#EC1E2E"/>
		<stop  offset="0.81" style="stop-color:#EE3D4D"/>
		<stop  offset="0.89" style="stop-color:#EC1E2E"/>
		<stop  offset="1" style="stop-color:#B02025"/>
	</linearGradient>
	<path fill-rule="evenodd" clip-rule="evenodd" fill="url(#SVGID_6_)" d="M4870.443,546.104V366.744
		c20.477,24.203,32.833,55.492,32.833,89.672C4903.276,490.612,4890.919,521.901,4870.443,546.104z"/>
</g>
</svg>
