<?xml version="1.0" encoding="utf-8"?>
<!-- Generator: Adobe Illustrator 16.0.0, SVG Export Plug-In . SVG Version: 6.00 Build 0)  -->
<!DOCTYPE svg PUBLIC "-//W3C//DTD SVG 1.1//EN" "http://www.w3.org/Graphics/SVG/1.1/DTD/svg11.dtd">
<svg version="1.1" id="图形" xmlns="http://www.w3.org/2000/svg" xmlns:xlink="http://www.w3.org/1999/xlink" x="0px" y="0px"
	 width="1000.637px" height="1000.678px" viewBox="3203.042 5296.438 1000.637 1000.678"
	 enable-background="new 3203.042 5296.438 1000.637 1000.678" xml:space="preserve">
<g>
	<g>
		<linearGradient id="SVGID_1_" gradientUnits="userSpaceOnUse" x1="3696.1499" y1="6146.3486" x2="3705.7241" y2="6078.2251">
			<stop  offset="0" style="stop-color:#124880"/>
			<stop  offset="1" style="stop-color:#0C2446"/>
		</linearGradient>
		<path fill-rule="evenodd" clip-rule="evenodd" fill="url(#SVGID_1_)" d="M4027.05,6097.091v-10.746
			c-102.551,0-205.938,0.674-308.211-6.039c-104.586-6.857-336.579-60.545-338.793,11.357
			c2.214,62.283,234.207,18.326,338.793,11.467C3821.113,6096.421,3924.5,6097.091,4027.05,6097.091z"/>
		<linearGradient id="SVGID_2_" gradientUnits="userSpaceOnUse" x1="3808.7427" y1="5779.0176" x2="3372.1118" y2="5779.0176">
			<stop  offset="0" style="stop-color:#0660AC"/>
			<stop  offset="0.33" style="stop-color:#114981"/>
			<stop  offset="0.53" style="stop-color:#193F71"/>
			<stop  offset="0.61" style="stop-color:#193F71"/>
			<stop  offset="0.73" style="stop-color:#0C5EAB"/>
			<stop  offset="0.82" style="stop-color:#3170B7"/>
			<stop  offset="0.88" style="stop-color:#3170B7"/>
			<stop  offset="0.92" style="stop-color:#006AB3"/>
			<stop  offset="0.95" style="stop-color:#015AA6"/>
			<stop  offset="1" style="stop-color:#629DD4"/>
		</linearGradient>
		<path fill-rule="evenodd" clip-rule="evenodd" fill="url(#SVGID_2_)" d="M4027.05,5497.095v589.25
			c-102.551,0-205.938,0.674-308.211-6.039c-105.092-6.891-338.844-61.07-338.859,12.373v-589.25
			c0.016-73.441,233.768-19.264,338.859-12.373C3821.097,5497.767,3924.5,5497.095,4027.05,5497.095z"/>
		<linearGradient id="SVGID_3_" gradientUnits="userSpaceOnUse" x1="3809.6753" y1="5790.8262" x2="4028.1895" y2="5790.8262">
			<stop  offset="0" style="stop-color:#0660AC"/>
			<stop  offset="0.81" style="stop-color:#2E77BC"/>
			<stop  offset="0.91" style="stop-color:#2D67B1"/>
			<stop  offset="1" style="stop-color:#114981"/>
		</linearGradient>
		<path fill-rule="evenodd" clip-rule="evenodd" fill="url(#SVGID_3_)" d="M4027.05,5497.095v589.25
			c-72.456,0-144.982,0.443-217.375-3.086V5495.29C3882.103,5497.44,3954.594,5497.095,4027.05,5497.095z"/>
		<path fill-rule="evenodd" clip-rule="evenodd" fill="#60AADD" d="M3419.375,6058.55V5469.3c8.418-1.74,17.904-2.855,28.257-3.443
			v589.246C3437.279,6055.694,3427.792,6056.812,3419.375,6058.55z"/>
		<linearGradient id="SVGID_4_" gradientUnits="userSpaceOnUse" x1="3703.3599" y1="6040.9287" x2="3703.3599" y2="6137.0415">
			<stop  offset="0" style="stop-color:#1B3E71"/>
			<stop  offset="1" style="stop-color:#0058A0"/>
		</linearGradient>
		<path fill="url(#SVGID_4_)" d="M4027.315,6102.853h-25.531c-93.2-0.066-186.989-0.117-279.794,6.07
			c-22.674,1.494-51.555,4.824-82.762,8.4c-53.901,6.205-114.725,13.209-163.654,13.209v0.018c-55.608,0-96.135-8.994-96.153-37.805
			h-0.016c0-31.438,37.132-41.432,89.081-41.432v-0.016c46.895,0,106.293,8.354,160.226,15.932
			c35.245,4.938,68.126,9.566,93.278,11.24c92.805,6.186,186.594,6.137,279.794,6.07h25.531v7.516h-25.531
			c-93.578,0.031-187.743,0.098-280.973-6.104c-25.763-1.725-59.005-6.4-94.644-11.404c-53.229-7.482-111.869-15.734-157.682-15.734
			l0,0c-45.059,0-77.266,8.172-77.266,33.932h-0.019c0,23.068,35.572,30.289,84.372,30.289l0,0
			c47.845,0,108.13-6.941,161.588-13.094c31.472-3.609,60.609-6.959,83.649-8.5c93.245-6.201,187.395-6.152,280.973-6.104h25.531
			V6102.853z"/>
		<linearGradient id="SVGID_5_" gradientUnits="userSpaceOnUse" x1="3808.1519" y1="5483.6104" x2="3371.5374" y2="5483.6104">
			<stop  offset="0" style="stop-color:#6AA3D2"/>
			<stop  offset="0.33" style="stop-color:#5E93BB"/>
			<stop  offset="0.53" style="stop-color:#5C89B3"/>
			<stop  offset="0.61" style="stop-color:#5C89B3"/>
			<stop  offset="0.73" style="stop-color:#629DCC"/>
			<stop  offset="0.8" style="stop-color:#8BBBE4"/>
			<stop  offset="0.88" style="stop-color:#83B7E3"/>
			<stop  offset="0.92" style="stop-color:#81ABCE"/>
			<stop  offset="0.95" style="stop-color:#629DCC"/>
			<stop  offset="1" style="stop-color:#98BFE4"/>
		</linearGradient>
		<path fill-rule="evenodd" clip-rule="evenodd" fill="url(#SVGID_5_)" d="M4026.459,5494.749v3.135
			c-102.551,0-205.938,0.674-308.208-6.039c-105.08-6.891-338.831-61.07-338.847,12.373v-3.15
			c0.016-73.445,233.767-19.232,338.847-12.357C3820.521,5495.421,3923.909,5494.749,4026.459,5494.749z"/>
	</g>
	<g>
		<linearGradient id="SVGID_6_" gradientUnits="userSpaceOnUse" x1="3813.1606" y1="5757.6084" x2="3373.6826" y2="5757.6084">
			<stop  offset="0" style="stop-color:#D4D6D7"/>
			<stop  offset="0.35" style="stop-color:#B2B4B7"/>
			<stop  offset="0.55" style="stop-color:#AEB0B3"/>
			<stop  offset="0.63" style="stop-color:#AEB0B3"/>
			<stop  offset="0.74" style="stop-color:#CACCCE"/>
			<stop  offset="0.81" style="stop-color:#DDDEE0"/>
			<stop  offset="0.89" style="stop-color:#DDDEE0"/>
			<stop  offset="0.93" style="stop-color:#D4D6D7"/>
			<stop  offset="0.96" style="stop-color:#CACCCE"/>
			<stop  offset="1" style="stop-color:#E7E8E9"/>
		</linearGradient>
		<path fill-rule="evenodd" clip-rule="evenodd" fill="url(#SVGID_6_)" d="M3887.402,5914.29l23.776-17.262h-29.405l-9.058-27.943
			l-9.089,27.943h-29.371l23.776,17.262l-9.093,27.926l23.776-17.26l23.76,17.26L3887.402,5914.29L3887.402,5914.29z
			 M3883.71,5612.413l20.706-15.064h-25.597l-7.91-24.348l-7.906,24.348h-25.597l20.706,15.064l-7.909,24.348l20.706-15.061
			l20.71,15.061L3883.71,5612.413L3883.71,5612.413z M3767.574,5729.306l20.706-15.031h-25.597l-7.926-24.35l-7.909,24.35h-25.612
			l20.725,15.031l-7.909,24.363l20.706-15.045l20.707,15.045L3767.574,5729.306L3767.574,5729.306z M3982.028,5698.884
			l18.312-13.291h-22.612l-6.991-21.496l-6.988,21.496h-22.611l18.297,13.291l-6.991,21.512l18.294-13.311l18.282,13.311
			L3982.028,5698.884z"/>
		<linearGradient id="SVGID_7_" gradientUnits="userSpaceOnUse" x1="3813.1714" y1="5763.7773" x2="3373.7192" y2="5763.7773">
			<stop  offset="0" style="stop-color:#DBDCDD"/>
			<stop  offset="0.35" style="stop-color:#BFC1C3"/>
			<stop  offset="0.55" style="stop-color:#BBBDBF"/>
			<stop  offset="0.63" style="stop-color:#BBBDBF"/>
			<stop  offset="0.74" style="stop-color:#D3D4D6"/>
			<stop  offset="0.81" style="stop-color:#E3E4E5"/>
			<stop  offset="0.89" style="stop-color:#E3E4E5"/>
			<stop  offset="0.93" style="stop-color:#DBDCDD"/>
			<stop  offset="0.96" style="stop-color:#D3D4D6"/>
			<stop  offset="1" style="stop-color:#ECEDEE"/>
		</linearGradient>
		<path fill-rule="evenodd" clip-rule="evenodd" fill="url(#SVGID_7_)" d="M3894.768,5908.94l5.349-3.889l-8.007-8.023h-9.221
			L3894.768,5908.94L3894.768,5908.94z M3881.248,5895.354l-4.463-13.684l-6.151-6.186l-2.265,6.973L3881.248,5895.354
			L3881.248,5895.354z M3856.406,5897.028l37.642,37.74l2.428,7.447l-15.243-11.059l-34.031-34.129H3856.406L3856.406,5897.028z
			 M3853.09,5929.483l-2.264,6.957l2.544,2.561l5.334-3.875L3853.09,5929.483L3853.09,5929.483z M3884.267,5612.001l5.349-3.887
			l-10.746-10.766h-0.05l-0.031-0.066l-11.882-11.943l-2.265,6.957L3884.267,5612.001L3884.267,5612.001z M3843.181,5597.349
			l25.729,25.811l-5.35,3.889l-7.695-7.744l2.248-6.891l-20.706-15.064H3843.181L3843.181,5597.349z M3778.895,5721.101l5.331-3.891
			l-2.935-2.936h-9.205L3778.895,5721.101L3778.895,5721.101z M3758.123,5700.261l-3.365-10.336l-1.704,5.252L3758.123,5700.261
			L3758.123,5700.261z M3745.587,5714.274l25.332,25.4l4.447,13.684l-38.969-39.084H3745.587L3745.587,5714.274z M3737.775,5742.218
			l-2.264,6.973l1.969,1.969l5.349-3.871L3737.775,5742.218L3737.775,5742.218z M3996.271,5688.546l4.069-2.953h-6.991
			L3996.271,5688.546L3996.271,5688.546z M3964.503,5683.263l-0.755,2.33h-6.104l29.764,29.861l-4.429-13.684L3964.503,5683.263
			L3964.503,5683.263z M3955.742,5710.253l4.463,4.482l-5.315,3.871l-1.412-1.396L3955.742,5710.253z"/>
		<linearGradient id="SVGID_8_" gradientUnits="userSpaceOnUse" x1="3809.6743" y1="5757.6084" x2="4028.1938" y2="5757.6084">
			<stop  offset="0" style="stop-color:#D4D6D7"/>
			<stop  offset="0.81" style="stop-color:#E7E8E9"/>
			<stop  offset="0.91" style="stop-color:#DDDEE0"/>
			<stop  offset="1" style="stop-color:#CACCCE"/>
		</linearGradient>
		<path fill-rule="evenodd" clip-rule="evenodd" fill="url(#SVGID_8_)" d="M3887.402,5914.29l23.776-17.262h-29.405l-9.058-27.943
			l-9.089,27.943h-29.371l23.776,17.262l-9.093,27.926l23.776-17.26l23.76,17.26L3887.402,5914.29L3887.402,5914.29z
			 M3883.71,5612.413l20.706-15.064h-25.597l-7.91-24.348l-7.906,24.348h-25.597l20.706,15.064l-7.909,24.348l20.706-15.061
			l20.71,15.061L3883.71,5612.413L3883.71,5612.413z M3982.028,5698.884l18.312-13.291h-22.612l-6.991-21.496l-6.988,21.496h-22.611
			l18.297,13.291l-6.991,21.512l18.294-13.311l18.282,13.311L3982.028,5698.884z"/>
		<linearGradient id="SVGID_9_" gradientUnits="userSpaceOnUse" x1="3809.6851" y1="5763.7773" x2="4028.1921" y2="5763.7773">
			<stop  offset="0" style="stop-color:#DDDEE0"/>
			<stop  offset="0.81" style="stop-color:#ECEDEE"/>
			<stop  offset="0.91" style="stop-color:#E3E4E5"/>
			<stop  offset="1" style="stop-color:#D7D8D9"/>
		</linearGradient>
		<path fill-rule="evenodd" clip-rule="evenodd" fill="url(#SVGID_9_)" d="M3894.768,5908.94l5.349-3.889l-8.007-8.023h-9.221
			L3894.768,5908.94L3894.768,5908.94z M3881.248,5895.354l-4.463-13.684l-6.151-6.186l-2.265,6.973L3881.248,5895.354
			L3881.248,5895.354z M3856.406,5897.028l37.642,37.74l2.428,7.447l-15.243-11.059l-34.031-34.129H3856.406L3856.406,5897.028z
			 M3853.09,5929.483l-2.264,6.957l2.544,2.561l5.334-3.875L3853.09,5929.483L3853.09,5929.483z M3884.267,5612.001l5.349-3.887
			l-10.746-10.766h-0.05l-0.031-0.066l-11.882-11.943l-2.265,6.957L3884.267,5612.001L3884.267,5612.001z M3843.181,5597.349
			l25.729,25.811l-5.35,3.889l-7.695-7.744l2.248-6.891l-20.706-15.064H3843.181L3843.181,5597.349z M3996.271,5688.546l4.069-2.953
			h-6.991L3996.271,5688.546L3996.271,5688.546z M3964.503,5683.263l-0.755,2.33h-6.104l29.764,29.861l-4.429-13.684
			L3964.503,5683.263L3964.503,5683.263z M3955.742,5710.253l4.463,4.498l-5.315,3.855l-1.412-1.396L3955.742,5710.253z"/>
	</g>
	<g>
		<linearGradient id="SVGID_10_" gradientUnits="userSpaceOnUse" x1="3815.022" y1="5757.9365" x2="3362.1841" y2="5757.9365">
			<stop  offset="0" style="stop-color:#EC1E2E"/>
			<stop  offset="0.54" style="stop-color:#A31B20"/>
			<stop  offset="0.63" style="stop-color:#A31B20"/>
			<stop  offset="0.74" style="stop-color:#D72332"/>
			<stop  offset="0.83" style="stop-color:#EF4A5C"/>
			<stop  offset="0.89" style="stop-color:#EF4D5C"/>
			<stop  offset="0.91" style="stop-color:#ED2433"/>
			<stop  offset="0.95" style="stop-color:#C31F29"/>
			<stop  offset="1" style="stop-color:#EE4354"/>
		</linearGradient>
		<path fill-rule="evenodd" clip-rule="evenodd" fill="url(#SVGID_10_)" d="M3948.521,5688.021h16.967l5.249-16.145l5.236,16.145
			h16.948l-13.715,9.961l5.249,16.127l-13.719-9.977l-13.715,9.977l5.233-16.127L3948.521,5688.021L3948.521,5688.021z
			 M3843.87,5900.146h22.037l6.809-20.938l6.793,20.938h22.037l-17.819,12.963l6.809,20.936l-17.819-12.943l-17.835,12.943
			l6.809-20.936L3843.87,5900.146L3843.87,5900.146z M3729.621,5716.999h19.215l5.922-18.279l5.941,18.279h19.196l-15.539,11.287
			l5.94,18.246l-15.539-11.289l-15.539,11.289l5.941-18.246L3729.621,5716.999L3729.621,5716.999z M3845.775,5600.073h19.197
			l5.938-18.244l5.941,18.244h19.196l-15.536,11.289l5.938,18.264l-15.54-11.275l-15.536,11.275l5.938-18.264L3845.775,5600.073z"/>
		<linearGradient id="SVGID_11_" gradientUnits="userSpaceOnUse" x1="3810.438" y1="5760.627" x2="3369.9863" y2="5760.627">
			<stop  offset="0" style="stop-color:#EE3D4D"/>
			<stop  offset="0.54" style="stop-color:#C72F3B"/>
			<stop  offset="0.63" style="stop-color:#B82D39"/>
			<stop  offset="0.74" style="stop-color:#EE394A"/>
			<stop  offset="0.83" style="stop-color:#F05B69"/>
			<stop  offset="0.89" style="stop-color:#F05B69"/>
			<stop  offset="0.91" style="stop-color:#EE354A"/>
			<stop  offset="0.95" style="stop-color:#CA2F3E"/>
			<stop  offset="1" style="stop-color:#EF5060"/>
		</linearGradient>
		<path fill-rule="evenodd" clip-rule="evenodd" fill="url(#SVGID_11_)" d="M3960.465,5688.021h5.022l1.035-3.166l12.913,12.963
			l-0.229,0.164l4.265,13.107L3960.465,5688.021L3960.465,5688.021z M3958.726,5712.862l-1.704,1.246l0.72-2.264L3958.726,5712.862
			L3958.726,5712.862z M3850.729,5900.146h9.221l29.044,29.141l1.541,4.758l-17.819-12.943l-0.639,0.459L3850.729,5900.146
			L3850.729,5900.146z M3870.945,5884.624l1.771-5.416l3.463,10.666L3870.945,5884.624L3870.945,5884.624z M3886.433,5900.146
			l6.35,6.383l5.334-3.889l-2.493-2.494H3886.433L3886.433,5900.146z M3856.701,5932.718l-1.05-1.051l-0.771,2.377
			L3856.701,5932.718L3856.701,5932.718z M3739.514,5716.999h9.205l17.772,17.818l3.805,11.715l-4.793-3.477L3739.514,5716.999
			L3739.514,5716.999z M3775.218,5716.999h4.677l-2.708,1.969L3775.218,5716.999L3775.218,5716.999z M3741.125,5745.171l-1.102-1.1
			l-0.805,2.461L3741.125,5745.171L3741.125,5745.171z M3845.775,5600.073h0.523l1.412,1.428L3845.775,5600.073L3845.775,5600.073z
			 M3866.907,5594.167l2.264-6.957l5.187,5.201l2.494,7.662h5.151l5.909,5.939l-5.35,3.873L3866.907,5594.167L3866.907,5594.167z
			 M3867.202,5621.044l-5.349,3.871l-3.724-3.74l2.264-6.959L3867.202,5621.044z"/>
		<linearGradient id="SVGID_12_" gradientUnits="userSpaceOnUse" x1="3809.4966" y1="5757.9365" x2="4027.99" y2="5757.9365">
			<stop  offset="0" style="stop-color:#EC1E2E"/>
			<stop  offset="0.81" style="stop-color:#EE3D4D"/>
			<stop  offset="0.89" style="stop-color:#EC1E2E"/>
			<stop  offset="1" style="stop-color:#B02025"/>
		</linearGradient>
		<path fill-rule="evenodd" clip-rule="evenodd" fill="url(#SVGID_12_)" d="M3948.521,5688.021h16.967l5.249-16.145l5.236,16.145
			h16.948l-13.715,9.961l5.249,16.127l-13.719-9.977l-13.715,9.977l5.233-16.127L3948.521,5688.021L3948.521,5688.021z
			 M3843.87,5900.146h22.037l6.809-20.938l6.793,20.938h22.037l-17.819,12.963l6.809,20.936l-17.819-12.943l-17.835,12.943
			l6.809-20.936L3843.87,5900.146L3843.87,5900.146z M3845.775,5600.073h19.197l5.938-18.244l5.941,18.244h19.196l-15.536,11.289
			l5.938,18.264l-15.54-11.275l-15.536,11.275l5.938-18.264L3845.775,5600.073z"/>
		<linearGradient id="SVGID_13_" gradientUnits="userSpaceOnUse" x1="3809.5151" y1="5760.627" x2="4026.8645" y2="5760.627">
			<stop  offset="0" style="stop-color:#EE3D4D"/>
			<stop  offset="0.81" style="stop-color:#EF4D61"/>
			<stop  offset="0.89" style="stop-color:#EE3546"/>
			<stop  offset="1" style="stop-color:#B82D39"/>
		</linearGradient>
		<path fill-rule="evenodd" clip-rule="evenodd" fill="url(#SVGID_13_)" d="M3960.465,5688.021h5.022l1.035-3.166l12.913,12.963
			l-0.229,0.164l4.265,13.107L3960.465,5688.021L3960.465,5688.021z M3958.726,5712.862l-1.704,1.246l0.72-2.264L3958.726,5712.862
			L3958.726,5712.862z M3850.729,5900.146h9.221l29.044,29.141l1.541,4.758l-17.819-12.943l-0.639,0.459L3850.729,5900.146
			L3850.729,5900.146z M3870.945,5884.624l1.771-5.416l3.463,10.666L3870.945,5884.624L3870.945,5884.624z M3886.433,5900.146
			l6.35,6.383l5.334-3.889l-2.493-2.494H3886.433L3886.433,5900.146z M3856.701,5932.718l-1.05-1.051l-0.771,2.377
			L3856.701,5932.718L3856.701,5932.718z M3845.775,5600.073h0.523l1.412,1.412L3845.775,5600.073L3845.775,5600.073z
			 M3866.907,5594.167l2.264-6.957l5.187,5.201l2.494,7.662h5.151l5.909,5.939l-5.35,3.873L3866.907,5594.167L3866.907,5594.167z
			 M3867.202,5621.044l-5.349,3.871l-3.724-3.74l2.264-6.959L3867.202,5621.044z"/>
	</g>
	<g>
		<linearGradient id="SVGID_14_" gradientUnits="userSpaceOnUse" x1="3806.8911" y1="5633.9062" x2="3379.9839" y2="5633.9062">
			<stop  offset="0" style="stop-color:#D4D6D7"/>
			<stop  offset="0.35" style="stop-color:#B2B4B7"/>
			<stop  offset="0.55" style="stop-color:#AEB0B3"/>
			<stop  offset="0.63" style="stop-color:#AEB0B3"/>
			<stop  offset="0.74" style="stop-color:#CACCCE"/>
			<stop  offset="0.81" style="stop-color:#DDDEE0"/>
			<stop  offset="0.89" style="stop-color:#DDDEE0"/>
			<stop  offset="0.93" style="stop-color:#D4D6D7"/>
			<stop  offset="0.96" style="stop-color:#CACCCE"/>
			<stop  offset="1" style="stop-color:#E7E8E9"/>
		</linearGradient>
		<path fill-rule="evenodd" clip-rule="evenodd" fill="url(#SVGID_14_)" d="M3379.98,5799.415v-295.986
			c0-21.691,20.379-32.227,51.785-36.164v90.951c32.028-17.967,64.235-31.258,96.119-44.006
			c23.659-9.467,56.703-24.367,85.287-35.557c29.273,3.871,57.33,7.762,81.37,10.271v33.801
			c-23.286,10.205-46.583,18.805-69.884,26.285c-23.201,7.432-46.567,15.062-69.834,23.727c23.267,2.84,46.567,6.66,69.834,10.617
			c23.25,3.922,46.598,6.891,69.884,8.68c0,17.393,0,34.783,0,52.143c0,17.361,0,34.756,0,52.113
			c-23.286-2.525-46.618-5.807-69.884-9.549c-23.251-3.723-46.567-7.186-69.834-10.025c23.267,14.355,46.583,29.289,69.834,44.416
			c23.266,15.113,46.598,29.996,69.884,44.434c0,11.684,0,23.334,0,34.982c-23.515-3.281-47.026-6.859-70.507-10.502
			c-32.062-20.445-63.959-40.758-96.15-59.332c-31.85-18.344-64.091-34.686-96.119-48.174c0,16.18,0,32.389,0,48.551
			c0,16.197,0,32.375,0,48.537C3414.487,5783.288,3397.24,5789.292,3379.98,5799.415z"/>
		<path fill-rule="evenodd" clip-rule="evenodd" fill="#E7E8E9" d="M3419.375,5782.681V5469.3c3.905-0.82,8.057-1.475,12.391-2.035
			v90.951c5.283-2.969,10.564-5.793,15.866-8.531v139.764c-5.302-2.381-10.583-4.676-15.866-6.908c0,16.18,0,32.389,0,48.551
			c0,16.197,0,32.375,0,48.537C3427.629,5780.499,3423.494,5781.515,3419.375,5782.681z"/>
		<linearGradient id="SVGID_15_" gradientUnits="userSpaceOnUse" x1="3806.3062" y1="5484.5273" x2="3379.4094" y2="5484.5273">
			<stop  offset="0" style="stop-color:#E6E7E7"/>
			<stop  offset="0.35" style="stop-color:#D4D6D7"/>
			<stop  offset="0.55" style="stop-color:#D3D4D6"/>
			<stop  offset="0.63" style="stop-color:#D3D4D6"/>
			<stop  offset="0.74" style="stop-color:#E2E2E4"/>
			<stop  offset="0.81" style="stop-color:#ECEDEE"/>
			<stop  offset="0.89" style="stop-color:#ECEDEE"/>
			<stop  offset="0.93" style="stop-color:#E6E7E7"/>
			<stop  offset="0.96" style="stop-color:#E2E2E4"/>
			<stop  offset="1" style="stop-color:#ECEDEE"/>
		</linearGradient>
		<path fill-rule="evenodd" clip-rule="evenodd" fill="url(#SVGID_15_)" d="M3694.542,5489.776
			c-24.465-2.557-53.115-6.529-83.011-10.502l6.006-2.326c27.729,3.707,54.179,7.314,77.005,9.68V5489.776L3694.542,5489.776z
			 M3431.765,5467.954c-31.736,3.889-52.36,14.441-52.36,36.264v-3.15c0-21.809,20.624-32.359,52.36-36.23V5467.954z"/>
	</g>
	<g>
		<linearGradient id="SVGID_16_" gradientUnits="userSpaceOnUse" x1="3799.0942" y1="5635.6123" x2="3378.106" y2="5635.6123">
			<stop  offset="0" style="stop-color:#EC1E2E"/>
			<stop  offset="0.54" style="stop-color:#A31B20"/>
			<stop  offset="0.63" style="stop-color:#A31B20"/>
			<stop  offset="0.74" style="stop-color:#D72332"/>
			<stop  offset="0.83" style="stop-color:#EF4A5C"/>
			<stop  offset="0.89" style="stop-color:#EF4D5C"/>
			<stop  offset="0.91" style="stop-color:#ED2433"/>
			<stop  offset="0.95" style="stop-color:#C31F29"/>
			<stop  offset="1" style="stop-color:#EE4354"/>
		</linearGradient>
		<path fill-rule="evenodd" clip-rule="evenodd" fill="url(#SVGID_16_)" d="M3694.542,5800.415
			c-82.485-52.832-128.839-83.154-210.206-129.197c15.652,0.953,31.324,2.166,46.992,3.416l163.214,102.664V5800.415
			L3694.542,5800.415z M3379.817,5799.532c10.303-6.074,20.64-10.684,30.942-14.178V5657.37
			c101.551-15.963,183.379,5.58,283.782,19.361v-62.449c-98.565-12.666-184.247-36.033-283.782-20.381V5470.81
			c-19.262,5.613-30.942,15.637-30.942,32.027V5799.532L3379.817,5799.532z M3644.429,5482.247
			c17.197,2.279,33.554,4.346,48.42,5.938c-35.475,13.539-78.643,28.881-103.438,37.25c-35.261,11.928-70.06,27.055-105.076,40.938
			c-15.702-0.854-31.373-0.984-47.025,0.195C3492.246,5537.69,3576.748,5505.464,3644.429,5482.247z"/>
		<linearGradient id="SVGID_17_" gradientUnits="userSpaceOnUse" x1="3790.4995" y1="5608.7451" x2="3376.0713" y2="5608.7451">
			<stop  offset="0" style="stop-color:#F05A65"/>
			<stop  offset="0.35" style="stop-color:#C8555F"/>
			<stop  offset="0.44" style="stop-color:#BF545E"/>
			<stop  offset="0.54" style="stop-color:#B0535B"/>
			<stop  offset="0.63" style="stop-color:#BE545D"/>
			<stop  offset="0.71" style="stop-color:#F05B67"/>
			<stop  offset="0.8" style="stop-color:#F1737F"/>
			<stop  offset="0.89" style="stop-color:#F1737F"/>
			<stop  offset="0.91" style="stop-color:#F05B67"/>
			<stop  offset="0.95" style="stop-color:#BC5461"/>
			<stop  offset="1" style="stop-color:#F16C77"/>
		</linearGradient>
		<path fill-rule="evenodd" clip-rule="evenodd" fill="url(#SVGID_17_)" d="M3419.195,5656.122v-63.465
			c9.532-1.297,18.936-2.266,28.254-2.887v63.332C3438.197,5653.794,3428.777,5654.812,3419.195,5656.122L3419.195,5656.122z
			 M3447.449,5561.368v4.609c-3.377,0.129-6.758,0.328-10.139,0.59C3440.589,5564.862,3443.97,5563.122,3447.449,5561.368z"/>
		<linearGradient id="SVGID_18_" gradientUnits="userSpaceOnUse" x1="3801.2964" y1="5487.3018" x2="3380.4084" y2="5487.3018">
			<stop  offset="0" style="stop-color:#F16864"/>
			<stop  offset="0.54" style="stop-color:#CD5A54"/>
			<stop  offset="0.63" style="stop-color:#C35752"/>
			<stop  offset="0.74" style="stop-color:#F06562"/>
			<stop  offset="0.83" style="stop-color:#F27B7E"/>
			<stop  offset="0.89" style="stop-color:#F27B7E"/>
			<stop  offset="0.91" style="stop-color:#F06361"/>
			<stop  offset="0.95" style="stop-color:#D05A56"/>
			<stop  offset="1" style="stop-color:#F27576"/>
		</linearGradient>
		<path fill-rule="evenodd" clip-rule="evenodd" fill="url(#SVGID_18_)" d="M3688.978,5489.663
			c-14.979-1.658-31.34-3.773-48.502-6.055l6.596-2.264c16.866,2.215,32.898,4.232,47.47,5.773v0.428L3688.978,5489.663
			L3688.978,5489.663z M3410.759,5472.944c-18.9,5.658-30.32,15.637-30.32,31.865v-3.152c0-16.211,11.42-26.188,30.32-31.863
			V5472.944z"/>
	</g>
</g>
</svg>
