<?xml version="1.0" encoding="utf-8"?>
<!-- Generator: Adobe Illustrator 16.0.0, SVG Export Plug-In . SVG Version: 6.00 Build 0)  -->
<!DOCTYPE svg PUBLIC "-//W3C//DTD SVG 1.1//EN" "http://www.w3.org/Graphics/SVG/1.1/DTD/svg11.dtd">
<svg version="1.1" id="图形" xmlns="http://www.w3.org/2000/svg" xmlns:xlink="http://www.w3.org/1999/xlink" x="0px" y="0px"
	 width="1000.637px" height="1000.678px" viewBox="3203.042 2108.25 1000.637 1000.678"
	 enable-background="new 3203.042 2108.25 1000.637 1000.678" xml:space="preserve">
<g>
	<linearGradient id="SVGID_1_" gradientUnits="userSpaceOnUse" x1="3692.0356" y1="2998.7766" x2="3705.4749" y2="2889.3223">
		<stop  offset="0" style="stop-color:#A7232E"/>
		<stop  offset="1" style="stop-color:#671012"/>
	</linearGradient>
	<path fill-rule="evenodd" clip-rule="evenodd" fill="url(#SVGID_1_)" d="M4027.046,2908.325v-10.766
		c-102.555,0-205.941,0.688-308.195-6.039c-104.602-6.855-336.598-60.543-338.812,11.357
		c2.215,62.285,234.211,18.344,338.812,11.484C3821.105,2907.636,3924.492,2908.325,4027.046,2908.325z"/>
	<linearGradient id="SVGID_2_" gradientUnits="userSpaceOnUse" x1="3809.4077" y1="2590.2356" x2="3374.1274" y2="2590.2356">
		<stop  offset="0" style="stop-color:#EC1E2E"/>
		<stop  offset="0.54" style="stop-color:#A31B20"/>
		<stop  offset="0.63" style="stop-color:#A31B20"/>
		<stop  offset="0.74" style="stop-color:#D72332"/>
		<stop  offset="0.83" style="stop-color:#EF4A5C"/>
		<stop  offset="0.89" style="stop-color:#EF4D5C"/>
		<stop  offset="0.91" style="stop-color:#ED2433"/>
		<stop  offset="0.95" style="stop-color:#C31F29"/>
		<stop  offset="1" style="stop-color:#EE4354"/>
	</linearGradient>
	<path fill-rule="evenodd" clip-rule="evenodd" fill="url(#SVGID_2_)" d="M4027.046,2308.312v589.248
		c-102.555,0-205.941,0.688-308.195-6.039c-105.111-6.891-338.863-61.068-338.863,12.373v-589.25
		c0-73.441,233.752-19.244,338.863-12.369C3821.105,2309.001,3924.492,2308.312,4027.046,2308.312z"/>
	<linearGradient id="SVGID_3_" gradientUnits="userSpaceOnUse" x1="3809.6851" y1="2602.0432" x2="4028.1853" y2="2602.0432">
		<stop  offset="0" style="stop-color:#EC1E2E"/>
		<stop  offset="0.81" style="stop-color:#EE3D4D"/>
		<stop  offset="0.89" style="stop-color:#EC1E2E"/>
		<stop  offset="1" style="stop-color:#B02025"/>
	</linearGradient>
	<path fill-rule="evenodd" clip-rule="evenodd" fill="url(#SVGID_3_)" d="M4027.046,2308.312v589.248
		c-72.477,0-144.967,0.459-217.361-3.086v-587.967C3882.111,2308.656,3954.585,2308.312,4027.046,2308.312z"/>
	<linearGradient id="SVGID_4_" gradientUnits="userSpaceOnUse" x1="3790.5913" y1="2573.4182" x2="3376.2559" y2="2573.4182">
		<stop  offset="0" style="stop-color:#F05A65"/>
		<stop  offset="0.35" style="stop-color:#C8555F"/>
		<stop  offset="0.44" style="stop-color:#BF545E"/>
		<stop  offset="0.54" style="stop-color:#B0535B"/>
		<stop  offset="0.63" style="stop-color:#BE545D"/>
		<stop  offset="0.71" style="stop-color:#F05B67"/>
		<stop  offset="0.8" style="stop-color:#F1737F"/>
		<stop  offset="0.89" style="stop-color:#F1737F"/>
		<stop  offset="0.91" style="stop-color:#F05B67"/>
		<stop  offset="0.95" style="stop-color:#BC5461"/>
		<stop  offset="1" style="stop-color:#F16C77"/>
	</linearGradient>
	<path fill-rule="evenodd" clip-rule="evenodd" fill="url(#SVGID_4_)" d="M3419.369,2869.765v-589.25
		c8.4-1.74,17.918-2.854,28.256-3.444v589.251C3437.287,2866.909,3427.769,2868.025,3419.369,2869.765z"/>
	<linearGradient id="SVGID_5_" gradientUnits="userSpaceOnUse" x1="3707.1157" y1="2887.9182" x2="3683.0515" y2="3011.7173">
		<stop  offset="0" style="stop-color:#911B1E"/>
		<stop  offset="1" style="stop-color:#EC1E2E"/>
	</linearGradient>
	<path fill="url(#SVGID_5_)" d="M4027.322,2914.068h-25.545c-93.197-0.066-186.971-0.098-279.775,6.07
		c-22.678,1.509-51.555,4.824-82.762,8.402c-53.918,6.201-114.729,13.225-163.658,13.225l0,0c-55.621,0-96.15-8.992-96.15-37.805
		h-0.033c0-31.438,37.131-41.414,89.096-41.414v-0.033c46.895,0,106.293,8.367,160.209,15.947
		c35.246,4.926,68.127,9.582,93.299,11.225c92.805,6.201,186.578,6.135,279.775,6.104h25.545v7.482h-25.545
		c-93.576,0.066-187.727,0.098-280.975-6.104c-25.744-1.705-59.004-6.4-94.625-11.389c-53.227-7.482-111.871-15.75-157.684-15.75
		l0,0c-45.074,0-77.281,8.202-77.281,33.932h-0.016c0,23.07,35.572,30.289,84.385,30.289l0,0c47.832,0,108.131-6.923,161.557-13.062
		c31.504-3.641,60.645-6.987,83.664-8.531c93.248-6.202,187.398-6.137,280.975-6.104h25.545V2914.068z"/>
	<g>
		<linearGradient id="SVGID_6_" gradientUnits="userSpaceOnUse" x1="3810.2446" y1="2588.2502" x2="3376.6313" y2="2588.2502">
			<stop  offset="0" style="stop-color:#D4D6D7"/>
			<stop  offset="0.35" style="stop-color:#B2B4B7"/>
			<stop  offset="0.55" style="stop-color:#AEB0B3"/>
			<stop  offset="0.63" style="stop-color:#AEB0B3"/>
			<stop  offset="0.74" style="stop-color:#CACCCE"/>
			<stop  offset="0.81" style="stop-color:#DDDEE0"/>
			<stop  offset="0.89" style="stop-color:#DDDEE0"/>
			<stop  offset="0.93" style="stop-color:#D4D6D7"/>
			<stop  offset="0.96" style="stop-color:#CACCCE"/>
			<stop  offset="1" style="stop-color:#E7E8E9"/>
		</linearGradient>
		<path fill-rule="evenodd" clip-rule="evenodd" fill="url(#SVGID_6_)" d="M4027.046,2348.773v48.699
			c-102.555,0-205.941,0.673-308.195-6.039c-105.111-6.891-338.863-61.068-338.863,12.373v-48.699
			c0-73.441,233.752-19.248,338.863-12.373C3821.105,2349.464,3924.492,2348.773,4027.046,2348.773L4027.046,2348.773z
			 M4027.046,2439.904c-102.555,0-205.941,0.673-308.195-6.039c-105.111-6.891-338.863-61.068-338.863,12.373v48.699
			c0-73.441,233.752-19.263,338.863-12.372c102.254,6.712,205.641,6.038,308.195,6.038V2439.904L4027.046,2439.904z
			 M4027.046,2531.034v48.699c-102.555,0-205.941,0.674-308.195-6.037c-105.111-6.891-338.863-61.072-338.863,12.371v-48.699
			c0-73.443,233.752-19.263,338.863-12.372C3821.105,2531.708,3924.492,2531.034,4027.046,2531.034L4027.046,2531.034z
			 M4027.046,2622.165c-102.555,0-205.941,0.674-308.195-6.037c-105.111-6.891-338.863-61.072-338.863,12.371v48.699
			c0-73.443,233.752-19.23,338.863-12.371c102.254,6.727,205.641,6.037,308.195,6.037V2622.165L4027.046,2622.165z
			 M4027.046,2713.296v48.701c-102.555,0-205.941,0.688-308.195-6.039c-105.111-6.859-338.863-61.072-338.863,12.373v-48.701
			c0-73.443,233.752-19.23,338.863-12.371C3821.105,2713.986,3924.492,2713.296,4027.046,2713.296L4027.046,2713.296z
			 M4027.046,2804.429c-102.555,0-205.941,0.688-308.195-6.039c-105.111-6.859-338.863-61.072-338.863,12.373v48.699
			c0-73.445,233.752-19.232,338.863-12.342c102.254,6.695,205.641,6.039,308.195,6.039V2804.429z"/>
		<linearGradient id="SVGID_7_" gradientUnits="userSpaceOnUse" x1="3809.6851" y1="2600.0735" x2="4028.1853" y2="2600.0735">
			<stop  offset="0" style="stop-color:#D4D6D7"/>
			<stop  offset="0.81" style="stop-color:#E7E8E9"/>
			<stop  offset="0.91" style="stop-color:#DDDEE0"/>
			<stop  offset="1" style="stop-color:#CACCCE"/>
		</linearGradient>
		<path fill-rule="evenodd" clip-rule="evenodd" fill="url(#SVGID_7_)" d="M4027.046,2348.773v48.699
			c-72.281,0-144.951,0.33-217.361-1.805v-48.697C3882.095,2349.118,3954.765,2348.773,4027.046,2348.773L4027.046,2348.773z
			 M4027.046,2439.904v48.699c-72.281,0-144.951,0.33-217.361-1.805v-48.699C3882.095,2440.234,3954.765,2439.904,4027.046,2439.904
			L4027.046,2439.904z M4027.046,2531.034v48.699c-72.281,0-144.951,0.33-217.361-1.805v-48.699
			C3882.095,2531.365,3954.765,2531.034,4027.046,2531.034L4027.046,2531.034z M4027.046,2622.165v48.699
			c-72.281,0-144.951,0.363-217.361-1.805v-48.699C3882.095,2622.493,3954.765,2622.165,4027.046,2622.165L4027.046,2622.165z
			 M4027.046,2713.296v48.701c-72.281,0-144.951,0.361-217.361-1.807v-48.699
			C3882.095,2713.659,3954.765,2713.296,4027.046,2713.296L4027.046,2713.296z M4027.046,2804.429v48.73
			c-72.281,0-144.951,0.33-217.361-1.837v-48.7C3882.095,2804.79,3954.765,2804.429,4027.046,2804.429z"/>
		<path fill-rule="evenodd" clip-rule="evenodd" fill="#E7E8E9" d="M3419.369,2825.333v-48.7c8.4-1.739,17.918-2.855,28.256-3.446
			v48.734C3437.287,2822.478,3427.769,2823.593,3419.369,2825.333L3419.369,2825.333z M3419.369,2734.201v-48.7
			c8.4-1.738,17.918-2.855,28.256-3.446v48.7C3437.287,2731.346,3427.769,2732.462,3419.369,2734.201L3419.369,2734.201z
			 M3419.369,2643.07v-48.699c8.4-1.738,17.918-2.855,28.256-3.447v48.7C3437.287,2640.214,3427.769,2641.331,3419.369,2643.07
			L3419.369,2643.07z M3419.369,2551.939v-48.699c8.4-1.738,17.918-2.855,28.256-3.447v48.699
			C3437.287,2549.083,3427.769,2550.2,3419.369,2551.939L3419.369,2551.939z M3419.369,2460.808v-48.699
			c8.4-1.74,17.918-2.855,28.256-3.443v48.699C3437.287,2457.952,3427.769,2459.069,3419.369,2460.808L3419.369,2460.808z
			 M3419.369,2369.677v-48.699c8.4-1.74,17.918-2.854,28.256-3.444v48.7C3437.287,2366.822,3427.769,2367.937,3419.369,2369.677z"/>
	</g>
	<g>
		<linearGradient id="SVGID_8_" gradientUnits="userSpaceOnUse" x1="3801.8765" y1="2453.1262" x2="3378.969" y2="2453.1262">
			<stop  offset="0" style="stop-color:#055DAB"/>
			<stop  offset="0.33" style="stop-color:#164780"/>
			<stop  offset="0.53" style="stop-color:#193F71"/>
			<stop  offset="0.61" style="stop-color:#193F71"/>
			<stop  offset="0.73" style="stop-color:#125BA9"/>
			<stop  offset="0.82" style="stop-color:#2E74B9"/>
			<stop  offset="0.88" style="stop-color:#2E74B9"/>
			<stop  offset="0.92" style="stop-color:#0F64AF"/>
			<stop  offset="0.95" style="stop-color:#005DA7"/>
			<stop  offset="1" style="stop-color:#62A3D6"/>
		</linearGradient>
		<path fill-rule="evenodd" clip-rule="evenodd" fill="url(#SVGID_8_)" d="M3379.988,2628.499v-312.674
			c0-73.443,233.752-19.262,338.863-12.372c35.393,2.331,70.93,3.774,106.521,4.661v312.674c-35.592-0.887-71.129-2.33-106.521-4.66
			C3613.74,2609.238,3379.988,2555.056,3379.988,2628.499z"/>
		<linearGradient id="SVGID_9_" gradientUnits="userSpaceOnUse" x1="3809.6851" y1="2464.2375" x2="4027.9814" y2="2464.2375">
			<stop  offset="0" style="stop-color:#055DAB"/>
			<stop  offset="0.81" style="stop-color:#326EB5"/>
			<stop  offset="0.91" style="stop-color:#2A70B7"/>
			<stop  offset="1" style="stop-color:#164780"/>
		</linearGradient>
		<path fill-rule="evenodd" clip-rule="evenodd" fill="url(#SVGID_9_)" d="M3809.685,2620.361v-312.674
			c5.219,0.148,10.471,0.295,15.688,0.428v312.674L3809.685,2620.361z"/>
		<path fill-rule="evenodd" clip-rule="evenodd" fill="#61A8DC" d="M3419.369,2594.37v-312.674c8.4-1.754,17.918-2.855,28.256-3.447
			v312.674C3437.287,2591.515,3427.769,2592.632,3419.369,2594.37z"/>
		<linearGradient id="SVGID_10_" gradientUnits="userSpaceOnUse" x1="3801.8188" y1="2293.053" x2="3377.8628" y2="2293.053">
			<stop  offset="0" style="stop-color:#699FD2"/>
			<stop  offset="0.33" style="stop-color:#5F8EBB"/>
			<stop  offset="0.53" style="stop-color:#5C89B3"/>
			<stop  offset="0.61" style="stop-color:#5C89B3"/>
			<stop  offset="0.73" style="stop-color:#619CCC"/>
			<stop  offset="0.8" style="stop-color:#8BBEE5"/>
			<stop  offset="0.88" style="stop-color:#84B5E1"/>
			<stop  offset="0.92" style="stop-color:#81AACE"/>
			<stop  offset="0.95" style="stop-color:#619CCC"/>
			<stop  offset="1" style="stop-color:#98BFE4"/>
		</linearGradient>
		<path fill-rule="evenodd" clip-rule="evenodd" fill="url(#SVGID_10_)" d="M3825.373,2308.901
			c-35.77-0.884-71.506-2.327-107.113-4.657c-102.123-6.695-325.701-58.053-338.271,6.447v-3.133
			c12.57-64.484,236.148-13.143,338.271-6.451c35.607,2.331,71.344,3.775,107.113,4.662V2308.901z"/>
	</g>
	<g>
		<linearGradient id="SVGID_11_" gradientUnits="userSpaceOnUse" x1="3827.1548" y1="2385.4221" x2="2939.1831" y2="2385.4221">
			<stop  offset="0" style="stop-color:#D4D6D7"/>
			<stop  offset="0.35" style="stop-color:#B2B4B7"/>
			<stop  offset="0.55" style="stop-color:#AEB0B3"/>
			<stop  offset="0.63" style="stop-color:#AEB0B3"/>
			<stop  offset="0.74" style="stop-color:#CACCCE"/>
			<stop  offset="0.81" style="stop-color:#DDDEE0"/>
			<stop  offset="0.89" style="stop-color:#DDDEE0"/>
			<stop  offset="0.93" style="stop-color:#D4D6D7"/>
			<stop  offset="0.96" style="stop-color:#CACCCE"/>
			<stop  offset="1" style="stop-color:#E7E8E9"/>
		</linearGradient>
		<path fill-rule="evenodd" clip-rule="evenodd" fill="url(#SVGID_11_)" d="M3640.337,2368.283
			c-1.363,4.003-2.74,7.875-4.055,11.862c-0.424-0.066-0.836-0.131-1.246-0.197l-0.033-0.031c-3.689-0.623-7.35-1.184-10.992-1.774
			l0,0c-0.295-0.048-0.623-0.097-0.918-0.147c1.969,1.773,3.969,3.463,5.938,5.201l0.656,0.658c1.348,1.146,2.693,2.314,4.07,3.462
			l-0.164,0.444l0,0c-1.314,3.773-2.641,7.578-3.906,11.353c3.545-1.969,7.059-3.97,10.65-5.94
			c3.527,3.119,7.057,6.205,10.648,9.387c-1.379-4.396-2.756-8.746-4.055-13.076c3.529-1.988,7.059-3.973,10.652-6.023
			c-4.385-0.656-8.766-1.377-13.127-2.033C3643.076,2377.03,3641.699,2372.697,3640.337,2368.283z"/>
		<linearGradient id="SVGID_12_" gradientUnits="userSpaceOnUse" x1="3753.2017" y1="2374.1819" x2="2864.0229" y2="2374.1819">
			<stop  offset="0" style="stop-color:#D4D6D7"/>
			<stop  offset="0.35" style="stop-color:#B2B4B7"/>
			<stop  offset="0.55" style="stop-color:#AEB0B3"/>
			<stop  offset="0.63" style="stop-color:#AEB0B3"/>
			<stop  offset="0.74" style="stop-color:#CACCCE"/>
			<stop  offset="0.81" style="stop-color:#DDDEE0"/>
			<stop  offset="0.89" style="stop-color:#DDDEE0"/>
			<stop  offset="0.93" style="stop-color:#D4D6D7"/>
			<stop  offset="0.96" style="stop-color:#CACCCE"/>
			<stop  offset="1" style="stop-color:#E7E8E9"/>
		</linearGradient>
		<path fill-rule="evenodd" clip-rule="evenodd" fill="url(#SVGID_12_)" d="M3582.039,2371.843
			c-3.973-0.591-7.91-1.115-11.832-1.656c-1.361-4.283-2.738-8.615-4.115-12.945c-1.363,3.938-2.74,7.941-4.039,11.879
			c-3.545-0.494-7.055-0.902-10.549-1.33v-0.016l-2.641-0.328c3.51,2.984,7.055,5.973,10.629,8.957l-2.197,6.4v0.016
			c-0.623,1.789-1.246,3.626-1.836,5.385c1.508-0.838,3.033-1.759,4.559-2.662v0.02c1.938-1.15,3.855-2.299,5.809-3.416l0,0
			c0.102-0.047,0.168-0.098,0.266-0.162c3.527,3.053,7.119,6.037,10.715,9.139c-1.363-4.346-2.742-8.614-4.121-12.945
			c3.283-1.902,6.631-3.809,9.977-5.727l0,0l0.738-0.428l-1.361-0.195V2371.843z"/>
		<linearGradient id="SVGID_13_" gradientUnits="userSpaceOnUse" x1="3679.0513" y1="2366.6321" x2="2789.3699" y2="2366.6321">
			<stop  offset="0" style="stop-color:#D4D6D7"/>
			<stop  offset="0.35" style="stop-color:#B2B4B7"/>
			<stop  offset="0.55" style="stop-color:#AEB0B3"/>
			<stop  offset="0.63" style="stop-color:#AEB0B3"/>
			<stop  offset="0.74" style="stop-color:#CACCCE"/>
			<stop  offset="0.81" style="stop-color:#DDDEE0"/>
			<stop  offset="0.89" style="stop-color:#DDDEE0"/>
			<stop  offset="0.93" style="stop-color:#D4D6D7"/>
			<stop  offset="0.96" style="stop-color:#CACCCE"/>
			<stop  offset="1" style="stop-color:#E7E8E9"/>
		</linearGradient>
		<path fill-rule="evenodd" clip-rule="evenodd" fill="url(#SVGID_13_)" d="M3502,2363.148c-2-0.116-4.035-0.279-6.039-0.377
			c-1.377-4.218-2.738-8.42-4.033-12.637c-1.381,4.186-2.76,8.189-4.137,12.26c-4.432-0.164-8.797-0.297-13.193-0.266
			c3.545,2.545,7.121,5.137,10.73,7.797c-0.26,0.771-0.525,1.541-0.77,2.312l-0.016-0.016l-1.643,4.938
			c-0.557,1.677-1.131,3.381-1.703,5.089c3.541-2.428,7.119-4.922,10.73-7.287c3.51,2.724,7.037,5.447,10.629,8.17
			c-1.377-4.197-2.754-8.416-4.035-12.633c3.51-2.295,7.039-4.66,10.633-6.906c-2.428-0.213-4.824-0.377-7.221-0.51L3502,2363.148z"
			/>
		<linearGradient id="SVGID_14_" gradientUnits="userSpaceOnUse" x1="3604.3901" y1="2373.7874" x2="2716.8708" y2="2373.7874">
			<stop  offset="0" style="stop-color:#D4D6D7"/>
			<stop  offset="0.35" style="stop-color:#B2B4B7"/>
			<stop  offset="0.55" style="stop-color:#AEB0B3"/>
			<stop  offset="0.63" style="stop-color:#AEB0B3"/>
			<stop  offset="0.74" style="stop-color:#CACCCE"/>
			<stop  offset="0.81" style="stop-color:#DDDEE0"/>
			<stop  offset="0.89" style="stop-color:#DDDEE0"/>
			<stop  offset="0.93" style="stop-color:#D4D6D7"/>
			<stop  offset="0.96" style="stop-color:#CACCCE"/>
			<stop  offset="1" style="stop-color:#E7E8E9"/>
		</linearGradient>
		<path fill-rule="evenodd" clip-rule="evenodd" fill="url(#SVGID_14_)" d="M3432.462,2365.019
			c-3.592,0.588-7.188,1.246-10.73,1.902c-1.379-3.874-2.76-7.645-4.07-11.355c-1.361,4.645-2.723,9.287-4.102,13.982
			c-0.754,0.244-1.494,0.557-2.232,0.817l-0.031-0.032c-0.361,0.133-0.738,0.297-1.117,0.428c-1.361,0.508-2.738,1.051-4.119,1.639
			c-0.441,0.199-0.9,0.33-1.361,0.545l0.1,0.082c-1.463,0.688-2.922,1.295-4.365,2.182c3.529,0.441,7.055,1.557,10.633,2.838
			l-0.295,1.018l0,0c-1.264,4.332-2.545,8.646-3.742,12.945c3.512-3.824,7.057-7.661,10.633-11.436
			c3.545,1.525,7.057,3.412,10.664,5.25c-1.377-3.872-2.754-7.777-4.068-11.684c3.543-3.184,7.057-6.365,10.648-9.564l-2.475,0.408
			L3432.462,2365.019z"/>
		<linearGradient id="SVGID_15_" gradientUnits="userSpaceOnUse" x1="3901.3237" y1="2331.7092" x2="3013.7542" y2="2331.7092">
			<stop  offset="0" style="stop-color:#D4D6D7"/>
			<stop  offset="0.35" style="stop-color:#B2B4B7"/>
			<stop  offset="0.55" style="stop-color:#AEB0B3"/>
			<stop  offset="0.63" style="stop-color:#AEB0B3"/>
			<stop  offset="0.74" style="stop-color:#CACCCE"/>
			<stop  offset="0.81" style="stop-color:#DDDEE0"/>
			<stop  offset="0.89" style="stop-color:#DDDEE0"/>
			<stop  offset="0.93" style="stop-color:#D4D6D7"/>
			<stop  offset="0.96" style="stop-color:#CACCCE"/>
			<stop  offset="1" style="stop-color:#E7E8E9"/>
		</linearGradient>
		<path fill-rule="evenodd" clip-rule="evenodd" fill="url(#SVGID_15_)" d="M3726.347,2328.362c-2.574-0.198-5.15-0.394-7.711-0.557
			c-1.377-4.333-2.738-8.599-4.055-12.948c-0.291,0.887-0.588,1.773-0.883,2.643l-1.887,5.513h0.016
			c-0.459,1.331-0.902,2.642-1.346,3.972c-4.381-0.393-8.762-0.805-13.127-1.279c3.512,2.922,7.037,5.906,10.633,8.762
			c-0.953,2.82-1.871,5.645-2.805,8.467l-0.018-0.032l-1.213,3.739l3.051-1.887l-0.016-0.016c2.51-1.576,5.037-3.152,7.594-4.79
			c3.529,2.919,7.059,5.825,10.65,8.614c-1.379-4.283-2.74-8.485-4.051-12.816c3.525-2.314,7.053-4.625,10.648-6.925
			c-1.82-0.163-3.627-0.261-5.432-0.409L3726.347,2328.362z"/>
		<linearGradient id="SVGID_16_" gradientUnits="userSpaceOnUse" x1="3827.1548" y1="2322.2922" x2="2939.1831" y2="2322.2922">
			<stop  offset="0" style="stop-color:#D4D6D7"/>
			<stop  offset="0.35" style="stop-color:#B2B4B7"/>
			<stop  offset="0.55" style="stop-color:#AEB0B3"/>
			<stop  offset="0.63" style="stop-color:#AEB0B3"/>
			<stop  offset="0.74" style="stop-color:#CACCCE"/>
			<stop  offset="0.81" style="stop-color:#DDDEE0"/>
			<stop  offset="0.89" style="stop-color:#DDDEE0"/>
			<stop  offset="0.93" style="stop-color:#D4D6D7"/>
			<stop  offset="0.96" style="stop-color:#CACCCE"/>
			<stop  offset="1" style="stop-color:#E7E8E9"/>
		</linearGradient>
		<path fill-rule="evenodd" clip-rule="evenodd" fill="url(#SVGID_16_)" d="M3640.337,2305.228c-0.74,2.132-1.443,4.197-2.168,6.299
			l-0.016-0.031c-0.623,1.836-1.246,3.657-1.871,5.514l-2.164-0.331h0.016c-3.691-0.572-7.367-1.147-11.041-1.688
			c3.543,3.101,7.053,6.217,10.664,9.318c-1.377,3.922-2.758,7.861-4.07,11.799c3.545-1.969,7.059-4.037,10.65-6.006
			c3.527,3.117,7.057,6.154,10.648,9.256c-1.379-4.334-2.756-8.664-4.055-13.014l3.859-2.184l-0.035-0.031
			c2.266-1.279,4.529-2.525,6.828-3.938c-4.385-0.592-8.766-1.248-13.127-1.902
			C3643.076,2313.954,3641.699,2309.558,3640.337,2305.228z"/>
		<linearGradient id="SVGID_17_" gradientUnits="userSpaceOnUse" x1="3753.2017" y1="2311.2971" x2="2864.0229" y2="2311.2971">
			<stop  offset="0" style="stop-color:#D4D6D7"/>
			<stop  offset="0.35" style="stop-color:#B2B4B7"/>
			<stop  offset="0.55" style="stop-color:#AEB0B3"/>
			<stop  offset="0.63" style="stop-color:#AEB0B3"/>
			<stop  offset="0.74" style="stop-color:#CACCCE"/>
			<stop  offset="0.81" style="stop-color:#DDDEE0"/>
			<stop  offset="0.89" style="stop-color:#DDDEE0"/>
			<stop  offset="0.93" style="stop-color:#D4D6D7"/>
			<stop  offset="0.96" style="stop-color:#CACCCE"/>
			<stop  offset="1" style="stop-color:#E7E8E9"/>
		</linearGradient>
		<path fill-rule="evenodd" clip-rule="evenodd" fill="url(#SVGID_17_)" d="M3566.091,2294.365
			c-1.363,3.938-2.74,7.926-4.039,11.863c-0.721-0.098-1.408-0.18-2.098-0.265c-3.02-0.394-6.037-0.771-9.025-1.132h0.016
			c-0.689-0.062-1.393-0.164-2.082-0.262c3.51,2.988,7.055,6.039,10.629,8.961c-1.361,3.984-2.738,7.924-4.033,11.846
			c3.512-1.971,7.053-4.135,10.633-6.205c3.527,3.055,7.119,6.039,10.715,9.059c-1.363-4.331-2.742-8.596-4.121-12.93
			c3.529-1.984,7.121-4.166,10.715-6.15c-4.447-0.643-8.812-1.25-13.193-1.855
			C3568.845,2303.029,3567.468,2298.695,3566.091,2294.365z"/>
		<linearGradient id="SVGID_18_" gradientUnits="userSpaceOnUse" x1="3679.0513" y1="2303.717" x2="2789.3699" y2="2303.717">
			<stop  offset="0" style="stop-color:#D4D6D7"/>
			<stop  offset="0.35" style="stop-color:#B2B4B7"/>
			<stop  offset="0.55" style="stop-color:#AEB0B3"/>
			<stop  offset="0.63" style="stop-color:#AEB0B3"/>
			<stop  offset="0.74" style="stop-color:#CACCCE"/>
			<stop  offset="0.81" style="stop-color:#DDDEE0"/>
			<stop  offset="0.89" style="stop-color:#DDDEE0"/>
			<stop  offset="0.93" style="stop-color:#D4D6D7"/>
			<stop  offset="0.96" style="stop-color:#CACCCE"/>
			<stop  offset="1" style="stop-color:#E7E8E9"/>
		</linearGradient>
		<path fill-rule="evenodd" clip-rule="evenodd" fill="url(#SVGID_18_)" d="M3491.927,2287.244
			c-1.381,4.132-2.76,8.136-4.137,12.206c-1.51-0.082-3.02-0.082-4.529-0.133l-0.064-0.062c-2.889-0.102-5.744-0.166-8.6-0.198
			c3.545,2.544,7.121,5.202,10.73,7.875c-1.377,4.104-2.754,8.173-4.131,12.239c3.541-2.295,7.119-4.723,10.73-7.084
			c3.51,2.723,7.037,5.446,10.629,8.104c-1.377-4.217-2.754-8.435-4.035-12.633c3.51-2.299,7.039-4.661,10.633-6.91
			c-4.43-0.342-8.828-0.606-13.193-0.836C3494.583,2295.611,3493.222,2291.411,3491.927,2287.244z"/>
		<linearGradient id="SVGID_19_" gradientUnits="userSpaceOnUse" x1="3604.3901" y1="2310.3381" x2="2716.8708" y2="2310.3381">
			<stop  offset="0" style="stop-color:#D4D6D7"/>
			<stop  offset="0.35" style="stop-color:#B2B4B7"/>
			<stop  offset="0.55" style="stop-color:#AEB0B3"/>
			<stop  offset="0.63" style="stop-color:#AEB0B3"/>
			<stop  offset="0.74" style="stop-color:#CACCCE"/>
			<stop  offset="0.81" style="stop-color:#DDDEE0"/>
			<stop  offset="0.89" style="stop-color:#DDDEE0"/>
			<stop  offset="0.93" style="stop-color:#D4D6D7"/>
			<stop  offset="0.96" style="stop-color:#CACCCE"/>
			<stop  offset="1" style="stop-color:#E7E8E9"/>
		</linearGradient>
		<path fill-rule="evenodd" clip-rule="evenodd" fill="url(#SVGID_19_)" d="M3417.662,2292.182
			c-0.984,3.331-1.969,6.646-2.953,9.991l0,0l-1.148,3.906l-3.1,1.051l0.047,0.031c-3.379,1.166-6.727,2.432-10.074,4.463
			c3.529,0.428,7.055,1.641,10.633,2.956c-1.361,4.708-2.742,9.287-4.037,13.913c3.512-3.707,7.057-7.531,10.633-11.291
			c3.545,1.576,7.057,3.479,10.664,5.366c-1.377-3.954-2.754-7.859-4.068-11.731c3.543-3.217,7.057-6.399,10.648-9.516
			c-4.443,0.672-8.809,1.479-13.174,2.232C3420.353,2299.648,3418.972,2295.874,3417.662,2292.182z"/>
		<linearGradient id="SVGID_20_" gradientUnits="userSpaceOnUse" x1="3901.3237" y1="2522.7415" x2="3013.7542" y2="2522.7415">
			<stop  offset="0" style="stop-color:#D4D6D7"/>
			<stop  offset="0.35" style="stop-color:#B2B4B7"/>
			<stop  offset="0.55" style="stop-color:#AEB0B3"/>
			<stop  offset="0.63" style="stop-color:#AEB0B3"/>
			<stop  offset="0.74" style="stop-color:#CACCCE"/>
			<stop  offset="0.81" style="stop-color:#DDDEE0"/>
			<stop  offset="0.89" style="stop-color:#DDDEE0"/>
			<stop  offset="0.93" style="stop-color:#D4D6D7"/>
			<stop  offset="0.96" style="stop-color:#CACCCE"/>
			<stop  offset="1" style="stop-color:#E7E8E9"/>
		</linearGradient>
		<path fill-rule="evenodd" clip-rule="evenodd" fill="url(#SVGID_20_)" d="M3729.5,2519.747c-3.627-0.311-7.252-0.607-10.863-0.938
			c-1.377-4.346-2.738-8.68-4.055-13.01c-1.377,4.068-2.738,8.104-4.1,12.107c-4.381-0.459-8.762-0.984-13.127-1.51
			c3.512,3.039,7.037,6.089,10.633,8.992l-2.168,6.399l0.035,0.034c-0.641,1.902-1.295,3.79-1.902,5.693
			c3.035-1.919,6.102-3.824,9.205-5.76l1.133-0.688l0,0c0.098-0.066,0.195-0.133,0.291-0.199c3.529,2.988,7.059,5.957,10.65,8.812
			c-1.379-4.35-2.74-8.547-4.051-12.881c3.525-2.297,7.053-4.545,10.648-6.859L3729.5,2519.747L3729.5,2519.747z"/>
		<linearGradient id="SVGID_21_" gradientUnits="userSpaceOnUse" x1="3827.1548" y1="2511.6897" x2="2939.1831" y2="2511.6897">
			<stop  offset="0" style="stop-color:#D4D6D7"/>
			<stop  offset="0.35" style="stop-color:#B2B4B7"/>
			<stop  offset="0.55" style="stop-color:#AEB0B3"/>
			<stop  offset="0.63" style="stop-color:#AEB0B3"/>
			<stop  offset="0.74" style="stop-color:#CACCCE"/>
			<stop  offset="0.81" style="stop-color:#DDDEE0"/>
			<stop  offset="0.89" style="stop-color:#DDDEE0"/>
			<stop  offset="0.93" style="stop-color:#D4D6D7"/>
			<stop  offset="0.96" style="stop-color:#CACCCE"/>
			<stop  offset="1" style="stop-color:#E7E8E9"/>
		</linearGradient>
		<path fill-rule="evenodd" clip-rule="evenodd" fill="url(#SVGID_21_)" d="M3657.517,2509.901
			c-1.707-0.276-3.416-0.589-5.135-0.884c-2.643-0.459-5.303-0.922-7.926-1.381c-1.381-4.33-2.758-8.742-4.119-13.143l-1.92,5.498
			l0.031,0.033c-0.719,2.066-1.475,4.133-2.166,6.269c-4.428-0.79-8.809-1.575-13.189-2.283c3.543,3.167,7.053,6.35,10.664,9.435
			c-0.723,2.102-1.443,4.168-2.166,6.252l0,0l-1.904,5.498c3.545-1.902,7.059-3.906,10.65-5.809c3.527,3.101,7.057,6.268,10.648,9.5
			c-1.379-4.396-2.756-8.812-4.055-13.143c1.545-0.836,3.121-1.707,4.662-2.544l0.016,0.017l5.512-3.035
			c0.148-0.082,0.297-0.164,0.463-0.246c-0.02,0-0.035-0.016-0.035-0.016L3657.517,2509.901z"/>
		<linearGradient id="SVGID_22_" gradientUnits="userSpaceOnUse" x1="3753.2017" y1="2499.9084" x2="2864.0229" y2="2499.9084">
			<stop  offset="0" style="stop-color:#D4D6D7"/>
			<stop  offset="0.35" style="stop-color:#B2B4B7"/>
			<stop  offset="0.55" style="stop-color:#AEB0B3"/>
			<stop  offset="0.63" style="stop-color:#AEB0B3"/>
			<stop  offset="0.74" style="stop-color:#CACCCE"/>
			<stop  offset="0.81" style="stop-color:#DDDEE0"/>
			<stop  offset="0.89" style="stop-color:#DDDEE0"/>
			<stop  offset="0.93" style="stop-color:#D4D6D7"/>
			<stop  offset="0.96" style="stop-color:#CACCCE"/>
			<stop  offset="1" style="stop-color:#E7E8E9"/>
		</linearGradient>
		<path fill-rule="evenodd" clip-rule="evenodd" fill="url(#SVGID_22_)" d="M3572.457,2496.185l-2.25-0.295
			c-1.361-4.283-2.738-8.613-4.115-12.897c-0.592,1.708-1.148,3.38-1.74,5.069v-0.016c-0.789,2.264-1.559,4.494-2.299,6.758
			c-4.447-0.588-8.828-1.113-13.189-1.638c3.51,2.969,7.055,6.003,10.629,8.925c-1.361,4.004-2.738,7.941-4.033,11.879
			c3.512-2.066,7.053-4.167,10.633-6.268c3.527,3.035,7.119,6.072,10.715,9.123c-1.086-3.479-2.184-6.891-3.283-10.338l0,0
			l-0.838-2.625c3.529-1.969,7.121-4.02,10.715-6.004c-3.676-0.592-7.303-1.117-10.91-1.643L3572.457,2496.185z"/>
		<linearGradient id="SVGID_23_" gradientUnits="userSpaceOnUse" x1="3679.0513" y1="2492.4934" x2="2789.3699" y2="2492.4934">
			<stop  offset="0" style="stop-color:#D4D6D7"/>
			<stop  offset="0.35" style="stop-color:#B2B4B7"/>
			<stop  offset="0.55" style="stop-color:#AEB0B3"/>
			<stop  offset="0.63" style="stop-color:#AEB0B3"/>
			<stop  offset="0.74" style="stop-color:#CACCCE"/>
			<stop  offset="0.81" style="stop-color:#DDDEE0"/>
			<stop  offset="0.89" style="stop-color:#DDDEE0"/>
			<stop  offset="0.93" style="stop-color:#D4D6D7"/>
			<stop  offset="0.96" style="stop-color:#CACCCE"/>
			<stop  offset="1" style="stop-color:#E7E8E9"/>
		</linearGradient>
		<path fill-rule="evenodd" clip-rule="evenodd" fill="url(#SVGID_23_)" d="M3491.927,2476.036
			c-1.381,4.166-2.76,8.236-4.137,12.305l-3.84-0.1l0.031,0.035c-3.117-0.051-6.248-0.117-9.385-0.133
			c3.545,2.594,7.121,5.136,10.73,7.746c-1.377,4.183-2.754,8.236-4.131,12.372c3.541-2.493,7.119-4.987,10.73-7.419
			c3.51,2.66,7.037,5.45,10.629,8.107c-1.377-4.135-2.754-8.354-4.035-12.57c3.51-2.295,7.039-4.723,10.633-6.957
			c-4.43-0.342-8.828-0.622-13.193-0.836C3494.583,2484.37,3493.222,2480.171,3491.927,2476.036z"/>
		<linearGradient id="SVGID_24_" gradientUnits="userSpaceOnUse" x1="3604.3901" y1="2500.6897" x2="2716.8708" y2="2500.6897">
			<stop  offset="0" style="stop-color:#D4D6D7"/>
			<stop  offset="0.35" style="stop-color:#B2B4B7"/>
			<stop  offset="0.55" style="stop-color:#AEB0B3"/>
			<stop  offset="0.63" style="stop-color:#AEB0B3"/>
			<stop  offset="0.74" style="stop-color:#CACCCE"/>
			<stop  offset="0.81" style="stop-color:#DDDEE0"/>
			<stop  offset="0.89" style="stop-color:#DDDEE0"/>
			<stop  offset="0.93" style="stop-color:#D4D6D7"/>
			<stop  offset="0.96" style="stop-color:#CACCCE"/>
			<stop  offset="1" style="stop-color:#E7E8E9"/>
		</linearGradient>
		<path fill-rule="evenodd" clip-rule="evenodd" fill="url(#SVGID_24_)" d="M3426.259,2492.739l-4.527,0.903
			c-1.379-3.824-2.76-7.533-4.07-11.24c-0.133,0.459-0.262,0.902-0.393,1.346l0,0l-2.066,7.136l0.016,0.019
			c-0.525,1.837-1.066,3.692-1.592,5.545c-4.447,1.576-8.828,3.217-13.193,5.973c3.529,0.33,7.055,1.381,10.633,2.594
			c-0.625,2.164-1.248,4.299-1.871,6.432l0,0l-2.066,7.154l0,0c-0.033,0.129-0.064,0.262-0.1,0.378
			c3.512-3.824,7.057-7.729,10.633-11.618c3.545,1.46,7.057,3.297,10.664,5.117c-1.377-3.887-2.754-7.777-4.068-11.664
			c3.543-3.265,7.057-6.467,10.648-9.715c-2.902,0.525-5.76,1.101-8.631,1.674L3426.259,2492.739z"/>
		<linearGradient id="SVGID_25_" gradientUnits="userSpaceOnUse" x1="3901.3237" y1="2459.0608" x2="3013.7542" y2="2459.0608">
			<stop  offset="0" style="stop-color:#D4D6D7"/>
			<stop  offset="0.35" style="stop-color:#B2B4B7"/>
			<stop  offset="0.55" style="stop-color:#AEB0B3"/>
			<stop  offset="0.63" style="stop-color:#AEB0B3"/>
			<stop  offset="0.74" style="stop-color:#CACCCE"/>
			<stop  offset="0.81" style="stop-color:#DDDEE0"/>
			<stop  offset="0.89" style="stop-color:#DDDEE0"/>
			<stop  offset="0.93" style="stop-color:#D4D6D7"/>
			<stop  offset="0.96" style="stop-color:#CACCCE"/>
			<stop  offset="1" style="stop-color:#E7E8E9"/>
		</linearGradient>
		<path fill-rule="evenodd" clip-rule="evenodd" fill="url(#SVGID_25_)" d="M3714.582,2442.152c-1.377,4.055-2.738,8.123-4.1,12.127
			c-4.381-0.478-8.762-0.938-13.127-1.462c2.264,1.969,4.594,3.874,6.893,5.793l0.328,0.327l3.412,2.824l-0.164,0.459l0,0
			c-1.311,3.855-2.625,7.742-3.871,11.648c3.148-2,6.33-3.969,9.549-5.973l0,0l1.08-0.672c3.529,2.906,7.059,5.891,10.65,8.746
			c-1.379-4.268-2.74-8.533-4.051-12.883c3.525-2.244,7.053-4.543,10.648-6.84c-4.447-0.393-8.812-0.754-13.193-1.084
			C3717.259,2450.831,3715.898,2446.501,3714.582,2442.152z"/>
		<linearGradient id="SVGID_26_" gradientUnits="userSpaceOnUse" x1="3827.1548" y1="2448.5598" x2="2939.1831" y2="2448.5598">
			<stop  offset="0" style="stop-color:#D4D6D7"/>
			<stop  offset="0.35" style="stop-color:#B2B4B7"/>
			<stop  offset="0.55" style="stop-color:#AEB0B3"/>
			<stop  offset="0.63" style="stop-color:#AEB0B3"/>
			<stop  offset="0.74" style="stop-color:#CACCCE"/>
			<stop  offset="0.81" style="stop-color:#DDDEE0"/>
			<stop  offset="0.89" style="stop-color:#DDDEE0"/>
			<stop  offset="0.93" style="stop-color:#D4D6D7"/>
			<stop  offset="0.96" style="stop-color:#CACCCE"/>
			<stop  offset="1" style="stop-color:#E7E8E9"/>
		</linearGradient>
		<path fill-rule="evenodd" clip-rule="evenodd" fill="url(#SVGID_26_)" d="M3640.337,2431.421
			c-1.363,3.988-2.74,7.793-4.055,11.797c-3.855-0.688-7.678-1.311-11.484-1.934h-0.018l-1.688-0.28
			c3.543,3.167,7.053,6.284,10.664,9.384l-2.361,6.762l0.031,0.016c-0.592,1.674-1.184,3.348-1.74,5.02
			c3.545-1.969,7.059-3.969,10.65-5.938c3.527,3.168,7.057,6.268,10.648,9.451c-1.379-4.35-2.756-8.746-4.055-13.092
			c3.334-1.807,6.664-3.678,10.061-5.615l0,0l0.592-0.326c-4.385-0.658-8.766-1.377-13.127-2.102
			C3643.076,2440.167,3641.699,2435.833,3640.337,2431.421z"/>
		<linearGradient id="SVGID_27_" gradientUnits="userSpaceOnUse" x1="3753.2017" y1="2437.0647" x2="2864.0229" y2="2437.0647">
			<stop  offset="0" style="stop-color:#D4D6D7"/>
			<stop  offset="0.35" style="stop-color:#B2B4B7"/>
			<stop  offset="0.55" style="stop-color:#AEB0B3"/>
			<stop  offset="0.63" style="stop-color:#AEB0B3"/>
			<stop  offset="0.74" style="stop-color:#CACCCE"/>
			<stop  offset="0.81" style="stop-color:#DDDEE0"/>
			<stop  offset="0.89" style="stop-color:#DDDEE0"/>
			<stop  offset="0.93" style="stop-color:#D4D6D7"/>
			<stop  offset="0.96" style="stop-color:#CACCCE"/>
			<stop  offset="1" style="stop-color:#E7E8E9"/>
		</linearGradient>
		<path fill-rule="evenodd" clip-rule="evenodd" fill="url(#SVGID_27_)" d="M3582.63,2434.786l-6.564-0.938
			c-1.938-0.279-3.906-0.557-5.859-0.836c-0.209-0.723-0.439-1.428-0.672-2.133l0,0l-3.443-10.765l-1.871,5.446h0.016
			c-0.74,2.137-1.494,4.268-2.184,6.436c-4.447-0.592-8.828-1.199-13.189-1.658c3.51,2.969,7.119,5.957,10.695,8.875
			c-1.361,4.004-2.738,7.941-4.1,11.863c1.625-0.902,3.248-1.868,4.889-2.836l0,0c1.904-1.148,3.807-2.266,5.744-3.365
			c3.527,2.971,7.119,6.021,10.715,9.139c-1.363-4.346-2.742-8.695-4.121-13.026c1.443-0.821,2.953-1.673,4.432-2.494l0,0
			l4.494-2.56c0.592-0.361,1.184-0.689,1.789-1.02c-0.26-0.047-0.51-0.082-0.77-0.113V2434.786z"/>
		<linearGradient id="SVGID_28_" gradientUnits="userSpaceOnUse" x1="3679.0513" y1="2429.5422" x2="2789.3699" y2="2429.5422">
			<stop  offset="0" style="stop-color:#D4D6D7"/>
			<stop  offset="0.35" style="stop-color:#B2B4B7"/>
			<stop  offset="0.55" style="stop-color:#AEB0B3"/>
			<stop  offset="0.63" style="stop-color:#AEB0B3"/>
			<stop  offset="0.74" style="stop-color:#CACCCE"/>
			<stop  offset="0.81" style="stop-color:#DDDEE0"/>
			<stop  offset="0.89" style="stop-color:#DDDEE0"/>
			<stop  offset="0.93" style="stop-color:#D4D6D7"/>
			<stop  offset="0.96" style="stop-color:#CACCCE"/>
			<stop  offset="1" style="stop-color:#E7E8E9"/>
		</linearGradient>
		<path fill-rule="evenodd" clip-rule="evenodd" fill="url(#SVGID_28_)" d="M3502.494,2426.021c-2.201-0.162-4.365-0.26-6.533-0.377
			c-1.377-4.214-2.738-8.416-4.033-12.566c-0.199,0.606-0.396,1.164-0.592,1.754l0,0l-0.102,0.33
			c-1.146,3.429-2.295,6.81-3.443,10.238c-4.432-0.164-8.797-0.23-13.193-0.262c3.545,2.541,7.121,5.136,10.73,7.742
			c-1.377,4.187-2.754,8.237-4.131,12.373c3.541-2.494,7.119-4.922,10.73-7.35c3.51,2.723,7.037,5.447,10.629,8.104
			c-1.377-4.135-2.754-8.35-4.035-12.566c3.51-2.299,7.039-4.66,10.633-6.91c-2.217-0.194-4.396-0.295-6.598-0.443
			L3502.494,2426.021z"/>
		<linearGradient id="SVGID_29_" gradientUnits="userSpaceOnUse" x1="3604.3901" y1="2437.2795" x2="2716.8708" y2="2437.2795">
			<stop  offset="0" style="stop-color:#D4D6D7"/>
			<stop  offset="0.35" style="stop-color:#B2B4B7"/>
			<stop  offset="0.55" style="stop-color:#AEB0B3"/>
			<stop  offset="0.63" style="stop-color:#AEB0B3"/>
			<stop  offset="0.74" style="stop-color:#CACCCE"/>
			<stop  offset="0.81" style="stop-color:#DDDEE0"/>
			<stop  offset="0.89" style="stop-color:#DDDEE0"/>
			<stop  offset="0.93" style="stop-color:#D4D6D7"/>
			<stop  offset="0.96" style="stop-color:#CACCCE"/>
			<stop  offset="1" style="stop-color:#E7E8E9"/>
		</linearGradient>
		<path fill-rule="evenodd" clip-rule="evenodd" fill="url(#SVGID_29_)" d="M3433.216,2428.122
			c-2.607,0.459-5.186,0.953-7.762,1.443l0.035,0.051c-1.248,0.245-2.51,0.459-3.758,0.705l-2.363-6.561l0,0
			c-0.064-0.148-0.115-0.314-0.162-0.463l0.016,0.02l-1.561-4.284l-0.623,2.101l0,0c-1.148,3.938-2.299,7.875-3.412,11.848
			c-2.707,0.918-5.385,1.984-8.072,3.214l-0.066-0.081c-1.691,0.77-3.381,1.656-5.055,2.738c1.74,0.148,3.479,0.51,5.219,0.969
			c0.754,0.198,1.541,0.479,2.295,0.707c1.051,0.328,2.07,0.623,3.119,0.967c-0.264,0.921-0.525,1.824-0.789,2.742l-1.342,4.561
			l0.031,0.033c-0.658,2.23-1.312,4.444-1.938,6.693c3.512-3.84,7.057-7.711,10.633-11.552c3.545,1.509,7.057,3.349,10.664,5.187
			c-1.377-3.906-2.754-7.777-4.068-11.684c3.543-3.184,7.057-6.432,10.648-9.648c-0.557,0.1-1.098,0.229-1.654,0.33
			L3433.216,2428.122z"/>
		<linearGradient id="SVGID_30_" gradientUnits="userSpaceOnUse" x1="3901.3237" y1="2586.4475" x2="3013.7542" y2="2586.4475">
			<stop  offset="0" style="stop-color:#D4D6D7"/>
			<stop  offset="0.35" style="stop-color:#B2B4B7"/>
			<stop  offset="0.55" style="stop-color:#AEB0B3"/>
			<stop  offset="0.63" style="stop-color:#AEB0B3"/>
			<stop  offset="0.74" style="stop-color:#CACCCE"/>
			<stop  offset="0.81" style="stop-color:#DDDEE0"/>
			<stop  offset="0.89" style="stop-color:#DDDEE0"/>
			<stop  offset="0.93" style="stop-color:#D4D6D7"/>
			<stop  offset="0.96" style="stop-color:#CACCCE"/>
			<stop  offset="1" style="stop-color:#E7E8E9"/>
		</linearGradient>
		<path fill-rule="evenodd" clip-rule="evenodd" fill="url(#SVGID_30_)" d="M3730.958,2583.573L3730.958,2583.573
			c-1.312-0.113-2.607-0.229-3.922-0.326c-2.805-0.23-5.611-0.479-8.4-0.724c-1.377-4.347-2.738-8.746-4.055-13.026
			c-1.377,4.004-2.738,8.07-4.1,12.076c-4.381-0.478-8.762-1.019-13.127-1.676c3.512,3.119,7.037,6.17,10.633,9.158
			c-0.623,1.805-1.215,3.642-1.838,5.447l-0.016-0.035c-0.738,2.199-1.477,4.4-2.182,6.629c3.51-2.166,7.055-4.412,10.629-6.594
			c3.529,2.984,7.059,5.973,10.65,8.894c-1.379-4.349-2.74-8.633-4.051-12.964c3.525-2.232,7.053-4.463,10.648-6.777
			C3731.55,2583.64,3731.253,2583.605,3730.958,2583.573z"/>
		<linearGradient id="SVGID_31_" gradientUnits="userSpaceOnUse" x1="3827.1548" y1="2574.8459" x2="2939.1831" y2="2574.8459">
			<stop  offset="0" style="stop-color:#D4D6D7"/>
			<stop  offset="0.35" style="stop-color:#B2B4B7"/>
			<stop  offset="0.55" style="stop-color:#AEB0B3"/>
			<stop  offset="0.63" style="stop-color:#AEB0B3"/>
			<stop  offset="0.74" style="stop-color:#CACCCE"/>
			<stop  offset="0.81" style="stop-color:#DDDEE0"/>
			<stop  offset="0.89" style="stop-color:#DDDEE0"/>
			<stop  offset="0.93" style="stop-color:#D4D6D7"/>
			<stop  offset="0.96" style="stop-color:#CACCCE"/>
			<stop  offset="1" style="stop-color:#E7E8E9"/>
		</linearGradient>
		<path fill-rule="evenodd" clip-rule="evenodd" fill="url(#SVGID_31_)" d="M3644.457,2570.777
			c-1.381-4.365-2.758-8.746-4.119-13.16c-0.572,1.672-1.133,3.314-1.705,4.955h-0.02c-0.785,2.266-1.576,4.514-2.33,6.793
			c-4.428-0.852-8.809-1.574-13.189-2.279c3.543,3.102,7.053,6.334,10.664,9.436c-1.377,3.938-2.758,7.809-4.07,11.746
			c3.545-1.902,7.059-3.906,10.65-5.809c3.527,3.15,7.057,6.399,10.648,9.617c-1.379-4.467-2.756-8.797-4.055-13.127l5.203-2.84l0,0
			c1.805-1,3.609-1.984,5.449-2.984C3653.199,2572.4,3648.818,2571.548,3644.457,2570.777z"/>
		<linearGradient id="SVGID_32_" gradientUnits="userSpaceOnUse" x1="3753.2017" y1="2562.761" x2="2864.0229" y2="2562.761">
			<stop  offset="0" style="stop-color:#D4D6D7"/>
			<stop  offset="0.35" style="stop-color:#B2B4B7"/>
			<stop  offset="0.55" style="stop-color:#AEB0B3"/>
			<stop  offset="0.63" style="stop-color:#AEB0B3"/>
			<stop  offset="0.74" style="stop-color:#CACCCE"/>
			<stop  offset="0.81" style="stop-color:#DDDEE0"/>
			<stop  offset="0.89" style="stop-color:#DDDEE0"/>
			<stop  offset="0.93" style="stop-color:#D4D6D7"/>
			<stop  offset="0.96" style="stop-color:#CACCCE"/>
			<stop  offset="1" style="stop-color:#E7E8E9"/>
		</linearGradient>
		<path fill-rule="evenodd" clip-rule="evenodd" fill="url(#SVGID_32_)" d="M3583.4,2560.736c-4.447-0.723-8.812-1.381-13.193-1.973
			c-1.361-4.264-2.738-8.594-4.115-12.943c-1.348,3.855-2.693,7.762-3.957,11.633l-0.016-0.016l-0.066,0.244
			c-3.412-0.459-6.793-0.887-10.154-1.279l0.016,0.016c-1.016-0.113-2.035-0.261-3.051-0.377c3.51,2.972,7.119,6.006,10.695,8.928
			c-1.361,4.004-2.738,7.941-4.1,11.879c3.492-2.035,7.021-4.201,10.598-6.252l0,0l0.035-0.016c3.527,3.035,7.119,6.07,10.715,9.123
			l-3.498-11.061l0,0c-0.211-0.654-0.424-1.295-0.623-1.969C3576.214,2564.771,3579.806,2562.72,3583.4,2560.736z"/>
		<linearGradient id="SVGID_33_" gradientUnits="userSpaceOnUse" x1="3679.0513" y1="2555.425" x2="2789.3699" y2="2555.425">
			<stop  offset="0" style="stop-color:#D4D6D7"/>
			<stop  offset="0.35" style="stop-color:#B2B4B7"/>
			<stop  offset="0.55" style="stop-color:#AEB0B3"/>
			<stop  offset="0.63" style="stop-color:#AEB0B3"/>
			<stop  offset="0.74" style="stop-color:#CACCCE"/>
			<stop  offset="0.81" style="stop-color:#DDDEE0"/>
			<stop  offset="0.89" style="stop-color:#DDDEE0"/>
			<stop  offset="0.93" style="stop-color:#D4D6D7"/>
			<stop  offset="0.96" style="stop-color:#CACCCE"/>
			<stop  offset="1" style="stop-color:#E7E8E9"/>
		</linearGradient>
		<path fill-rule="evenodd" clip-rule="evenodd" fill="url(#SVGID_33_)" d="M3495.96,2551.546
			c-1.377-4.217-2.738-8.436-4.033-12.586c-1.381,4.186-2.76,8.252-4.137,12.322c-1.066-0.016-2.117,0-3.182-0.016l-0.035-0.032
			c-3.102-0.05-6.168-0.05-9.221-0.016h0.016c-0.246,0.016-0.506,0-0.771,0c3.545,2.541,7.121,5.069,10.73,7.677l-0.59,1.738l0,0
			c-1.18,3.545-2.363,7.09-3.541,10.634c3.541-2.428,7.119-4.987,10.73-7.481c3.51,2.723,7.037,5.513,10.629,8.104
			c-1.377-4.132-2.754-8.35-4.035-12.566c3.51-2.361,7.039-4.727,10.633-6.957
			C3504.724,2552.036,3500.326,2551.741,3495.96,2551.546z"/>
		<linearGradient id="SVGID_34_" gradientUnits="userSpaceOnUse" x1="3604.3901" y1="2564.1799" x2="2716.8708" y2="2564.1799">
			<stop  offset="0" style="stop-color:#D4D6D7"/>
			<stop  offset="0.35" style="stop-color:#B2B4B7"/>
			<stop  offset="0.55" style="stop-color:#AEB0B3"/>
			<stop  offset="0.63" style="stop-color:#AEB0B3"/>
			<stop  offset="0.74" style="stop-color:#CACCCE"/>
			<stop  offset="0.81" style="stop-color:#DDDEE0"/>
			<stop  offset="0.89" style="stop-color:#DDDEE0"/>
			<stop  offset="0.93" style="stop-color:#D4D6D7"/>
			<stop  offset="0.96" style="stop-color:#CACCCE"/>
			<stop  offset="1" style="stop-color:#E7E8E9"/>
		</linearGradient>
		<path fill-rule="evenodd" clip-rule="evenodd" fill="url(#SVGID_34_)" d="M3421.732,2557.025c-1.379-3.806-2.76-7.514-4.07-11.155
			c-0.754,2.525-1.475,5.085-2.199,7.646l-0.031-0.016l-1.805,6.396l-0.754,0.264l0.031,0.016c-4.203,1.51-8.334,3.152-12.471,5.906
			c3.529,0.168,7.055,1.184,10.633,2.381c-1.248,4.266-2.477,8.549-3.676,12.766v-0.016l-0.361,1.279l0.789-0.855l0,0
			c3.248-3.559,6.529-7.15,9.844-10.762c3.545,1.395,7.057,3.152,10.664,4.872c-1.377-3.821-2.754-7.728-4.068-11.614
			c3.543-3.268,7.057-6.516,10.648-9.699C3430.462,2555.172,3426.097,2556.107,3421.732,2557.025z"/>
		<linearGradient id="SVGID_35_" gradientUnits="userSpaceOnUse" x1="3975.9731" y1="2462.4065" x2="3086.2917" y2="2462.4065">
			<stop  offset="0" style="stop-color:#D4D6D7"/>
			<stop  offset="0.35" style="stop-color:#B2B4B7"/>
			<stop  offset="0.55" style="stop-color:#AEB0B3"/>
			<stop  offset="0.63" style="stop-color:#AEB0B3"/>
			<stop  offset="0.74" style="stop-color:#CACCCE"/>
			<stop  offset="0.81" style="stop-color:#DDDEE0"/>
			<stop  offset="0.89" style="stop-color:#DDDEE0"/>
			<stop  offset="0.93" style="stop-color:#D4D6D7"/>
			<stop  offset="0.96" style="stop-color:#CACCCE"/>
			<stop  offset="1" style="stop-color:#E7E8E9"/>
		</linearGradient>
		<path fill-rule="evenodd" clip-rule="evenodd" fill="url(#SVGID_35_)" d="M3788.832,2445.942
			c-1.361,4.202-2.742,8.368-4.119,12.505c-4.432-0.016-8.812-0.164-13.193-0.265c3.543,2.692,7.123,5.35,10.715,8.007
			c-1.361,4.12-2.74,8.303-4.117,12.504c3.381-2.443,6.793-4.891,10.221-7.318l0,0l0.494-0.361
			c3.525,2.596,7.039,5.252,10.648,7.859c-1.381-4.15-2.758-8.35-4.053-12.566c3.527-2.561,7.037-5.105,10.648-7.664
			c-4.447-0.032-8.828-0.049-13.193-0.064C3791.505,2454.376,3790.126,2450.144,3788.832,2445.942z"/>
		<linearGradient id="SVGID_36_" gradientUnits="userSpaceOnUse" x1="3938.7993" y1="2493.4114" x2="3049.52" y2="2493.4114">
			<stop  offset="0" style="stop-color:#D4D6D7"/>
			<stop  offset="0.35" style="stop-color:#B2B4B7"/>
			<stop  offset="0.55" style="stop-color:#AEB0B3"/>
			<stop  offset="0.63" style="stop-color:#AEB0B3"/>
			<stop  offset="0.74" style="stop-color:#CACCCE"/>
			<stop  offset="0.81" style="stop-color:#DDDEE0"/>
			<stop  offset="0.89" style="stop-color:#DDDEE0"/>
			<stop  offset="0.93" style="stop-color:#D4D6D7"/>
			<stop  offset="0.96" style="stop-color:#CACCCE"/>
			<stop  offset="1" style="stop-color:#E7E8E9"/>
		</linearGradient>
		<path fill-rule="evenodd" clip-rule="evenodd" fill="url(#SVGID_36_)" d="M3751.667,2476.724
			c-1.365,4.137-2.727,8.269-4.037,12.322c-4.447-0.147-8.828-0.428-13.193-0.836c3.512,2.922,7.057,5.777,10.633,8.5l-0.705,2.148
			l0,0c-1.131,3.396-2.248,6.777-3.33,10.174c3.51-2.447,7.055-4.875,10.633-7.236c3.541,2.789,7.121,5.579,10.711,8.303
			l-1.131-3.545h-0.016c-0.984-3.068-1.984-6.119-2.969-9.205c3.543-2.361,7.119-4.922,10.715-7.365
			c-4.447-0.133-8.812-0.295-13.193-0.494C3754.423,2485.288,3753.044,2480.99,3751.667,2476.724z"/>
		<linearGradient id="SVGID_37_" gradientUnits="userSpaceOnUse" x1="3864.5298" y1="2486.3069" x2="2975.3511" y2="2486.3069">
			<stop  offset="0" style="stop-color:#D4D6D7"/>
			<stop  offset="0.35" style="stop-color:#B2B4B7"/>
			<stop  offset="0.55" style="stop-color:#AEB0B3"/>
			<stop  offset="0.63" style="stop-color:#AEB0B3"/>
			<stop  offset="0.74" style="stop-color:#CACCCE"/>
			<stop  offset="0.81" style="stop-color:#DDDEE0"/>
			<stop  offset="0.89" style="stop-color:#DDDEE0"/>
			<stop  offset="0.93" style="stop-color:#D4D6D7"/>
			<stop  offset="0.96" style="stop-color:#CACCCE"/>
			<stop  offset="1" style="stop-color:#E7E8E9"/>
		</linearGradient>
		<path fill-rule="evenodd" clip-rule="evenodd" fill="url(#SVGID_37_)" d="M3677.5,2469.111c-1.377,3.938-2.754,7.875-4.115,11.815
			c-3.678-0.591-7.287-1.233-10.914-1.839l0,0l-2.279-0.395c3.529,3.25,7.119,6.4,10.715,9.518l-2.232,6.334l0.018,0.016
			c-0.641,1.82-1.264,3.609-1.906,5.465c3.529-1.986,7.109-3.971,10.715-5.975c3.514,3.186,7.059,6.303,10.635,9.453
			c-1.379-4.398-2.74-8.796-4.102-13.127c3.381-1.902,6.84-3.938,10.287-5.906l0,0l0.408-0.248
			c-4.428-0.592-8.809-1.246-13.189-1.969C3680.177,2477.857,3678.814,2473.441,3677.5,2469.111z"/>
		<linearGradient id="SVGID_38_" gradientUnits="userSpaceOnUse" x1="3790.0493" y1="2474.0266" x2="2902.1782" y2="2474.0266">
			<stop  offset="0" style="stop-color:#D4D6D7"/>
			<stop  offset="0.35" style="stop-color:#B2B4B7"/>
			<stop  offset="0.55" style="stop-color:#AEB0B3"/>
			<stop  offset="0.63" style="stop-color:#AEB0B3"/>
			<stop  offset="0.74" style="stop-color:#CACCCE"/>
			<stop  offset="0.81" style="stop-color:#DDDEE0"/>
			<stop  offset="0.89" style="stop-color:#DDDEE0"/>
			<stop  offset="0.93" style="stop-color:#D4D6D7"/>
			<stop  offset="0.96" style="stop-color:#CACCCE"/>
			<stop  offset="1" style="stop-color:#E7E8E9"/>
		</linearGradient>
		<path fill-rule="evenodd" clip-rule="evenodd" fill="url(#SVGID_38_)" d="M3608.751,2470.228h0.016
			c-0.475-0.066-0.969-0.148-1.459-0.23c-1.381-4.396-2.758-8.73-4.053-13.01l-2.02,5.707l0.018,0.016
			c-0.707,2.004-1.412,4.004-2.119,6.023c-4.381-0.74-8.742-1.328-13.123-1.984c3.525,3.051,7.053,6.17,10.648,9.205
			c-1.381,3.938-2.742,7.859-4.119,11.797c3.527-1.969,7.119-4.035,10.715-5.941c3.527,3.102,7.037,6.201,10.648,9.256
			c-1.379-4.33-2.756-8.68-4.055-13.029c3.529-1.969,7.041-3.969,10.648-5.938c-1.408-0.23-2.789-0.443-4.197-0.658
			C3613.771,2471.013,3611.246,2470.605,3608.751,2470.228z"/>
		<linearGradient id="SVGID_39_" gradientUnits="userSpaceOnUse" x1="3715.73" y1="2463.9749" x2="2828.1604" y2="2463.9749">
			<stop  offset="0" style="stop-color:#D4D6D7"/>
			<stop  offset="0.35" style="stop-color:#B2B4B7"/>
			<stop  offset="0.55" style="stop-color:#AEB0B3"/>
			<stop  offset="0.63" style="stop-color:#AEB0B3"/>
			<stop  offset="0.74" style="stop-color:#CACCCE"/>
			<stop  offset="0.81" style="stop-color:#DDDEE0"/>
			<stop  offset="0.89" style="stop-color:#DDDEE0"/>
			<stop  offset="0.93" style="stop-color:#D4D6D7"/>
			<stop  offset="0.96" style="stop-color:#CACCCE"/>
			<stop  offset="1" style="stop-color:#E7E8E9"/>
		</linearGradient>
		<path fill-rule="evenodd" clip-rule="evenodd" fill="url(#SVGID_39_)" d="M3529.009,2447.222c-0.459,1.314-0.904,2.691-1.363,4.02
			l-0.018-0.016c-0.787,2.279-1.572,4.578-2.328,6.893l0.016,0.031c-0.115,0.362-0.244,0.689-0.361,1.051
			c-4.447-0.393-8.812-0.789-13.193-1.082c3.529,2.854,7.059,5.643,10.648,8.498c-1.311,3.84-2.59,7.58-3.836,11.354v-0.016
			l-0.215,0.673c3.525-2.249,7.055-4.494,10.65-6.661c3.51,2.855,7.053,5.84,10.633,8.762c-1.361-4.299-2.727-8.563-4.039-12.832
			c3.514-2.115,7.059-4.364,10.633-6.465c-4.43-0.525-8.811-0.918-13.191-1.459
			C3531.681,2455.689,3530.32,2451.423,3529.009,2447.222z"/>
		<linearGradient id="SVGID_40_" gradientUnits="userSpaceOnUse" x1="3641.9692" y1="2461.5471" x2="2752.2878" y2="2461.5471">
			<stop  offset="0" style="stop-color:#D4D6D7"/>
			<stop  offset="0.35" style="stop-color:#B2B4B7"/>
			<stop  offset="0.55" style="stop-color:#AEB0B3"/>
			<stop  offset="0.63" style="stop-color:#AEB0B3"/>
			<stop  offset="0.74" style="stop-color:#CACCCE"/>
			<stop  offset="0.81" style="stop-color:#DDDEE0"/>
			<stop  offset="0.89" style="stop-color:#DDDEE0"/>
			<stop  offset="0.93" style="stop-color:#D4D6D7"/>
			<stop  offset="0.96" style="stop-color:#CACCCE"/>
			<stop  offset="1" style="stop-color:#E7E8E9"/>
		</linearGradient>
		<path fill-rule="evenodd" clip-rule="evenodd" fill="url(#SVGID_40_)" d="M3457.304,2452.276l-0.031-0.032
			c-0.838-2.461-1.674-4.922-2.514-7.415c-0.408,1.214-0.785,2.476-1.18,3.724l-0.016-0.016l-2.232,7.004l0.016,0.019
			c-0.213,0.673-0.443,1.343-0.639,2.017c-1.035,0.082-2.051,0.213-3.084,0.311v-0.047c-3.381,0.311-6.744,0.657-10.109,1.082
			l10.109,6.186l0,0c0.178,0.117,0.361,0.23,0.539,0.328c-0.178,0.574-0.361,1.15-0.539,1.723v-0.047
			c-0.92,2.852-1.807,5.707-2.693,8.563h-0.016l-0.805,2.591l1.887-1.51l0,0l1.627-1.311l0,0c2.361-1.902,4.723-3.805,7.135-5.742
			c3.529,2.346,7.107,4.824,10.715,7.154c-1.377-4.07-2.754-8.236-4.117-12.307c3.529-2.625,7.105-5.252,10.715-7.877
			c-4.447,0.064-8.828,0.229-13.193,0.33L3457.304,2452.276z"/>
		<linearGradient id="SVGID_41_" gradientUnits="userSpaceOnUse" x1="3975.9731" y1="2526.179" x2="3086.2917" y2="2526.179">
			<stop  offset="0" style="stop-color:#D4D6D7"/>
			<stop  offset="0.35" style="stop-color:#B2B4B7"/>
			<stop  offset="0.55" style="stop-color:#AEB0B3"/>
			<stop  offset="0.63" style="stop-color:#AEB0B3"/>
			<stop  offset="0.74" style="stop-color:#CACCCE"/>
			<stop  offset="0.81" style="stop-color:#DDDEE0"/>
			<stop  offset="0.89" style="stop-color:#DDDEE0"/>
			<stop  offset="0.93" style="stop-color:#D4D6D7"/>
			<stop  offset="0.96" style="stop-color:#CACCCE"/>
			<stop  offset="1" style="stop-color:#E7E8E9"/>
		</linearGradient>
		<path fill-rule="evenodd" clip-rule="evenodd" fill="url(#SVGID_41_)" d="M3788.832,2509.706
			c-1.361,4.197-2.742,8.384-4.119,12.52c-2.689-0.051-5.365-0.117-8.039-0.199l0,0l-5.154-0.115
			c3.543,2.66,7.123,5.384,10.715,8.041l-1.721,5.186l0,0c-0.789,2.429-1.594,4.857-2.396,7.254
			c1.871-1.315,3.773-2.678,5.645-4.004h0.016l5.055-3.611c3.525,2.607,7.039,5.283,10.648,7.875
			c-1.381-4.217-2.758-8.434-4.053-12.566c3.033-2.199,6.053-4.416,9.139-6.646l0,0l1.51-1.1c-4.447-0.016-8.828-0.031-13.193-0.066
			C3791.505,2518.138,3790.126,2513.923,3788.832,2509.706z"/>
		<linearGradient id="SVGID_42_" gradientUnits="userSpaceOnUse" x1="3938.7993" y1="2557.1252" x2="3049.52" y2="2557.1252">
			<stop  offset="0" style="stop-color:#D4D6D7"/>
			<stop  offset="0.35" style="stop-color:#B2B4B7"/>
			<stop  offset="0.55" style="stop-color:#AEB0B3"/>
			<stop  offset="0.63" style="stop-color:#AEB0B3"/>
			<stop  offset="0.74" style="stop-color:#CACCCE"/>
			<stop  offset="0.81" style="stop-color:#DDDEE0"/>
			<stop  offset="0.89" style="stop-color:#DDDEE0"/>
			<stop  offset="0.93" style="stop-color:#D4D6D7"/>
			<stop  offset="0.96" style="stop-color:#CACCCE"/>
			<stop  offset="1" style="stop-color:#E7E8E9"/>
		</linearGradient>
		<path fill-rule="evenodd" clip-rule="evenodd" fill="url(#SVGID_42_)" d="M3752.404,2542.718L3752.404,2542.718l-0.736-2.279
			c-1.365,4.115-2.727,8.252-4.037,12.387c-4.447-0.229-8.828-0.428-13.193-0.836l3.676,2.969l-0.262-0.262
			c2.395,1.936,4.791,3.872,7.219,5.725c-0.525,1.592-1.016,3.135-1.541,4.711l-1.117,3.361v0.02
			c-0.459,1.408-0.918,2.82-1.377,4.232c1.098-0.754,2.23-1.527,3.346-2.283v0.02l5.482-3.742l0,0
			c0.607-0.409,1.195-0.82,1.805-1.23c3.541,2.79,7.121,5.58,10.711,8.303c-1.361-4.283-2.738-8.484-4.115-12.75
			c2.428-1.641,4.906-3.364,7.365-5.068l0.02,0.016l3.33-2.314c-4.447-0.148-8.812-0.215-13.193-0.508
			C3754.667,2549.741,3753.537,2546.228,3752.404,2542.718z"/>
		<linearGradient id="SVGID_43_" gradientUnits="userSpaceOnUse" x1="3864.5298" y1="2549.7737" x2="2975.3511" y2="2549.7737">
			<stop  offset="0" style="stop-color:#D4D6D7"/>
			<stop  offset="0.35" style="stop-color:#B2B4B7"/>
			<stop  offset="0.55" style="stop-color:#AEB0B3"/>
			<stop  offset="0.63" style="stop-color:#AEB0B3"/>
			<stop  offset="0.74" style="stop-color:#CACCCE"/>
			<stop  offset="0.81" style="stop-color:#DDDEE0"/>
			<stop  offset="0.89" style="stop-color:#DDDEE0"/>
			<stop  offset="0.93" style="stop-color:#D4D6D7"/>
			<stop  offset="0.96" style="stop-color:#CACCCE"/>
			<stop  offset="1" style="stop-color:#E7E8E9"/>
		</linearGradient>
		<path fill-rule="evenodd" clip-rule="evenodd" fill="url(#SVGID_43_)" d="M3681.539,2545.702
			c-1.361-4.396-2.725-8.793-4.039-13.189l-1.738,4.938v0.016c-0.787,2.264-1.592,4.562-2.377,6.844
			c-4.447-0.771-8.812-1.561-13.193-2.346c3.529,3.232,7.119,6.398,10.715,9.582c-1.377,3.938-2.758,7.793-4.121,11.73l5.35-2.902
			h-0.016c1.807-0.984,3.576-1.938,5.381-2.922c3.514,3.232,7.059,6.334,10.635,9.582c-1.379-4.412-2.74-8.793-4.102-13.209
			c3.51-1.984,7.119-4.035,10.695-6.021C3690.3,2547.15,3685.919,2546.426,3681.539,2545.702z"/>
		<linearGradient id="SVGID_44_" gradientUnits="userSpaceOnUse" x1="3790.0493" y1="2536.9661" x2="2902.1782" y2="2536.9661">
			<stop  offset="0" style="stop-color:#D4D6D7"/>
			<stop  offset="0.35" style="stop-color:#B2B4B7"/>
			<stop  offset="0.55" style="stop-color:#AEB0B3"/>
			<stop  offset="0.63" style="stop-color:#AEB0B3"/>
			<stop  offset="0.74" style="stop-color:#CACCCE"/>
			<stop  offset="0.81" style="stop-color:#DDDEE0"/>
			<stop  offset="0.89" style="stop-color:#DDDEE0"/>
			<stop  offset="0.93" style="stop-color:#D4D6D7"/>
			<stop  offset="0.96" style="stop-color:#CACCCE"/>
			<stop  offset="1" style="stop-color:#E7E8E9"/>
		</linearGradient>
		<path fill-rule="evenodd" clip-rule="evenodd" fill="url(#SVGID_44_)" d="M3609.441,2533.299L3609.441,2533.299l-2.133-0.362
			c-1.381-4.396-2.758-8.727-4.053-13.076c-1.379,3.938-2.74,7.859-4.121,11.816l-0.607-0.102l0.02,0.02
			c-4.201-0.692-8.354-1.33-12.535-1.969c3.525,3.115,7.053,6.166,10.648,9.268c-1.381,3.922-2.742,7.859-4.119,11.75
			c3.527-2.051,7.119-4.039,10.715-5.957c3.527,3.117,7.037,6.217,10.648,9.385c-1.379-4.33-2.756-8.728-4.055-13.092
			c3.529-1.904,7.041-3.906,10.648-5.875C3616.775,2534.447,3613.117,2533.89,3609.441,2533.299z"/>
		<linearGradient id="SVGID_45_" gradientUnits="userSpaceOnUse" x1="3715.73" y1="2526.8518" x2="2828.1604" y2="2526.8518">
			<stop  offset="0" style="stop-color:#D4D6D7"/>
			<stop  offset="0.35" style="stop-color:#B2B4B7"/>
			<stop  offset="0.55" style="stop-color:#AEB0B3"/>
			<stop  offset="0.63" style="stop-color:#AEB0B3"/>
			<stop  offset="0.74" style="stop-color:#CACCCE"/>
			<stop  offset="0.81" style="stop-color:#DDDEE0"/>
			<stop  offset="0.89" style="stop-color:#DDDEE0"/>
			<stop  offset="0.93" style="stop-color:#D4D6D7"/>
			<stop  offset="0.96" style="stop-color:#CACCCE"/>
			<stop  offset="1" style="stop-color:#E7E8E9"/>
		</linearGradient>
		<path fill-rule="evenodd" clip-rule="evenodd" fill="url(#SVGID_45_)" d="M3546.236,2524.241
			c-4.43-0.459-8.811-0.918-13.191-1.377c-1.363-4.299-2.725-8.564-4.035-12.766c-1.215,3.447-2.412,7.022-3.58,10.532l0,0
			l-0.475,1.446c-2.658-0.229-5.299-0.462-7.941-0.656l0.016,0.016c-1.738-0.148-3.51-0.297-5.268-0.428
			c3.529,2.84,7.059,5.629,10.648,8.484c-1.377,4.004-2.754,8.008-4.051,12.011c3.525-2.233,7.055-4.479,10.65-6.661
			c3.51,2.853,7.053,5.84,10.633,8.762c-1.346-4.252-2.727-8.5-4.004-12.75v-0.016c-0.02-0.018-0.035-0.034-0.035-0.034
			C3539.117,2528.607,3542.662,2526.424,3546.236,2524.241z"/>
		<linearGradient id="SVGID_46_" gradientUnits="userSpaceOnUse" x1="3641.9692" y1="2524.678" x2="2752.2878" y2="2524.678">
			<stop  offset="0" style="stop-color:#D4D6D7"/>
			<stop  offset="0.35" style="stop-color:#B2B4B7"/>
			<stop  offset="0.55" style="stop-color:#AEB0B3"/>
			<stop  offset="0.63" style="stop-color:#AEB0B3"/>
			<stop  offset="0.74" style="stop-color:#CACCCE"/>
			<stop  offset="0.81" style="stop-color:#DDDEE0"/>
			<stop  offset="0.89" style="stop-color:#DDDEE0"/>
			<stop  offset="0.93" style="stop-color:#D4D6D7"/>
			<stop  offset="0.96" style="stop-color:#CACCCE"/>
			<stop  offset="1" style="stop-color:#E7E8E9"/>
		</linearGradient>
		<path fill-rule="evenodd" clip-rule="evenodd" fill="url(#SVGID_46_)" d="M3458.878,2520.14
			c-1.377-4.135-2.758-8.104-4.119-12.192c-1.098,3.396-2.164,6.777-3.23,10.158l0,0l-0.82,2.591
			c-1.035,0.102-2.068,0.199-3.084,0.297l0,0l-2.199,0.213l0.031,0.031c-2.658,0.281-5.299,0.576-7.941,0.938
			c3.529,2.102,7.055,4.184,10.648,6.4c-0.178,0.557-0.361,1.148-0.539,1.705v-0.032c-1.184,3.708-2.363,7.447-3.514,11.159
			l3.514-2.824v-0.032c2.361-1.903,4.723-3.809,7.135-5.777c3.529,2.347,7.107,4.759,10.715,7.155
			c-1.377-4.07-2.754-8.172-4.117-12.307c3.529-2.626,7.105-5.314,10.715-7.941
			C3467.625,2519.747,3463.244,2519.978,3458.878,2520.14z"/>
		<linearGradient id="SVGID_47_" gradientUnits="userSpaceOnUse" x1="3975.9731" y1="2334.9583" x2="3086.2917" y2="2334.9583">
			<stop  offset="0" style="stop-color:#D4D6D7"/>
			<stop  offset="0.35" style="stop-color:#B2B4B7"/>
			<stop  offset="0.55" style="stop-color:#AEB0B3"/>
			<stop  offset="0.63" style="stop-color:#AEB0B3"/>
			<stop  offset="0.74" style="stop-color:#CACCCE"/>
			<stop  offset="0.81" style="stop-color:#DDDEE0"/>
			<stop  offset="0.89" style="stop-color:#DDDEE0"/>
			<stop  offset="0.93" style="stop-color:#D4D6D7"/>
			<stop  offset="0.96" style="stop-color:#CACCCE"/>
			<stop  offset="1" style="stop-color:#E7E8E9"/>
		</linearGradient>
		<path fill-rule="evenodd" clip-rule="evenodd" fill="url(#SVGID_47_)" d="M3779.791,2346.165l-0.016-0.016l-1.658,5.054
			l3.938-2.774v-0.016c2.248-1.592,4.498-3.186,6.777-4.809c3.525,2.592,7.039,5.268,10.648,7.859
			c-1.381-4.217-2.758-8.435-4.053-12.633c3.527-2.561,7.037-5.121,10.648-7.68c-1.871,0-3.709-0.016-5.58-0.031l0,0l-7.613-0.035
			c-1.377-4.199-2.756-8.4-4.051-12.633c-0.082,0.26-0.164,0.49-0.248,0.754l0,0l-0.344,1.035c-1.166,3.592-2.346,7.186-3.527,10.73
			c-4.432-0.02-8.812-0.166-13.193-0.248c3.543,2.66,7.123,5.318,10.715,7.975
			C3781.431,2341.161,3780.611,2343.671,3779.791,2346.165z"/>
		<linearGradient id="SVGID_48_" gradientUnits="userSpaceOnUse" x1="3938.7993" y1="2365.9377" x2="3049.52" y2="2365.9377">
			<stop  offset="0" style="stop-color:#D4D6D7"/>
			<stop  offset="0.35" style="stop-color:#B2B4B7"/>
			<stop  offset="0.55" style="stop-color:#AEB0B3"/>
			<stop  offset="0.63" style="stop-color:#AEB0B3"/>
			<stop  offset="0.74" style="stop-color:#CACCCE"/>
			<stop  offset="0.81" style="stop-color:#DDDEE0"/>
			<stop  offset="0.89" style="stop-color:#DDDEE0"/>
			<stop  offset="0.93" style="stop-color:#D4D6D7"/>
			<stop  offset="0.96" style="stop-color:#CACCCE"/>
			<stop  offset="1" style="stop-color:#E7E8E9"/>
		</linearGradient>
		<path fill-rule="evenodd" clip-rule="evenodd" fill="url(#SVGID_48_)" d="M3753.832,2355.927L3753.832,2355.927
			c-0.721-2.23-1.443-4.428-2.164-6.677c-0.377,1.132-0.738,2.249-1.117,3.396l0,0l-2.279,6.923l0.016,0.018
			c-0.229,0.654-0.443,1.328-0.656,1.984c-4.447-0.162-8.828-0.361-13.193-0.754c3.512,2.855,7.057,5.691,10.633,8.416
			c-1.148,3.463-2.264,6.875-3.381,10.321l-0.016-0.032l-0.639,2.035c3.51-2.431,7.055-4.793,10.633-7.236
			c3.541,2.805,7.121,5.58,10.711,8.303c-1.361-4.283-2.738-8.484-4.115-12.75c0.049-0.033,0.098-0.082,0.162-0.115v0.018
			l5.447-3.773v-0.019c1.709-1.179,3.381-2.347,5.105-3.526c-4.447-0.146-8.812-0.229-13.193-0.524L3753.832,2355.927z"/>
		<linearGradient id="SVGID_49_" gradientUnits="userSpaceOnUse" x1="3864.5298" y1="2359.4055" x2="2975.3511" y2="2359.4055">
			<stop  offset="0" style="stop-color:#D4D6D7"/>
			<stop  offset="0.35" style="stop-color:#B2B4B7"/>
			<stop  offset="0.55" style="stop-color:#AEB0B3"/>
			<stop  offset="0.63" style="stop-color:#AEB0B3"/>
			<stop  offset="0.74" style="stop-color:#CACCCE"/>
			<stop  offset="0.81" style="stop-color:#DDDEE0"/>
			<stop  offset="0.89" style="stop-color:#DDDEE0"/>
			<stop  offset="0.93" style="stop-color:#D4D6D7"/>
			<stop  offset="0.96" style="stop-color:#CACCCE"/>
			<stop  offset="1" style="stop-color:#E7E8E9"/>
		</linearGradient>
		<path fill-rule="evenodd" clip-rule="evenodd" fill="url(#SVGID_49_)" d="M3681.39,2354.876L3681.39,2354.876
			c-1.314-4.198-2.625-8.369-3.891-12.535c-0.754,2.116-1.475,4.268-2.229,6.4l0,0l-1.887,5.463
			c-4.447-0.639-8.812-1.297-13.193-1.969c3.529,3.1,7.119,6.221,10.715,9.255c-1.377,4.003-2.758,7.925-4.121,11.944
			c3.529-2.051,7.109-4.102,10.715-6.151c3.514,3.05,7.059,6.151,10.635,9.187c-1.379-4.33-2.74-8.728-4.102-13.061
			c3.51-2.066,7.119-4.168,10.695-6.219c-4.428-0.59-8.809-1.182-13.189-1.836L3681.39,2354.876z"/>
		<linearGradient id="SVGID_50_" gradientUnits="userSpaceOnUse" x1="3790.0493" y1="2348.134" x2="2902.1782" y2="2348.134">
			<stop  offset="0" style="stop-color:#D4D6D7"/>
			<stop  offset="0.35" style="stop-color:#B2B4B7"/>
			<stop  offset="0.55" style="stop-color:#AEB0B3"/>
			<stop  offset="0.63" style="stop-color:#AEB0B3"/>
			<stop  offset="0.74" style="stop-color:#CACCCE"/>
			<stop  offset="0.81" style="stop-color:#DDDEE0"/>
			<stop  offset="0.89" style="stop-color:#DDDEE0"/>
			<stop  offset="0.93" style="stop-color:#D4D6D7"/>
			<stop  offset="0.96" style="stop-color:#CACCCE"/>
			<stop  offset="1" style="stop-color:#E7E8E9"/>
		</linearGradient>
		<path fill-rule="evenodd" clip-rule="evenodd" fill="url(#SVGID_50_)" d="M3603.255,2331.085
			c-1.379,3.938-2.74,7.875-4.121,11.881c-0.393-0.065-0.785-0.1-1.164-0.166l-0.016-0.031c-3.609-0.592-7.252-1.133-10.877-1.674
			h0.016c-0.363-0.05-0.725-0.1-1.082-0.163c2.164,1.903,4.33,3.755,6.496,5.61l0.328,0.328l3.824,3.248
			c-1.381,3.938-2.742,7.878-4.119,11.815c3.527-2.034,7.119-4.104,10.715-6.073c3.527,3.102,7.037,6.139,10.648,9.322
			c-1.379-4.334-2.756-8.746-4.055-13.096c3.529-1.969,7.041-3.969,10.648-5.938c-4.443-0.724-8.828-1.443-13.189-2.102
			C3605.927,2339.714,3604.55,2335.384,3603.255,2331.085z"/>
		<linearGradient id="SVGID_51_" gradientUnits="userSpaceOnUse" x1="3715.73" y1="2338.2317" x2="2828.1604" y2="2338.2317">
			<stop  offset="0" style="stop-color:#D4D6D7"/>
			<stop  offset="0.35" style="stop-color:#B2B4B7"/>
			<stop  offset="0.55" style="stop-color:#AEB0B3"/>
			<stop  offset="0.63" style="stop-color:#AEB0B3"/>
			<stop  offset="0.74" style="stop-color:#CACCCE"/>
			<stop  offset="0.81" style="stop-color:#DDDEE0"/>
			<stop  offset="0.89" style="stop-color:#DDDEE0"/>
			<stop  offset="0.93" style="stop-color:#D4D6D7"/>
			<stop  offset="0.96" style="stop-color:#CACCCE"/>
			<stop  offset="1" style="stop-color:#E7E8E9"/>
		</linearGradient>
		<path fill-rule="evenodd" clip-rule="evenodd" fill="url(#SVGID_51_)" d="M3529.009,2321.454
			c-1.381,3.922-2.76,7.926-4.055,11.992c-2.84-0.261-5.596-0.49-8.385-0.721l-0.031-0.033l-4.777-0.394
			c3.529,2.921,7.059,5.776,10.648,8.567l-1.77,5.182l0.016,0.035c-0.771,2.264-1.561,4.529-2.297,6.84
			c3.525-2.311,7.055-4.544,10.65-6.707c3.51,2.852,7.053,5.84,10.633,8.793c-1.361-4.266-2.727-8.533-4.039-12.816
			c3.514-2.182,7.059-4.346,10.633-6.447c-4.43-0.541-8.811-1.019-13.191-1.543
			C3531.681,2329.937,3530.32,2325.669,3529.009,2321.454z"/>
		<linearGradient id="SVGID_52_" gradientUnits="userSpaceOnUse" x1="3641.9692" y1="2335.2034" x2="2752.2878" y2="2335.2034">
			<stop  offset="0" style="stop-color:#D4D6D7"/>
			<stop  offset="0.35" style="stop-color:#B2B4B7"/>
			<stop  offset="0.55" style="stop-color:#AEB0B3"/>
			<stop  offset="0.63" style="stop-color:#AEB0B3"/>
			<stop  offset="0.74" style="stop-color:#CACCCE"/>
			<stop  offset="0.81" style="stop-color:#DDDEE0"/>
			<stop  offset="0.89" style="stop-color:#DDDEE0"/>
			<stop  offset="0.93" style="stop-color:#D4D6D7"/>
			<stop  offset="0.96" style="stop-color:#CACCCE"/>
			<stop  offset="1" style="stop-color:#E7E8E9"/>
		</linearGradient>
		<path fill-rule="evenodd" clip-rule="evenodd" fill="url(#SVGID_52_)" d="M3454.759,2318.484
			c-1.377,4.268-2.738,8.566-4.051,12.766c-1.035,0.065-2.051,0.182-3.084,0.264v-0.035c-1.133,0.082-2.266,0.199-3.398,0.296
			h-0.016l-6.695,0.626l10.109,6.365l0,0c0.178,0.113,0.361,0.23,0.539,0.343l-0.539,1.677v-0.02l-0.889,2.758l0.016,0.031
			c-0.883,2.775-1.785,5.564-2.641,8.369c3.529-2.855,7.057-5.742,10.648-8.562l3.248,2.229h-0.016
			c2.494,1.708,4.957,3.412,7.482,5.121c-1.377-4.07-2.754-8.222-4.117-12.373c3.035-2.198,6.137-4.428,9.238-6.676l0.016,0.016
			l1.461-1.082c-4.447,0.065-8.828,0.098-13.193,0.129C3457.501,2326.591,3456.121,2322.569,3454.759,2318.484z"/>
		<linearGradient id="SVGID_53_" gradientUnits="userSpaceOnUse" x1="3975.9731" y1="2398.7043" x2="3086.2917" y2="2398.7043">
			<stop  offset="0" style="stop-color:#D4D6D7"/>
			<stop  offset="0.35" style="stop-color:#B2B4B7"/>
			<stop  offset="0.55" style="stop-color:#AEB0B3"/>
			<stop  offset="0.63" style="stop-color:#AEB0B3"/>
			<stop  offset="0.74" style="stop-color:#CACCCE"/>
			<stop  offset="0.81" style="stop-color:#DDDEE0"/>
			<stop  offset="0.89" style="stop-color:#DDDEE0"/>
			<stop  offset="0.93" style="stop-color:#D4D6D7"/>
			<stop  offset="0.96" style="stop-color:#CACCCE"/>
			<stop  offset="1" style="stop-color:#E7E8E9"/>
		</linearGradient>
		<path fill-rule="evenodd" clip-rule="evenodd" fill="url(#SVGID_53_)" d="M3788.832,2382.247
			c-1.361,4.166-2.742,8.303-4.119,12.436c-4.432-0.032-8.812-0.164-13.193-0.262c3.543,2.658,7.123,5.381,10.715,8.057
			c-1.361,4.117-2.74,8.318-4.117,12.436c3.545-2.475,7.121-5.035,10.715-7.595c3.525,2.591,7.039,5.249,10.648,7.843
			c-1.381-4.201-2.758-8.418-4.053-12.57l2.871-2.066v-0.016c2.576-1.871,5.135-3.727,7.777-5.645
			c-4.447-0.016-8.828-0.051-13.193-0.051C3791.505,2390.581,3790.126,2386.446,3788.832,2382.247z"/>
		<linearGradient id="SVGID_54_" gradientUnits="userSpaceOnUse" x1="3938.7993" y1="2429.6506" x2="3049.52" y2="2429.6506">
			<stop  offset="0" style="stop-color:#D4D6D7"/>
			<stop  offset="0.35" style="stop-color:#B2B4B7"/>
			<stop  offset="0.55" style="stop-color:#AEB0B3"/>
			<stop  offset="0.63" style="stop-color:#AEB0B3"/>
			<stop  offset="0.74" style="stop-color:#CACCCE"/>
			<stop  offset="0.81" style="stop-color:#DDDEE0"/>
			<stop  offset="0.89" style="stop-color:#DDDEE0"/>
			<stop  offset="0.93" style="stop-color:#D4D6D7"/>
			<stop  offset="0.96" style="stop-color:#CACCCE"/>
			<stop  offset="1" style="stop-color:#E7E8E9"/>
		</linearGradient>
		<path fill-rule="evenodd" clip-rule="evenodd" fill="url(#SVGID_54_)" d="M3751.667,2412.964c-1.02,3.116-2.035,6.232-3.053,9.334
			l-0.016-0.016l-0.969,3.051c-4.447-0.211-8.828-0.426-13.193-0.821c3.512,2.856,7.057,5.712,10.633,8.435
			c-1.361,4.12-2.725,8.252-4.035,12.373c3.51-2.428,7.055-4.856,10.633-7.284c3.541,2.786,7.121,5.575,10.711,8.302
			c-0.146-0.492-0.311-0.986-0.475-1.477l0,0l-3.641-11.291l0.949-0.623v-0.016c3.232-2.182,6.5-4.432,9.766-6.711
			c-4.447-0.148-8.812-0.296-13.193-0.51C3754.423,2421.495,3753.044,2417.228,3751.667,2412.964z"/>
		<linearGradient id="SVGID_55_" gradientUnits="userSpaceOnUse" x1="3864.5298" y1="2422.8655" x2="2975.3511" y2="2422.8655">
			<stop  offset="0" style="stop-color:#D4D6D7"/>
			<stop  offset="0.35" style="stop-color:#B2B4B7"/>
			<stop  offset="0.55" style="stop-color:#AEB0B3"/>
			<stop  offset="0.63" style="stop-color:#AEB0B3"/>
			<stop  offset="0.74" style="stop-color:#CACCCE"/>
			<stop  offset="0.81" style="stop-color:#DDDEE0"/>
			<stop  offset="0.89" style="stop-color:#DDDEE0"/>
			<stop  offset="0.93" style="stop-color:#D4D6D7"/>
			<stop  offset="0.96" style="stop-color:#CACCCE"/>
			<stop  offset="1" style="stop-color:#E7E8E9"/>
		</linearGradient>
		<path fill-rule="evenodd" clip-rule="evenodd" fill="url(#SVGID_55_)" d="M3677.5,2405.728c-1.377,3.922-2.754,7.859-4.115,11.862
			c-0.412-0.065-0.805-0.116-1.199-0.183c-3.609-0.572-7.154-1.164-10.73-1.721l0.016,0.031c-0.428-0.065-0.852-0.146-1.279-0.213
			c2.641,2.314,5.334,4.66,8.023,6.975l0.311,0.312l2.381,2.016l-0.098,0.264v0.016c-1.346,3.906-2.691,7.762-4.023,11.602
			c3.529-1.969,7.109-3.971,10.715-6.006c3.514,3.101,7.059,6.201,10.635,9.321c-1.379-4.35-2.74-8.747-4.102-13.096
			c3.51-2.034,7.119-4.151,10.695-6.202c-4.428-0.591-8.809-1.245-13.189-1.902
			C3680.177,2414.474,3678.814,2410.073,3677.5,2405.728z"/>
		<linearGradient id="SVGID_56_" gradientUnits="userSpaceOnUse" x1="3790.0493" y1="2411.0833" x2="2902.1782" y2="2411.0833">
			<stop  offset="0" style="stop-color:#D4D6D7"/>
			<stop  offset="0.35" style="stop-color:#B2B4B7"/>
			<stop  offset="0.55" style="stop-color:#AEB0B3"/>
			<stop  offset="0.63" style="stop-color:#AEB0B3"/>
			<stop  offset="0.74" style="stop-color:#CACCCE"/>
			<stop  offset="0.81" style="stop-color:#DDDEE0"/>
			<stop  offset="0.89" style="stop-color:#DDDEE0"/>
			<stop  offset="0.93" style="stop-color:#D4D6D7"/>
			<stop  offset="0.96" style="stop-color:#CACCCE"/>
			<stop  offset="1" style="stop-color:#E7E8E9"/>
		</linearGradient>
		<path fill-rule="evenodd" clip-rule="evenodd" fill="url(#SVGID_56_)" d="M3603.255,2394.044
			c-1.379,3.922-2.74,7.793-4.121,11.797c-3.805-0.623-7.578-1.148-11.385-1.705l0,0l-1.738-0.264
			c3.525,3.053,7.053,6.17,10.648,9.189c-1.381,3.938-2.742,7.875-4.119,11.812c3.527-2.035,7.119-4.102,10.715-6.07
			c3.527,3.117,7.037,6.136,10.648,9.318c-1.379-4.33-2.756-8.68-4.055-13.092c3.529-1.903,7.041-3.906,10.648-5.941
			c-4.443-0.721-8.828-1.377-13.189-2.102C3605.927,2402.657,3604.55,2398.327,3603.255,2394.044z"/>
		<linearGradient id="SVGID_57_" gradientUnits="userSpaceOnUse" x1="3715.73" y1="2401.1155" x2="2828.1604" y2="2401.1155">
			<stop  offset="0" style="stop-color:#D4D6D7"/>
			<stop  offset="0.35" style="stop-color:#B2B4B7"/>
			<stop  offset="0.55" style="stop-color:#AEB0B3"/>
			<stop  offset="0.63" style="stop-color:#AEB0B3"/>
			<stop  offset="0.74" style="stop-color:#CACCCE"/>
			<stop  offset="0.81" style="stop-color:#DDDEE0"/>
			<stop  offset="0.89" style="stop-color:#DDDEE0"/>
			<stop  offset="0.93" style="stop-color:#D4D6D7"/>
			<stop  offset="0.96" style="stop-color:#CACCCE"/>
			<stop  offset="1" style="stop-color:#E7E8E9"/>
		</linearGradient>
		<path fill-rule="evenodd" clip-rule="evenodd" fill="url(#SVGID_57_)" d="M3529.009,2384.329l-1.51,4.381l0.016,0.035
			c-0.871,2.509-1.74,5.019-2.561,7.578c-4.447-0.393-8.812-0.801-13.193-1.082c3.529,2.855,7.059,5.646,10.648,8.498
			c-0.557,1.626-1.082,3.232-1.621,4.824h-0.018c-0.723,2.117-1.428,4.233-2.135,6.385c-0.082,0.279-0.195,0.572-0.277,0.852
			c0.082-0.05,0.18-0.113,0.277-0.179l0,0c0.102-0.065,0.199-0.116,0.295-0.183c3.332-2.164,6.682-4.28,10.078-6.35
			c3.51,2.855,7.053,5.844,10.633,8.812c-1.361-4.35-2.727-8.614-4.039-12.816c3.514-2.182,7.059-4.365,10.633-6.529
			c-4.43-0.459-8.811-0.936-13.191-1.461C3531.681,2392.814,3530.32,2388.546,3529.009,2384.329z"/>
		<linearGradient id="SVGID_58_" gradientUnits="userSpaceOnUse" x1="3641.9692" y1="2398.3743" x2="2752.2878" y2="2398.3743">
			<stop  offset="0" style="stop-color:#D4D6D7"/>
			<stop  offset="0.35" style="stop-color:#B2B4B7"/>
			<stop  offset="0.55" style="stop-color:#AEB0B3"/>
			<stop  offset="0.63" style="stop-color:#AEB0B3"/>
			<stop  offset="0.74" style="stop-color:#CACCCE"/>
			<stop  offset="0.81" style="stop-color:#DDDEE0"/>
			<stop  offset="0.89" style="stop-color:#DDDEE0"/>
			<stop  offset="0.93" style="stop-color:#D4D6D7"/>
			<stop  offset="0.96" style="stop-color:#CACCCE"/>
			<stop  offset="1" style="stop-color:#E7E8E9"/>
		</linearGradient>
		<path fill-rule="evenodd" clip-rule="evenodd" fill="url(#SVGID_58_)" d="M3470.232,2393.666
			c-3.035,0.032-6.037,0.081-9.057,0.147l0.035,0.016c-0.791,0.035-1.561,0.035-2.332,0.035c-1.377-4.136-2.758-8.107-4.119-12.178
			l-1.393,4.299l0.031,0.017c-0.918,2.808-1.82,5.63-2.689,8.435c-1.035,0.082-2.051,0.214-3.084,0.279v-0.049
			c-3.381,0.279-6.744,0.605-10.109,1c3.348,2.034,6.695,4.135,10.109,6.236l0,0c0.178,0.115,0.361,0.229,0.539,0.326
			c-0.178,0.576-0.361,1.151-0.539,1.724v-0.048c-0.23,0.721-0.461,1.46-0.689,2.18l0,0l-2.217,7.008l0.018,0.016
			c-0.213,0.641-0.428,1.299-0.625,1.953l1.428-1.148l0,0h0.02l0,0l2.066-1.673l0,0l1.41-1.116c1.904-1.541,3.791-3.066,5.725-4.627
			c3.529,2.428,7.107,4.824,10.715,7.284c-1.377-4.069-2.754-8.237-4.117-12.369c3.529-2.56,7.105-5.187,10.715-7.746
			c-0.605,0-1.197,0.032-1.805,0.032L3470.232,2393.666z"/>
		<linearGradient id="SVGID_59_" gradientUnits="userSpaceOnUse" x1="3975.9731" y1="2589.9163" x2="3086.2917" y2="2589.9163">
			<stop  offset="0" style="stop-color:#D4D6D7"/>
			<stop  offset="0.35" style="stop-color:#B2B4B7"/>
			<stop  offset="0.55" style="stop-color:#AEB0B3"/>
			<stop  offset="0.63" style="stop-color:#AEB0B3"/>
			<stop  offset="0.74" style="stop-color:#CACCCE"/>
			<stop  offset="0.81" style="stop-color:#DDDEE0"/>
			<stop  offset="0.89" style="stop-color:#DDDEE0"/>
			<stop  offset="0.93" style="stop-color:#D4D6D7"/>
			<stop  offset="0.96" style="stop-color:#CACCCE"/>
			<stop  offset="1" style="stop-color:#E7E8E9"/>
		</linearGradient>
		<path fill-rule="evenodd" clip-rule="evenodd" fill="url(#SVGID_59_)" d="M3804.861,2586.099L3804.861,2586.099l-9.236-0.031l0,0
			c-0.902,0-1.82,0-2.742,0c-1.377-4.232-2.756-8.434-4.051-12.586c-1.361,4.12-2.742,8.322-4.119,12.504
			c-4.432-0.081-8.812-0.213-13.193-0.311c3.543,2.658,7.123,5.381,10.715,8.039c-1.361,4.068-2.74,8.336-4.117,12.453
			c3.545-2.561,7.121-5.119,10.715-7.596c3.525,2.525,7.039,5.184,10.648,7.778c-1.381-4.136-2.758-8.353-4.053-12.57
			c3.527-2.56,7.037-5.12,10.648-7.661C3805.666,2586.118,3805.271,2586.118,3804.861,2586.099z"/>
		<linearGradient id="SVGID_60_" gradientUnits="userSpaceOnUse" x1="3901.3237" y1="2395.3889" x2="3013.7542" y2="2395.3889">
			<stop  offset="0" style="stop-color:#D4D6D7"/>
			<stop  offset="0.35" style="stop-color:#B2B4B7"/>
			<stop  offset="0.55" style="stop-color:#AEB0B3"/>
			<stop  offset="0.63" style="stop-color:#AEB0B3"/>
			<stop  offset="0.74" style="stop-color:#CACCCE"/>
			<stop  offset="0.81" style="stop-color:#DDDEE0"/>
			<stop  offset="0.89" style="stop-color:#DDDEE0"/>
			<stop  offset="0.93" style="stop-color:#D4D6D7"/>
			<stop  offset="0.96" style="stop-color:#CACCCE"/>
			<stop  offset="1" style="stop-color:#E7E8E9"/>
		</linearGradient>
		<path fill-rule="evenodd" clip-rule="evenodd" fill="url(#SVGID_60_)" d="M3714.582,2378.505
			c-0.816,2.412-1.621,4.809-2.428,7.221l-0.016-0.016l-1.656,4.922c-4.381-0.412-8.762-0.871-13.127-1.396
			c3.512,3.053,7.037,6.021,10.633,8.861c-1.377,4.07-2.74,8.074-4.035,12.207c3.51-2.297,7.055-4.494,10.629-6.729
			c3.529,2.922,7.059,5.844,10.65,8.697c-1.379-4.281-2.74-8.564-4.051-12.895l2.805-1.79l-0.016-0.017
			c2.623-1.672,5.217-3.349,7.859-5.037c-4.447-0.409-8.812-0.739-13.193-1C3717.259,2387.185,3715.898,2382.839,3714.582,2378.505z
			"/>
	</g>
</g>
</svg>
