<?xml version="1.0" encoding="utf-8"?>
<!-- Generator: Adobe Illustrator 21.0.0, SVG Export Plug-In . SVG Version: 6.00 Build 0)  -->
<svg version="1.1" id="图形" xmlns="http://www.w3.org/2000/svg" xmlns:xlink="http://www.w3.org/1999/xlink" x="0px" y="0px"
	 viewBox="0 0 1000.6 1000.7" style="enable-background:new 0 0 1000.6 1000.7;" xml:space="preserve">
<style type="text/css">
	.st0{fill:#EDEDED;}
	.st1{fill:#C9C9C9;}
	.st2{fill:#DDDDDD;}
	.st3{fill:#F9F9F9;}
</style>
<g>
	<polygon class="st0" points="148.4,469.5 520.4,253.6 656,329.3 285.6,544 	"/>
	<polygon class="st1" points="313.9,674.5 285.6,544 148.4,469.5 116.9,562.5 	"/>
	<polygon class="st2" points="687.5,460.1 656,329.3 285.6,544 313.9,674.5 	"/>
	<polygon class="st3" points="168.3,469.5 520.4,253.6 285.6,544 	"/>
</g>
<g>
	<polygon class="st0" points="352.3,585.4 724.3,369.4 859.9,445.1 489.5,659.8 	"/>
	<polygon class="st1" points="517.9,790.3 489.5,659.8 352.3,585.4 320.8,678.4 	"/>
	<polygon class="st2" points="891.4,575.9 859.9,445.1 489.5,659.8 517.9,790.3 	"/>
	<polygon class="st3" points="372.2,585.4 724.3,369.4 489.5,659.8 	"/>
</g>
<g>
	<polygon class="st0" points="302.2,398.1 674.2,182.2 809.7,257.9 439.3,472.6 	"/>
	<polygon class="st1" points="467.7,603.1 439.3,472.6 302.2,398.1 270.6,491.1 	"/>
	<polygon class="st2" points="841.2,388.7 809.7,257.9 439.3,472.6 467.7,603.1 	"/>
	<polygon class="st3" points="322,398.1 674.2,182.2 439.3,472.6 	"/>
</g>
</svg>
