<?xml version="1.0" encoding="utf-8"?>
<!-- Generator: Adobe Illustrator 16.0.0, SVG Export Plug-In . SVG Version: 6.00 Build 0)  -->
<!DOCTYPE svg PUBLIC "-//W3C//DTD SVG 1.1//EN" "http://www.w3.org/Graphics/SVG/1.1/DTD/svg11.dtd">
<svg version="1.1" id="Layer_1" xmlns="http://www.w3.org/2000/svg" xmlns:xlink="http://www.w3.org/1999/xlink" x="0px" y="0px"
	 width="255.12px" height="255.12px" viewBox="0 0 255.12 255.12" enable-background="new 0 0 255.12 255.12" xml:space="preserve">
<g>
	<path fill="#ED2224" d="M112.395,85.895v-0.415h0.842v0.655c12.214,0.659,22.941,7.05,29.546,16.516
		c0.466,0.23,0.861,0.459,1.16,0.684l0.309,0.489l0,0l0.018,0.027l0.58,0.924c-0.018-0.02-0.043-0.039-0.061-0.058l0.037,0.062
		c-0.082,0.065-0.203,0.141-0.346,0.221l0.732,1.266c0.275,0.145,0.479,0.279,0.588,0.399l0.619,1.095
		c-0.004-0.003-0.01-0.006-0.014-0.009c-0.044,0.068-0.21,0.169-0.467,0.292c2.102,4.38,3.396,9.215,3.697,14.309
		c0.205,0.177,0.395,0.354,0.549,0.534v0.515v0.477c0,0.001-0.001,0.001-0.002,0.002v0.012c-0.002-0.002-0.004-0.004-0.006-0.006
		c-0.104,0.121-0.271,0.249-0.477,0.381c0.002,0.129,0.01,0.255,0.01,0.384c0,0.081-0.006,0.16-0.006,0.24l0.042,0.867
		c0.161,0.145,0.31,0.29,0.435,0.438v0.062l0,0v-0.001v0.001v0.93c0,0.001-0.001,0.001-0.002,0.002v0.012
		c-0.002-0.002-0.004-0.004-0.006-0.006c-0.123,0.145-0.323,0.297-0.591,0.457c-0.39,5.012-1.737,9.759-3.869,14.058
		c0.263,0.538,0.331,0.979,0.169,1.3h-0.002l-0.467,0.712c-0.062,0.109-0.113,0.197-0.133,0.231
		c-0.103,0.087-0.326,0.109-0.649,0.076l-2.168,3.32l-0.071,0.127c0.117,0.311,0.129,0.564,0.006,0.747l-0.479,0.751l-0.054,0.043
		c-0.192,0.245-0.517,0.28-1.052,0.23c-6.666,8.025-16.51,13.32-27.57,13.92v0.713h-0.844v-0.366h-1.262v28.166h99.765
		c9.389,0,17-7.611,17-17v-100c0-9.391-7.611-17-17-17h-99.765v28.216H112.395z"/>
	<path fill="#ED2224" d="M145.364,143.242c-0.003-0.088-0.018-0.182-0.038-0.278l-0.206,0.315
		C145.209,143.273,145.29,143.262,145.364,143.242z"/>
	<path fill="#166734" d="M44.904,191.679h66.235v-28.166h-1.176v0.366h-0.85v-0.707c-12.222-0.639-22.961-7.018-29.582-16.476
		c-0.33-0.13-0.652-0.26-0.948-0.388l-0.446-0.77l-0.017-0.027c0.018-0.105,0.09-0.23,0.195-0.364l-0.996-1.621
		c-0.15-0.046-0.309-0.096-0.428-0.133l-0.004-0.008c0,0.001-0.001,0.003-0.001,0.005l-0.455-0.805
		c0.015-0.182,0.124-0.372,0.296-0.567c-2.239-4.413-3.651-9.308-4.038-14.484c-0.257-0.119-0.461-0.224-0.596-0.304v-0.027
		c0,0.001-0.001,0.002-0.002,0.003v-1.047c0.054-0.158,0.176-0.327,0.34-0.501v-1.558c-0.133-0.066-0.249-0.128-0.334-0.178v-0.031
		c-0.001,0.002-0.003,0.005-0.004,0.007v-1.048c0.075-0.219,0.276-0.457,0.567-0.707c0.266-4.107,1.18-8.041,2.64-11.704
		c-0.292-0.545-0.348-0.987-0.143-1.314l0.449-0.793l0.033,0.011c0.123-0.071,0.282-0.121,0.478-0.147l0.512-0.99
		c0.017-0.033,0.03-0.062,0.048-0.096c0,0,0.001,0,0.001,0l1.304-2.525c-0.13-0.326-0.165-0.613-0.077-0.851h-0.002l0.062-0.125
		l0.459-0.799h0.005l0.038-0.069c0.269-0.203,0.675-0.306,1.196-0.323c6.63-9.354,17.307-15.653,29.448-16.288v-0.649h0.848v0.415
		h1.178V57.679H44.904c-9.389,0-17,7.609-17,17v100C27.904,184.067,35.516,191.679,44.904,191.679z"/>
	<path fill="#166734" d="M75.703,109.015c0.005,0.024,0.013,0.05,0.02,0.074l0.052-0.086
		C75.75,109.006,75.727,109.011,75.703,109.015z"/>
	<path fill="#166734" d="M78.552,103.483l0.087-0.168c-0.04,0.01-0.079,0.017-0.118,0.029
		C78.53,103.393,78.541,103.438,78.552,103.483z"/>
	<path fill="#F6EB16" d="M141.77,148.342c-0.018-0.07-0.034-0.142-0.062-0.224c-0.061,0.078-0.121,0.154-0.182,0.231
		C141.611,148.35,141.693,148.348,141.77,148.342z"/>
	<polygon fill="#F6EB16" points="142.393,147.475 142.464,147.348 142.389,147.463 	"/>
	<path fill="#F6EB16" d="M75.723,109.089c0.018,0.068,0.026,0.133,0.053,0.205c0.045-0.104,0.094-0.207,0.141-0.311
		c-0.052,0.004-0.095,0.013-0.142,0.02L75.723,109.089z"/>
	<path fill="#F6EB16" d="M141.77,148.342c-0.076,0.006-0.158,0.008-0.244,0.008c-0.235,0.301-0.469,0.603-0.711,0.896
		c0.535,0.05,0.859,0.015,1.052-0.23l-0.167,0.132C141.74,149.118,141.898,148.884,141.77,148.342z"/>
	<path fill="#F6EB16" d="M145.373,143.308c0.001-0.021-0.008-0.045-0.009-0.065c-0.074,0.02-0.155,0.031-0.244,0.037l-0.488,0.748
		c0.323,0.033,0.547,0.011,0.649-0.076c0.02-0.034,0.07-0.122,0.133-0.231l-0.152,0.231
		C145.404,143.764,145.381,143.688,145.373,143.308z"/>
	<path fill="#F6EB16" d="M78.521,103.345c-0.17,0.056-0.334,0.128-0.47,0.247c-0.119,0.092-0.143,0.216-0.139,0.159l0.519-0.941
		h-0.005l-0.459,0.799l-0.062,0.125h0.002c-0.088,0.237-0.054,0.524,0.077,0.851l0.569-1.101
		C78.541,103.438,78.53,103.393,78.521,103.345z"/>
	<path fill="#F6EB16" d="M75.776,109.294c-0.027-0.072-0.035-0.137-0.053-0.205c-0.007-0.024-0.014-0.05-0.02-0.074
		c-0.274,0.047-0.481,0.137-0.599,0.281l0.486-0.93c0.014-0.01,0.035-0.015,0.051-0.023l-0.033-0.011l-0.449,0.793
		c-0.206,0.327-0.149,0.77,0.143,1.314C75.455,110.055,75.611,109.672,75.776,109.294z"/>
	<path fill="#F6EB16" d="M144.48,105c0.143-0.08,0.264-0.155,0.346-0.221l-0.037-0.062c-0.217-0.227-0.508-0.451-0.86-0.673
		L144.48,105z"/>
	<polygon fill="#F6EB16" points="144.252,103.823 144.252,103.823 144.27,103.851 	"/>
	<path fill="#F6EB16" d="M76.678,107.109c-0.018,0.034-0.031,0.062-0.048,0.096L76.678,107.109
		C76.679,107.109,76.679,107.109,76.678,107.109z"/>
	<path fill="#F6EB16" d="M145.551,107.273c0.129,0.257,0.264,0.51,0.389,0.77c0.257-0.123,0.423-0.224,0.467-0.292
		C146.164,107.594,145.879,107.435,145.551,107.273z"/>
	<path fill="#F6EB16" d="M149.747,125.757l-0.042-0.867c-0.002,0.272-0.014,0.543-0.021,0.814
		C149.705,125.722,149.728,125.739,149.747,125.757z"/>
	
		<line fill="none" stroke="#F6EB16" stroke-width="0" stroke-linecap="round" stroke-linejoin="round" x1="150.182" y1="126.255" x2="150.182" y2="126.256"/>
	<polygon fill="#F6EB16" points="150.186,123.877 150.186,123.4 150.184,123.879 	"/>
	<rect x="150.182" y="126.256" fill="#F6EB16" width="0" height="0.93"/>
	<path fill="#F6EB16" d="M149.68,123.378c0.01,0.295,0.02,0.591,0.021,0.888c0.205-0.132,0.373-0.26,0.477-0.381
		C150.034,123.712,149.865,123.544,149.68,123.378z"/>
	<path fill="#F6EB16" d="M72.098,123.892v0.031c0.085,0.05,0.201,0.111,0.334,0.178v-0.71
		C72.287,123.558,72.166,123.725,72.098,123.892z"/>
	<path fill="#F6EB16" d="M149.658,126.672c-0.018,0.328-0.05,0.652-0.075,0.979c0.268-0.16,0.468-0.312,0.591-0.457
		C150.026,127.016,149.85,126.843,149.658,126.672z"/>
	<path fill="#F6EB16" d="M72.618,126.512c-0.238,0.229-0.424,0.461-0.524,0.691v0.027c0.135,0.08,0.339,0.185,0.596,0.304
		C72.665,127.193,72.635,126.854,72.618,126.512z"/>
	<path fill="#F6EB16" d="M76.889,143.386l0.004,0.008c0.119,0.037,0.278,0.087,0.428,0.133l-0.295-0.481
		C76.956,143.16,76.903,143.274,76.889,143.386z"/>
	<path fill="#F6EB16" d="M78.577,146.261l-0.438-0.722l0.446,0.77c0.295,0.128,0.618,0.258,0.948,0.388
		c-0.217-0.31-0.429-0.621-0.637-0.938C78.739,145.929,78.628,146.098,78.577,146.261z"/>
	<path fill="#F6EB16" d="M80.123,102.422c1.339-0.618,3.081-1.204,5.15-1.741c6.035-6.521,14.472-10.782,23.841-11.332v-3.22
		c-12.141,0.635-22.818,6.934-29.448,16.288C79.809,102.412,79.961,102.413,80.123,102.422z"/>
	<path fill="#F6EB16" d="M79.565,140.313c-2.368-4.725-3.713-10.04-3.72-15.654c-1.422,0.591-2.568,1.217-3.227,1.853
		c0.017,0.343,0.047,0.682,0.072,1.022c0.386,5.177,1.798,10.071,4.038,14.484C77.211,141.47,78.254,140.881,79.565,140.313z"/>
	<path fill="#F6EB16" d="M141.525,148.35c0.061-0.077,0.121-0.153,0.182-0.231c-0.014-0.038-0.014-0.062-0.029-0.104
		c-0.16-0.528-0.857-1.395-2.051-2.546c-6.07,8.24-15.611,13.781-26.383,14.416l0,3.281c11.06-0.6,20.904-5.895,27.57-13.92
		C141.057,148.952,141.29,148.65,141.525,148.35z"/>
	<path fill="#F6EB16" d="M145.551,107.273c-1.111-0.545-2.703-1.106-4.652-1.657c2.82,4.382,4.701,9.414,5.349,14.813
		c1.466,0.611,2.609,1.254,3.39,1.922c-0.302-5.094-1.596-9.929-3.697-14.309C145.814,107.783,145.68,107.53,145.551,107.273z"/>
	<path fill="#F6EB16" d="M149.619,123.328l0.029,2.345c0.012,0.011,0.024,0.021,0.036,0.031c0.007-0.271,0.019-0.542,0.021-0.814
		c0-0.08,0.006-0.159,0.006-0.24c0-0.129-0.008-0.255-0.01-0.384c-0.002-0.297-0.012-0.593-0.021-0.888
		C149.66,123.361,149.639,123.345,149.619,123.328z"/>
	<path fill="#F6EB16" d="M149.658,126.672c-0.764-0.677-1.862-1.3-3.156-1.868c-0.027,4.997-1.112,9.755-3.035,14.067
		c1.115,1.123,1.877,2.079,2.247,2.837c2.132-4.299,3.479-9.046,3.869-14.058C149.608,127.324,149.641,127,149.658,126.672z"/>
	<path fill="#F6EB16" d="M113.237,89.35c9.358,0.549,17.787,4.803,23.821,11.312c2.301,0.611,4.342,1.306,5.725,1.989
		c-6.605-9.466-17.333-15.856-29.546-16.516L113.237,89.35z"/>
	<path fill="#F6EB16" d="M109.114,159.886c-11.385-0.667-21.396-6.818-27.388-15.843c-1.215,0.535-2.297,1.137-2.831,1.716
		c0.208,0.316,0.42,0.628,0.637,0.938c6.62,9.458,17.359,15.837,29.582,16.476V159.886z"/>
	<path fill="#F6EB16" d="M76.121,120.299c0.469-3.791,1.541-7.402,3.125-10.73c-1.472-0.435-2.604-0.64-3.329-0.585
		c-0.046,0.104-0.095,0.206-0.141,0.311c-0.165,0.378-0.321,0.761-0.475,1.146c-1.46,3.663-2.374,7.597-2.64,11.704
		C73.324,121.574,74.513,120.938,76.121,120.299z"/>
	<path fill="#F6EB16" d="M134.287,98.071v1.922c0.947,0.207,1.879,0.431,2.771,0.668c-6.034-6.509-14.463-10.763-23.821-11.312
		l0.001,8.697L134.287,98.071z"/>
	<path fill="#F6EB16" d="M88.032,100.033v-2.017l21.082,0.024v-8.692c-9.369,0.55-17.806,4.812-23.841,11.332
		C86.138,100.456,87.058,100.239,88.032,100.033z"/>
	<path fill="#F6EB16" d="M86.699,104.269c0.429,0.168,0.876,0.352,1.333,0.541v-0.813C87.578,104.085,87.133,104.176,86.699,104.269
		z"/>
	<path fill="#F6EB16" d="M127.491,145.235c-3.725,3.714-8.71,6.169-14.247,6.673l0,7.977c10.771-0.635,20.312-6.176,26.383-14.416
		c-1.654-1.599-4.268-3.749-7.746-6.322C130.752,141.409,129.266,143.466,127.491,145.235z"/>
	<path fill="#F6EB16" d="M88.034,113.039c-3.573-1.633-6.57-2.816-8.788-3.471c-1.584,3.328-2.656,6.939-3.125,10.73
		c2.413-0.959,5.747-1.924,9.603-2.675c0.744-0.146,1.522-0.282,2.311-0.416L88.034,113.039z"/>
	<path fill="#F6EB16" d="M134.287,117.269c0.617,0.108,1.24,0.215,1.832,0.33c4.165,0.832,7.613,1.785,10.128,2.831
		c-0.647-5.399-2.528-10.432-5.349-14.813c-1.896-0.536-4.133-1.061-6.611-1.549V117.269z"/>
	<path fill="#F6EB16" d="M134.287,128.922h0.002c0,0.789-0.041,1.569-0.119,2.339c4.027,2.926,7.246,5.545,9.297,7.61
		c1.923-4.312,3.008-9.07,3.035-14.067c-3.023-1.329-7.115-2.356-10.549-3.045c-0.537-0.104-1.105-0.201-1.666-0.3V128.922z"/>
	<path fill="#F6EB16" d="M88.036,128.9l-0.001-7.488c-0.747,0.129-1.487,0.258-2.192,0.396c-3.264,0.647-7.166,1.677-9.997,2.852
		c0.007,5.614,1.352,10.93,3.72,15.654c1.422-0.615,3.15-1.204,4.799-1.684c1.736-0.505,3.511-0.916,5.302-1.279
		C88.618,134.732,88.036,131.885,88.036,128.9z"/>
	<path fill="#F6EB16" d="M94.836,145.161c-1.189-1.185-2.244-2.496-3.153-3.906c-2.121,0.396-4.188,0.871-6.179,1.442
		c-1.095,0.305-2.51,0.788-3.779,1.346c5.993,9.024,16.003,15.176,27.388,15.843v-7.972
		C103.571,151.42,98.601,148.912,94.836,145.161z"/>
	<path fill="#F6EB16" d="M112.4,151.973c-0.423,0.023-0.848,0.037-1.276,0.037c-0.389,0-0.776-0.011-1.161-0.03l0,11.533h1.176
		h1.262L112.4,151.973z"/>
	<polygon fill="#F6EB16" points="109.962,98.043 112.396,98.045 112.395,85.895 111.139,85.895 109.961,85.895 	"/>
	<path fill="#F6EB16" d="M113.244,159.885l0-7.977c-0.28,0.026-0.561,0.049-0.844,0.064l0.001,11.54v0.366h0.844v-0.713
		L113.244,159.885z"/>
	<polygon fill="#F6EB16" points="109.114,89.349 109.114,98.041 109.962,98.043 109.961,85.895 109.961,85.479 109.114,85.479 
		109.114,86.129 	"/>
	<polygon fill="#F6EB16" points="112.396,98.045 113.238,98.047 113.237,89.35 113.237,86.135 113.237,85.479 112.395,85.479 
		112.395,85.895 	"/>
	<path fill="#F6EB16" d="M109.963,151.979c-0.285-0.015-0.567-0.04-0.849-0.065v7.972v3.286v0.707h0.85v-0.366L109.963,151.979z"/>
	<path fill="#F6EB16" d="M85.719,120.933c0.745-0.146,1.525-0.283,2.315-0.417l0-2.402c-0.729,0.125-1.455,0.252-2.145,0.387
		c-4.888,0.927-11.738,2.912-13.457,4.891v0.71v1.558C73.801,124.211,78.878,122.303,85.719,120.933z"/>
	<path fill="#F6EB16" d="M136.115,120.906c6.609,1.322,11.422,2.945,13.533,4.767l-0.029-2.345
		c-2.572-2.241-8.785-3.898-13.662-4.879c-0.539-0.105-1.109-0.201-1.67-0.301v2.429
		C134.903,120.685,135.525,120.791,136.115,120.906z"/>
	<path fill="#F6EB16" d="M72.618,126.512c0.659-0.636,1.805-1.262,3.227-1.853c2.832-1.175,6.733-2.204,9.997-2.852
		c0.705-0.138,1.445-0.267,2.192-0.396v-0.896c-0.791,0.134-1.57,0.271-2.315,0.417c-6.841,1.37-11.918,3.278-13.287,4.726
		c-0.164,0.174-0.286,0.343-0.34,0.501v1.047c0-0.001,0.001-0.002,0.002-0.003C72.194,126.973,72.38,126.741,72.618,126.512z"/>
	<path fill="#F6EB16" d="M149.648,125.673c-2.111-1.821-6.924-3.444-13.533-4.767c-0.59-0.115-1.212-0.222-1.828-0.329v0.882
		c0.561,0.099,1.129,0.195,1.666,0.3c3.434,0.688,7.525,1.716,10.549,3.045c1.294,0.568,2.393,1.191,3.156,1.868
		c0.191,0.171,0.368,0.344,0.516,0.521c0.002,0.002,0.004,0.004,0.006,0.006v-0.012l0.002-0.932v-0.062
		c-0.125-0.147-0.273-0.293-0.435-0.438c-0.02-0.018-0.042-0.035-0.062-0.053C149.673,125.693,149.66,125.684,149.648,125.673z"/>
	<path fill="#F6EB16" d="M146.247,120.43c-2.515-1.046-5.963-1.999-10.128-2.831c-0.592-0.115-1.215-0.222-1.832-0.33v0.88
		c0.561,0.1,1.131,0.195,1.67,0.301c4.877,0.98,11.09,2.638,13.662,4.879c0.02,0.017,0.041,0.033,0.061,0.05
		c0.186,0.166,0.354,0.334,0.498,0.507c0.002,0.002,0.004,0.004,0.006,0.006v-0.012l0.002-0.479v-0.515
		c-0.154-0.18-0.344-0.357-0.549-0.534C148.856,121.684,147.713,121.041,146.247,120.43z"/>
	<path fill="#F6EB16" d="M85.889,118.5c0.69-0.135,1.416-0.262,2.145-0.387v-0.905c-0.789,0.134-1.567,0.271-2.311,0.416
		c-3.856,0.751-7.19,1.716-9.603,2.675c-1.607,0.64-2.796,1.275-3.459,1.845c-0.291,0.25-0.492,0.488-0.567,0.707v1.048
		c0.001-0.002,0.003-0.005,0.004-0.007c0.068-0.167,0.188-0.334,0.334-0.501C74.151,121.412,81.001,119.427,85.889,118.5z"/>
	<path fill="#F6EB16" d="M134.287,100.895v2.303c4.792,0.933,9.267,2.194,10.926,3.068L144.48,105l-0.552-0.956
		C141.975,102.814,138.115,101.683,134.287,100.895z"/>
	<path fill="#F6EB16" d="M88.032,100.912c-2.656,0.555-4.804,1.146-6.432,1.718c1.006,0.212,2.218,0.577,3.609,1.079
		c0.874-0.204,1.807-0.402,2.823-0.59V100.912z"/>
	<path fill="#F6EB16" d="M137.059,100.661c-0.893-0.237-1.824-0.461-2.771-0.668v0.901c3.828,0.788,7.688,1.92,9.642,3.149
		c0.353,0.222,0.644,0.446,0.86,0.673c0.018,0.019,0.043,0.038,0.061,0.058l-0.58-0.924l-0.018-0.027l-0.309-0.489
		c-0.299-0.225-0.694-0.453-1.16-0.684C141.4,101.967,139.359,101.272,137.059,100.661z"/>
	<path fill="#F6EB16" d="M88.032,103.119c-1.016,0.188-1.949,0.386-2.823,0.59c0.477,0.172,0.97,0.355,1.49,0.56
		c0.434-0.093,0.878-0.184,1.333-0.272L88.032,103.119z"/>
	<path fill="#F6EB16" d="M134.287,103.197v0.87c2.479,0.488,4.715,1.013,6.611,1.549c1.949,0.551,3.541,1.112,4.652,1.657
		c0.328,0.161,0.613,0.32,0.855,0.478c0.004,0.003,0.01,0.006,0.014,0.009l-0.619-1.095c-0.108-0.12-0.312-0.255-0.588-0.399
		C143.554,105.392,139.079,104.13,134.287,103.197z"/>
	<path fill="#F6EB16" d="M88.032,100.912l0-0.879c-0.974,0.206-1.894,0.423-2.759,0.647c-2.069,0.537-3.811,1.123-5.15,1.741
		c0.43,0.023,0.92,0.091,1.477,0.208C83.228,102.058,85.376,101.467,88.032,100.912z"/>
	<path fill="#F6EB16" d="M85.295,141.854c1.992-0.57,3.952-1.021,5.894-1.399c-0.434-0.737-0.828-1.499-1.178-2.284
		c-1.843,0.368-3.667,0.789-5.448,1.307c-2.531,0.737-6.739,2.26-7.537,3.568l0.295,0.481l0.996,1.621
		C78.978,144.305,81.338,142.965,85.295,141.854z"/>
	<path fill="#F6EB16" d="M78.895,145.759c0.534-0.579,1.615-1.181,2.831-1.716c1.269-0.558,2.684-1.041,3.779-1.346
		c1.991-0.571,4.058-1.047,6.179-1.442c-0.169-0.264-0.334-0.53-0.494-0.801c-1.942,0.378-3.902,0.829-5.894,1.399
		c-3.957,1.111-6.317,2.451-6.979,3.294c-0.105,0.134-0.177,0.259-0.195,0.364l0.017,0.027l0.438,0.722
		C78.628,146.098,78.739,145.929,78.895,145.759z"/>
	<path fill="#F6EB16" d="M84.563,139.477c1.781-0.518,3.605-0.938,5.448-1.307c-0.121-0.271-0.235-0.544-0.346-0.819
		c-1.791,0.363-3.566,0.774-5.302,1.279c-1.648,0.479-3.376,1.068-4.799,1.684c-1.311,0.567-2.354,1.156-2.837,1.705
		c-0.172,0.195-0.281,0.386-0.296,0.567l0.455,0.805c0-0.002,0.001-0.004,0.001-0.005c0.014-0.111,0.067-0.226,0.137-0.341
		C77.824,141.736,82.032,140.214,84.563,139.477z"/>
	<path fill="#F6EB16" d="M145.326,142.964c-0.463-2.142-5.35-6.298-11.292-10.636c-0.316,2.114-0.925,4.134-1.778,6.022
		c5.615,4.1,9.494,7.457,10.133,9.112l0.075-0.115l2.168-3.32l0.488-0.748L145.326,142.964z"/>
	<path fill="#F6EB16" d="M88.034,112.082l-0.001-6.347c-3.887-1.623-6.765-2.495-8.433-2.521c-0.215,0.004-0.595,0.007-0.961,0.101
		l-0.087,0.168l-0.569,1.101l-1.304,2.525l-0.049,0.096l-0.512,0.99C77.82,107.971,82.193,109.439,88.034,112.082z"/>
	<path fill="#F6EB16" d="M78.051,103.592c0.136-0.119,0.3-0.191,0.47-0.247c0.039-0.013,0.079-0.02,0.118-0.029
		c0.366-0.094,0.746-0.097,0.961-0.101c1.668,0.025,4.545,0.897,8.433,2.521v-0.926c-0.457-0.189-0.905-0.373-1.333-0.541
		c-0.52-0.204-1.013-0.388-1.49-0.56c-1.392-0.502-2.603-0.867-3.609-1.079c-0.557-0.117-1.047-0.185-1.477-0.208
		c-0.162-0.009-0.314-0.01-0.458-0.005c-0.521,0.018-0.927,0.12-1.196,0.323l-0.038,0.069l-0.519,0.941
		C77.909,103.808,77.932,103.684,78.051,103.592z"/>
	<path fill="#F6EB16" d="M75.104,109.296c0.118-0.145,0.325-0.234,0.599-0.281c0.023-0.004,0.047-0.009,0.071-0.012
		c0.047-0.007,0.09-0.016,0.142-0.02c0.725-0.055,1.857,0.15,3.329,0.585c2.218,0.654,5.215,1.838,8.788,3.471v-0.957
		c-5.841-2.643-10.214-4.111-11.915-3.887c-0.196,0.026-0.354,0.076-0.478,0.147c-0.016,0.009-0.037,0.014-0.051,0.023
		L75.104,109.296z"/>
	<path fill="#F6EB16" d="M143.467,138.871c-2.051-2.065-5.27-4.685-9.297-7.61c-0.036,0.358-0.083,0.714-0.136,1.067
		c5.942,4.338,10.829,8.494,11.292,10.636c0.021,0.097,0.035,0.19,0.038,0.278c0.001,0.021,0.01,0.045,0.009,0.065
		c0.008,0.38,0.031,0.456-0.111,0.644l0.152-0.231l0.467-0.712h0.002c0.162-0.32,0.094-0.762-0.169-1.3
		C145.344,140.95,144.582,139.994,143.467,138.871z"/>
	<path fill="#F6EB16" d="M132.256,138.351c-0.121,0.268-0.245,0.533-0.375,0.796c3.479,2.573,6.092,4.724,7.746,6.322
		c1.193,1.151,1.891,2.018,2.051,2.546c0.016,0.041,0.016,0.065,0.029,0.104c0.028,0.082,0.045,0.153,0.062,0.224
		c0.129,0.542-0.029,0.776-0.07,0.806l0.167-0.132l0.054-0.043l0.479-0.751c0.123-0.183,0.111-0.437-0.006-0.747
		c-0.002-0.004-0.002-0.007-0.004-0.012C141.75,145.808,137.871,142.45,132.256,138.351z"/>
	<path fill="#FFFFFF" d="M113.244,151.908c5.537-0.504,10.522-2.959,14.247-6.673c1.775-1.77,3.261-3.826,4.39-6.089
		c0.13-0.263,0.254-0.528,0.375-0.796c0.854-1.889,1.462-3.908,1.778-6.022c0.053-0.354,0.1-0.709,0.136-1.067
		c0.078-0.77,0.119-1.55,0.119-2.339h-0.002v-7.463v-0.882v-2.429v-0.88v-13.201v-0.87v-2.303v-0.901v-1.922l-21.049-0.024
		l-0.842-0.002l-2.434-0.002l-0.848-0.002l-21.082-0.024v2.017l0,0.879v2.207l0,0.877v0.813v0.926l0.001,6.347v0.957l0,4.169v0.905
		l0,2.402v0.896l0.001,7.488c0,2.984,0.582,5.832,1.63,8.45c0.11,0.275,0.225,0.549,0.346,0.819
		c0.351,0.785,0.744,1.547,1.178,2.284c0.159,0.271,0.324,0.537,0.494,0.801c0.91,1.41,1.964,2.722,3.153,3.906
		c3.765,3.751,8.734,6.259,14.277,6.753c0.282,0.025,0.564,0.051,0.849,0.065c0.385,0.02,0.771,0.03,1.161,0.03
		c0.428,0,0.854-0.014,1.276-0.037C112.683,151.957,112.963,151.935,113.244,151.908z M95.436,144.547
		c-4.025-4.005-6.535-9.525-6.535-15.586v-0.018l0.027-29.898l44.347,0.008v29.929c0,6.082-2.488,11.602-6.505,15.6
		c-4.014,4-9.561,6.477-15.668,6.477C105.026,151.058,99.471,148.562,95.436,144.547z"/>
	<path fill="#FFFFFF" d="M101.805,138.331c2.412,2.4,5.65,3.934,9.283,3.934c3.652,0,6.967-1.48,9.367-3.872
		c2.051-2.042,3.436-4.665,3.797-7.678c0.061-0.514,0.094-1.117,0.094-1.648l0.016-2.015l-0.002-19.046h0.002l-26.469-0.048
		l0.004,21.046C97.897,132.493,99.333,135.87,101.805,138.331z M100.206,125.567l0.012-4.193l5.84,0.005v4.194
		c0,0.865-0.33,1.649-0.857,2.218c-0.529,0.569-1.262,0.921-2.066,0.921c-0.803,0-1.533-0.355-2.066-0.926
		c-0.529-0.569-0.861-1.354-0.861-2.216V125.567z M114.159,125.553c0,0.866-0.328,1.651-0.857,2.219
		c-0.529,0.568-1.26,0.921-2.066,0.921c-0.801,0-1.533-0.354-2.064-0.926c-0.531-0.57-0.861-1.354-0.861-2.217v-0.002l0.01-4.193
		l5.84,0.004V125.553z M122.241,125.569c0,0.865-0.328,1.649-0.857,2.217c-0.529,0.569-1.262,0.923-2.066,0.923
		c-0.801,0-1.533-0.354-2.064-0.927c-0.531-0.57-0.863-1.355-0.863-2.217v-0.003l0.012-4.193l5.84,0.005V125.569z M108.305,115.415
		v-0.002l0.012-4.194l5.84,0.005v4.194c0,0.866-0.328,1.649-0.857,2.219c-0.529,0.568-1.26,0.92-2.066,0.92
		c-0.801,0-1.533-0.354-2.066-0.926C108.637,117.062,108.305,116.276,108.305,115.415z M108.292,131.399l5.838,0.003v4.195
		c0,0.865-0.328,1.649-0.857,2.218s-1.26,0.92-2.064,0.92c-0.803,0-1.533-0.354-2.066-0.926c-0.531-0.568-0.861-1.354-0.861-2.216
		v-0.002L108.292,131.399z"/>
	<path fill="#ED2224" d="M127.807,104.978c-0.229,0.263-0.428,0.628-0.523,1.14C127.394,105.622,127.591,105.257,127.807,104.978z"
		/>
	<path fill="#ED2224" d="M127.781,123.006c-0.229,0.263-0.43,0.629-0.524,1.141C127.367,123.651,127.564,123.285,127.781,123.006z"
		/>
	<path fill="#ED2224" d="M97.889,141.914c0.024,0.347,0.141,0.744,0.435,1.172C98.053,142.66,97.934,142.264,97.889,141.914z"/>
	<path fill="#ED2224" d="M91.866,106.099c0.109-0.488,0.303-0.851,0.517-1.129C92.156,105.231,91.96,105.594,91.866,106.099z"/>
	<path fill="#ED2224" d="M92.39,123.012c-0.226,0.262-0.421,0.625-0.516,1.129C91.983,123.652,92.177,123.29,92.39,123.012z"/>
	<path fill="#ED2224" d="M122.98,140.529c-0.348,0.023-0.748,0.141-1.176,0.435C122.232,140.692,122.63,140.574,122.98,140.529z"/>
	<path fill="#ED2224" d="M111.102,151.058c6.107,0,11.654-2.477,15.668-6.477c4.017-3.998,6.505-9.518,6.505-15.6V99.053
		l-44.347-0.008l-0.027,29.898v0.018c0,6.061,2.51,11.581,6.535,15.586C99.471,148.562,105.026,151.058,111.102,151.058z
		 M126.643,142.879c-0.107,0.106-0.268,0.12-0.359,0.029l-0.063-0.062l-1.5,1.896l-1.139-1.139
		c-0.002,0.002-0.003,0.004-0.005,0.006l1.199,1.198c0.098,0.099,0.08,0.276-0.037,0.396c-0.119,0.116-0.297,0.134-0.396,0.034
		l-4.666-4.667c-0.1-0.099-0.082-0.275,0.035-0.394c0.119-0.119,0.297-0.136,0.395-0.037v-0.001l1.208,1.208
		c0.002-0.003,0.005-0.004,0.008-0.006l-1.13-1.134l1.878-1.513l-0.065-0.065c-0.092-0.091-0.078-0.253,0.029-0.359
		s0.27-0.12,0.357-0.029l4.281,4.28C126.762,142.611,126.749,142.771,126.643,142.879z M123.821,136.676l0.547-0.549l0.33,0.331
		l-0.238,0.24l0.238,0.241l0.246-0.245l0.34,0.34l-0.246,0.245l0.242,0.242l0.246-0.246l0.338,0.338l-0.553,0.555
		c-0.088,0.086-0.213,0.074-0.293-0.005l-1.188-1.189C123.75,136.895,123.741,136.756,123.821,136.676z M127.625,137.633
		l-0.244,0.246l0.248,0.247l0.244-0.246l0.346,0.348l-0.555,0.554c-0.088,0.086-0.213,0.073-0.293-0.008l-1.217-1.216
		c-0.082-0.083-0.09-0.223-0.012-0.303l0.547-0.548h0.002l0.336,0.34l-0.24,0.238l0.246,0.248l0.246-0.247L127.625,137.633z
		 M122.297,138.145c-0.094-0.094-0.084-0.258,0.023-0.366c0.105-0.104,0.27-0.116,0.367-0.021h-0.002l4.475,4.474
		c0.094,0.096,0.084,0.26-0.023,0.367c-0.105,0.106-0.27,0.115-0.365,0.021L122.297,138.145z M124.03,139.092l-1.137-1.137
		l0.99-0.927l1.068,1.069L124.03,139.092z M126.956,142.011l-1.137-1.136l0.99-0.927l1.068,1.068L126.956,142.011z M125.522,140.575
		l-1.182-1.19l1.855-1.698l1.025,1.035L125.522,140.575z M128.204,140.44l0.246-0.246l0.34,0.34l-0.555,0.554
		c-0.086,0.086-0.211,0.074-0.291-0.006l-1.189-1.188c-0.08-0.08-0.088-0.22-0.008-0.301l0.547-0.548l0.33,0.333l-0.24,0.241
		l0.242,0.24l0.244-0.246l0.338,0.339l-0.246,0.245L128.204,140.44z M125.221,125.065c0-0.168,0.113-0.306,0.252-0.306h1.708
		c0-0.003,0-0.005,0.001-0.008l-1.602-0.004l0.26-2.397h-0.094c-0.127,0-0.232-0.123-0.232-0.275c0-0.15,0.105-0.274,0.232-0.274
		h6.054c0.127,0,0.232,0.124,0.232,0.274s-0.105,0.275-0.232,0.275h-0.091l0.282,2.401h-1.611c0,0.003,0,0.005,0,0.008h1.695
		c0.139,0,0.252,0.138,0.252,0.306c0,0.167-0.113,0.305-0.252,0.305h-6.603C125.334,125.37,125.221,125.232,125.221,125.065z
		 M125.868,119.89c-0.113,0-0.217-0.092-0.217-0.204v-0.775l0.467,0.001v0.339h0.342v-0.347l0.479,0.002v0.345h0.342v-0.347h0.479
		v0.784c0,0.122-0.098,0.202-0.207,0.202h-1.605l1.51,0.001l0.051,1.354l-1.605,0.001l0.045-1.356H125.868z M128.53,118.019v-0.347
		l0.488,0.001v0.346h0.352v-0.347l0.49,0.001l-0.002,0.782c0,0.124-0.1,0.203-0.213,0.203h-1.718c-0.115,0-0.223-0.092-0.223-0.206
		v-0.773v-0.001l0.477,0.001v0.34H128.53z M130.592,119.248v-0.349l0.479,0.002v0.347h0.344v-0.349l0.477,0.002v0.783
		c0,0.122-0.096,0.201-0.209,0.201H130c-0.111,0-0.215-0.092-0.217-0.205l-0.002-0.775l0.469,0.003v0.34H130.592z M129.611,121.24
		l-1.677-0.006l0.111-2.514l1.458,0.007h-0.002L129.611,121.24z M131.941,121.252c0.133,0,0.242,0.123,0.242,0.274
		c0,0.15-0.109,0.273-0.242,0.273h-6.33c-0.131,0-0.242-0.123-0.242-0.273c0-0.151,0.111-0.274,0.242-0.274H131.941z
		 M131.641,121.241l-1.609,0.001l0.047-1.354h1.51L131.641,121.241z M132.102,107.341H125.5c-0.139,0-0.254-0.138-0.254-0.306
		c0-0.167,0.115-0.304,0.254-0.304h1.708c0-0.003,0-0.006,0.001-0.009l-1.6-0.003l0.256-2.398h-0.092
		c-0.129,0-0.232-0.124-0.232-0.274c0-0.151,0.104-0.274,0.232-0.274h6.052c0.127,0,0.23,0.123,0.23,0.274
		c0,0.15-0.104,0.274-0.23,0.274h-0.089l0.28,2.401h-1.609c0,0.003,0,0.006,0,0.009h1.693c0.139,0,0.252,0.137,0.252,0.304
		C132.354,107.203,132.24,107.341,132.102,107.341z M96.249,103.197l-1.607,0.001l0.045-1.356H94.61
		c-0.113,0-0.219-0.093-0.219-0.204v-0.774v-0.001v0.001h0.467v0.34H95.2v-0.348l0.479,0.001v0.347h0.342v-0.348h0.48v0.784
		c0,0.122-0.098,0.202-0.209,0.202h-0.094L96.249,103.197z M94.219,103.195l-1.676-0.006l0.111-2.513l1.457,0.006v-0.001
		L94.219,103.195z M107.889,106.719h1.71c0-0.003,0.001-0.006,0.001-0.009l-1.602-0.003l0.258-2.398h-0.094
		c-0.127,0-0.23-0.123-0.23-0.274c0-0.15,0.104-0.274,0.23-0.274h-0.133c-0.133,0-0.242-0.123-0.242-0.274s0.109-0.275,0.242-0.275
		h6.328c0.133,0,0.242,0.124,0.242,0.275s-0.109,0.274-0.242,0.274h-0.141c0.127,0,0.232,0.124,0.232,0.274
		c0,0.151-0.105,0.274-0.232,0.274h-0.091l0.283,2.401h-1.61c0,0.003,0.001,0.006,0.001,0.009h1.693
		c0.139,0,0.252,0.138,0.252,0.306c0,0.167-0.113,0.305-0.252,0.305h-6.604c-0.139,0-0.252-0.138-0.252-0.305
		C107.637,106.856,107.75,106.719,107.889,106.719z M112.028,103.199l-1.676-0.007l0.109-2.512l1.459,0.006v-0.001L112.028,103.199z
		 M125.895,101.861c-0.113,0-0.217-0.093-0.217-0.205l-0.002-0.774h0.467v0.341h0.342v-0.348l0.48,0.001v0.346h0.342v-0.347h0.48
		l-0.002,0.784c0,0.123-0.096,0.202-0.209,0.202h-0.094l0.051,1.355h-1.607l0.045-1.355H125.895z M129.637,103.21l-1.675-0.006
		l0.111-2.513l1.457,0.006L129.637,103.21z M132.211,103.497c0,0.151-0.109,0.274-0.244,0.274h-6.328
		c-0.133,0-0.242-0.123-0.242-0.274s0.109-0.274,0.242-0.274h6.328C132.102,103.223,132.211,103.346,132.211,103.497z
		 M131.668,103.212l-1.609,0.001l0.045-1.355h-0.076c-0.113,0-0.217-0.092-0.217-0.205l-0.002-0.774l0.469,0.001v0.339h0.34v-0.348
		l0.479,0.002v0.346h0.344v-0.348l0.479,0.002v0.782c0,0.123-0.098,0.203-0.209,0.203h-0.094L131.668,103.212z M129.395,99.643h0.49
		v0.784c0,0.122-0.1,0.201-0.215,0.201h-1.718c-0.115,0-0.221-0.091-0.221-0.205l-0.002-0.773h0.479v0.34h0.35v-0.347l0.488,0.001
		v0.346h0.35V99.643z M112.667,100.867v0.338h0.342v-0.347l0.479,0.002v0.345h0.344v-0.347l0.479,0.001l-0.002,0.783
		c0,0.123-0.096,0.203-0.207,0.203h-0.096l0.051,1.354h-1.605l0.045-1.354h-0.076c-0.113,0-0.219-0.093-0.219-0.206v-0.774
		L112.667,100.867z M110.12,99.637l0.479,0.001v0.341h0.348V99.63l0.488,0.001v0.346h0.352V99.63l0.49,0.001l-0.002,0.783
		c0,0.123-0.1,0.202-0.213,0.202h-1.719c-0.115,0-0.223-0.092-0.223-0.205V99.637z M109.354,100.864v0.346h0.342v-0.347h0.48
		l-0.002,0.784c0,0.121-0.096,0.202-0.207,0.202h-0.094l0.051,1.354h-1.607l0.045-1.354h-0.076c-0.113,0-0.219-0.093-0.219-0.205
		v-0.775l0.467,0.001v0.341h0.342v-0.348L109.354,100.864z M92.311,99.634l0.479,0.001v0.34h0.348v-0.347l0.49,0.001v0.346h0.35
		v-0.347h0.49l-0.002,0.783c0,0.122-0.098,0.202-0.213,0.202h-1.719c-0.113,0-0.221-0.092-0.221-0.205L92.311,99.634z
		 M90.477,101.846c-0.113,0-0.219-0.092-0.219-0.206v-0.772h0.469v0.339h0.34v-0.347l0.48,0.001v0.346h0.342v-0.347l0.479,0.001
		v0.783c0,0.122-0.098,0.202-0.209,0.202h-0.094l0.051,1.354l-1.607,0.001l0.047-1.355H90.477z M90.448,104.306h-0.094
		c-0.127,0-0.232-0.123-0.232-0.274c0-0.15,0.105-0.274,0.232-0.274h-0.133c-0.133,0-0.242-0.124-0.242-0.274
		s0.109-0.274,0.242-0.274h6.328c0.135,0,0.242,0.124,0.242,0.274s-0.107,0.274-0.242,0.274h-0.141c0.127,0,0.232,0.124,0.232,0.274
		c0,0.151-0.104,0.274-0.232,0.274h-0.091l0.283,2.401h-1.61c0,0.003,0,0.006,0,0.009h1.693c0.139,0,0.254,0.137,0.254,0.305
		c0,0.167-0.115,0.305-0.254,0.305h-6.602c-0.139,0-0.252-0.137-0.252-0.305s0.113-0.305,0.252-0.305h1.708
		c0-0.003,0-0.006,0.001-0.009l-1.602-0.003L90.448,104.306z M96.301,119.883h-0.094l0.051,1.355h-1.609l0.045-1.355h-0.076
		c-0.113,0-0.217-0.092-0.217-0.205v-0.774h0.467v0.341h0.34v-0.348l0.48,0.001v0.347h0.342v-0.348h0.48l-0.002,0.784
		C96.508,119.803,96.413,119.883,96.301,119.883z M89.987,121.522c0-0.151,0.109-0.274,0.244-0.274h6.328
		c0.133,0,0.242,0.123,0.242,0.274c0,0.15-0.109,0.274-0.242,0.274h-6.328C90.096,121.797,89.987,121.673,89.987,121.522z
		 M92.663,118.718l1.459,0.005H94.12l0.107,2.515l-1.676-0.007L92.663,118.718z M93.147,118.015v-0.347l0.488,0.001v0.346h0.352
		v-0.347h0.488v0.784c0,0.122-0.1,0.202-0.213,0.202h-1.719c-0.115,0-0.223-0.092-0.223-0.205l-0.002-0.773v-0.002l0.479,0.002
		v0.339H93.147z M90.485,119.888c-0.111,0-0.217-0.094-0.217-0.206v-0.774l0.467,0.001v0.34h0.34v-0.349l0.48,0.002v0.347h0.342
		v-0.347h0.48v0.783c0,0.122-0.098,0.203-0.211,0.203h-0.094l0.053,1.354l-1.607,0.001l0.045-1.354H90.485z M90.364,122.347
		c-0.127,0-0.232-0.122-0.232-0.274c0-0.15,0.105-0.274,0.232-0.274h6.053c0.129,0,0.232,0.124,0.232,0.274
		c0,0.151-0.104,0.274-0.232,0.274h-0.089l0.281,2.401h-1.61c0,0.003,0.001,0.006,0.001,0.009h1.693
		c0.139,0,0.254,0.137,0.254,0.305s-0.115,0.306-0.254,0.306h-6.6c-0.141,0-0.254-0.138-0.254-0.306
		c0-0.167,0.113-0.305,0.254-0.305h1.706c0-0.003,0.001-0.006,0.001-0.009l-1.6-0.002l0.256-2.399H90.364z M97.897,129.004
		l-0.004-21.046l26.469,0.048h-0.002l0.002,19.046l-0.016,2.015c0,0.531-0.033,1.135-0.094,1.648
		c-0.361,3.013-1.746,5.636-3.797,7.678c-2.4,2.392-5.715,3.872-9.367,3.872c-3.633,0-6.871-1.533-9.283-3.934
		C99.333,135.87,97.897,132.493,97.897,129.004z M98.375,137.015l0.996,0.922l-1.139,1.137l-0.926-0.991l-0.055,0.055
		c-0.08,0.079-0.219,0.089-0.299,0.008l-0.549-0.546l0.332-0.331l0.24,0.241l0.242-0.241l-0.246-0.245l0.34-0.339l0.244,0.243
		l0.242-0.239l-0.246-0.247l0.34-0.339l0.553,0.556c0.088,0.086,0.076,0.211-0.004,0.29l-1.135,1.135L98.375,137.015z
		 M97.934,139.37l-1.189,1.181l-1.697-1.856l1.033-1.025L97.934,139.37z M94.993,137.266l0.244,0.244l0.248-0.248l-0.244-0.244
		l0.346-0.348l0.553,0.556c0.088,0.087,0.074,0.213-0.008,0.294l-1.213,1.216c-0.084,0.082-0.225,0.092-0.305,0.011l-0.547-0.546
		l0.338-0.338l0.24,0.241l0.246-0.247l-0.244-0.246L94.993,137.266z M94.333,141.062c-0.08,0.079-0.219,0.088-0.299,0.009
		l-0.547-0.547l0.33-0.33l0.24,0.24l0.242-0.242l-0.246-0.245l0.34-0.337l0.244,0.244l0.242-0.243l-0.246-0.244l0.34-0.34
		l0.553,0.555c0.086,0.087,0.074,0.212-0.004,0.291l-1.135,1.135l1.07-1.068l0.992,0.923l-1.135,1.136l-0.928-0.99L94.333,141.062z
		 M95.139,142.571c-0.107-0.106-0.117-0.271-0.023-0.365l4.475-4.477c0.094-0.093,0.26-0.084,0.365,0.023
		c0.107,0.105,0.117,0.271,0.023,0.365l-4.475,4.476C95.409,142.688,95.245,142.678,95.139,142.571z M97.536,145.179
		c-0.119-0.119-0.137-0.296-0.037-0.395l1.208-1.208c-0.002-0.002-0.003-0.004-0.006-0.007l-1.133,1.13l-1.514-1.878l-0.066,0.066
		c-0.09,0.09-0.252,0.076-0.357-0.03c-0.107-0.106-0.121-0.27-0.029-0.359v0.002l4.279-4.28c0.09-0.092,0.252-0.078,0.357,0.028
		c0.107,0.107,0.121,0.27,0.031,0.359l-0.064,0.063l1.898,1.499l-1.14,1.139c0.002,0.002,0.004,0.003,0.007,0.005l1.197-1.197
		c0.098-0.098,0.275-0.081,0.395,0.037c0.119,0.119,0.135,0.296,0.037,0.396l-4.668,4.667
		C97.833,145.313,97.655,145.297,97.536,145.179z"/>
	<path fill="#ED2224" d="M109.673,106.107c0.111-0.501,0.312-0.869,0.531-1.15C109.972,105.221,109.769,105.59,109.673,106.107z"/>
	<path fill="#2B3187" d="M108.319,121.354l-0.01,4.193v0.002c0,0.862,0.33,1.646,0.861,2.217c0.531,0.572,1.264,0.926,2.064,0.926
		c0.807,0,1.537-0.353,2.066-0.921c0.529-0.567,0.857-1.353,0.857-2.219v-4.194L108.319,121.354z M111.264,123.929
		c0.318,0,0.578,0.26,0.578,0.578s-0.26,0.579-0.578,0.579c-0.32,0-0.58-0.261-0.58-0.579S110.944,123.929,111.264,123.929z
		 M109.715,122.371c0.32,0,0.578,0.258,0.578,0.578c0,0.318-0.258,0.578-0.578,0.578c-0.318,0-0.578-0.261-0.578-0.578
		C109.137,122.629,109.397,122.371,109.715,122.371z M109.143,126.136c0-0.318,0.26-0.578,0.58-0.578
		c0.318,0,0.578,0.26,0.578,0.578s-0.26,0.577-0.578,0.577C109.403,126.713,109.143,126.454,109.143,126.136z M113.461,126.133
		c0,0.317-0.26,0.578-0.578,0.578c-0.32,0-0.578-0.261-0.578-0.578c0-0.318,0.258-0.578,0.578-0.578
		C113.202,125.555,113.461,125.814,113.461,126.133z M113.465,122.951c0,0.318-0.26,0.578-0.578,0.578c-0.32,0-0.58-0.26-0.58-0.578
		c0-0.317,0.26-0.578,0.58-0.578C113.206,122.373,113.465,122.634,113.465,122.951z"/>
	<circle fill="#FFFFFF" cx="112.887" cy="122.951" r="0.578"/>
	<circle fill="#FFFFFF" cx="111.263" cy="124.507" r="0.579"/>
	<circle fill="#FFFFFF" cx="112.883" cy="126.133" r="0.578"/>
	<circle fill="#FFFFFF" cx="109.723" cy="126.135" r="0.578"/>
	<circle fill="#FFFFFF" cx="109.715" cy="122.949" r="0.578"/>
	<path fill="#2B3187" d="M108.28,135.594c0,0.862,0.33,1.647,0.861,2.216c0.533,0.572,1.264,0.926,2.066,0.926
		c0.805,0,1.535-0.352,2.064-0.92s0.857-1.353,0.857-2.218v-4.195l-5.838-0.003l-0.012,4.192V135.594z M109.114,136.181
		c0-0.319,0.262-0.579,0.58-0.579s0.578,0.26,0.578,0.579c0,0.318-0.26,0.577-0.578,0.577S109.114,136.499,109.114,136.181z
		 M109.686,132.415c0.32,0,0.58,0.261,0.58,0.578c0,0.318-0.26,0.579-0.58,0.579c-0.316,0-0.578-0.261-0.578-0.579
		C109.108,132.676,109.37,132.415,109.686,132.415z M111.813,134.552c0,0.318-0.258,0.578-0.578,0.578
		c-0.318,0-0.578-0.26-0.578-0.578c0-0.317,0.26-0.578,0.578-0.578C111.555,133.974,111.813,134.234,111.813,134.552z
		 M113.434,136.176c0,0.318-0.26,0.578-0.58,0.578c-0.318,0-0.578-0.26-0.578-0.578s0.26-0.578,0.578-0.578
		C113.174,135.598,113.434,135.857,113.434,136.176z M113.436,132.995c0,0.318-0.26,0.578-0.578,0.578s-0.58-0.26-0.58-0.578
		s0.262-0.577,0.58-0.577S113.436,132.677,113.436,132.995z"/>
	<circle fill="#FFFFFF" cx="112.858" cy="132.996" r="0.578"/>
	<circle fill="#FFFFFF" cx="111.235" cy="134.552" r="0.578"/>
	<circle fill="#FFFFFF" cx="112.854" cy="136.176" r="0.578"/>
	<circle fill="#FFFFFF" cx="109.693" cy="136.181" r="0.579"/>
	<path fill="#FFFFFF" d="M109.686,133.572c0.32,0,0.58-0.261,0.58-0.579c0-0.317-0.26-0.578-0.58-0.578
		c-0.316,0-0.578,0.261-0.578,0.578C109.108,133.312,109.37,133.572,109.686,133.572z"/>
	<path fill="#2B3187" d="M103.133,128.712c0.805,0,1.537-0.352,2.066-0.921c0.527-0.568,0.857-1.353,0.857-2.218v-4.194l-5.84-0.005
		l-0.012,4.193v0.003c0,0.861,0.332,1.646,0.861,2.216C101.6,128.356,102.331,128.712,103.133,128.712z M104.206,122.972
		c0-0.318,0.26-0.578,0.578-0.578c0.32,0,0.58,0.26,0.58,0.578s-0.26,0.578-0.58,0.578
		C104.465,123.55,104.206,123.29,104.206,122.972z M103.161,125.105c-0.318,0-0.578-0.259-0.578-0.578
		c0-0.318,0.26-0.578,0.578-0.578s0.58,0.261,0.58,0.578C103.741,124.847,103.479,125.105,103.161,125.105z M104.782,126.73
		c-0.32,0-0.58-0.261-0.58-0.579s0.26-0.577,0.58-0.577c0.318,0,0.578,0.259,0.578,0.577S105.1,126.73,104.782,126.73z
		 M101.614,122.391c0.318,0,0.578,0.26,0.578,0.578s-0.26,0.578-0.578,0.578c-0.32,0-0.578-0.26-0.578-0.578
		S101.293,122.391,101.614,122.391z M101.62,125.579c0.32,0,0.58,0.258,0.58,0.576c0,0.319-0.26,0.579-0.58,0.579
		c-0.318,0-0.578-0.26-0.578-0.579C101.042,125.837,101.301,125.579,101.62,125.579z"/>
	<circle fill="#FFFFFF" cx="104.784" cy="122.972" r="0.578"/>
	<circle fill="#FFFFFF" cx="103.161" cy="124.527" r="0.578"/>
	<circle fill="#FFFFFF" cx="104.782" cy="126.152" r="0.578"/>
	<circle fill="#FFFFFF" cx="101.62" cy="126.157" r="0.578"/>
	<circle fill="#FFFFFF" cx="101.614" cy="122.969" r="0.578"/>
	<path fill="#2B3187" d="M116.401,121.369l-0.012,4.193v0.003c0,0.861,0.332,1.646,0.863,2.217c0.531,0.572,1.264,0.927,2.064,0.927
		c0.805,0,1.537-0.354,2.066-0.923c0.529-0.567,0.857-1.352,0.857-2.217v-4.195L116.401,121.369z M117.797,122.386
		c0.318,0,0.58,0.26,0.58,0.579s-0.262,0.578-0.58,0.578s-0.578-0.259-0.578-0.578S117.479,122.386,117.797,122.386z
		 M117.805,126.73c-0.32,0-0.578-0.261-0.578-0.579s0.258-0.577,0.578-0.577c0.318,0,0.578,0.259,0.578,0.577
		S118.124,126.73,117.805,126.73z M119.346,125.102c-0.32,0-0.58-0.26-0.58-0.578s0.26-0.578,0.58-0.578
		c0.318,0,0.578,0.26,0.578,0.578C119.924,124.843,119.665,125.102,119.346,125.102z M120.965,126.726
		c-0.32,0-0.578-0.26-0.578-0.578s0.258-0.578,0.578-0.578c0.318,0,0.578,0.26,0.578,0.578S121.284,126.726,120.965,126.726z
		 M120.969,123.546c-0.32,0-0.578-0.26-0.578-0.578s0.258-0.579,0.578-0.579c0.318,0,0.578,0.261,0.578,0.579
		S121.288,123.546,120.969,123.546z"/>
	<circle fill="#FFFFFF" cx="120.969" cy="122.968" r="0.578"/>
	<circle fill="#FFFFFF" cx="119.346" cy="124.523" r="0.578"/>
	<circle fill="#FFFFFF" cx="120.965" cy="126.147" r="0.578"/>
	<circle fill="#FFFFFF" cx="117.805" cy="126.152" r="0.578"/>
	<circle fill="#FFFFFF" cx="117.797" cy="122.964" r="0.579"/>
	<path fill="#2B3187" d="M109.167,117.631c0.533,0.571,1.266,0.926,2.066,0.926c0.807,0,1.537-0.352,2.066-0.92
		c0.529-0.569,0.857-1.353,0.857-2.219v-4.194l-5.84-0.005l-0.012,4.194v0.002C108.305,116.276,108.637,117.062,109.167,117.631z
		 M109.133,112.814c0-0.319,0.262-0.578,0.58-0.578s0.578,0.259,0.578,0.578c0,0.318-0.26,0.578-0.578,0.578
		S109.133,113.132,109.133,112.814z M109.141,116c0-0.317,0.262-0.577,0.578-0.577c0.32,0,0.58,0.26,0.58,0.577
		c0,0.319-0.26,0.578-0.58,0.578C109.401,116.578,109.141,116.319,109.141,116z M111.26,114.952c-0.318,0-0.578-0.262-0.578-0.579
		c0-0.319,0.26-0.579,0.578-0.579c0.32,0,0.58,0.26,0.58,0.579C111.84,114.691,111.581,114.952,111.26,114.952z M113.459,115.996
		c0,0.319-0.26,0.579-0.578,0.579s-0.58-0.26-0.58-0.579c0-0.318,0.262-0.578,0.58-0.578S113.459,115.679,113.459,115.996z
		 M113.463,112.816c0,0.318-0.26,0.579-0.58,0.579c-0.318,0-0.578-0.261-0.578-0.579s0.26-0.578,0.578-0.578
		C113.204,112.238,113.463,112.499,113.463,112.816z"/>
	<circle fill="#FFFFFF" cx="112.883" cy="112.817" r="0.579"/>
	<circle fill="#FFFFFF" cx="111.26" cy="114.373" r="0.579"/>
	<circle fill="#FFFFFF" cx="112.881" cy="115.997" r="0.579"/>
	<path fill="#FFFFFF" d="M109.719,116.578c0.32,0,0.58-0.259,0.58-0.578c0-0.317-0.26-0.577-0.58-0.577
		c-0.316,0-0.578,0.26-0.578,0.577C109.141,116.319,109.401,116.578,109.719,116.578z"/>
	<circle fill="#FFFFFF" cx="109.713" cy="112.814" r="0.578"/>
	<path fill="#F6EB16" d="M93.389,104.33c-0.022-0.004-0.562,0.123-1.007,0.64c-0.213,0.278-0.408,0.641-0.517,1.129
		c-0.034,0.187-0.061,0.383-0.062,0.608h-0.012c0,0.003-0.001,0.006-0.001,0.009h3.2c0-0.003,0-0.006,0-0.009h-0.007
		C94.944,104.782,93.424,104.328,93.389,104.33z M92.483,106.704c0.008-1.291,0.881-1.656,0.887-1.655c0,0,0.912,0.376,0.918,1.655
		H92.483z"/>
	<path fill="#F6EB16" d="M91.792,106.707h0.012c0.002-0.226,0.028-0.422,0.062-0.608c0.094-0.505,0.291-0.867,0.517-1.129
		c0.444-0.517,0.985-0.644,1.007-0.64c0.035-0.002,1.555,0.452,1.594,2.377h0.007h1.61l-0.283-2.401h-5.87l-0.258,2.398
		L91.792,106.707z"/>
	<path fill="#F6EB16" d="M91.791,106.716h-1.708c-0.139,0-0.252,0.137-0.252,0.305s0.113,0.305,0.252,0.305h6.602
		c0.139,0,0.254-0.138,0.254-0.305c0-0.168-0.115-0.305-0.254-0.305h-1.693H91.791z"/>
	<path fill="#F6EB16" d="M93.37,105.049c-0.006-0.001-0.879,0.364-0.887,1.655h1.805C94.282,105.425,93.37,105.049,93.37,105.049z"
		/>
	<path fill="#F6EB16" d="M96.549,103.757c0.135,0,0.242-0.124,0.242-0.274s-0.107-0.274-0.242-0.274h-6.328
		c-0.133,0-0.242,0.124-0.242,0.274s0.109,0.274,0.242,0.274h0.133h6.055H96.549z"/>
	<path fill="#F6EB16" d="M96.317,104.306h0.091c0.129,0,0.232-0.123,0.232-0.274c0-0.15-0.105-0.274-0.232-0.274h-6.055
		c-0.127,0-0.232,0.124-0.232,0.274c0,0.151,0.105,0.274,0.232,0.274h0.094H96.317z"/>
	<path fill="#F6EB16" d="M92.313,100.408c0,0.113,0.107,0.205,0.221,0.205h1.719c0.115,0,0.213-0.08,0.213-0.202l0.002-0.783h-0.49
		v0.347h-0.35v-0.346l-0.49-0.001v0.347H92.79v-0.34l-0.479-0.001L92.313,100.408z"/>
	<path fill="#F6EB16" d="M94.112,100.682L94.112,100.682l-1.457-0.005l-0.111,2.513l1.676,0.006L94.112,100.682z M93.217,101.477
		c-0.01-0.244,0.342-0.247,0.338,0v0.598h-0.338V101.477z"/>
	
		<line fill="none" stroke="#F6EB16" stroke-width="0" stroke-linecap="round" stroke-linejoin="round" x1="94.391" y1="100.863" x2="94.391" y2="100.862"/>
	<path fill="#F6EB16" d="M96.292,101.842c0.111,0,0.209-0.08,0.209-0.202v-0.784h-0.48v0.348h-0.342v-0.347l-0.479-0.001v0.348
		h-0.342v-0.34h-0.467v0.774c0,0.111,0.105,0.204,0.219,0.204h0.076h1.512H96.292z"/>
	<path fill="#F6EB16" d="M96.198,101.842h-1.512l-0.045,1.356l1.607-0.001L96.198,101.842z M95.286,102.341
		c-0.002-0.234,0.326-0.24,0.322,0v0.463h-0.322V102.341z"/>
	<path fill="#F6EB16" d="M92.159,101.846c0.111,0,0.209-0.08,0.209-0.202v-0.783l-0.479-0.001v0.347h-0.342v-0.346l-0.48-0.001
		v0.347h-0.34v-0.339h-0.469v0.772c0,0.114,0.105,0.206,0.219,0.206h0.078h1.51H92.159z"/>
	<path fill="#F6EB16" d="M90.508,103.201l1.607-0.001l-0.051-1.354h-1.51L90.508,103.201z M91.461,102.346v0.463h-0.322v-0.463
		C91.139,102.11,91.465,102.105,91.461,102.346z"/>
	<path fill="#010101" d="M93.555,101.477c0.004-0.247-0.348-0.244-0.338,0v0.598h0.338V101.477z"/>
	<path fill="#010101" d="M95.608,102.804v-0.463c0.004-0.24-0.324-0.234-0.322,0v0.463H95.608z"/>
	<path fill="#010101" d="M91.139,102.809h0.322v-0.463c0.004-0.24-0.322-0.235-0.322,0V102.809z"/>
	<path fill="#F6EB16" d="M110.342,100.616h1.719c0.113,0,0.213-0.079,0.213-0.202l0.002-0.783l-0.49-0.001v0.347h-0.352v-0.346
		l-0.488-0.001v0.349h-0.348v-0.341l-0.479-0.001v0.774C110.12,100.524,110.227,100.616,110.342,100.616z"/>
	<path fill="#F6EB16" d="M111.92,100.686L111.92,100.686l-1.459-0.005l-0.109,2.512l1.676,0.007L111.92,100.686z M111.362,102.078
		h-0.338v-0.6c-0.01-0.244,0.344-0.246,0.338,0V102.078z"/>
	<path fill="#F6EB16" d="M112.2,101.64c0,0.113,0.105,0.206,0.219,0.206h0.076h1.51h0.096c0.111,0,0.207-0.08,0.207-0.203
		l0.002-0.783l-0.479-0.001v0.347h-0.344v-0.345l-0.479-0.002v0.347h-0.342v-0.338l-0.467-0.002V101.64z"/>
	<path fill="#F6EB16" d="M112.495,101.846l-0.045,1.354h1.605l-0.051-1.354H112.495z M113.417,102.808h-0.324v-0.462
		c0-0.236,0.326-0.242,0.324,0V102.808z"/>
	<path fill="#F6EB16" d="M108.875,101.211h-0.342v-0.341l-0.467-0.001v0.775c0,0.112,0.105,0.205,0.219,0.205h0.076h1.512h0.094
		c0.111,0,0.207-0.081,0.207-0.202l0.002-0.784h-0.48v0.347h-0.342v-0.346l-0.479-0.001V101.211z"/>
	<path fill="#F6EB16" d="M108.362,101.85l-0.045,1.354h1.607l-0.051-1.354H108.362z M108.948,102.812v-0.463
		c-0.002-0.236,0.326-0.241,0.322,0v0.463H108.948z"/>
	<path fill="#F6EB16" d="M112.799,106.719c0-0.003-0.001-0.006-0.001-0.009h-0.007c-0.041-1.924-1.561-2.379-1.596-2.377
		c-0.021-0.004-0.55,0.122-0.992,0.624c-0.219,0.281-0.419,0.649-0.531,1.15c-0.034,0.185-0.06,0.379-0.062,0.603H109.6
		c0,0.003-0.001,0.006-0.001,0.009H112.799z M111.176,105.052c0,0,0.914,0.377,0.92,1.655h-1.805
		C110.299,105.416,111.172,105.051,111.176,105.052z"/>
	<path fill="#F6EB16" d="M109.673,106.107c0.095-0.518,0.298-0.887,0.531-1.15c0.442-0.502,0.971-0.628,0.992-0.624
		c0.035-0.002,1.555,0.453,1.596,2.377h0.007h1.61l-0.283-2.401h-5.87l-0.258,2.398l1.602,0.003h0.012
		C109.613,106.486,109.64,106.292,109.673,106.107z"/>
	<path fill="#F6EB16" d="M107.889,107.329h6.604c0.139,0,0.252-0.138,0.252-0.305c0-0.168-0.113-0.306-0.252-0.306h-1.693h-3.2
		h-1.71c-0.139,0-0.252,0.138-0.252,0.306C107.637,107.191,107.75,107.329,107.889,107.329z"/>
	<path fill="#F6EB16" d="M112.096,106.707c-0.006-1.278-0.92-1.655-0.92-1.655c-0.004-0.001-0.877,0.364-0.885,1.655H112.096z"/>
	<path fill="#F6EB16" d="M114.217,103.76h0.141c0.133,0,0.242-0.123,0.242-0.274s-0.109-0.275-0.242-0.275h-6.328
		c-0.133,0-0.242,0.124-0.242,0.275s0.109,0.274,0.242,0.274h0.133H114.217z"/>
	<path fill="#F6EB16" d="M114.126,104.309h0.091c0.127,0,0.232-0.123,0.232-0.274c0-0.15-0.105-0.274-0.232-0.274h-6.055
		c-0.127,0-0.23,0.124-0.23,0.274c0,0.151,0.104,0.274,0.23,0.274h0.094H114.126z"/>
	<path fill="#010101" d="M111.362,101.479c0.006-0.246-0.348-0.244-0.338,0v0.6h0.338V101.479z"/>
	<path fill="#010101" d="M113.092,102.346v0.462h0.324v-0.462C113.418,102.104,113.092,102.109,113.092,102.346z"/>
	<path fill="#010101" d="M109.27,102.35c0.004-0.241-0.324-0.236-0.322,0v0.463h0.322V102.35z"/>
	<path fill="#F6EB16" d="M129.045,99.989v-0.346l-0.488-0.001v0.347h-0.35v-0.34h-0.479l0.002,0.773
		c0,0.114,0.105,0.205,0.221,0.205h1.718c0.115,0,0.215-0.079,0.215-0.201v-0.784h-0.49v0.347H129.045z"/>
	<path fill="#F6EB16" d="M129.529,100.697l-1.457-0.006l-0.111,2.513l1.675,0.006L129.529,100.697z M128.635,101.491
		c-0.01-0.244,0.342-0.247,0.338,0v0.6h-0.338V101.491z"/>
	<path fill="#F6EB16" d="M131.709,101.857c0.111,0,0.209-0.08,0.209-0.203v-0.782l-0.479-0.002v0.348h-0.344v-0.346l-0.479-0.002
		v0.348h-0.34v-0.339l-0.469-0.001l0.002,0.774c0,0.113,0.104,0.205,0.217,0.205h0.076h1.512H131.709z"/>
	<path fill="#F6EB16" d="M130.104,101.857l-0.045,1.355l1.609-0.001l-0.053-1.354H130.104z M131.025,102.819h-0.322v-0.462
		c0-0.236,0.326-0.242,0.322,0V102.819z"/>
	<path fill="#F6EB16" d="M127.483,101.861h0.094c0.113,0,0.209-0.079,0.209-0.202l0.002-0.784h-0.48v0.347h-0.342v-0.346
		l-0.48-0.001v0.348h-0.342v-0.341h-0.467l0.002,0.774c0,0.112,0.104,0.205,0.217,0.205h0.076v-0.001L127.483,101.861z"/>
	<path fill="#F6EB16" d="M125.926,103.217h1.607l-0.051-1.355l-1.512-0.001v0.001L125.926,103.217z M126.879,102.824h-0.32v-0.463
		c0-0.235,0.324-0.241,0.32,0V102.824z"/>
	<path fill="#F6EB16" d="M130.408,106.723H130.4c-0.041-1.926-1.56-2.38-1.595-2.378c-0.021-0.004-0.556,0.122-0.999,0.633
		c-0.216,0.279-0.413,0.645-0.523,1.14c-0.034,0.185-0.061,0.381-0.062,0.605h-0.012c0,0.003-0.001,0.006-0.001,0.009h3.2
		C130.408,106.729,130.408,106.726,130.408,106.723z M127.901,106.719L127.901,106.719L127.901,106.719
		c0.01-1.291,0.883-1.656,0.887-1.655c0,0,0.912,0.377,0.919,1.655H127.901L127.901,106.719z"/>
	<path fill="#F6EB16" d="M127.284,106.117c0.095-0.512,0.294-0.877,0.523-1.14c0.443-0.511,0.978-0.637,0.999-0.633
		c0.035-0.002,1.554,0.452,1.595,2.378h0.008h1.609l-0.28-2.401h-5.872l-0.256,2.398l1.6,0.003h0.012
		C127.223,106.498,127.25,106.302,127.284,106.117z"/>
	<path fill="#F6EB16" d="M132.354,107.035c0-0.167-0.113-0.304-0.252-0.304h-1.693h-3.2H125.5c-0.139,0-0.254,0.137-0.254,0.304
		c0,0.168,0.115,0.306,0.254,0.306h6.601C132.24,107.341,132.354,107.203,132.354,107.035z"/>
	<polygon fill="#F6EB16" points="127.901,106.719 127.901,106.718 127.901,106.718 	"/>
	<path fill="#F6EB16" d="M128.788,105.063c-0.004-0.001-0.876,0.364-0.887,1.654l1.806,0.001
		C129.699,105.44,128.788,105.063,128.788,105.063z"/>
	<path fill="#F6EB16" d="M131.967,103.223h-6.328c-0.133,0-0.242,0.123-0.242,0.274s0.109,0.274,0.242,0.274h6.328
		c0.135,0,0.244-0.123,0.244-0.274S132.102,103.223,131.967,103.223z"/>
	<path fill="#F6EB16" d="M131.737,104.321h0.089c0.127,0,0.23-0.124,0.23-0.274c0-0.151-0.104-0.274-0.23-0.274h-6.052
		c-0.129,0-0.232,0.123-0.232,0.274c0,0.15,0.104,0.274,0.232,0.274h0.092H131.737z"/>
	<path fill="#010101" d="M128.973,101.491c0.004-0.247-0.348-0.244-0.338,0v0.6h0.338V101.491z"/>
	<path fill="#010101" d="M130.703,102.357v0.462h0.322v-0.462C131.029,102.115,130.703,102.121,130.703,102.357z"/>
	<path fill="#010101" d="M126.559,102.361v0.463h0.32v-0.463C126.883,102.12,126.559,102.126,126.559,102.361z"/>
	<path fill="#F6EB16" d="M92.319,117.674v0.002l0.002,0.773c0,0.113,0.107,0.205,0.223,0.205h1.719c0.113,0,0.213-0.08,0.213-0.202
		v-0.784h-0.488v0.347h-0.352v-0.346l-0.488-0.001v0.347h-0.35v-0.339L92.319,117.674z"/>
	<path fill="#F6EB16" d="M94.12,118.723h0.002l-1.459-0.005l-0.111,2.513l1.676,0.007L94.12,118.723z M93.225,119.517
		c-0.01-0.244,0.342-0.246,0.338,0v0.599h-0.338V119.517z"/>
	<path fill="#F6EB16" d="M96.51,118.896h-0.48v0.348h-0.342v-0.347l-0.48-0.001v0.348h-0.34v-0.341h-0.467v0.774
		c0,0.113,0.104,0.205,0.217,0.205h0.076h1.514h0.094c0.111,0,0.207-0.08,0.207-0.202L96.51,118.896z"/>
	<path fill="#F6EB16" d="M94.694,119.883l-0.045,1.355h1.609l-0.051-1.355H94.694z M95.616,120.383v0.463h-0.322v-0.463
		C95.293,120.147,95.62,120.142,95.616,120.383z"/>
	<path fill="#F6EB16" d="M92.167,119.888c0.113,0,0.211-0.081,0.211-0.203v-0.783h-0.48v0.347h-0.342v-0.347l-0.48-0.002v0.349
		h-0.34v-0.34l-0.467-0.001v0.774c0,0.112,0.105,0.206,0.217,0.206h0.078h1.51H92.167z"/>
	<path fill="#F6EB16" d="M90.518,121.242l1.607-0.001l-0.053-1.354h-1.51L90.518,121.242z M91.471,120.388v0.463h-0.322v-0.463
		C91.147,120.151,91.475,120.146,91.471,120.388z"/>
	<path fill="#F6EB16" d="M93.397,122.371c-0.022-0.005-0.563,0.123-1.007,0.641c-0.213,0.278-0.407,0.641-0.516,1.129
		c-0.035,0.186-0.061,0.383-0.063,0.607h-0.012c0,0.003-0.001,0.006-0.001,0.009h3.2c0-0.003,0-0.006-0.001-0.009h-0.005
		C94.952,122.822,93.432,122.368,93.397,122.371z M94.297,124.745l-1.805-0.002c0,0.001,0,0.001,0,0.002v-0.002l0,0
		c0.009-1.29,0.881-1.655,0.885-1.654C93.377,123.089,94.292,123.467,94.297,124.745z"/>
	<path fill="#F6EB16" d="M90.2,124.746l1.6,0.002h0.012c0.002-0.225,0.028-0.422,0.063-0.607c0.094-0.504,0.29-0.867,0.516-1.129
		c0.444-0.518,0.985-0.646,1.007-0.641c0.035-0.003,1.555,0.451,1.596,2.377h0.005h1.61l-0.281-2.401h-5.872L90.2,124.746z"/>
	<path fill="#F6EB16" d="M91.798,124.757h-1.706c-0.141,0-0.254,0.138-0.254,0.305c0,0.168,0.113,0.306,0.254,0.306h6.6
		c0.139,0,0.254-0.138,0.254-0.306s-0.115-0.305-0.254-0.305h-1.693H91.798z"/>
	<polygon fill="#F6EB16" points="92.493,124.745 92.493,124.743 92.493,124.743 	"/>
	<path fill="#F6EB16" d="M93.377,123.089c-0.004-0.001-0.876,0.364-0.885,1.654l1.805,0.002
		C94.292,123.467,93.377,123.089,93.377,123.089z"/>
	<path fill="#F6EB16" d="M96.559,121.797c0.133,0,0.242-0.124,0.242-0.274c0-0.151-0.109-0.274-0.242-0.274h-6.328
		c-0.135,0-0.244,0.123-0.244,0.274c0,0.15,0.109,0.274,0.244,0.274H96.559z"/>
	<path fill="#F6EB16" d="M96.327,122.347h0.089c0.129,0,0.232-0.123,0.232-0.274c0-0.15-0.104-0.274-0.232-0.274h-6.053
		c-0.127,0-0.232,0.124-0.232,0.274c0,0.152,0.105,0.274,0.232,0.274h0.092H96.327z"/>
	<path fill="#010101" d="M93.563,120.115v-0.599c0.004-0.246-0.348-0.244-0.338,0v0.599H93.563z"/>
	<path fill="#010101" d="M95.293,120.383v0.463h0.322v-0.463C95.62,120.142,95.293,120.147,95.293,120.383z"/>
	<path fill="#010101" d="M91.149,120.388v0.463h0.322v-0.463C91.475,120.146,91.147,120.151,91.149,120.388z"/>
	<path fill="#F6EB16" d="M127.034,137.533l-0.246-0.248l0.24-0.238l-0.336-0.34h-0.002l-0.547,0.548
		c-0.078,0.08-0.07,0.22,0.012,0.303l1.217,1.216c0.08,0.081,0.205,0.094,0.293,0.008l0.555-0.554l-0.346-0.348l-0.244,0.246
		l-0.248-0.247l0.244-0.246l-0.346-0.347L127.034,137.533z"/>
	<path fill="#F6EB16" d="M127.221,138.722l-1.025-1.035l-1.855,1.698l1.182,1.19L127.221,138.722z M126.266,138.837l-0.424,0.424
		l-0.236-0.238l0.424-0.424C126.194,138.418,126.444,138.667,126.266,138.837z"/>
	<path fill="#F6EB16" d="M128.208,139.952l-0.338-0.339l-0.244,0.246l-0.242-0.24l0.24-0.241l-0.33-0.333l-0.547,0.548
		c-0.08,0.081-0.072,0.221,0.008,0.301l1.189,1.188c0.08,0.08,0.205,0.092,0.291,0.006l0.555-0.554l-0.34-0.34l-0.246,0.246
		l-0.242-0.243L128.208,139.952z"/>
	<path fill="#F6EB16" d="M126.809,139.948l-0.99,0.927l1.137,1.136l0.922-0.994L126.809,139.948z M126.78,141.229l-0.229-0.229
		l0.328-0.327c0.164-0.168,0.4,0.06,0.227,0.227L126.78,141.229z"/>
	<path fill="#F6EB16" d="M125.018,138.163c0.08,0.079,0.205,0.091,0.293,0.005l0.553-0.555l-0.338-0.338l-0.246,0.246l-0.242-0.242
		l0.246-0.245l-0.34-0.34l-0.246,0.245l-0.238-0.241l0.238-0.24l-0.33-0.331l-0.547,0.549c-0.08,0.08-0.07,0.219,0.01,0.298
		L125.018,138.163z"/>
	<path fill="#F6EB16" d="M122.893,137.955l1.137,1.137l0.922-0.994l-1.068-1.069L122.893,137.955z M124.172,137.973l-0.328,0.328
		l-0.227-0.229l0.328-0.327C124.11,137.577,124.346,137.806,124.172,137.973z"/>
	<path fill="#F6EB16" d="M124.131,140.79c-0.013-0.019-0.479-0.307-1.151-0.261c-0.351,0.045-0.749,0.163-1.176,0.435
		c-0.156,0.107-0.313,0.228-0.474,0.386l-0.009-0.009c-0.003,0.002-0.005,0.003-0.008,0.006l2.263,2.263
		c0.002-0.002,0.003-0.004,0.005-0.006l-0.005-0.005C124.911,142.209,124.159,140.812,124.131,140.79z M121.813,141.827
		c0.918-0.907,1.793-0.546,1.797-0.542c0,0,0.377,0.911-0.52,1.82L121.813,141.827z"/>
	<path fill="#F6EB16" d="M122.07,138.694l-1.878,1.513l1.13,1.134l0.009,0.009c0.16-0.158,0.318-0.278,0.474-0.386
		c0.429-0.294,0.828-0.411,1.176-0.435c0.672-0.046,1.138,0.242,1.151,0.261c0.027,0.022,0.779,1.419-0.555,2.809l0.005,0.005
		l1.139,1.139l1.5-1.896L122.07,138.694z"/>
	<path fill="#F6EB16" d="M120.106,140.139L120.106,140.139c-0.098-0.098-0.275-0.081-0.395,0.038
		c-0.117,0.118-0.135,0.295-0.035,0.394l4.666,4.667c0.1,0.1,0.277,0.082,0.396-0.034c0.117-0.119,0.135-0.297,0.037-0.396
		l-1.199-1.198l-2.263-2.263L120.106,140.139z"/>
	<path fill="#F6EB16" d="M123.61,141.285c-0.004-0.004-0.879-0.365-1.797,0.542l1.277,1.278
		C123.987,142.196,123.61,141.285,123.61,141.285z"/>
	<path fill="#F6EB16" d="M126.772,142.618c0.096,0.095,0.26,0.086,0.365-0.021c0.107-0.107,0.117-0.271,0.023-0.367l-4.475-4.474
		h0.002c-0.098-0.095-0.262-0.083-0.367,0.021c-0.107,0.108-0.117,0.272-0.023,0.366L126.772,142.618z"/>
	<path fill="#F6EB16" d="M126.672,142.521l-4.281-4.28c-0.088-0.091-0.25-0.077-0.357,0.029s-0.121,0.269-0.029,0.359l0.065,0.065
		l4.151,4.151l0.063,0.062c0.092,0.091,0.252,0.077,0.359-0.029C126.749,142.771,126.762,142.611,126.672,142.521z"/>
	<path fill="#010101" d="M126.03,138.599l-0.424,0.424l0.236,0.238l0.424-0.424C126.444,138.667,126.194,138.418,126.03,138.599z"/>
	<path fill="#010101" d="M126.879,140.674l-0.328,0.327l0.229,0.229l0.326-0.329C127.28,140.733,127.043,140.506,126.879,140.674z"
		/>
	<path fill="#010101" d="M123.844,138.301l0.328-0.328c0.174-0.167-0.062-0.396-0.227-0.228l-0.328,0.327L123.844,138.301z"/>
	<path fill="#F6EB16" d="M127.704,117.678L127.704,117.678v0.774c0,0.114,0.107,0.206,0.223,0.206h1.718
		c0.113,0,0.213-0.079,0.213-0.203l0.002-0.782l-0.49-0.001v0.347h-0.352v-0.346l-0.488-0.001v0.347h-0.35v-0.34L127.704,117.678z"
		/>
	<path fill="#F6EB16" d="M129.502,118.728h0.002l-1.458-0.007l-0.111,2.514l1.677,0.006L129.502,118.728z M128.608,119.521
		c-0.01-0.244,0.342-0.247,0.338,0v0.6h-0.338V119.521z"/>
	<path fill="#F6EB16" d="M129.781,118.905l0.002,0.775c0.002,0.113,0.105,0.205,0.217,0.205h1.682c0.113,0,0.209-0.079,0.209-0.201
		v-0.783l-0.477-0.002v0.349h-0.344v-0.347l-0.479-0.002v0.349h-0.342v-0.34L129.781,118.905z"/>
	<path fill="#F6EB16" d="M130.078,119.888l-0.047,1.354l1.609-0.001l-0.053-1.354H130.078z M130.998,120.849h-0.322v-0.462
		c-0.002-0.236,0.326-0.242,0.322,0V120.849z"/>
	<path fill="#F6EB16" d="M127.551,119.89c0.109,0,0.207-0.08,0.207-0.202v-0.784h-0.479v0.347h-0.342v-0.345l-0.479-0.002v0.347
		h-0.342v-0.339l-0.467-0.001v0.775c0,0.112,0.104,0.204,0.217,0.204h0.078H127.551z"/>
	<path fill="#F6EB16" d="M125.901,121.246l1.605-0.001l-0.051-1.354l-1.51-0.001L125.901,121.246z M126.854,120.853h-0.322v-0.462
		c-0.002-0.236,0.324-0.241,0.322,0V120.853z"/>
	<path fill="#F6EB16" d="M130.381,124.752h-0.006c-0.041-1.925-1.56-2.38-1.595-2.378c-0.022-0.004-0.556,0.123-0.999,0.632
		c-0.217,0.279-0.414,0.646-0.524,1.141c-0.034,0.185-0.061,0.381-0.062,0.605h-0.012c0,0.003-0.001,0.005-0.001,0.008h3.2
		C130.381,124.757,130.381,124.755,130.381,124.752z M127.875,124.747c0.006-1.29,0.881-1.655,0.885-1.653
		c0.002,0,0.912,0.375,0.919,1.653H127.875z"/>
	<path fill="#F6EB16" d="M127.256,124.146c0.095-0.512,0.295-0.878,0.524-1.141c0.443-0.509,0.977-0.636,0.999-0.632
		c0.035-0.002,1.554,0.453,1.595,2.378h0.006h1.611l-0.282-2.401h-5.87l-0.26,2.397l1.602,0.004h0.012
		C127.196,124.527,127.222,124.331,127.256,124.146z"/>
	<path fill="#F6EB16" d="M125.473,125.37h6.603c0.139,0,0.252-0.138,0.252-0.305c0-0.168-0.113-0.306-0.252-0.306h-1.695h-3.2
		h-1.708c-0.139,0-0.252,0.138-0.252,0.306C125.221,125.232,125.334,125.37,125.473,125.37z"/>
	<path fill="#F6EB16" d="M128.76,123.094c-0.004-0.002-0.879,0.363-0.885,1.653h1.804
		C129.672,123.469,128.762,123.094,128.76,123.094z"/>
	<path fill="#F6EB16" d="M125.37,121.526c0,0.15,0.111,0.273,0.242,0.273h6.33c0.133,0,0.242-0.123,0.242-0.273
		c0-0.151-0.109-0.274-0.242-0.274h-6.33C125.481,121.252,125.37,121.375,125.37,121.526z"/>
	<path fill="#F6EB16" d="M131.71,122.351h0.091c0.127,0,0.232-0.125,0.232-0.275s-0.105-0.274-0.232-0.274h-6.054
		c-0.127,0-0.232,0.124-0.232,0.274c0,0.152,0.105,0.275,0.232,0.275h0.094H131.71z"/>
	<path fill="#010101" d="M128.946,120.12v-0.6c0.004-0.247-0.348-0.244-0.338,0v0.6H128.946z"/>
	<path fill="#010101" d="M130.676,120.387v0.462h0.322v-0.462C131.002,120.145,130.674,120.15,130.676,120.387z"/>
	<path fill="#010101" d="M126.532,120.391v0.462h0.322v-0.462C126.856,120.149,126.53,120.154,126.532,120.391z"/>
	<path fill="#F6EB16" d="M94.891,137.856l-0.246,0.247l-0.24-0.241l-0.338,0.338l0.547,0.546c0.08,0.081,0.221,0.071,0.305-0.011
		l1.213-1.216c0.082-0.081,0.096-0.207,0.008-0.294l-0.553-0.556l-0.346,0.348l0.244,0.244l-0.248,0.248l-0.244-0.244l-0.346,0.345
		L94.891,137.856z"/>
	<path fill="#F6EB16" d="M95.047,138.694l1.697,1.856l1.189-1.181l-1.854-1.701L95.047,138.694z M96.249,138.572l0.424,0.423
		l-0.238,0.239l-0.424-0.425C95.829,138.646,96.077,138.396,96.249,138.572z"/>
	<path fill="#F6EB16" d="M98.446,136.657l-0.553-0.556l-0.34,0.339l0.246,0.247l-0.242,0.239l-0.244-0.243l-0.34,0.339l0.246,0.245
		l-0.242,0.241l-0.24-0.241l-0.332,0.331l0.549,0.546c0.08,0.081,0.219,0.071,0.299-0.008l0.055-0.055l1.135-1.135
		C98.522,136.868,98.534,136.743,98.446,136.657z"/>
	<path fill="#F6EB16" d="M99.372,137.937l-0.996-0.922l-1.068,1.067l0.926,0.991L99.372,137.937z M98.313,137.734l0.328,0.327
		l-0.229,0.227l-0.328-0.327C97.917,137.796,98.145,137.561,98.313,137.734z"/>
	<path fill="#F6EB16" d="M95.522,139.872c0.078-0.079,0.09-0.204,0.004-0.291l-0.553-0.555l-0.34,0.34l0.246,0.244l-0.242,0.243
		l-0.244-0.244l-0.34,0.337l0.246,0.245l-0.242,0.242l-0.24-0.24l-0.33,0.33l0.547,0.547c0.08,0.079,0.219,0.07,0.299-0.009
		l0.055-0.055L95.522,139.872z"/>
	<path fill="#F6EB16" d="M96.45,140.861l-0.992-0.923l-1.07,1.068l0.928,0.99L96.45,140.861z M95.383,140.667l0.328,0.328
		l-0.229,0.229l-0.326-0.328C94.989,140.73,95.215,140.494,95.383,140.667z"/>
	<path fill="#F6EB16" d="M100.962,141.309l-0.005,0.005c-1.389-1.333-2.785-0.58-2.809-0.554c-0.019,0.012-0.308,0.48-0.26,1.154
		c0.045,0.35,0.164,0.746,0.435,1.172c0.107,0.156,0.228,0.313,0.386,0.475l-0.009,0.009c0.002,0.003,0.003,0.005,0.006,0.007
		l2.263-2.263C100.967,141.312,100.965,141.311,100.962,141.309z M99.186,143.078c-0.906-0.918-0.545-1.795-0.543-1.797
		c0,0,0.912-0.379,1.82,0.521L99.186,143.078z"/>
	<path fill="#F6EB16" d="M98.323,143.086c-0.293-0.428-0.41-0.825-0.435-1.172c-0.047-0.674,0.242-1.143,0.26-1.154
		c0.023-0.026,1.42-0.779,2.809,0.554l0.005-0.005l1.14-1.139l-1.898-1.499l-4.151,4.15l1.514,1.878l1.133-1.13l0.009-0.009
		C98.551,143.399,98.43,143.242,98.323,143.086z"/>
	<path fill="#F6EB16" d="M102.561,140.153c-0.119-0.118-0.297-0.135-0.395-0.037l-1.197,1.197l-2.263,2.263l-1.208,1.208
		c-0.1,0.099-0.082,0.275,0.037,0.395c0.119,0.118,0.297,0.135,0.395,0.037l4.668-4.667
		C102.696,140.449,102.68,140.272,102.561,140.153z"/>
	<path fill="#F6EB16" d="M98.643,141.281c-0.002,0.002-0.363,0.879,0.543,1.797l1.277-1.276
		C99.555,140.902,98.643,141.281,98.643,141.281z"/>
	<path fill="#F6EB16" d="M99.979,138.118c0.094-0.094,0.084-0.26-0.023-0.365c-0.105-0.107-0.271-0.116-0.365-0.023l-4.475,4.477
		c-0.094,0.094-0.084,0.259,0.023,0.365c0.105,0.106,0.27,0.116,0.365,0.022L99.979,138.118z"/>
	<path fill="#F6EB16" d="M100.204,138.671l0.064-0.063c0.09-0.09,0.076-0.252-0.031-0.359c-0.105-0.106-0.268-0.12-0.357-0.028
		L95.6,142.5v-0.002c-0.092,0.09-0.078,0.253,0.029,0.359c0.105,0.106,0.268,0.12,0.357,0.03l0.066-0.066L100.204,138.671z"/>
	<path fill="#010101" d="M96.01,138.81l0.424,0.425l0.238-0.239l-0.424-0.423C96.077,138.396,95.829,138.646,96.01,138.81z"/>
	<path fill="#010101" d="M98.641,138.062l-0.328-0.327c-0.168-0.174-0.396,0.062-0.229,0.227l0.328,0.327L98.641,138.062z"/>
	<path fill="#010101" d="M95.711,140.995l-0.328-0.328c-0.168-0.173-0.395,0.063-0.227,0.229l0.326,0.328L95.711,140.995z"/>
</g>
</svg>
