<?xml version="1.0" encoding="utf-8"?>
<!-- Generator: Adobe Illustrator 16.0.0, SVG Export Plug-In . SVG Version: 6.00 Build 0)  -->
<!DOCTYPE svg PUBLIC "-//W3C//DTD SVG 1.1//EN" "http://www.w3.org/Graphics/SVG/1.1/DTD/svg11.dtd">
<svg version="1.1" id="Layer_1" xmlns="http://www.w3.org/2000/svg" xmlns:xlink="http://www.w3.org/1999/xlink" x="0px" y="0px"
	 width="255.12px" height="255.12px" viewBox="0 0 255.12 255.12" enable-background="new 0 0 255.12 255.12" xml:space="preserve">
<g>
	<path fill="#1B598A" d="M115.326,192.135h96.446c9.389,0,17-7.611,17-17v-36.553H115.326V192.135z"/>
	<path fill="#1B598A" d="M211.771,58.135h-96.446v53.555h113.446V75.135C228.771,65.746,221.16,58.135,211.771,58.135z"/>
	<path fill="#1B598A" d="M28.771,138.582v36.553c0,9.389,7.611,17,17,17h42.661v-53.553H28.771z"/>
	<path fill="#1B598A" d="M88.432,58.135H45.771c-9.389,0-17,7.611-17,17v36.555h59.661V58.135z"/>
	<polygon fill="#FDCB34" points="115.326,58.135 88.432,58.135 88.432,111.689 28.771,111.689 28.771,138.582 88.432,138.582 
		88.432,192.135 115.326,192.135 115.326,138.582 228.771,138.582 228.771,111.689 115.326,111.689 	"/>
</g>
</svg>
