<?xml version="1.0" encoding="utf-8"?>
<!-- Generator: Adobe Illustrator 16.0.0, SVG Export Plug-In . SVG Version: 6.00 Build 0)  -->
<!DOCTYPE svg PUBLIC "-//W3C//DTD SVG 1.1//EN" "http://www.w3.org/Graphics/SVG/1.1/DTD/svg11.dtd">
<svg version="1.1" id="Layer_1" xmlns="http://www.w3.org/2000/svg" xmlns:xlink="http://www.w3.org/1999/xlink" x="0px" y="0px"
	 width="255.121px" height="255.121px" viewBox="0 0 255.121 255.121" enable-background="new 0 0 255.121 255.121"
	 xml:space="preserve">
<g>
	<path fill="#EDEDED" d="M28.714,175.201c0,9.389,7.611,17,17,17h166c9.389,0,17-7.611,17-17v-50h-200V175.201z"/>
	<path fill="#DD372B" d="M211.714,58.2h-166c-9.389,0-17,7.611-17,17v50h200v-50C228.714,65.812,221.104,58.2,211.714,58.2z
		 M91.544,119.557c-4.131,0-8.043-0.935-11.539-2.6c-1.224,0.188-2.477,0.285-3.752,0.285c-13.562,0-24.555-10.996-24.555-24.558
		s10.993-24.556,24.555-24.556c1.274,0,2.526,0.098,3.749,0.284c3.497-1.666,7.41-2.601,11.542-2.601
		c14.841,0,26.872,12.031,26.872,26.872C118.417,107.526,106.385,119.557,91.544,119.557z"/>
	<path fill="#FFFFFF" d="M64.672,92.685c0-10.709,6.266-19.953,15.33-24.271c-1.223-0.187-2.475-0.284-3.749-0.284
		c-13.562,0-24.555,10.994-24.555,24.556s10.993,24.558,24.555,24.558c1.275,0,2.528-0.098,3.752-0.285
		C70.939,112.64,64.672,103.396,64.672,92.685z"/>
	<path fill="#DD372B" d="M91.544,65.812c-4.132,0-8.045,0.935-11.542,2.601c-9.064,4.318-15.33,13.562-15.33,24.271
		c0,10.711,6.267,19.955,15.333,24.272c3.496,1.665,7.408,2.6,11.539,2.6c14.841,0,26.872-12.03,26.872-26.872
		C118.417,77.844,106.385,65.812,91.544,65.812z M92.358,71.081l1.377,4.579l4.573-0.085l-3.724,2.79l1.493,4.54l-3.681-2.856
		l-3.65,2.893l1.45-4.555l-3.748-2.753l4.573,0.04L92.358,71.081z M72.781,85.859l4.574,0.04l1.335-4.593l1.378,4.579L84.64,85.8
		l-3.724,2.79l1.491,4.54l-3.678-2.856l-3.652,2.892l1.451-4.554L72.781,85.859z M82.511,101.977l1.337-4.593l1.375,4.58
		l4.574-0.086l-3.724,2.79l1.49,4.54l-3.677-2.856l-3.652,2.893l1.45-4.555l-3.75-2.753L82.511,101.977z M104.648,109.208
		l-3.679-2.856l-3.652,2.893l1.451-4.555l-3.748-2.753l4.575,0.04l1.334-4.593l1.377,4.58l4.574-0.086l-3.724,2.79L104.648,109.208z
		 M108.252,88.591l1.491,4.54l-3.677-2.856l-3.652,2.892l1.449-4.554l-3.748-2.753l4.574,0.04l1.337-4.593l1.376,4.579l4.574-0.085
		L108.252,88.591z"/>
	<polygon fill="#FFFFFF" points="78.73,90.274 82.408,93.131 80.917,88.591 84.64,85.801 80.068,85.886 78.69,81.307 77.355,85.899 
		72.781,85.859 76.529,88.612 75.078,93.166 	"/>
	<polygon fill="#FFFFFF" points="86.449,75.634 90.197,78.387 88.747,82.941 92.397,80.049 96.078,82.905 94.584,78.365 
		98.308,75.575 93.735,75.66 92.358,71.081 91.022,75.674 	"/>
	<polygon fill="#FFFFFF" points="106.027,81.307 104.69,85.899 100.116,85.859 103.864,88.612 102.415,93.166 106.067,90.274 
		109.744,93.131 108.252,88.591 111.977,85.801 107.403,85.886 	"/>
	<polygon fill="#FFFFFF" points="80.235,109.244 83.887,106.352 87.564,109.208 86.074,104.668 89.797,101.878 85.223,101.964 
		83.848,97.384 82.511,101.977 77.935,101.937 81.685,104.689 	"/>
	<polygon fill="#FFFFFF" points="102.306,101.964 100.929,97.384 99.595,101.977 95.02,101.937 98.768,104.689 97.317,109.244 
		100.969,106.352 104.648,109.208 103.157,104.668 106.88,101.878 	"/>
</g>
</svg>
