<?xml version="1.0" encoding="utf-8"?>
<!-- Generator: Adobe Illustrator 16.0.0, SVG Export Plug-In . SVG Version: 6.00 Build 0)  -->
<!DOCTYPE svg PUBLIC "-//W3C//DTD SVG 1.1//EN" "http://www.w3.org/Graphics/SVG/1.1/DTD/svg11.dtd">
<svg version="1.1" id="Layer_1" xmlns="http://www.w3.org/2000/svg" xmlns:xlink="http://www.w3.org/1999/xlink" x="0px" y="0px"
	 width="255.121px" height="255.121px" viewBox="0 0 255.121 255.121" enable-background="new 0 0 255.121 255.121"
	 xml:space="preserve">
<g>
	<path fill="#EDEDED" d="M211.727,57.744H45.728c-9.389,0-17,7.611-17,17v27.583h28.759c0.288-5.397,0.76-10.927,1.183-16.54h29.713
		h29.713c0.423,5.613,0.895,11.143,1.183,16.54h109.449V74.744C228.727,65.355,221.115,57.744,211.727,57.744z"/>
	<path fill="#214190" d="M57.487,102.327H28.728v44.834H67.08C57.478,134.478,56.595,119.04,57.487,102.327z"/>
	<path fill="#214190" d="M109.685,147.162h119.042v-44.834H119.278C120.169,119.04,119.287,134.478,109.685,147.162z"/>
	<path fill="#DD372B" d="M93.788,160.814c-0.096,0.057-0.19,0.113-0.286,0.169c-0.349,0.201-0.705,0.401-1.062,0.601
		c-0.23,0.129-0.458,0.258-0.692,0.386c-0.188,0.103-0.383,0.202-0.573,0.305c-0.905,0.483-1.83,0.961-2.793,1.427
		c-1.098-0.531-2.151-1.076-3.174-1.629c-0.034-0.019-0.07-0.037-0.104-0.056c-0.342-0.187-0.676-0.373-1.009-0.562
		c-0.246-0.139-0.492-0.275-0.734-0.416c-0.185-0.105-0.366-0.215-0.548-0.322c-0.415-0.243-0.825-0.489-1.228-0.737
		c-0.026-0.017-0.054-0.033-0.08-0.05c-6.209-3.838-10.903-8.117-14.424-12.768H28.728v27.582c0,9.389,7.611,17,17,17h165.999
		c9.39,0,17-7.611,17-17v-27.582H109.685C105.891,152.173,100.734,156.753,93.788,160.814z"/>
	<path fill="#CE2028" d="M67.08,147.162c3.521,4.649,8.215,8.93,14.424,12.768c-4.823-2.996-8.708-6.27-11.856-9.768
		c-0.102-0.111-0.197-0.226-0.298-0.338c-0.242-0.275-0.482-0.551-0.716-0.828c-1.031-1.215-1.986-2.451-2.847-3.722
		c-0.039-0.313-0.093-0.622-0.093-0.946c0-4.25,3.457-7.69,7.729-7.69c2.185,0,4.157,0.903,5.566,2.354
		c0.916-2.943,3.19-5.285,6.089-6.32v-11.323h-4.176c-3.791,0-7.655,0.689-11.374,1.427c1.101-3.611,1.101-5.818,0-9.431
		c3.719,0.736,7.583,1.428,11.374,1.428h4.176v-7.612h-0.902c-3.791,0-7.656,0.69-11.375,1.427c1.102-3.611,1.102-5.819,0-9.431
		c3.719,0.737,7.584,1.428,11.375,1.428h0.902v-0.487c0-3.773-0.693-7.62-1.434-11.322c3.629,1.096,5.846,1.096,9.474,0
		c-0.739,3.702-1.433,7.549-1.433,11.322v0.487h0.904c3.791,0,7.656-0.69,11.375-1.428c-1.102,3.611-1.102,5.819,0,9.431
		c-3.719-0.736-7.584-1.427-11.375-1.427h-0.904v7.612h4.177c3.792,0,7.656-0.691,11.374-1.428c-1.1,3.612-1.1,5.819,0,9.431
		c-3.718-0.737-7.582-1.427-11.374-1.427h-4.177v11.325c2.899,1.035,5.175,3.381,6.09,6.324c1.405-1.453,3.376-2.359,5.564-2.359
		c4.27,0,7.744,3.441,7.744,7.691c0,0.318-0.056,0.621-0.094,0.931c-0.876,1.297-1.854,2.559-2.91,3.796
		c-0.192,0.229-0.391,0.455-0.589,0.681c-0.132,0.149-0.26,0.3-0.395,0.446c-3.458,3.84-7.81,7.404-13.309,10.633
		c6.946-4.061,12.104-8.643,15.897-13.652c9.602-12.685,10.484-28.122,9.593-44.834c-0.288-5.397-0.76-10.927-1.183-16.54H88.382
		H58.669c-0.423,5.613-0.895,11.143-1.183,16.54C56.595,119.04,57.478,134.478,67.08,147.162z"/>
	<path fill="#CE2028" d="M82.811,160.716c-0.414-0.243-0.826-0.488-1.228-0.737C81.986,160.227,82.396,160.473,82.811,160.716z"/>
	<path fill="#CE2028" d="M93.501,160.983c-0.348,0.202-0.706,0.401-1.062,0.601C92.796,161.385,93.153,161.185,93.501,160.983z"/>
	<path fill="#CE2028" d="M91.747,161.969c-0.188,0.103-0.383,0.202-0.573,0.305C91.364,162.171,91.558,162.071,91.747,161.969z"/>
	<path fill="#CE2028" d="M85.207,162.071c-0.034-0.019-0.07-0.036-0.104-0.056C85.136,162.035,85.172,162.053,85.207,162.071z"/>
	<path fill="#CE2028" d="M84.093,161.455c-0.245-0.139-0.493-0.275-0.734-0.416C83.601,161.179,83.847,161.316,84.093,161.455z"/>
	<path fill="#FFFFFF" d="M85.078,100.582h-0.902c-3.791,0-7.656-0.69-11.375-1.428c1.102,3.611,1.102,5.819,0,9.431
		c3.719-0.736,7.584-1.427,11.375-1.427h0.902V100.582z"/>
	<path fill="#FFFFFF" d="M91.685,107.158h0.904c3.791,0,7.656,0.69,11.375,1.427c-1.102-3.611-1.102-5.819,0-9.431
		c-3.719,0.737-7.584,1.428-11.375,1.428h-0.904V107.158z"/>
	<path fill="#FFFFFF" d="M80.902,114.771c-3.791,0-7.655-0.691-11.374-1.428c1.101,3.612,1.101,5.819,0,9.431
		c3.719-0.737,7.583-1.427,11.374-1.427h4.176v-6.576H80.902z"/>
	<path fill="#FFFFFF" d="M95.862,121.347c3.792,0,7.656,0.689,11.374,1.427c-1.1-3.611-1.1-5.818,0-9.431
		c-3.718,0.736-7.582,1.428-11.374,1.428h-4.177v6.576H95.862z"/>
	<path fill="#FFFFFF" d="M91.685,132.671v-11.324v-6.576v-7.612v-6.576v-0.487c0-3.773,0.693-7.62,1.433-11.322
		c-3.628,1.096-5.845,1.096-9.474,0c0.74,3.702,1.434,7.549,1.434,11.322v0.487v6.576v7.612v6.576v11.324
		c1.034-0.368,2.143-0.58,3.303-0.58C89.542,132.091,90.651,132.303,91.685,132.671z"/>
	<path fill="#1D439B" d="M67.002,146.949h12.972c-0.899-1.477-1.426-3.203-1.426-5.056c0-1.011,0.154-1.985,0.44-2.903
		c-1.409-1.449-3.382-2.354-5.566-2.354c-4.271,0-7.729,3.441-7.729,7.691c0,0.323,0.054,0.633,0.093,0.945
		c0.86,1.271,1.815,2.507,2.847,3.721C68.065,148.32,67.519,147.64,67.002,146.949z"/>
	<path fill="#1D439B" d="M69.647,150.162c-0.101-0.113-0.198-0.226-0.298-0.338C69.45,149.937,69.545,150.05,69.647,150.162z"/>
	<path fill="#1D439B" d="M79.974,146.949H96.08c-0.298-0.818-0.469-1.699-0.469-2.621c0-2.072,0.826-3.949,2.164-5.33
		c-0.915-2.944-3.19-5.291-6.09-6.326c-1.034-0.368-2.144-0.58-3.305-0.58c-1.16,0-2.269,0.212-3.303,0.58
		c-2.898,1.033-5.173,3.377-6.089,6.318c-0.286,0.918-0.44,1.893-0.44,2.903C78.548,143.746,79.075,145.473,79.974,146.949z"/>
	<path fill="#1D439B" d="M107.491,149.735c-0.131,0.149-0.262,0.298-0.395,0.446C107.231,150.035,107.359,149.885,107.491,149.735z"
		/>
	<path fill="#1D439B" d="M96.08,146.949h13.68c-0.532,0.711-1.094,1.412-1.68,2.105c1.057-1.237,2.034-2.499,2.91-3.797
		c0.038-0.309,0.094-0.61,0.094-0.93c0-4.25-3.475-7.691-7.744-7.691c-2.188,0-4.159,0.906-5.564,2.359
		c-1.338,1.383-2.164,3.26-2.164,5.332C95.611,145.25,95.782,146.13,96.08,146.949z"/>
	<path fill="#1D439B" d="M107.096,150.182c0.133-0.147,0.264-0.297,0.395-0.446c0.198-0.226,0.396-0.451,0.589-0.681
		c0.586-0.693,1.147-1.396,1.68-2.104H96.08H79.974H67.002c0.517,0.689,1.062,1.37,1.631,2.045c0.233,0.278,0.474,0.555,0.716,0.83
		c0.1,0.111,0.197,0.225,0.298,0.336c3.148,3.5,7.033,6.771,11.856,9.769c0.026,0.017,0.054,0.032,0.08,0.05
		c0.401,0.249,0.813,0.494,1.228,0.738c0.182,0.107,0.363,0.216,0.548,0.322c0.241,0.14,0.489,0.276,0.734,0.414
		c0.333,0.188,0.667,0.377,1.009,0.562c0.034,0.02,0.07,0.037,0.104,0.057c1.022,0.553,2.076,1.098,3.174,1.629
		c0.963-0.467,1.888-0.943,2.793-1.428c0.19-0.102,0.385-0.201,0.573-0.305c0.234-0.127,0.462-0.258,0.692-0.385
		c0.356-0.199,0.715-0.398,1.062-0.602c0.096-0.056,0.19-0.111,0.286-0.169C99.287,157.585,103.638,154.021,107.096,150.182z"/>
</g>
</svg>
