<?xml version="1.0" encoding="utf-8"?>
<!-- Generator: Adobe Illustrator 16.0.0, SVG Export Plug-In . SVG Version: 6.00 Build 0)  -->
<!DOCTYPE svg PUBLIC "-//W3C//DTD SVG 1.1//EN" "http://www.w3.org/Graphics/SVG/1.1/DTD/svg11.dtd">
<svg version="1.1" id="图形" xmlns="http://www.w3.org/2000/svg" xmlns:xlink="http://www.w3.org/1999/xlink" x="0px" y="0px"
	 width="1000.637px" height="1000.678px" viewBox="1074.107 0 1000.637 1000.678"
	 enable-background="new 1074.107 0 1000.637 1000.678" xml:space="preserve">
<path fill="#929496" d="M1937.024,421.776c-6.406-20.15-23.816-34.814-45.34-38.021l-189.648-24.276l-75.117-198.809
	c-0.467-0.909-0.918-2.29-1.379-3.198c-9.623-19.239-28.396-31.158-49.926-31.158c-21.531,0-40.312,11.919-49.93,31.158
	c-0.461,0.908-0.914,2.29-1.375,3.198l-75.119,198.809l-192.395,24.276c-21.08,3.208-38.48,17.406-44.896,38.021
	c-6.409,20.612-1.378,42.142,14.204,57.26c0.918,0.916,1.372,1.382,2.289,2.29l142.006,115.903l-76.957,204.754
	c-0.918,2.289-1.377,4.582-1.835,6.871c-2.745,16.031,1.835,32.531,12.37,45.354c10.533,12.82,26.109,20.156,42.602,20.156
	c9.16,0,17.865-2.293,26.109-6.416c0.463-0.455,1.373-0.455,1.83-0.918l201.096-120.475L1776.71,867.03
	c0.459,0.465,1.375,0.465,1.826,0.918c8.246,4.123,16.949,6.416,26.109,6.416c16.49,0,32.068-7.336,42.602-19.707
	c10.535-12.359,15.117-28.855,12.369-45.344c-0.465-2.289-0.918-4.578-1.834-6.869l-77.408-205.219l140.17-115.902
	c0.92-0.458,1.381-1.373,2.293-1.826C1937.942,464.379,1943.44,442.388,1937.024,421.776z M1722.185,550.036
	c-0.912,0.465-1.377,1.383-2.289,1.834c-13.281,12.826-19.236,31.148-16.033,49.473c0.461,2.289,0.912,4.58,1.826,6.416
	l63.217,169.023l-166.283-99.861c-0.461-0.465-1.373-0.465-1.83-0.918c-7.783-4.115-16.945-6.404-26.107-6.404
	s-17.867,2.289-26.111,6.404c-0.459,0.465-1.371,0.465-1.83,0.918l-165.82,99.861l63.213-169.023
	c0.918-2.293,1.375-4.582,1.83-6.875c3.203-17.865-2.75-36.645-16.033-49.471c-0.912-0.918-1.377-1.383-2.289-2.289l-120.479-97.579
	l162.163-20.615c18.32-2.746,33.889-14.197,42.139-30.232c0.461-0.916,0.912-2.291,1.375-3.206l62.297-164.91l62.305,164.91
	c0.457,0.915,0.912,2.29,1.375,3.206c8.242,16.491,23.82,27.942,42.598,30.687l159.871,20.612L1722.185,550.036z"/>
<polygon fill="#929496" points="1582.813,172.191 1470.626,381.506 1247.764,427.678 1415.288,586.552 1354.614,828.487 
	1582.813,687.298 1827.817,828.487 1745.388,571.288 1901.087,419.826 1678.224,391.347 "/>
</svg>
