<?xml version="1.0" encoding="utf-8"?>
<!-- Generator: Adobe Illustrator 16.0.0, SVG Export Plug-In . SVG Version: 6.00 Build 0)  -->
<!DOCTYPE svg PUBLIC "-//W3C//DTD SVG 1.1//EN" "http://www.w3.org/Graphics/SVG/1.1/DTD/svg11.dtd">
<svg version="1.1" id="Layer_1" xmlns="http://www.w3.org/2000/svg" xmlns:xlink="http://www.w3.org/1999/xlink" x="0px" y="0px"
	 width="255.12px" height="255.12px" viewBox="0 0 255.12 255.12" enable-background="new 0 0 255.12 255.12" xml:space="preserve">
<g>
	<path fill="#FFFFFF" d="M94.377,158.294c11.932,0,22.4-6.229,28.355-15.607c-4.916,5.459-12.037,8.893-19.963,8.893
		c-14.834,0-26.859-12.025-26.859-26.859S87.936,97.86,102.77,97.86c7.926,0,15.049,3.436,19.965,8.896
		c-5.955-9.381-16.426-15.613-28.357-15.613c-18.543,0-33.576,15.033-33.576,33.576S75.834,158.294,94.377,158.294z"/>
	<path fill="#E22F34" d="M44.951,191.72h166c9.389,0,17-7.611,17-17v-100c0-9.389-7.611-17-17-17h-166c-9.389,0-17,7.611-17,17v100
		C27.951,184.108,35.562,191.72,44.951,191.72z M129.531,122.516l4.814-1.563v-12.197l7.17,9.867l11.6-3.77l-7.168,9.867
		l7.168,9.867l-11.6-3.769l-7.17,9.866v-12.195l-4.814-1.564l-6.783-2.205L129.531,122.516z M94.377,91.144
		c11.932,0,22.402,6.232,28.357,15.613c-4.916-5.461-12.039-8.896-19.965-8.896c-14.834,0-26.859,12.025-26.859,26.859
		s12.025,26.859,26.859,26.859c7.926,0,15.047-3.434,19.963-8.893c-5.955,9.378-16.424,15.607-28.355,15.607
		c-18.543,0-33.576-15.031-33.576-33.574S75.834,91.144,94.377,91.144z"/>
	<polygon fill="#FFFFFF" points="134.346,128.489 134.346,140.685 141.516,130.818 153.115,134.587 145.947,124.72 153.115,114.853 
		141.516,118.622 134.346,108.755 134.346,120.952 129.531,122.516 122.748,124.72 129.531,126.925 	"/>
</g>
</svg>
