<?xml version="1.0" encoding="utf-8"?>
<!-- Generator: Adobe Illustrator 16.0.0, SVG Export Plug-In . SVG Version: 6.00 Build 0)  -->
<!DOCTYPE svg PUBLIC "-//W3C//DTD SVG 1.1//EN" "http://www.w3.org/Graphics/SVG/1.1/DTD/svg11.dtd">
<svg version="1.1" id="Layer_1" xmlns="http://www.w3.org/2000/svg" xmlns:xlink="http://www.w3.org/1999/xlink" x="0px" y="0px"
	 width="255.12px" height="255.12px" viewBox="0 0 255.12 255.12" enable-background="new 0 0 255.12 255.12" xml:space="preserve">
<g>
	<polygon fill="#283576" points="144.545,192.232 203.172,192.232 144.545,151.986 	"/>
	<path fill="#283576" d="M27.836,147.221v28.012c0,1.068,0.109,2.109,0.299,3.123l44.783-30.398L27.836,147.221z"/>
	<path fill="#283576" d="M28.139,72.08c-0.191,1.023-0.303,2.074-0.303,3.152v26.619l44.736,0.73L28.139,72.08z"/>
	<polygon fill="#283576" points="205.094,58.232 144.545,58.232 144.545,99.336 	"/>
	<path fill="#283576" d="M183.098,102.582l44.738-0.73V75.232c0-1.078-0.111-2.131-0.305-3.154L183.098,102.582z"/>
	<path fill="#283576" d="M227.537,178.357c0.188-1.016,0.299-2.057,0.299-3.125v-28.012l-45.084,0.736L227.537,178.357z"/>
	<polygon fill="#283576" points="111.127,58.232 50.577,58.232 111.127,99.336 	"/>
	<polygon fill="#283576" points="52.499,192.232 111.127,192.232 111.127,151.986 	"/>
	<path fill="#FFFFFF" d="M117.811,112.283v-8.41V58.232h-6.684v41.104L50.577,58.232h-5.74c-3.758,0-7.219,1.234-10.031,3.297
		l59.613,41.68H79.473L29.485,67.967c-0.613,1.291-1.074,2.668-1.346,4.113l44.434,30.502l-44.736-0.73v9.074l58.172,0.879
		L117.811,112.283z"/>
	<path fill="#FFFFFF" d="M137.861,139.504v7.895v44.834h6.684v-40.246l58.627,40.246h7.664c4.107,0,7.877-1.457,10.816-3.885
		l-60.396-39.768h14.943l50.432,32.91c0.398-1.002,0.703-2.049,0.906-3.133l-44.785-30.4l45.084-0.736v-9.072l-58.24,0.877
		L137.861,139.504z"/>
	<path fill="#FFFFFF" d="M117.811,139.504l-31.738-0.479l-58.236-0.877v9.072l45.082,0.736l-44.783,30.398
		c0.742,3.996,2.871,7.506,5.885,9.992l60.398-39.768h14.945l-64.309,43.652h7.443l58.629-40.246v40.246h6.684v-44.834V139.504z"/>
	<path fill="#FFFFFF" d="M227.531,72.078c-0.811-4.316-3.254-8.047-6.664-10.549l-59.611,41.68h-14.949l64.33-44.977h-5.543
		l-60.549,41.104V58.232h-6.684v45.639v8.412l31.801-0.479l58.174-0.879v-9.074l-44.738,0.73L227.531,72.078z"/>
	<polygon fill="#ED3133" points="137.861,112.283 137.861,103.871 137.861,58.232 117.811,58.232 117.811,103.873 117.811,112.283 
		86.008,111.805 27.836,110.926 27.836,138.148 86.073,139.025 117.811,139.504 117.811,147.398 117.811,192.232 137.861,192.232 
		137.861,147.398 137.861,139.504 169.596,139.025 227.836,138.148 227.836,110.926 169.662,111.805 	"/>
	<path fill="#ED3133" d="M94.418,103.209l-59.613-41.68c-2.27,1.664-4.104,3.871-5.32,6.438l49.988,35.242H94.418z"/>
	<path fill="#ED3133" d="M161.256,103.209l59.611-41.68c-2.814-2.062-6.275-3.297-10.031-3.297h-0.199l-64.33,44.977H161.256z"/>
	<path fill="#ED3133" d="M161.256,148.58l60.396,39.768c2.193-1.811,3.912-4.168,4.979-6.857l-50.432-32.91H161.256z"/>
	<path fill="#ED3133" d="M94.418,148.58L34.02,188.348c2.938,2.428,6.707,3.885,10.816,3.885h0.219l64.309-43.652H94.418z"/>
</g>
</svg>
