<?xml version="1.0" encoding="utf-8"?>
<!-- Generator: Adobe Illustrator 16.0.0, SVG Export Plug-In . SVG Version: 6.00 Build 0)  -->
<!DOCTYPE svg PUBLIC "-//W3C//DTD SVG 1.1//EN" "http://www.w3.org/Graphics/SVG/1.1/DTD/svg11.dtd">
<svg version="1.1" id="Layer_1" xmlns="http://www.w3.org/2000/svg" xmlns:xlink="http://www.w3.org/1999/xlink" x="0px" y="0px"
	 width="255.12px" height="255.12px" viewBox="0 0 255.12 255.12" enable-background="new 0 0 255.12 255.12" xml:space="preserve">
<g>
	<polygon fill="#FFFFFF" points="28.494,130.404 28.494,140.721 228.494,140.721 228.494,130.404 129.445,130.404 	"/>
	<rect x="129.445" y="109.763" fill="#FFFFFF" width="99.049" height="10.321"/>
	<rect x="28.494" y="151.041" fill="#FFFFFF" width="200" height="10.318"/>
	<path fill="#FFFFFF" d="M28.494,175.242c0,2.401,0.504,4.682,1.4,6.753h197.198c0.898-2.071,1.402-4.352,1.402-6.753v-3.563h-200
		V175.242z"/>
	<path fill="#FFFFFF" d="M129.445,68.49v10.317h99.049v-3.565c0-2.4-0.504-4.682-1.402-6.752H129.445z"/>
	<rect x="129.445" y="89.128" fill="#FFFFFF" width="99.049" height="10.318"/>
	<path fill="#BF2334" d="M227.092,68.49c-2.613-6.028-8.609-10.248-15.598-10.248h-82.049V68.49H227.092z"/>
	<rect x="129.445" y="78.808" fill="#BF2334" width="99.049" height="10.32"/>
	<rect x="129.445" y="99.446" fill="#BF2334" width="99.049" height="10.316"/>
	<rect x="129.445" y="120.084" fill="#BF2334" width="99.049" height="10.32"/>
	<rect x="28.494" y="140.721" fill="#BF2334" width="200" height="10.32"/>
	<rect x="28.494" y="161.359" fill="#BF2334" width="200" height="10.319"/>
	<path fill="#BF2334" d="M45.494,192.242h166c6.988,0,12.984-4.22,15.598-10.247H29.894
		C32.507,188.022,38.505,192.242,45.494,192.242z"/>
	<path fill="#223165" d="M129.445,120.084v-10.321V99.446V89.128v-10.32V68.49V58.242H45.494c-5.09,0-9.645,2.248-12.76,5.792h2.553
		l0.93-2.854l0.926,2.854h3.002l-2.43,1.766l0.93,2.854l-2.43-1.766l-2.43,1.766l0.93-2.854l-2.16-1.569
		c-2.527,2.967-4.061,6.807-4.061,11.011v55.162h100.952V120.084z M123.359,98.188l-2.43-1.764l-2.426,1.764l0.926-2.853L117,93.572
		h3l0.93-2.858l0.928,2.858h3.002l-2.43,1.762L123.359,98.188z M119.796,64.034l0.93-2.854l0.926,2.854h3.002l-2.428,1.767
		l0.928,2.854l-2.43-1.765l-2.426,1.765l0.926-2.854l-2.426-1.766H119.796z M114.906,90.943l-2.428-1.764l-2.43,1.764l0.928-2.854
		l-2.43-1.765h3.002l0.93-2.856l0.926,2.856h3.004l-2.428,1.763L114.906,90.943z M106.457,98.188l-2.43-1.764l-2.428,1.764
		l0.926-2.854l-2.43-1.762h3.002l0.93-2.858l0.928,2.858h3l-2.428,1.762L106.457,98.188z M102.894,64.034l0.928-2.854l0.928,2.854
		h3.002l-2.428,1.767l0.928,2.854l-2.43-1.766l-2.428,1.766l0.928-2.854l-2.43-1.767H102.894z M98.005,90.943l-2.43-1.765
		l-2.43,1.765l0.928-2.854l-2.428-1.764h3.004l0.926-2.856l0.926,2.856h3.004l-2.43,1.764L98.005,90.943z M89.552,98.188
		l-2.428-1.763l-2.428,1.763l0.926-2.854l-2.428-1.761h3.002l0.93-2.858l0.926,2.858h3l-2.426,1.762L89.552,98.188z M85.992,64.034
		l0.928-2.854l0.928,2.854h3.004l-2.43,1.766l0.928,2.854l-2.428-1.765l-2.428,1.765l0.926-2.854l-2.428-1.767H85.992z
		 M81.101,90.943l-2.43-1.765l-2.426,1.765l0.926-2.854l-2.428-1.765h3.002l0.928-2.856l0.928,2.856h3.002l-2.432,1.765
		L81.101,90.943z M72.65,98.188l-2.428-1.764l-2.428,1.764l0.926-2.854l-2.428-1.762h3l0.928-2.858l0.93,2.858h3.002l-2.43,1.763
		L72.65,98.188z M69.091,64.034l0.928-2.854l0.926,2.854h3.006l-2.43,1.766l0.928,2.854l-2.43-1.765l-2.428,1.765l0.926-2.854
		l-2.428-1.767H69.091z M64.201,90.943l-2.428-1.764l-2.428,1.764l0.926-2.854l-2.428-1.765h3l0.93-2.856l0.926,2.856h3.002
		l-2.428,1.764L64.201,90.943z M55.75,98.188l-2.43-1.763l-2.428,1.763l0.926-2.854l-2.426-1.761h3l0.93-2.858l0.928,2.858h3.002
		l-2.43,1.762L55.75,98.188z M52.189,64.034l0.928-2.854l0.928,2.854h3.002l-2.43,1.766l0.93,2.854l-2.43-1.765l-2.43,1.765
		l0.928-2.854l-2.426-1.766H52.189z M47.298,90.943l-2.43-1.764l-2.428,1.764l0.928-2.854l-2.43-1.764h3.002l0.928-2.856
		l0.928,2.856h3.002l-2.428,1.765L47.298,90.943z M40.349,93.572l-2.43,1.763l0.928,2.853l-2.43-1.765l-2.428,1.765l0.928-2.853
		l-2.428-1.763h3l0.93-2.858l0.928,2.858H40.349z M35.285,78.524l0.932-2.857l0.928,2.857h3l-2.43,1.763l0.93,2.856l-2.43-1.767
		l-2.43,1.767l0.93-2.855l-2.43-1.764H35.285z M35.404,107.567l0.928-2.855l0.928,2.855h3l-2.43,1.765l0.93,2.853l-2.43-1.765
		l-2.426,1.765l0.926-2.852l-2.428-1.766H35.404z M39.095,126.257l-2.43-1.762l-2.426,1.762l0.926-2.853l-2.428-1.764h3l0.928-2.854
		l0.928,2.854h3.002l-2.428,1.764L39.095,126.257z M43.738,71.279l0.928-2.854l0.926,2.854h3.002l-2.428,1.764l0.928,2.854
		l-2.428-1.764l-2.428,1.764l0.928-2.854l-2.432-1.764H43.738z M43.855,100.323l0.928-2.854l0.926,2.854h3.002l-2.428,1.765
		l0.926,2.857l-2.428-1.768l-2.428,1.768l0.928-2.856l-2.428-1.766H43.855z M47.546,119.016l-2.428-1.764l-2.428,1.764l0.926-2.854
		l-2.428-1.766h3l0.928-2.856l0.928,2.856h3.004l-2.43,1.765L47.546,119.016z M52.189,78.524l0.928-2.857l0.928,2.857h3.002
		l-2.43,1.763l0.93,2.856l-2.43-1.766l-2.43,1.766l0.928-2.856l-2.426-1.763H52.189z M52.306,107.567l0.926-2.855l0.928,2.855h3.004
		l-2.43,1.765l0.93,2.853l-2.432-1.764l-2.426,1.764l0.926-2.853l-2.428-1.765H52.306z M55.998,126.257l-2.43-1.763l-2.426,1.763
		l0.926-2.853l-2.428-1.764h3.002l0.926-2.854l0.928,2.854h3.002l-2.43,1.765L55.998,126.257z M60.64,71.279l0.928-2.854
		l0.928,2.854h3.002l-2.43,1.764l0.93,2.854l-2.43-1.765l-2.428,1.765l0.928-2.853l-2.43-1.765H60.64z M60.755,100.323l0.926-2.854
		l0.93,2.854h3.002l-2.428,1.765l0.928,2.857l-2.428-1.769l-2.43,1.769l0.93-2.856l-2.43-1.766H60.755z M64.447,119.016
		l-2.428-1.765l-2.428,1.765l0.928-2.854l-2.43-1.766h3.004l0.928-2.856l0.928,2.856h3.002l-2.432,1.766L64.447,119.016z
		 M69.091,78.524l0.928-2.857l0.928,2.857h3.004l-2.43,1.762l0.928,2.857l-2.43-1.766l-2.428,1.766l0.926-2.855l-2.428-1.764H69.091
		z M69.207,107.567l0.928-2.855l0.926,2.855h3.004l-2.428,1.763l0.93,2.854l-2.43-1.764l-2.428,1.764l0.926-2.852l-2.43-1.766
		H69.207z M72.9,126.257l-2.43-1.763l-2.428,1.763l0.928-2.853l-2.43-1.764h3.002l0.928-2.854l0.928,2.854H74.4l-2.43,1.765
		L72.9,126.257z M77.542,71.279l0.928-2.854l0.926,2.854H82.4l-2.43,1.763l0.93,2.854l-2.43-1.764l-2.426,1.764l0.926-2.854
		l-2.43-1.764H77.542z M77.658,100.323l0.928-2.854l0.928,2.854h3.002l-2.428,1.766l0.928,2.856l-2.43-1.768l-2.428,1.768
		l0.926-2.856l-2.426-1.766H77.658z M81.351,119.016l-2.43-1.765l-2.428,1.765l0.928-2.855l-2.428-1.765h3l0.93-2.856l0.928,2.856
		h3.002l-2.432,1.766L81.351,119.016z M85.992,78.524l0.928-2.857l0.928,2.857h3.004l-2.43,1.763l0.928,2.856l-2.428-1.766
		l-2.428,1.766l0.926-2.855l-2.428-1.764H85.992z M86.107,107.567l0.93-2.855l0.928,2.855h3.002l-2.428,1.765l0.926,2.853
		l-2.428-1.764l-2.43,1.764l0.928-2.854l-2.428-1.764H86.107z M89.802,126.257l-2.43-1.763l-2.428,1.763l0.928-2.853l-2.43-1.764
		h3.002l0.93-2.854l0.926,2.854h3.002l-2.428,1.765L89.802,126.257z M94.445,71.279l0.928-2.854l0.926,2.854h3.004l-2.43,1.764
		l0.928,2.854l-2.43-1.763l-2.426,1.763l0.926-2.853l-2.428-1.765H94.445z M94.56,100.323l0.93-2.854l0.926,2.854h3.002
		l-2.428,1.766l0.928,2.856l-2.43-1.767l-2.428,1.767l0.926-2.859l-2.426-1.763H94.56z M98.253,119.016l-2.43-1.765l-2.428,1.765
		l0.928-2.855l-2.43-1.765h3.002l0.93-2.856l0.928,2.856h3l-2.43,1.766L98.253,119.016z M102.894,78.524l0.928-2.857l0.928,2.857
		h3.002l-2.428,1.764l0.928,2.855l-2.43-1.766l-2.428,1.766l0.928-2.855l-2.43-1.764H102.894z M103.009,107.567l0.93-2.855
		l0.926,2.855h3.004l-2.43,1.766l0.928,2.852l-2.428-1.765l-2.428,1.765l0.928-2.853l-2.43-1.765H103.009z M106.703,126.257
		l-2.428-1.763l-2.428,1.763l0.928-2.852l-2.428-1.765h3l0.928-2.854l0.928,2.854h3l-2.428,1.764L106.703,126.257z M111.347,71.279
		l0.928-2.854l0.926,2.854h3.002l-2.428,1.763l0.928,2.854l-2.428-1.764l-2.43,1.764l0.928-2.854l-2.43-1.764H111.347z
		 M111.462,100.323l0.93-2.854l0.926,2.854h3.002l-2.428,1.766l0.928,2.856l-2.43-1.768l-2.428,1.768l0.926-2.857l-2.428-1.765
		H111.462z M115.156,119.016l-2.43-1.765l-2.428,1.765l0.926-2.854l-2.428-1.766h3.002l0.928-2.856l0.928,2.856h3l-2.428,1.765
		L115.156,119.016z M119.796,78.524l0.93-2.857l0.928,2.857h3l-2.428,1.764l0.928,2.855l-2.43-1.766l-2.426,1.766l0.926-2.856
		l-2.426-1.763H119.796z M119.914,107.567l0.93-2.855l0.926,2.855h3l-2.428,1.764l0.928,2.854l-2.428-1.764l-2.428,1.764
		l0.926-2.853l-2.426-1.765H119.914z M123.607,126.257l-2.43-1.762l-2.428,1.762l0.926-2.853l-2.428-1.764h3.002l0.928-2.854
		l0.926,2.854h3.004l-2.43,1.764L123.607,126.257z"/>
	<path fill="#FFFFFF" d="M33.785,68.654l2.43-1.766l2.43,1.766l-0.93-2.854l2.43-1.766h-3.002l-0.926-2.854l-0.93,2.854h-2.553
		c-0.059,0.066-0.121,0.129-0.18,0.197l2.16,1.569L33.785,68.654z"/>
	<polygon fill="#FFFFFF" points="50.687,68.654 53.117,66.89 55.546,68.654 54.617,65.8 57.046,64.034 54.044,64.034 53.117,61.181 
		52.189,64.034 49.189,64.034 51.615,65.8 	"/>
	<polygon fill="#FFFFFF" points="67.591,68.654 70.019,66.89 72.449,68.654 71.521,65.8 73.951,64.034 70.945,64.034 70.019,61.181 
		69.091,64.034 66.089,64.034 68.517,65.801 	"/>
	<polygon fill="#FFFFFF" points="84.494,68.654 86.921,66.89 89.349,68.654 88.421,65.8 90.851,64.034 87.847,64.034 86.919,61.181 
		85.992,64.034 82.992,64.034 85.419,65.801 	"/>
	<polygon fill="#FFFFFF" points="101.394,68.654 103.822,66.889 106.251,68.654 105.324,65.801 107.751,64.034 104.75,64.034 
		103.822,61.181 102.894,64.034 99.892,64.034 102.322,65.801 	"/>
	<polygon fill="#FFFFFF" points="118.298,68.654 120.724,66.89 123.154,68.654 122.226,65.801 124.654,64.034 121.652,64.034 
		120.726,61.181 119.796,64.034 116.798,64.034 119.224,65.8 	"/>
	<polygon fill="#FFFFFF" points="42.238,75.896 44.666,74.133 47.093,75.896 46.166,73.043 48.593,71.279 45.591,71.279 
		44.666,68.425 43.738,71.279 40.734,71.279 43.166,73.043 	"/>
	<polygon fill="#FFFFFF" points="59.14,75.896 61.568,74.132 63.998,75.896 63.068,73.043 65.498,71.279 62.496,71.279 
		61.568,68.425 60.64,71.279 57.638,71.279 60.068,73.044 	"/>
	<polygon fill="#FFFFFF" points="76.044,75.896 78.47,74.133 80.9,75.896 79.97,73.042 82.4,71.279 79.396,71.279 78.47,68.425 
		77.542,71.279 74.541,71.279 76.97,73.043 	"/>
	<polygon fill="#FFFFFF" points="92.945,75.896 95.371,74.134 97.8,75.896 96.873,73.043 99.302,71.279 96.298,71.279 
		95.373,68.425 94.445,71.279 91.443,71.279 93.871,73.044 	"/>
	<polygon fill="#FFFFFF" points="109.845,75.896 112.275,74.133 114.703,75.896 113.775,73.042 116.203,71.279 113.201,71.279 
		112.275,68.425 111.347,71.279 108.343,71.279 110.773,73.043 	"/>
	<polygon fill="#FFFFFF" points="33.785,83.144 36.214,81.377 38.644,83.144 37.714,80.287 40.144,78.524 37.144,78.524 
		36.216,75.667 35.285,78.524 32.285,78.524 34.714,80.288 	"/>
	<polygon fill="#FFFFFF" points="50.687,83.144 53.117,81.378 55.546,83.144 54.617,80.287 57.046,78.524 54.044,78.524 
		53.117,75.667 52.189,78.524 49.189,78.524 51.615,80.287 	"/>
	<polygon fill="#FFFFFF" points="67.591,83.144 70.019,81.378 72.449,83.144 71.521,80.286 73.951,78.524 70.947,78.524 
		70.019,75.667 69.091,78.524 66.089,78.524 68.517,80.288 	"/>
	<polygon fill="#FFFFFF" points="84.494,83.144 86.921,81.378 89.349,83.144 88.421,80.287 90.851,78.524 87.847,78.524 
		86.919,75.667 85.992,78.524 82.992,78.524 85.419,80.288 	"/>
	<polygon fill="#FFFFFF" points="101.394,83.144 103.822,81.378 106.251,83.144 105.324,80.288 107.751,78.524 104.75,78.524 
		103.822,75.667 102.894,78.524 99.892,78.524 102.322,80.288 	"/>
	<polygon fill="#FFFFFF" points="118.298,83.144 120.724,81.378 123.154,83.144 122.226,80.288 124.654,78.524 121.654,78.524 
		120.726,75.667 119.796,78.524 116.798,78.524 119.224,80.287 	"/>
	<polygon fill="#FFFFFF" points="45.796,86.325 44.869,83.469 43.941,86.325 40.939,86.325 43.369,88.089 42.441,90.943 
		44.869,89.18 47.298,90.943 46.371,88.09 48.798,86.325 	"/>
	<polygon fill="#FFFFFF" points="62.699,86.325 61.773,83.469 60.843,86.325 57.843,86.325 60.271,88.09 59.345,90.943 
		61.773,89.18 64.201,90.943 63.273,88.089 65.701,86.325 	"/>
	<polygon fill="#FFFFFF" points="79.601,86.325 78.673,83.469 77.746,86.325 74.744,86.325 77.171,88.09 76.246,90.943 
		78.671,89.179 81.101,90.943 80.171,88.09 82.603,86.325 	"/>
	<polygon fill="#FFFFFF" points="96.501,86.325 95.576,83.469 94.65,86.325 91.646,86.325 94.074,88.089 93.146,90.943 
		95.576,89.179 98.005,90.943 97.076,88.089 99.505,86.325 	"/>
	<polygon fill="#FFFFFF" points="113.404,86.325 112.478,83.469 111.548,86.325 108.546,86.325 110.976,88.09 110.048,90.943 
		112.478,89.18 114.906,90.943 113.98,88.088 116.408,86.325 	"/>
	<polygon fill="#FFFFFF" points="36.419,90.714 35.49,93.572 32.49,93.572 34.917,95.335 33.99,98.188 36.417,96.423 38.847,98.188 
		37.919,95.335 40.349,93.572 37.347,93.572 	"/>
	<polygon fill="#FFFFFF" points="54.25,93.572 53.322,90.714 52.392,93.572 49.392,93.572 51.818,95.333 50.892,98.188 
		53.32,96.425 55.75,98.188 54.822,95.334 57.251,93.572 	"/>
	<polygon fill="#FFFFFF" points="71.15,93.572 70.22,90.714 69.292,93.572 66.292,93.572 68.72,95.334 67.794,98.188 70.222,96.424 
		72.65,98.188 71.722,95.335 74.152,93.572 	"/>
	<polygon fill="#FFFFFF" points="88.052,93.572 87.126,90.714 86.197,93.572 83.195,93.572 85.623,95.333 84.697,98.188 
		87.125,96.425 89.552,98.188 88.626,95.334 91.052,93.572 	"/>
	<polygon fill="#FFFFFF" points="104.955,93.572 104.027,90.714 103.097,93.572 100.095,93.572 102.525,95.334 101.599,98.188 
		104.027,96.424 106.457,98.188 105.527,95.334 107.955,93.572 	"/>
	<polygon fill="#FFFFFF" points="121.857,93.572 120.929,90.714 120,93.572 117,93.572 119.429,95.335 118.503,98.188 
		120.929,96.424 123.359,98.188 122.429,95.334 124.859,93.572 	"/>
	<polygon fill="#FFFFFF" points="42.353,104.945 44.781,103.178 47.208,104.945 46.283,102.088 48.71,100.323 45.708,100.323 
		44.783,97.469 43.855,100.323 40.853,100.323 43.281,102.089 	"/>
	<polygon fill="#FFFFFF" points="59.255,104.945 61.685,103.177 64.113,104.945 63.185,102.088 65.613,100.323 62.611,100.323 
		61.681,97.469 60.755,100.323 57.755,100.323 60.185,102.089 	"/>
	<polygon fill="#FFFFFF" points="76.158,104.945 78.585,103.178 81.015,104.945 80.087,102.089 82.515,100.323 79.513,100.323 
		78.585,97.469 77.658,100.323 74.658,100.323 77.083,102.089 	"/>
	<polygon fill="#FFFFFF" points="93.06,104.945 95.488,103.179 97.917,104.945 96.99,102.089 99.417,100.323 96.416,100.323 
		95.49,97.469 94.56,100.323 91.56,100.323 93.986,102.086 	"/>
	<polygon fill="#FFFFFF" points="109.962,104.945 112.39,103.178 114.82,104.945 113.892,102.089 116.32,100.323 113.318,100.323 
		112.392,97.469 111.462,100.323 108.46,100.323 110.888,102.088 	"/>
	<polygon fill="#FFFFFF" points="33.904,112.185 36.33,110.42 38.759,112.185 37.83,109.332 40.259,107.567 37.259,107.567 
		36.332,104.712 35.404,107.567 32.402,107.567 34.83,109.333 	"/>
	<polygon fill="#FFFFFF" points="50.806,112.185 53.232,110.421 55.664,112.185 54.734,109.332 57.164,107.567 54.16,107.567 
		53.232,104.712 52.306,107.567 49.304,107.567 51.732,109.332 	"/>
	<polygon fill="#FFFFFF" points="67.708,112.185 70.136,110.421 72.566,112.185 71.636,109.33 74.064,107.567 71.06,107.567 
		70.134,104.712 69.207,107.567 66.205,107.567 68.634,109.333 	"/>
	<polygon fill="#FFFFFF" points="84.607,112.185 87.037,110.421 89.464,112.185 88.539,109.332 90.966,107.567 87.964,107.567 
		87.037,104.712 86.107,107.567 83.107,107.567 85.535,109.331 	"/>
	<polygon fill="#FFFFFF" points="101.511,112.185 103.939,110.42 106.367,112.185 105.439,109.333 107.869,107.567 104.865,107.567 
		103.939,104.712 103.009,107.567 100.009,107.567 102.439,109.332 	"/>
	<polygon fill="#FFFFFF" points="118.414,112.185 120.841,110.421 123.269,112.185 122.341,109.331 124.769,107.567 
		121.769,107.567 120.843,104.712 119.914,107.567 116.914,107.567 119.339,109.332 	"/>
	<polygon fill="#FFFFFF" points="46.044,114.396 45.117,111.539 44.189,114.396 41.189,114.396 43.617,116.161 42.691,119.016 
		45.119,117.252 47.546,119.016 46.619,116.16 49.048,114.396 	"/>
	<polygon fill="#FFFFFF" points="62.949,114.396 62.021,111.539 61.093,114.396 58.089,114.396 60.519,116.161 59.591,119.016 
		62.019,117.251 64.447,119.016 63.519,116.161 65.951,114.396 	"/>
	<polygon fill="#FFFFFF" points="79.851,114.396 78.923,111.539 77.994,114.396 74.994,114.396 77.421,116.16 76.494,119.016 
		78.921,117.251 81.351,119.016 80.421,116.161 82.853,114.396 	"/>
	<polygon fill="#FFFFFF" points="96.753,114.396 95.826,111.539 94.896,114.396 91.894,114.396 94.324,116.16 93.396,119.016 
		95.824,117.251 98.253,119.016 97.324,116.161 99.753,114.396 	"/>
	<polygon fill="#FFFFFF" points="113.654,114.396 112.726,111.539 111.798,114.396 108.796,114.396 111.224,116.161 
		110.298,119.016 112.726,117.251 115.156,119.016 114.226,116.16 116.654,114.396 	"/>
	<polygon fill="#FFFFFF" points="37.593,121.641 36.666,118.786 35.738,121.641 32.738,121.641 35.166,123.404 34.24,126.257 
		36.666,124.495 39.095,126.257 38.167,123.404 40.595,121.641 	"/>
	<polygon fill="#FFFFFF" points="54.496,121.641 53.568,118.786 52.642,121.641 49.64,121.641 52.068,123.404 51.142,126.257 
		53.568,124.494 55.998,126.257 55.068,123.405 57.498,121.641 	"/>
	<polygon fill="#FFFFFF" points="71.398,121.641 70.47,118.786 69.542,121.641 66.541,121.641 68.97,123.404 68.042,126.257 
		70.47,124.494 72.9,126.257 71.97,123.405 74.4,121.641 	"/>
	<polygon fill="#FFFFFF" points="88.3,121.641 87.375,118.786 86.445,121.641 83.443,121.641 85.873,123.404 84.945,126.257 
		87.373,124.494 89.802,126.257 88.875,123.405 91.302,121.641 	"/>
	<polygon fill="#FFFFFF" points="105.203,121.641 104.275,118.786 103.347,121.641 100.347,121.641 102.775,123.405 
		101.847,126.257 104.275,124.494 106.703,126.257 105.775,123.404 108.203,121.641 	"/>
	<polygon fill="#FFFFFF" points="122.103,121.641 121.177,118.786 120.25,121.641 117.248,121.641 119.675,123.404 118.75,126.257 
		121.177,124.495 123.607,126.257 122.677,123.404 125.107,121.641 	"/>
</g>
</svg>
