<?xml version="1.0" encoding="utf-8"?>
<!-- Generator: Adobe Illustrator 21.0.0, SVG Export Plug-In . SVG Version: 6.00 Build 0)  -->
<svg version="1.1" id="Layer_1" xmlns="http://www.w3.org/2000/svg" xmlns:xlink="http://www.w3.org/1999/xlink" x="0px" y="0px"
	 viewBox="0 0 255.1 255.1" style="enable-background:new 0 0 255.1 255.1;" xml:space="preserve">
<style type="text/css">
	.st0{fill:#EDEDED;}
	.st1{fill:#C9C9C9;}
	.st2{fill:#DDDDDD;}
	.st3{fill:#F9F9F9;}
</style>
<g>
	<g>
		<polygon class="st0" points="47.4,119.2 135,68.4 166.9,86.2 79.7,136.8 		"/>
		<polygon class="st1" points="86.3,167.5 79.7,136.8 47.4,119.2 40,141.1 		"/>
		<polygon class="st2" points="174.3,117 166.9,86.2 79.7,136.8 86.3,167.5 		"/>
		<polygon class="st3" points="52.1,119.2 135,68.4 79.7,136.8 		"/>
	</g>
	<g>
		<polygon class="st0" points="95.4,146.5 183,95.7 214.9,113.5 127.7,164 		"/>
		<polygon class="st1" points="134.4,194.8 127.7,164 95.4,146.5 88,168.4 		"/>
		<polygon class="st2" points="222.4,144.3 214.9,113.5 127.7,164 134.4,194.8 		"/>
		<polygon class="st3" points="100.1,146.5 183,95.7 127.7,164 		"/>
	</g>
	<g>
		<polygon class="st0" points="83.6,102.4 171.2,51.6 203.1,69.4 115.9,120 		"/>
		<polygon class="st1" points="122.6,150.7 115.9,120 83.6,102.4 76.1,124.3 		"/>
		<polygon class="st2" points="210.5,100.2 203.1,69.4 115.9,120 122.6,150.7 		"/>
		<polygon class="st3" points="88.3,102.4 171.2,51.6 115.9,120 		"/>
	</g>
</g>
</svg>
