<?xml version="1.0" encoding="utf-8"?>
<!-- Generator: Adobe Illustrator 21.0.0, SVG Export Plug-In . SVG Version: 6.00 Build 0)  -->
<svg version="1.1" id="Layer_1" xmlns="http://www.w3.org/2000/svg" xmlns:xlink="http://www.w3.org/1999/xlink" x="0px" y="0px"
	 viewBox="0 0 255.1 255.1" style="enable-background:new 0 0 255.1 255.1;" xml:space="preserve">
<style type="text/css">
	.st0{fill:#FCCB55;}
	.st1{fill:#D6A326;}
	.st2{fill:#EDB32B;}
	.st3{fill:#FFDC8F;}
</style>
<g>
	<g>
		<polygon class="st0" points="47.6,119.5 135.2,68.6 167.1,86.4 79.9,137 		"/>
		<polygon class="st1" points="86.6,167.7 79.9,137 47.6,119.5 40.2,141.4 		"/>
		<polygon class="st2" points="174.6,117.3 167.1,86.4 79.9,137 86.6,167.7 		"/>
		<polygon class="st3" points="52.3,119.5 135.2,68.6 79.9,137 		"/>
	</g>
	<g>
		<polygon class="st0" points="95.6,146.8 183.2,95.9 215.2,113.7 127.9,164.3 		"/>
		<polygon class="st1" points="134.6,195 127.9,164.3 95.6,146.8 88.2,168.7 		"/>
		<polygon class="st2" points="222.6,144.5 215.2,113.7 127.9,164.3 134.6,195 		"/>
		<polygon class="st3" points="100.3,146.8 183.2,95.9 127.9,164.3 		"/>
	</g>
	<g>
		<polygon class="st0" points="83.8,102.7 171.4,51.8 203.3,69.6 116.1,120.2 		"/>
		<polygon class="st1" points="122.8,150.9 116.1,120.2 83.8,102.7 76.4,124.6 		"/>
		<polygon class="st2" points="210.8,100.4 203.3,69.6 116.1,120.2 122.8,150.9 		"/>
		<polygon class="st3" points="88.5,102.7 171.4,51.8 116.1,120.2 		"/>
	</g>
</g>
</svg>
