<?xml version="1.0" encoding="utf-8"?>
<!-- Generator: Adobe Illustrator 16.0.0, SVG Export Plug-In . SVG Version: 6.00 Build 0)  -->
<!DOCTYPE svg PUBLIC "-//W3C//DTD SVG 1.1//EN" "http://www.w3.org/Graphics/SVG/1.1/DTD/svg11.dtd">
<svg version="1.1" id="Layer_1" xmlns="http://www.w3.org/2000/svg" xmlns:xlink="http://www.w3.org/1999/xlink" x="0px" y="0px"
	 width="255.12px" height="255.12px" viewBox="0 0 255.12 255.12" enable-background="new 0 0 255.12 255.12" xml:space="preserve">
<g>
	<polygon fill="#FAFAFA" points="70.577,57.36 53.667,57.36 132.49,110.515 228.715,110.47 228.715,101.196 136.109,101.196 	"/>
	<polygon fill="#FAFAFA" points="53.518,191.36 70.395,191.36 136.033,147.333 228.715,147.479 228.715,138.221 132.645,138.165 	
		"/>
	<path fill="#E23F29" d="M211.715,57.36H70.577l65.533,43.836h92.605V74.36C228.715,64.971,221.104,57.36,211.715,57.36z"/>
	<path fill="#FBB516" d="M28.718,74.298c0,0.021-0.003,0.041-0.003,0.062v11.238l57.947,38.703l-57.947,38.92v11.087l74.353-50.007
		L28.718,74.298z"/>
	<path fill="#087D5A" d="M53.667,57.36h-7.951c-7.386,0-13.653,4.718-15.999,11.299l84.327,55.527L30.031,180.92
		c2.566,6.131,8.621,10.44,15.685,10.44h7.803l79.126-53.195l96.07,0.056V110.47l-96.225,0.045L53.667,57.36z"/>
	<path fill="#087D5A" d="M29.716,68.659c-0.63,1.766-0.99,3.658-0.998,5.639l74.35,50.004l-74.353,50.007v0.052
		c0,2.325,0.47,4.541,1.315,6.56l84.013-56.733L29.716,68.659z"/>
	<path fill="#2B3382" d="M70.395,191.36h141.32c9.389,0,17-7.611,17-17v-26.881l-92.682-0.146L70.395,191.36z"/>
	<polygon fill="#010101" points="28.715,85.599 28.715,163.222 86.663,124.302 	"/>
</g>
</svg>
